# Blender v2.78 (sub 0) OBJ File: 'rocks.blend'
# www.blender.org
mtllib rock05.mtl
o Cube.013_Cube.006
v 0.375878 1.581509 0.050332
v -0.421707 1.581509 0.050333
v -0.421708 1.581509 -0.747252
v 0.375877 1.581509 -0.747253
v -0.022915 0.019881 -0.348460
v -0.082066 3.648788 -0.272570
v -1.253116 0.026209 -0.738522
v -1.073390 1.402273 -0.586890
v 0.946563 0.935930 0.632598
v 0.442067 0.935930 0.632599
v 0.442066 0.935930 0.128103
v 0.946563 0.935930 0.128102
v 0.760886 0.026209 0.447996
v 0.442250 2.603244 0.260212
v 0.103235 1.155919 0.967258
v -0.554012 1.155919 0.967259
v -0.554014 1.155919 0.310012
v 0.103233 1.155919 0.310011
v -0.260989 0.006642 0.812189
v -0.216537 2.973557 0.383000
v -0.722329 0.705482 0.676820
v -1.420570 0.705482 0.676821
v -1.420571 0.705482 -0.021419
v -0.722330 0.705482 -0.021420
v -1.093088 0.025684 0.341654
v -0.909563 2.232266 0.261052
v -1.127476 0.377662 1.587473
v -1.678797 0.377662 1.587474
v -1.678798 0.377662 1.036152
v -1.127476 0.377662 1.036151
v -1.403137 0.026209 1.311812
v -1.194280 1.703514 1.065316
v -0.194681 0.935930 -0.484477
v -0.699178 0.935930 -0.484476
v -0.699178 0.935930 -0.988972
v -0.194682 0.935930 -0.988973
v -0.486286 0.026209 -0.772762
v -0.392033 2.603244 -0.556402
v 1.078296 0.000339 -0.276710
v 0.805315 1.381427 -0.214752
v 0.338865 0.410288 0.013319
v 0.575274 1.581509 -0.348461
v 0.213495 2.752730 -0.112052
v -0.022914 1.581509 0.249729
v -0.384694 0.410288 0.013320
v -0.259324 2.752730 -0.112051
v -0.621104 1.581509 -0.348459
v -0.384695 0.410288 -0.710239
v -0.259324 2.752730 -0.584869
v -0.022916 1.581509 -0.946649
v 0.338864 0.410288 -0.710240
v 0.213494 2.752730 -0.584870
v -1.046370 0.067344 -0.531776
v -1.046370 0.314151 -0.531776
v -1.459861 0.067344 -0.531776
v -1.459861 0.314151 -0.531776
v -1.459862 0.067344 -0.945267
v -1.459862 0.314151 -0.945267
v -1.046370 0.067344 -0.945268
v -1.046370 0.314151 -0.945268
v 0.945136 0.253639 0.631977
v 1.072687 0.935930 0.380350
v 0.821867 1.618221 0.507095
v 0.694315 0.935930 0.758722
v 0.543351 0.253639 0.631978
v 0.466907 1.618221 0.507096
v 0.315943 0.935930 0.380351
v 0.543350 0.253639 0.230192
v 0.466907 1.618221 0.152136
v 0.694314 0.935930 0.001978
v 0.945135 0.253639 0.230192
v 0.821866 1.618221 0.152136
v 0.023269 0.293961 1.044158
v 0.267546 1.155919 0.638634
v 0.018889 2.017878 0.726047
v -0.225389 1.155919 1.131570
v -0.527446 0.293961 1.044159
v -0.416267 2.017878 0.726047
v -0.718325 1.155919 0.638636
v -0.527447 0.293961 0.493444
v -0.416268 2.017878 0.290892
v -0.225390 1.155919 0.145700
v 0.023268 0.293961 0.493443
v 0.018888 2.017878 0.290891
v -0.822236 0.195633 0.603608
v -0.547770 0.705482 0.327700
v -0.796983 1.215330 0.575473
v -1.071449 0.705482 0.851381
v -1.353121 0.195633 0.603609
v -1.313459 1.215330 0.575474
v -1.595131 0.705482 0.327701
v -1.353122 0.195633 0.072724
v -1.313460 1.215330 0.058998
v -1.071451 0.705482 -0.195980
v -0.822236 0.195633 0.072723
v -0.796984 1.215330 0.058997
v -1.196391 0.114072 1.518558
v -0.989645 0.377662 1.311812
v -1.196391 0.641252 1.518558
v -1.403136 0.377662 1.725304
v -1.609882 0.114072 1.518558
v -1.609882 0.641252 1.518558
v -1.816628 0.377662 1.311813
v -1.609883 0.114072 1.105067
v -1.609883 0.641252 1.105067
v -1.403137 0.377662 0.898321
v -1.196391 0.114072 1.105066
v -1.196391 0.641252 1.105066
v -0.275554 0.253639 -0.562860
v -0.068558 0.935930 -0.736725
v -0.239933 1.618221 -0.532217
v -0.446929 0.935930 -0.358352
v -0.677339 0.253639 -0.562860
v -0.594893 1.618221 -0.532216
v -0.825302 0.935930 -0.736724
v -0.677340 0.253639 -0.964645
v -0.594893 1.618221 -0.887176
v -0.446931 0.935930 -1.115097
v -0.275555 0.253639 -0.964645
v -0.239934 1.618221 -0.887176
v 1.285042 0.041473 -0.069964
v 1.285042 0.288281 -0.069964
v 0.871550 0.041473 -0.069963
v 0.871550 0.288281 -0.069963
v 0.871550 0.041473 -0.483455
v 0.871550 0.288281 -0.483455
v 1.285041 0.041473 -0.483456
v 1.285041 0.288281 -0.483456
v 0.475908 0.713938 -0.348461
v 0.364468 2.449080 -0.348461
v -0.022914 0.713938 0.150363
v -0.022914 2.449080 0.038922
v -0.022916 0.713938 -0.847283
v -0.022915 2.449080 -0.735843
v -0.521738 0.713938 -0.348459
v -0.410297 2.449080 -0.348460
v -0.946826 0.099337 -0.738522
v -0.946826 0.282158 -0.738522
v -1.253115 0.099337 -0.432232
v -1.253115 0.282158 -0.432232
v -1.253116 0.099337 -1.044812
v -1.253116 0.282158 -1.044812
v -1.559406 0.099337 -0.738521
v -1.559406 0.282158 -0.738521
v 1.021980 0.430529 0.417931
v 0.927201 1.441331 0.342769
v 0.731299 0.430529 0.708613
v 0.657331 1.441331 0.612639
v 0.731298 0.430529 0.127250
v 0.657331 1.441331 0.072899
v 0.440617 0.430529 0.417932
v 0.387461 1.441331 0.342770
v 0.145650 0.517432 0.735054
v 0.133846 1.794407 0.542215
v -0.245166 0.517432 1.125871
v -0.205611 1.794407 0.881673
v -0.245168 0.517432 0.344237
v -0.205612 1.794407 0.202759
v -0.635984 0.517432 0.735055
v -0.545069 1.794407 0.542217
v -0.692358 0.327816 0.335452
v -0.674720 1.083147 0.319948
v -1.083471 0.327816 0.726566
v -1.059429 1.083147 0.704658
v -1.083472 0.327816 -0.055661
v -1.059430 1.083147 -0.064761
v -1.474585 0.327816 0.335453
v -1.444139 1.083147 0.319949
v -1.096847 0.182410 1.311812
v -1.096847 0.572914 1.311812
v -1.403136 0.182410 1.618103
v -1.403136 0.572914 1.618103
v -1.403137 0.182410 1.005522
v -1.403137 0.572914 1.005522
v -1.709427 0.182410 1.311813
v -1.709427 0.572914 1.311813
v -0.178113 0.430529 -0.756746
v -0.155196 1.441331 -0.716704
v -0.468794 0.430529 -0.466064
v -0.425065 1.441331 -0.446834
v -0.468795 0.430529 -1.047427
v -0.425066 1.441331 -0.986574
v -0.759476 0.430529 -0.756745
v -0.694936 1.441331 -0.716703
v 1.384586 0.073467 -0.276710
v 1.384586 0.256288 -0.276710
v 1.078296 0.073467 0.029581
v 1.078296 0.256288 0.029581
v 1.078295 0.073467 -0.583000
v 1.078295 0.256288 -0.583000
v 0.772006 0.073467 -0.276709
v 0.772006 0.256288 -0.276709
vn 0.9171 0.0621 0.3938
vn 0.8953 -0.4223 0.1416
vn 0.9744 -0.2248 0.0000
vn 0.9977 0.0671 0.0000
vn 0.9702 0.2424 0.0000
vn 0.9433 0.3154 0.1039
vn 0.3938 0.0621 0.9171
vn 0.1098 0.2403 0.9645
vn 0.0000 0.2215 0.9751
vn 0.0000 0.0671 0.9977
vn 0.0000 -0.2248 0.9744
vn 0.1416 -0.4223 0.8953
vn -0.3938 0.0621 0.9171
vn -0.1416 -0.4223 0.8953
vn -0.1057 0.2408 0.9648
vn -0.9171 0.0621 0.3938
vn -0.9624 0.2504 0.1049
vn -0.9745 0.2242 0.0000
vn -0.9977 0.0671 0.0000
vn -0.9744 -0.2248 0.0000
vn -0.8953 -0.4223 0.1416
vn -0.9171 0.0621 -0.3938
vn -0.8953 -0.4223 -0.1416
vn -0.9620 0.2497 -0.1102
vn -0.3938 0.0621 -0.9171
vn -0.1044 0.3240 -0.9403
vn 0.0000 0.2449 -0.9695
vn 0.0000 0.0671 -0.9977
vn 0.0000 -0.2248 -0.9744
vn -0.1416 -0.4223 -0.8953
vn 0.3938 0.0621 -0.9171
vn 0.1416 -0.4223 -0.8953
vn 0.1085 0.3225 -0.9403
vn 0.9171 0.0621 -0.3938
vn 0.9433 0.3136 -0.1092
vn 0.8953 -0.4223 -0.1416
vn 0.0000 -0.5836 0.8120
vn -0.8120 -0.5836 0.0000
vn -0.0000 -0.5836 -0.8120
vn 0.8120 -0.5836 -0.0000
vn -0.9646 0.2639 0.0000
vn 0.0000 0.2513 0.9679
vn 0.9372 0.3488 -0.0000
vn -0.0000 0.3602 -0.9329
vn 0.0000 0.0572 0.9984
vn 0.0000 -0.5126 0.8586
vn 0.2963 -0.5849 0.7550
vn 0.2033 0.0765 0.9761
vn -0.7194 0.1841 0.6698
vn -0.5557 -0.6184 0.5557
vn -0.9855 0.1695 0.0000
vn -0.8586 -0.5126 0.0000
vn -0.9517 0.2177 -0.2167
vn -0.7550 -0.5849 -0.2963
vn 0.0000 0.1608 -0.9870
vn 0.0000 -0.5126 -0.8586
vn -0.2963 -0.5849 -0.7550
vn -0.2185 0.2046 -0.9542
vn 0.6702 0.1705 -0.7223
vn 0.5557 -0.6184 -0.5557
vn 0.8586 -0.5126 0.0000
vn 0.9989 0.0469 0.0000
vn 0.9805 0.1963 0.0000
vn 0.9420 0.2659 0.2049
vn 0.7550 -0.5849 0.2963
vn -0.1177 -0.9860 0.1177
vn 0.1177 -0.9860 -0.1177
vn -0.6165 0.3639 0.6982
vn 0.7068 0.3346 -0.6232
vn 0.9767 0.0622 0.2054
vn 0.9135 0.1106 0.3914
vn 0.9126 -0.3835 0.1417
vn 0.9799 -0.1994 0.0061
vn 0.9960 0.0893 -0.0013
vn 0.9598 0.2806 -0.0067
vn 0.9285 0.3533 0.1141
vn 0.3914 0.1114 0.9135
vn 0.1197 0.2842 0.9513
vn -0.0065 0.2579 0.9662
vn -0.0013 0.0904 0.9959
vn 0.0060 -0.1984 0.9801
vn 0.1419 -0.3826 0.9129
vn -0.3933 0.0676 0.9169
vn -0.1492 -0.3908 0.9083
vn -0.1040 0.2713 0.9569
vn -0.9189 -0.0267 0.3936
vn -0.9894 0.0737 0.1254
vn -0.9957 0.0919 -0.0059
vn -0.9989 -0.0468 0.0009
vn -0.9471 -0.3209 0.0069
vn -0.8614 -0.4905 0.1321
vn -0.9167 -0.0714 -0.3931
vn -0.8561 -0.4979 -0.1383
vn -0.9917 0.0546 -0.1168
vn -0.3931 -0.0722 -0.9167
vn -0.1106 0.1368 -0.9844
vn -0.0058 0.1196 -0.9928
vn 0.0009 -0.0479 -0.9988
vn 0.0068 -0.3218 -0.9467
vn -0.1381 -0.4987 -0.8557
vn 0.3936 -0.0282 -0.9189
vn 0.1320 -0.4914 -0.8609
vn 0.1283 0.1514 -0.9801
vn 0.9170 0.0662 -0.3933
vn 0.9337 0.3414 -0.1075
vn 0.9079 -0.3918 -0.1492
vn 0.0000 -0.5418 0.8405
vn -0.7839 -0.6209 0.0000
vn -0.0000 -0.6215 -0.7834
vn 0.8401 -0.5425 -0.0000
vn -0.9989 0.0471 0.0000
vn 0.0000 0.2903 0.9569
vn 0.9228 0.3852 -0.0000
vn -0.0000 0.1592 -0.9873
vn 0.9180 0.0546 0.3928
vn 0.8745 -0.4656 0.1362
vn 0.9578 -0.2871 0.0139
vn 0.9999 0.0129 0.0002
vn 0.9796 0.2002 -0.0126
vn 0.9552 0.2688 0.1241
vn 0.3887 0.1693 0.9057
vn 0.1080 0.3711 0.9223
vn 0.0029 0.3503 0.9366
vn 0.0011 0.1796 0.9837
vn -0.0024 -0.1355 0.9908
vn 0.1579 -0.3324 0.9298
vn -0.3872 0.1870 0.9028
vn -0.1543 -0.3293 0.9315
vn -0.1075 0.3769 0.9200
vn -0.9135 0.1124 0.3909
vn -0.9542 0.2734 0.1213
vn -0.9707 0.2397 -0.0132
vn -0.9975 0.0701 -0.0017
vn -0.9716 -0.2364 0.0133
vn -0.8963 -0.4208 0.1401
vn -0.9185 0.0225 -0.3947
vn -0.8869 -0.4350 -0.1554
vn -0.9641 0.2427 -0.1082
vn -0.3920 -0.0940 -0.9151
vn -0.1240 0.1274 -0.9841
vn 0.0023 0.0813 -0.9967
vn -0.0008 -0.0984 -0.9951
vn -0.0031 -0.3815 -0.9243
vn -0.1334 -0.5472 -0.8263
vn 0.3916 -0.1123 -0.9133
vn 0.1359 -0.5497 -0.8242
vn 0.1242 0.1198 -0.9850
vn 0.9182 -0.0358 -0.3945
vn 0.9645 0.2398 -0.1105
vn 0.8647 -0.4792 -0.1504
vn 0.0000 -0.5233 0.8521
vn -0.8061 -0.5918 0.0000
vn -0.0000 -0.6755 -0.7373
vn 0.7824 -0.6228 -0.0000
vn -0.9633 0.2684 0.0000
vn 0.0000 0.3895 0.9210
vn 0.9586 0.2848 -0.0000
vn -0.0000 0.1511 -0.9885
vn 0.9190 -0.0180 0.3938
vn 0.7791 -0.5999 0.1818
vn 0.8747 -0.4846 0.0025
vn 0.9998 -0.0191 0.0001
vn 0.9704 0.2415 -0.0024
vn 0.9609 0.2248 0.1616
vn 0.3939 0.0200 0.9190
vn 0.1448 0.3339 0.9314
vn 0.0038 0.3248 0.9458
vn 0.0002 0.0256 0.9997
vn -0.0039 -0.4527 0.8916
vn 0.1900 -0.5727 0.7974
vn -0.3937 0.0335 0.9186
vn -0.1877 -0.5696 0.8002
vn -0.1584 0.3399 0.9270
vn -0.9183 0.0417 0.3936
vn -0.9119 0.3811 0.1524
vn -0.9361 0.3517 -0.0024
vn -0.9994 0.0352 -0.0002
vn -0.8951 -0.4457 0.0025
vn -0.8041 -0.5634 0.1895
vn -0.9186 0.0330 -0.3937
vn -0.8024 -0.5654 -0.1910
vn -0.9142 0.3777 -0.1469
vn -0.3939 -0.0050 -0.9191
vn -0.1634 0.2735 -0.9479
vn 0.0037 0.2720 -0.9623
vn -0.0001 -0.0094 -0.9999
vn -0.0039 -0.4778 -0.8784
vn -0.1828 -0.5932 -0.7841
vn 0.3939 -0.0185 -0.9190
vn 0.1849 -0.5961 -0.7813
vn 0.1489 0.2650 -0.9527
vn 0.9188 -0.0267 -0.3938
vn 0.9635 0.2179 -0.1554
vn 0.7774 -0.6018 -0.1832
vn 0.0000 -0.7866 0.6174
vn -0.6208 -0.7839 0.0000
vn -0.0000 -0.7960 -0.6053
vn 0.6020 -0.7985 -0.0000
vn -0.9067 0.4218 0.0000
vn 0.0000 0.3601 0.9329
vn 0.9797 0.2002 -0.0000
vn -0.0000 0.2728 -0.9621
vn 0.9191 -0.0000 0.3939
vn 0.7070 -0.6782 0.2006
vn 0.7912 -0.6116 0.0000
vn 1.0000 0.0000 0.0000
vn 0.9545 0.2983 0.0000
vn 0.9543 0.2365 0.1826
vn 0.3939 0.0000 0.9191
vn 0.1528 0.4223 0.8935
vn 0.0000 0.4198 0.9076
vn 0.0000 0.0000 1.0000
vn 0.0000 -0.6116 0.7912
vn 0.2006 -0.6782 0.7070
vn -0.3939 0.0000 0.9191
vn -0.2006 -0.6782 0.7070
vn -0.1693 0.4199 0.8917
vn -0.9191 -0.0000 0.3939
vn -0.8976 0.4060 0.1715
vn -0.9116 0.4110 0.0000
vn -1.0000 0.0000 0.0000
vn -0.7912 -0.6116 0.0000
vn -0.7070 -0.6782 0.2006
vn -0.9191 0.0000 -0.3939
vn -0.7070 -0.6782 -0.2006
vn -0.9004 0.4076 -0.1518
vn -0.3939 0.0000 -0.9191
vn -0.1822 0.2188 -0.9586
vn 0.0000 0.2872 -0.9579
vn 0.0000 0.0000 -1.0000
vn 0.0000 -0.6116 -0.7912
vn -0.2006 -0.6782 -0.7070
vn 0.3939 0.0000 -0.9191
vn 0.2006 -0.6782 -0.7070
vn 0.1632 0.2016 -0.9658
vn 0.9191 0.0000 -0.3939
vn 0.9626 0.2185 -0.1604
vn 0.7070 -0.6782 -0.2006
vn 0.0000 -0.8908 0.4543
vn -0.4543 -0.8908 0.0000
vn -0.0000 -0.8908 -0.4543
vn 0.4543 -0.8908 -0.0000
vn -0.9100 0.4146 0.0000
vn 0.0000 0.4392 0.8984
vn 0.9963 0.0859 -0.0000
vn -0.0000 0.0528 -0.9986
vn 0.9186 -0.0329 0.3938
vn 0.8686 -0.4754 0.1395
vn 0.9547 -0.2975 -0.0036
vn 0.9998 -0.0190 -0.0002
vn 0.9882 0.1528 0.0032
vn 0.9777 0.1780 0.1119
vn 0.3939 -0.0306 0.9187
vn 0.1177 0.1010 0.9879
vn 0.0035 0.1287 0.9917
vn -0.0002 -0.0156 0.9999
vn -0.0039 -0.2945 0.9556
vn 0.1400 -0.4731 0.8698
vn -0.3938 -0.0045 0.9192
vn -0.1362 -0.4686 0.8728
vn -0.1214 0.1116 0.9863
vn -0.9180 0.0486 0.3936
vn -0.9651 0.2384 0.1081
vn -0.9738 0.2274 0.0035
vn -0.9981 0.0617 0.0004
vn -0.9742 -0.2256 -0.0034
vn -0.8992 -0.4125 0.1458
vn -0.9167 0.0724 -0.3929
vn -0.9018 -0.4081 -0.1420
vn -0.9619 0.2456 -0.1199
vn -0.3929 0.0701 -0.9169
vn -0.1146 0.3145 -0.9423
vn 0.0038 0.2486 -0.9686
vn 0.0005 0.0583 -0.9983
vn -0.0037 -0.2287 -0.9735
vn -0.1416 -0.4107 -0.9007
vn 0.3937 0.0441 -0.9182
vn 0.1458 -0.4155 -0.8979
vn 0.1115 0.3068 -0.9452
vn 0.9191 -0.0090 -0.3938
vn 0.9749 0.1849 -0.1244
vn 0.8714 -0.4713 -0.1361
vn 0.0000 -0.6044 0.7967
vn -0.8286 -0.5599 0.0000
vn -0.0000 -0.5619 -0.8272
vn 0.7953 -0.6062 -0.0000
vn -0.9677 0.2523 0.0000
vn 0.0000 0.0939 0.9956
vn 0.9799 0.1997 -0.0000
vn -0.0000 0.3472 -0.9378
vn 0.0000 0.0890 0.9960
vn 0.2270 0.1078 0.9679
vn -0.1969 0.1224 0.9727
vn -0.2963 -0.5849 0.7550
vn -0.9999 0.0123 0.0000
vn -0.7550 -0.5849 0.2963
vn -0.9770 0.0158 0.2127
vn -0.9754 0.0154 -0.2199
vn 0.0000 0.1314 -0.9913
vn -0.1956 0.1824 -0.9636
vn 0.2247 0.1618 -0.9609
vn 0.2963 -0.5849 -0.7550
vn 0.7550 -0.5849 -0.2963
vn 0.9424 0.2593 -0.2112
vn 0.0000 -0.9727 0.2322
vn -0.2322 -0.9727 0.0000
vn -0.0000 -0.9727 -0.2322
vn 0.2322 -0.9727 -0.0000
vn -0.9996 0.0296 0.0000
vn 0.0000 0.2122 0.9772
vn 0.8891 0.4577 -0.0000
vn -0.0000 0.3111 -0.9504
usemtl Material
s 1
f 1//1 41//2 129//3 42//4
f 1//1 42//4 130//5 43//6
f 1//7 43//8 132//9 44//10
f 1//7 44//10 131//11 41//12
f 2//13 45//14 131//11 44//10
f 2//13 44//10 132//9 46//15
f 2//16 46//17 136//18 47//19
f 2//16 47//19 135//20 45//21
f 3//22 48//23 135//20 47//19
f 3//22 47//19 136//18 49//24
f 3//25 49//26 134//27 50//28
f 3//25 50//28 133//29 48//30
f 4//31 51//32 133//29 50//28
f 4//31 50//28 134//27 52//33
f 4//34 52//35 130//5 42//4
f 4//34 42//4 129//3 51//36
f 5//37 41//12 131//11 45//14
f 5//38 45//21 135//20 48//23
f 5//39 48//30 133//29 51//32
f 5//40 51//36 129//3 41//2
f 6//41 49//24 136//18 46//17
f 6//42 46//15 132//9 43//8
f 6//43 43//6 130//5 52//35
f 6//44 52//33 134//27 49//26
f 140//45 139//46 53//47 54//48
f 140//45 56//49 55//50 139//46
f 144//51 143//52 55//50 56//49
f 144//51 58//53 57//54 143//52
f 142//55 141//56 57//57 58//58
f 142//55 60//59 59//60 141//56
f 137//61 59//60 60//59 138//62
f 185//61 186//63 122//64 121//65
f 7//66 53//47 139//46 55//50
f 7//66 55//50 143//52 57//54
f 7//67 57//57 141//56 59//60
f 7//67 59//60 137//61 53//65
f 8//68 58//53 144//51 56//49
f 8//68 56//49 140//45 54//48
f 8//69 54//70 138//62 60//59
f 8//69 60//59 142//55 58//58
f 9//71 61//72 145//73 62//74
f 9//71 62//74 146//75 63//76
f 9//77 63//78 148//79 64//80
f 9//77 64//80 147//81 61//82
f 10//83 65//84 147//81 64//80
f 10//83 64//80 148//79 66//85
f 10//86 66//87 152//88 67//89
f 10//86 67//89 151//90 65//91
f 11//92 68//93 151//90 67//89
f 11//92 67//89 152//88 69//94
f 11//95 69//96 150//97 70//98
f 11//95 70//98 149//99 68//100
f 12//101 71//102 149//99 70//98
f 12//101 70//98 150//97 72//103
f 12//104 72//105 146//75 62//74
f 12//104 62//74 145//73 71//106
f 13//107 61//82 147//81 65//84
f 13//108 65//91 151//90 68//93
f 13//109 68//100 149//99 71//102
f 13//110 71//106 145//73 61//72
f 14//111 69//94 152//88 66//87
f 14//112 66//85 148//79 63//78
f 14//113 63//76 146//75 72//105
f 14//114 72//103 150//97 69//96
f 15//115 73//116 153//117 74//118
f 15//115 74//118 154//119 75//120
f 15//121 75//122 156//123 76//124
f 15//121 76//124 155//125 73//126
f 16//127 77//128 155//125 76//124
f 16//127 76//124 156//123 78//129
f 16//130 78//131 160//132 79//133
f 16//130 79//133 159//134 77//135
f 17//136 80//137 159//134 79//133
f 17//136 79//133 160//132 81//138
f 17//139 81//140 158//141 82//142
f 17//139 82//142 157//143 80//144
f 18//145 83//146 157//143 82//142
f 18//145 82//142 158//141 84//147
f 18//148 84//149 154//119 74//118
f 18//148 74//118 153//117 83//150
f 19//151 73//126 155//125 77//128
f 19//152 77//135 159//134 80//137
f 19//153 80//144 157//143 83//146
f 19//154 83//150 153//117 73//116
f 20//155 81//138 160//132 78//131
f 20//156 78//129 156//123 75//122
f 20//157 75//120 154//119 84//149
f 20//158 84//147 158//141 81//140
f 21//159 85//160 161//161 86//162
f 21//159 86//162 162//163 87//164
f 21//165 87//166 164//167 88//168
f 21//165 88//168 163//169 85//170
f 22//171 89//172 163//169 88//168
f 22//171 88//168 164//167 90//173
f 22//174 90//175 168//176 91//177
f 22//174 91//177 167//178 89//179
f 23//180 92//181 167//178 91//177
f 23//180 91//177 168//176 93//182
f 23//183 93//184 166//185 94//186
f 23//183 94//186 165//187 92//188
f 24//189 95//190 165//187 94//186
f 24//189 94//186 166//185 96//191
f 24//192 96//193 162//163 86//162
f 24//192 86//162 161//161 95//194
f 25//195 85//170 163//169 89//172
f 25//196 89//179 167//178 92//181
f 25//197 92//188 165//187 95//190
f 25//198 95//194 161//161 85//160
f 26//199 93//182 168//176 90//175
f 26//200 90//173 164//167 87//166
f 26//201 87//164 162//163 96//193
f 26//202 96//191 166//185 93//184
f 27//203 97//204 169//205 98//206
f 27//203 98//206 170//207 99//208
f 27//209 99//210 172//211 100//212
f 27//209 100//212 171//213 97//214
f 28//215 101//216 171//213 100//212
f 28//215 100//212 172//211 102//217
f 28//218 102//219 176//220 103//221
f 28//218 103//221 175//222 101//223
f 29//224 104//225 175//222 103//221
f 29//224 103//221 176//220 105//226
f 29//227 105//228 174//229 106//230
f 29//227 106//230 173//231 104//232
f 30//233 107//234 173//231 106//230
f 30//233 106//230 174//229 108//235
f 30//236 108//237 170//207 98//206
f 30//236 98//206 169//205 107//238
f 31//239 97//214 171//213 101//216
f 31//240 101//223 175//222 104//225
f 31//241 104//232 173//231 107//234
f 31//242 107//238 169//205 97//204
f 32//243 105//226 176//220 102//219
f 32//244 102//217 172//211 99//210
f 32//245 99//208 170//207 108//237
f 32//246 108//235 174//229 105//228
f 33//247 109//248 177//249 110//250
f 33//247 110//250 178//251 111//252
f 33//253 111//254 180//255 112//256
f 33//253 112//256 179//257 109//258
f 34//259 113//260 179//257 112//256
f 34//259 112//256 180//255 114//261
f 34//262 114//263 184//264 115//265
f 34//262 115//265 183//266 113//267
f 35//268 116//269 183//266 115//265
f 35//268 115//265 184//264 117//270
f 35//271 117//272 182//273 118//274
f 35//271 118//274 181//275 116//276
f 36//277 119//278 181//275 118//274
f 36//277 118//274 182//273 120//279
f 36//280 120//281 178//251 110//250
f 36//280 110//250 177//249 119//282
f 37//283 109//258 179//257 113//260
f 37//284 113//267 183//266 116//269
f 37//285 116//276 181//275 119//278
f 37//286 119//282 177//249 109//248
f 38//287 117//270 184//264 114//263
f 38//288 114//261 180//255 111//254
f 38//289 111//252 178//251 120//281
f 38//290 120//279 182//273 117//272
f 188//291 187//46 121//47 122//292
f 188//291 124//293 123//294 187//46
f 192//295 191//52 123//296 124//297
f 192//295 126//298 125//54 191//52
f 190//299 189//56 125//57 126//300
f 190//299 128//301 127//302 189//56
f 185//61 127//303 128//304 186//63
f 39//305 121//47 187//46 123//294
f 39//306 123//296 191//52 125//54
f 39//307 125//57 189//56 127//302
f 39//308 127//303 185//61 121//65
f 40//309 126//298 192//295 124//297
f 40//310 124//293 188//291 122//292
f 40//311 122//64 186//63 128//304
f 40//312 128//301 190//299 126//300
f 137//61 138//62 54//70 53//65
