mtllib Materials_Modular_Village.mtl
o object1
g object1
v 0.50000000 1.10000000 -0.45000000
v 0.50000000 1.00000000 -0.45000000
v 0.50000000 1.00000000 -0.55000000
v 0.50000000 1.10000000 -0.55000000
v -0.50000000 1.00000000 -0.45000000
v -0.50000000 1.10000000 -0.45000000
v -0.50000000 1.00000000 -0.55000000
v -0.50000000 1.10000000 -0.55000000
vt 1.00000000 1.00000000
vt 0.00000000 1.00000000
vt 0.00000000 0.00000000
vt 1.00000000 0.00000000
vt 1.00000000 1.00000000
vt 0.00000000 1.00000000
vt 0.00000000 0.00000000
vt 1.00000000 0.00000000
vt 1.00000000 1.00000000
vt 0.00000000 1.00000000
vt 0.00000000 0.00000000
vt 1.00000000 0.00000000
vt 1.00000000 1.00000000
vt 0.00000000 1.00000000
vt 0.00000000 0.00000000
vt 1.00000000 0.00000000
vt 1.00000000 1.00000000
vt 0.00000000 1.00000000
vt 0.00000000 0.00000000
vt 1.00000000 0.00000000
vt 1.00000000 1.00000000
vt 0.00000000 1.00000000
vt 0.00000000 0.00000000
vt 1.00000000 0.00000000
vn 1.00000000 0.00000000 -0.00000000
vn 1.00000000 0.00000000 -0.00000000
vn 1.00000000 0.00000000 -0.00000000
vn 1.00000000 0.00000000 -0.00000000
vn 0.00000000 0.00000000 1.00000000
vn 0.00000000 0.00000000 1.00000000
vn 0.00000000 0.00000000 1.00000000
vn 0.00000000 0.00000000 1.00000000
vn -1.00000000 0.00000000 0.00000000
vn -1.00000000 0.00000000 0.00000000
vn -1.00000000 0.00000000 0.00000000
vn -1.00000000 0.00000000 0.00000000
vn 0.00000000 1.00000000 0.00000000
vn 0.00000000 1.00000000 0.00000000
vn 0.00000000 1.00000000 0.00000000
vn 0.00000000 1.00000000 0.00000000
vn -0.00000000 0.00000000 -1.00000000
vn -0.00000000 0.00000000 -1.00000000
vn -0.00000000 0.00000000 -1.00000000
vn -0.00000000 0.00000000 -1.00000000
vn 0.00000000 -1.00000000 0.00000000
vn 0.00000000 -1.00000000 0.00000000
vn 0.00000000 -1.00000000 0.00000000
vn 0.00000000 -1.00000000 0.00000000
s 1
usemtl Wood_Dark
f 1/1/1 2/2/2 4/4/4
f 2/2/2 3/3/3 4/4/4
s 2
f 6/8/8 5/7/7 1/5/5
f 5/7/7 2/6/6 1/5/5
s 3
f 8/12/12 7/11/11 6/9/9
f 7/11/11 5/10/10 6/9/9
s 4
f 1/13/13 4/14/14 6/16/16
f 4/14/14 8/15/15 6/16/16
s 5
f 4/17/17 3/18/18 8/20/20
f 3/18/18 7/19/19 8/20/20
s 6
f 5/24/24 7/23/23 3/22/22
f 5/24/24 3/22/22 2/21/21
o object2
g object2
v -0.00000000 0.00000000 -0.55000000
v -0.00000000 1.10000000 -0.65000000
v 0.10000000 0.10000000 -0.55000000
v -0.10000000 0.10000000 -0.55000000
v -0.25000000 1.10000000 -0.65000000
v 0.25000000 1.10000000 -0.65000000
v -0.50000000 1.10000000 -0.65000000
v -0.50000000 1.21180340 -0.55000000
v 0.50000000 1.21180340 -0.55000000
v 0.50000000 1.10000000 -0.65000000
v 0.40000000 0.10000000 -0.55000000
v 0.50000000 0.00000000 -0.55000000
v 0.25000000 0.15000000 -0.55000000
v 0.50000000 1.10000000 -0.55000000
v 0.50000000 1.10000000 0.50000000
v 0.50000000 1.21180340 0.50000000
v -0.50000000 1.10000000 0.50000000
v -0.50000000 1.10000000 -0.55000000
v -0.50000000 1.21180340 0.50000000
v -0.50000000 0.00000000 -0.55000000
v -0.40000000 0.10000000 -0.55000000
v -0.25000000 0.15000000 -0.55000000
vt 1.00000000 0.91666667
vt 0.00000000 1.00000000
vt 0.90909091 0.00000000
vt 1.00000000 0.91666667
vt 0.00000000 1.00000000
vt 0.90909091 0.00000000
vt 0.00000000 1.00000000
vt 0.00000000 0.00000000
vt 1.00000000 0.40000000
vt 0.25000000 0.00000000
vt 0.50000000 0.00000000
vt 0.75000000 0.00000000
vt 1.00000000 0.00000000
vt 1.00000000 1.00000000
vt 0.00000000 1.00000000
vt 0.00000000 0.00000000
vt 0.00000000 1.00000000
vt 0.00000000 0.00000000
vt 1.00000000 0.60000000
vt 1.00000000 0.91666667
vt 0.00000000 1.00000000
vt 0.90909091 0.00000000
vt 1.00000000 1.00000000
vt 0.00000000 0.02339181
vt 0.95000000 0.00000000
vt 0.95000000 1.00000000
vt 0.00000000 0.97660819
vt 1.00000000 0.00000000
vt 0.00000000 0.08695652
vt 0.09226199 0.00000000
vt 1.00000000 0.08695652
vt 0.09226199 0.08695652
vt 0.09226199 1.00000000
vt 0.00000000 1.00000000
vt 1.00000000 1.00000000
vt 0.00000000 1.00000000
vt 0.00000000 0.00000000
vt 1.00000000 0.00000000
vt 1.00000000 1.00000000
vt 0.00000000 1.00000000
vt 0.00000000 0.00000000
vt 1.00000000 0.00000000
vt 1.00000000 1.00000000
vt 0.00000000 1.00000000
vt 0.00000000 0.00000000
vt 1.00000000 0.00000000
vt 0.09226199 0.08695652
vt 0.09226199 1.00000000
vt 0.00000000 1.00000000
vt 0.00000000 0.08695652
vt 0.09226199 0.00000000
vt 1.00000000 0.08695652
vt 1.00000000 0.91666667
vt 0.00000000 1.00000000
vt 0.90909091 0.00000000
vt 0.00000000 1.00000000
vt 0.00000000 0.00000000
vt 1.00000000 0.60000000
vt 1.00000000 1.00000000
vt 0.00000000 0.02339181
vt 0.95000000 0.00000000
vt 0.95000000 1.00000000
vt 0.00000000 0.97660819
vt 1.00000000 0.00000000
vt 0.86363636 0.25000000
vt 0.90909091 0.40000000
vt 1.00000000 0.50000000
vt 0.90909091 0.60000000
vt 0.86363636 0.75000000
vt 0.90909091 0.90000000
vt 1.00000000 1.00000000
vt 0.00000000 1.00000000
vt 0.00000000 0.00000000
vt 1.00000000 0.00000000
vt 0.90909091 0.10000000
vt 0.00000000 1.00000000
vt 0.00000000 0.00000000
vt 1.00000000 0.40000000
vn 0.09016696 -0.09016696 -0.99183660
vn 0.09016696 -0.09016696 -0.99183660
vn 0.09016696 -0.09016696 -0.99183660
vn -0.09016696 -0.09016696 -0.99183660
vn -0.09016696 -0.09016696 -0.99183660
vn -0.09016696 -0.09016696 -0.99183660
vn 0.00000000 -0.09950372 -0.99503719
vn 0.00000000 -0.09950372 -0.99503719
vn 0.00000000 -0.09950372 -0.99503719
vn 0.00000000 0.66666667 -0.74535599
vn 0.00000000 0.66666667 -0.74535599
vn 0.00000000 0.66666667 -0.74535599
vn 0.00000000 0.66666667 -0.74535599
vn 0.00000000 0.66666667 -0.74535599
vn 0.00000000 0.66666667 -0.74535599
vn 0.00000000 0.66666667 -0.74535599
vn 0.00000000 -0.09950372 -0.99503719
vn 0.00000000 -0.09950372 -0.99503719
vn 0.00000000 -0.09950372 -0.99503719
vn -0.09016696 -0.09016696 -0.99183660
vn -0.09016696 -0.09016696 -0.99183660
vn -0.09016696 -0.09016696 -0.99183660
vn -0.03487370 -0.10462111 -0.99390052
vn 0.03487370 -0.10462111 -0.99390052
vn 0.03487370 -0.10462111 -0.99390052
vn 1.00000000 0.00000000 0.00000000
vn 1.00000000 0.00000000 0.00000000
vn 1.00000000 0.00000000 0.00000000
vn 1.00000000 0.00000000 0.00000000
vn 1.00000000 0.00000000 0.00000000
vn 1.00000000 0.00000000 0.00000000
vn 0.00000000 -1.00000000 0.00000000
vn 0.00000000 -1.00000000 0.00000000
vn 0.00000000 -1.00000000 0.00000000
vn 0.00000000 -1.00000000 0.00000000
vn -0.00000000 -0.00000000 1.00000000
vn -0.00000000 -0.00000000 1.00000000
vn -0.00000000 -0.00000000 1.00000000
vn -0.00000000 -0.00000000 1.00000000
vn -0.00000000 1.00000000 -0.00000000
vn -0.00000000 1.00000000 -0.00000000
vn -0.00000000 1.00000000 -0.00000000
vn -0.00000000 1.00000000 -0.00000000
vn -1.00000000 -0.00000000 -0.00000000
vn -1.00000000 -0.00000000 -0.00000000
vn -1.00000000 -0.00000000 -0.00000000
vn -1.00000000 -0.00000000 -0.00000000
vn -1.00000000 -0.00000000 -0.00000000
vn -1.00000000 -0.00000000 -0.00000000
vn 0.09016696 -0.09016696 -0.99183660
vn 0.09016696 -0.09016696 -0.99183660
vn 0.09016696 -0.09016696 -0.99183660
vn 0.00000000 -0.09950372 -0.99503719
vn 0.00000000 -0.09950372 -0.99503719
vn 0.03487370 -0.10462111 -0.99390052
vn -0.03487370 -0.10462111 -0.99390052
vn -0.00000000 -0.00000000 1.00000000
vn -0.00000000 -0.00000000 1.00000000
vn -0.00000000 -0.00000000 1.00000000
vn -0.00000000 -0.00000000 1.00000000
vn -0.00000000 -0.00000000 1.00000000
vn -0.00000000 -0.00000000 1.00000000
vn -0.00000000 -0.00000000 1.00000000
vn -0.00000000 -0.00000000 1.00000000
vn -0.00000000 -0.00000000 1.00000000
vn -0.00000000 -0.00000000 1.00000000
vn -0.00000000 -0.00000000 1.00000000
s 1
usemtl Canvas
f 9/25/25 10/26/26 11/27/27
s 2
f 12/30/30 10/29/29 9/28/28
s 3
f 13/31/31 10/32/32 12/33/33
f 11/102/49 10/101/32 14/100/42
f 21/49/47 14/48/42 19/47/43
f 19/43/43 14/42/42 18/41/41
f 11/52/49 14/51/42 21/50/48
f 30/86/80 13/87/31 12/88/33
f 29/83/78 13/84/31 30/85/79
f 15/80/77 13/81/31 29/82/78
s 4
f 17/39/39 18/40/40 14/34/34
f 10/35/35 16/38/38 17/39/39
f 13/36/36 15/37/37 16/38/38
f 10/35/35 13/36/36 16/38/38
f 17/39/39 14/34/34 10/35/35
s 5
f 19/46/46 18/45/45 20/44/44
s 6
f 17/53/50 24/58/55 23/57/54
f 18/54/51 17/53/50 22/56/53
f 22/56/53 20/55/52 18/54/51
f 17/53/50 23/57/54 22/56/53
s 7
f 26/62/59 22/61/58 25/59/56
f 22/61/58 23/60/57 25/59/56
s 8
f 25/63/60 23/64/61 24/65/62
f 25/63/60 24/65/62 27/66/63
s 9
f 27/67/64 24/68/65 17/69/66
f 27/67/64 17/69/66 16/70/67
s 10
f 25/72/69 27/73/70 16/74/71
f 26/71/68 16/74/71 15/75/72
f 26/71/68 15/75/72 28/76/73
f 26/71/68 25/72/69 16/74/71
s 11
f 28/77/74 15/78/75 29/79/76
s 12
f 12/92/84 9/91/83 11/90/82
f 30/93/85 12/92/84 21/89/81
f 21/89/81 19/99/91 22/97/89
f 22/97/89 28/95/87 29/94/86
f 22/97/89 26/96/88 28/95/87
f 19/99/91 20/98/90 22/97/89
f 29/94/86 30/93/85 22/97/89
f 30/93/85 21/89/81 22/97/89
f 12/92/84 11/90/82 21/89/81
