mtllib Materials_Modular_Village.mtl
o object1
g object1
v 0.45000000 1.10000000 0.50000000
v 0.45000000 1.00000000 0.50000000
v 0.55000000 1.00000000 0.50000000
v 0.55000000 1.10000000 0.50000000
v 0.45000000 1.10000000 -0.45000000
v 0.45000000 1.00000000 -0.45000000
v -0.50000000 1.10000000 -0.45000000
v -0.50000000 1.00000000 -0.45000000
v -0.50000000 1.00000000 -0.55000000
v -0.50000000 1.10000000 -0.55000000
v 0.55000000 1.10000000 -0.55000000
v 0.55000000 1.00000000 -0.55000000
vt 1.00000000 1.00000000
vt 0.00000000 1.00000000
vt 0.00000000 0.00000000
vt 1.00000000 0.00000000
vt 1.00000000 0.00000000
vt 1.00000000 1.00000000
vt 0.00000000 1.00000000
vt 0.00000000 0.00000000
vt 1.00000000 0.00000000
vt 1.00000000 1.00000000
vt 0.00000000 1.00000000
vt 0.00000000 0.00000000
vt 1.00000000 1.00000000
vt 0.00000000 1.00000000
vt 0.00000000 0.00000000
vt 1.00000000 0.00000000
vt 1.00000000 0.00000000
vt 1.00000000 1.00000000
vt 0.00000000 1.00000000
vt 0.00000000 0.00000000
vt 1.00000000 0.00000000
vt 1.00000000 1.00000000
vt 0.90476190 1.00000000
vt 0.90476190 0.09523810
vt 0.00000000 0.09523810
vt 0.00000000 0.00000000
vt 1.00000000 0.00000000
vt 1.00000000 1.00000000
vt 0.00000000 1.00000000
vt 0.00000000 0.00000000
vt 1.00000000 0.00000000
vt 1.00000000 1.00000000
vt 0.90476190 1.00000000
vt 0.90476190 0.09523810
vt 0.00000000 0.09523810
vt 0.00000000 0.00000000
vn 0.00000000 0.00000000 1.00000000
vn 0.00000000 0.00000000 1.00000000
vn 0.00000000 0.00000000 1.00000000
vn 0.00000000 0.00000000 1.00000000
vn -1.00000000 0.00000000 0.00000000
vn -1.00000000 0.00000000 0.00000000
vn -1.00000000 0.00000000 0.00000000
vn -1.00000000 0.00000000 0.00000000
vn 0.00000000 0.00000000 1.00000000
vn 0.00000000 0.00000000 1.00000000
vn 0.00000000 0.00000000 1.00000000
vn 0.00000000 0.00000000 1.00000000
vn -1.00000000 0.00000000 0.00000000
vn -1.00000000 0.00000000 0.00000000
vn -1.00000000 0.00000000 0.00000000
vn -1.00000000 0.00000000 0.00000000
vn -0.00000000 0.00000000 -1.00000000
vn -0.00000000 0.00000000 -1.00000000
vn -0.00000000 0.00000000 -1.00000000
vn -0.00000000 0.00000000 -1.00000000
vn -0.00000000 1.00000000 0.00000000
vn -0.00000000 1.00000000 0.00000000
vn -0.00000000 1.00000000 0.00000000
vn -0.00000000 1.00000000 0.00000000
vn -0.00000000 1.00000000 0.00000000
vn -0.00000000 1.00000000 0.00000000
vn 1.00000000 -0.00000000 -0.00000000
vn 1.00000000 -0.00000000 -0.00000000
vn 1.00000000 0.00000000 -0.00000000
vn 1.00000000 0.00000000 -0.00000000
vn 0.00000000 -1.00000000 0.00000000
vn 0.00000000 -1.00000000 0.00000000
vn 0.00000000 -1.00000000 0.00000000
vn 0.00000000 -1.00000000 0.00000000
vn 0.00000000 -1.00000000 0.00000000
vn 0.00000000 -1.00000000 0.00000000
s 1
usemtl Wood_Dark
f 1/1/1 2/2/2 4/4/4
f 2/2/2 3/3/3 4/4/4
s 2
f 1/5/5 5/6/6 2/8/8
f 5/6/6 6/7/7 2/8/8
s 3
f 8/12/12 6/11/11 7/9/9
f 6/11/11 5/10/10 7/9/9
s 4
f 10/16/16 9/15/15 7/13/13
f 9/15/15 8/14/14 7/13/13
s 5
f 10/17/17 11/18/18 9/20/20
f 11/18/18 12/19/19 9/20/20
s 6
f 5/24/24 1/25/25 4/26/26
f 11/21/21 10/22/22 5/24/24
f 5/24/24 4/26/26 11/21/21
f 10/22/22 7/23/23 5/24/24
s 7
f 4/30/30 3/29/29 11/27/27
f 3/29/29 12/28/28 11/27/27
s 8
f 3/36/36 2/35/35 6/34/34
f 6/34/34 9/32/32 12/31/31
f 6/34/34 8/33/33 9/32/32
f 12/31/31 3/36/36 6/34/34
o object2
g object2
v 0.65000000 1.10000000 0.23750000
v 0.65000000 1.10000000 -0.02500000
v 0.55000000 0.10000000 0.08000000
v 0.55000000 0.15000000 0.23750000
v 0.55000000 0.00000000 -0.02500000
v 0.55000000 0.10000000 -0.13000000
v 0.55000000 0.15000000 -0.28750000
v 0.55000000 0.10000000 -0.44500000
v 0.55000000 0.00000000 -0.55000000
v 0.55000000 1.10000000 -0.55000000
v 0.55000000 1.10000000 0.50000000
v 0.55000000 0.00000000 0.50000000
v 0.55000000 0.10000000 0.39500000
v 0.65000000 1.10000000 -0.28750000
v 0.65000000 1.10000000 -0.55000000
v 0.55000000 1.10000000 -0.65000000
v 0.55000000 1.21180340 -0.55000000
v 0.28750000 1.10000000 -0.65000000
v 0.02500000 1.10000000 -0.65000000
v -0.23750000 1.10000000 -0.65000000
v -0.50000000 1.10000000 -0.65000000
v -0.50000000 1.21180340 -0.55000000
v 0.13000000 0.10000000 -0.55000000
v 0.28750000 0.15000000 -0.55000000
v 0.44500000 0.10000000 -0.55000000
v 0.02500000 0.00000000 -0.55000000
v -0.08000000 0.10000000 -0.55000000
v -0.50000000 1.21180340 0.50000000
v 0.55000000 1.21180340 0.50000000
v -0.50000000 1.10000000 -0.55000000
v -0.50000000 1.10000000 0.50000000
v -0.50000000 0.00000000 -0.55000000
v -0.39500000 0.10000000 -0.55000000
v -0.23750000 0.15000000 -0.55000000
v 0.65000000 1.10000000 0.50000000
vt 0.00000000 1.00000000
vt 0.00000000 0.00000000
vt 1.00000000 0.40000000
vt 0.95000000 1.00000000
vt 0.00000000 0.97660819
vt 1.00000000 0.00000000
vt 0.86363636 0.25000000
vt 0.90909091 0.40000000
vt 1.00000000 0.50000000
vt 0.90909091 0.60000000
vt 0.86363636 0.75000000
vt 0.90909091 0.90000000
vt 1.00000000 1.00000000
vt 0.00000000 1.00000000
vt 0.00000000 0.00000000
vt 1.00000000 0.00000000
vt 0.90909091 0.10000000
vt 1.00000000 0.91666667
vt 0.00000000 1.00000000
vt 0.90909091 0.00000000
vt 0.00000000 1.00000000
vt 0.00000000 0.00000000
vt 1.00000000 0.40000000
vt 0.95000000 1.00000000
vt 0.00000000 0.97660819
vt 1.00000000 0.00000000
vt 1.00000000 1.00000000
vt 0.00000000 0.02339181
vt 0.95000000 0.00000000
vt 0.00000000 1.00000000
vt 0.00000000 0.00000000
vt 1.00000000 0.60000000
vt 1.00000000 0.91666667
vt 0.00000000 1.00000000
vt 0.90909091 0.00000000
vt 1.00000000 1.00000000
vt 0.00000000 0.97297297
vt 1.00000000 0.00000000
vt 1.00000000 0.00000000
vt 1.00000000 1.00000000
vt 0.00000000 0.44444444
vt 0.25000000 0.00000000
vt 0.50000000 0.00000000
vt 0.75000000 0.00000000
vt 1.00000000 0.00000000
vt 1.00000000 1.00000000
vt 0.00000000 1.00000000
vt 0.00000000 0.00000000
vt 0.00000000 1.00000000
vt 0.00000000 0.00000000
vt 1.00000000 0.40000000
vt 0.95000000 1.00000000
vt 0.00000000 0.97660819
vt 1.00000000 0.00000000
vt 1.00000000 1.00000000
vt 0.00000000 0.02339181
vt 0.95000000 0.00000000
vt 1.00000000 0.91666667
vt 0.00000000 1.00000000
vt 0.90909091 0.00000000
vt 1.00000000 0.91666667
vt 0.00000000 1.00000000
vt 0.90909091 0.00000000
vt 0.00000000 1.00000000
vt 0.00000000 0.00000000
vt 1.00000000 0.60000000
vt 1.00000000 1.00000000
vt 0.00000000 1.00000000
vt 0.00000000 0.00000000
vt 1.00000000 0.00000000
vt 0.09226199 0.08695652
vt 0.09226199 1.00000000
vt 0.00000000 1.00000000
vt 0.00000000 0.08695652
vt 0.09226199 0.00000000
vt 1.00000000 0.08695652
vt 1.00000000 0.91666667
vt 0.00000000 1.00000000
vt 0.90909091 0.00000000
vt 0.00000000 1.00000000
vt 0.00000000 0.00000000
vt 1.00000000 0.60000000
vt 1.00000000 1.00000000
vt 0.00000000 0.02339181
vt 0.95000000 0.00000000
vt 0.95000000 1.00000000
vt 0.00000000 0.97660819
vt 1.00000000 0.00000000
vt 0.00000000 1.00000000
vt 0.00000000 0.00000000
vt 1.00000000 0.40000000
vt 1.00000000 0.91666667
vt 0.00000000 1.00000000
vt 0.90909091 0.00000000
vt 0.86363636 0.25000000
vt 0.90909091 0.40000000
vt 1.00000000 0.50000000
vt 0.90909091 0.60000000
vt 0.86363636 0.75000000
vt 0.90909091 0.90000000
vt 1.00000000 1.00000000
vt 0.00000000 1.00000000
vt 0.00000000 0.00000000
vt 1.00000000 0.00000000
vt 0.90909091 0.10000000
vt 1.00000000 1.00000000
vt 0.00000000 1.00000000
vt 0.00000000 0.00000000
vt 1.00000000 0.00000000
vt 0.08695652 0.09226199
vt 0.08695652 1.00000000
vt 0.00000000 0.09226199
vt 0.08695652 0.00000000
vt 1.00000000 0.00000000
vt 1.00000000 0.09226199
vt 1.00000000 0.91666667
vt 0.00000000 1.00000000
vt 0.90909091 0.00000000
vt 0.00000000 1.00000000
vt 0.00000000 0.00000000
vt 1.00000000 0.60000000
vt 1.00000000 1.00000000
vt 0.00000000 0.02339181
vt 0.95000000 0.00000000
vt 0.25000000 0.00000000
vt 0.50000000 0.00000000
vt 0.75000000 0.00000000
vt 1.00000000 0.00000000
vt 1.00000000 1.00000000
vt 0.00000000 1.00000000
vt 0.00000000 0.00000000
vt 1.00000000 0.91666667
vt 0.00000000 1.00000000
vt 0.90909091 0.00000000
vn 0.99503719 -0.09950372 0.00000000
vn 0.99503719 -0.09950372 0.00000000
vn 0.99503719 -0.09950372 0.00000000
vn 0.99395672 -0.10462702 0.03321493
vn -1.00000000 -0.00000000 -0.00000000
vn -1.00000000 -0.00000000 -0.00000000
vn -1.00000000 -0.00000000 -0.00000000
vn -1.00000000 -0.00000000 -0.00000000
vn -1.00000000 -0.00000000 -0.00000000
vn -1.00000000 -0.00000000 -0.00000000
vn -1.00000000 -0.00000000 -0.00000000
vn -1.00000000 -0.00000000 -0.00000000
vn -1.00000000 -0.00000000 -0.00000000
vn -1.00000000 -0.00000000 -0.00000000
vn -1.00000000 -0.00000000 -0.00000000
vn 0.99221165 -0.09020106 -0.08590577
vn 0.99221165 -0.09020106 -0.08590577
vn 0.99221165 -0.09020106 -0.08590577
vn 0.99503719 -0.09950372 0.00000000
vn 0.99503719 -0.09950372 0.00000000
vn 0.99395672 -0.10462702 -0.03321493
vn 0.99395672 -0.10462702 0.03321493
vn 0.99395672 -0.10462702 0.03321493
vn 0.99503719 -0.09950372 0.00000000
vn 0.99221165 -0.09020106 0.08590577
vn 0.99221165 -0.09020106 0.08590577
vn 0.99221165 -0.09020106 0.08590577
vn 0.70565033 -0.06415003 -0.70565033
vn 0.70565033 -0.06415003 -0.70565033
vn 0.70565033 -0.06415003 -0.70565033
vn 0.59761430 0.53452248 -0.59761430
vn 0.59761430 0.53452248 -0.59761430
vn 0.59761430 0.53452248 -0.59761430
vn 0.00000000 0.66666667 -0.74535599
vn 0.00000000 0.66666667 -0.74535599
vn 0.00000000 0.66666667 -0.74535599
vn 0.00000000 0.66666667 -0.74535599
vn 0.00000000 0.66666667 -0.74535599
vn 0.00000000 0.66666667 -0.74535599
vn 0.00000000 0.66666667 -0.74535599
vn 0.00000000 -0.09950372 -0.99503719
vn 0.00000000 -0.09950372 -0.99503719
vn 0.00000000 -0.09950372 -0.99503719
vn 0.03321493 -0.10462702 -0.99395672
vn -0.03321493 -0.10462702 -0.99395672
vn -0.03321493 -0.10462702 -0.99395672
vn 0.08590577 -0.09020106 -0.99221165
vn 0.08590577 -0.09020106 -0.99221165
vn 0.08590577 -0.09020106 -0.99221165
vn -0.08590577 -0.09020106 -0.99221165
vn -0.08590577 -0.09020106 -0.99221165
vn -0.08590577 -0.09020106 -0.99221165
vn 0.00000000 -0.09950372 -0.99503719
vn -0.00000000 1.00000000 -0.00000000
vn -0.00000000 1.00000000 -0.00000000
vn -0.00000000 1.00000000 -0.00000000
vn -0.00000000 1.00000000 -0.00000000
vn -1.00000000 -0.00000000 -0.00000000
vn -1.00000000 -0.00000000 -0.00000000
vn -1.00000000 -0.00000000 -0.00000000
vn -1.00000000 -0.00000000 -0.00000000
vn -1.00000000 -0.00000000 -0.00000000
vn -1.00000000 -0.00000000 -0.00000000
vn 0.08590577 -0.09020106 -0.99221165
vn 0.08590577 -0.09020106 -0.99221165
vn 0.08590577 -0.09020106 -0.99221165
vn 0.00000000 -0.09950372 -0.99503719
vn 0.00000000 -0.09950372 -0.99503719
vn 0.00000000 -0.09950372 -0.99503719
vn 0.03321493 -0.10462702 -0.99395672
vn -0.03321493 -0.10462702 -0.99395672
vn -0.03321493 -0.10462702 -0.99395672
vn -0.08590577 -0.09020106 -0.99221165
vn -0.08590577 -0.09020106 -0.99221165
vn -0.08590577 -0.09020106 -0.99221165
vn -0.00000000 -0.00000000 1.00000000
vn -0.00000000 -0.00000000 1.00000000
vn -0.00000000 -0.00000000 1.00000000
vn -0.00000000 -0.00000000 1.00000000
vn -0.00000000 -0.00000000 1.00000000
vn -0.00000000 -0.00000000 1.00000000
vn -0.00000000 -0.00000000 1.00000000
vn -0.00000000 -0.00000000 1.00000000
vn -0.00000000 -0.00000000 1.00000000
vn -0.00000000 -0.00000000 1.00000000
vn -0.00000000 -0.00000000 1.00000000
vn 0.00000000 -1.00000000 0.00000000
vn 0.00000000 -1.00000000 0.00000000
vn 0.00000000 -1.00000000 0.00000000
vn 0.00000000 -1.00000000 0.00000000
vn -0.00000000 -0.00000000 1.00000000
vn -0.00000000 -0.00000000 1.00000000
vn -0.00000000 -0.00000000 1.00000000
vn -0.00000000 -0.00000000 1.00000000
vn -0.00000000 -0.00000000 1.00000000
vn -0.00000000 -0.00000000 1.00000000
vn 0.99221165 -0.09020106 -0.08590577
vn 0.99221165 -0.09020106 -0.08590577
vn 0.99221165 -0.09020106 -0.08590577
vn 0.99503719 -0.09950372 0.00000000
vn 0.99503719 -0.09950372 0.00000000
vn 0.99395672 -0.10462702 -0.03321493
vn 0.74535599 0.66666667 0.00000000
vn 0.74535599 0.66666667 0.00000000
vn 0.74535599 0.66666667 0.00000000
vn 0.74535599 0.66666667 0.00000000
vn 0.74535599 0.66666667 0.00000000
vn 0.74535599 0.66666667 0.00000000
vn 0.74535599 0.66666667 0.00000000
vn 0.99221165 -0.09020106 0.08590577
vn 0.99221165 -0.09020106 0.08590577
vn 0.99221165 -0.09020106 0.08590577
s 1
usemtl Canvas
f 15/39/39 14/38/38 13/37/37
f 16/160/138 13/159/37 25/158/137
f 25/157/137 13/156/37 47/155/136
f 26/57/55 14/58/38 18/59/56
f 27/66/60 26/67/55 20/68/58
f 20/63/58 26/64/55 19/65/59
f 19/60/57 26/61/55 18/62/56
f 15/42/39 13/41/37 16/40/40
s 2
f 18/46/44 17/45/43 15/44/42
f 19/47/45 18/46/44 16/43/41
f 16/43/41 25/53/51 23/51/49
f 23/51/49 21/49/47 20/48/46
f 23/51/49 22/50/48 21/49/47
f 25/53/51 24/52/50 23/51/49
f 20/48/46 19/47/45 23/51/49
f 19/47/45 16/43/41 23/51/49
f 18/46/44 15/44/42 16/43/41
s 3
f 18/56/54 14/55/53 17/54/52
s 4
f 21/69/61 27/70/62 20/71/63
s 5
f 21/74/66 28/73/65 27/72/64
s 6
f 28/77/69 29/76/68 27/75/67
s 7
f 29/83/75 28/84/76 30/78/70
f 31/79/71 34/82/74 29/83/75
f 32/80/72 33/81/73 34/82/74
f 31/79/71 32/80/72 34/82/74
f 29/83/75 30/78/70 31/79/71
s 8
f 35/87/79 31/86/78 30/85/77
f 37/102/81 30/101/77 28/100/89
f 36/93/82 30/92/77 37/91/81
f 32/125/104 31/126/78 39/127/108
f 46/122/107 32/123/104 39/124/108
f 45/119/105 32/120/104 46/121/106
f 33/116/103 32/117/104 45/118/105
f 35/90/79 30/89/77 36/88/80
s 9
f 38/94/83 31/95/84 35/96/85
s 10
f 39/99/88 31/98/87 38/97/86
s 11
f 40/103/90 41/104/91 29/105/92
f 40/103/90 29/105/92 34/106/93
s 12
f 43/108/95 40/109/96 34/110/97
f 42/107/94 34/110/97 33/111/98
f 42/107/94 33/111/98 44/112/99
f 42/107/94 43/108/95 34/110/97
s 13
f 44/113/100 33/114/101 45/115/102
s 14
f 37/130/111 28/129/110 21/128/109
s 15
f 39/134/115 38/133/114 35/132/113
f 46/135/116 35/132/113 36/131/112
f 42/138/119 36/131/112 37/141/122
f 37/141/122 21/140/121 42/138/119
f 42/138/119 44/137/118 45/136/117
f 21/140/121 22/139/120 42/138/119
f 42/138/119 46/135/116 36/131/112
f 42/138/119 45/136/117 46/135/116
f 46/135/116 39/134/115 35/132/113
s 16
f 42/145/126 22/144/125 43/142/123
f 22/144/125 23/143/124 43/142/123
s 17
f 41/149/130 40/150/131 43/151/132
f 47/148/129 41/149/130 23/146/127
f 23/146/127 24/147/128 47/148/129
f 41/149/130 43/151/132 23/146/127
s 18
f 25/154/135 47/153/134 24/152/133
s 19
f 41/166/144 47/167/145 13/161/139
f 14/162/140 29/165/143 41/166/144
f 26/163/141 27/164/142 29/165/143
f 14/162/140 26/163/141 29/165/143
f 41/166/144 13/161/139 14/162/140
s 20
f 17/168/146 14/169/147 15/170/148
