mtllib Materials_Modular_Village.mtl
o object1
g object1
v 0.50000000 1.10000000 0.45000000
v 0.50000000 1.00000000 0.45000000
v -0.50000000 1.00000000 0.45000000
v -0.50000000 1.10000000 0.45000000
v 0.50000000 1.00000000 0.55000000
v 0.50000000 1.10000000 0.55000000
v -0.50000000 1.00000000 0.55000000
v -0.50000000 1.10000000 0.55000000
vt 1.00000000 1.00000000
vt 0.00000000 1.00000000
vt 0.00000000 0.00000000
vt 1.00000000 0.00000000
vt 1.00000000 1.00000000
vt 0.00000000 1.00000000
vt 0.00000000 0.00000000
vt 1.00000000 0.00000000
vt 1.00000000 1.00000000
vt 0.00000000 1.00000000
vt 0.00000000 0.00000000
vt 1.00000000 0.00000000
vt 1.00000000 1.00000000
vt 0.00000000 1.00000000
vt 0.00000000 0.00000000
vt 1.00000000 0.00000000
vt 1.00000000 1.00000000
vt 0.00000000 1.00000000
vt 0.00000000 0.00000000
vt 1.00000000 0.00000000
vt 1.00000000 1.00000000
vt 0.00000000 1.00000000
vt 0.00000000 0.00000000
vt 1.00000000 0.00000000
vn 0.00000000 0.00000000 -1.00000000
vn 0.00000000 0.00000000 -1.00000000
vn 0.00000000 0.00000000 -1.00000000
vn 0.00000000 0.00000000 -1.00000000
vn 1.00000000 0.00000000 0.00000000
vn 1.00000000 0.00000000 0.00000000
vn 1.00000000 0.00000000 0.00000000
vn 1.00000000 0.00000000 0.00000000
vn 0.00000000 0.00000000 1.00000000
vn 0.00000000 0.00000000 1.00000000
vn 0.00000000 0.00000000 1.00000000
vn 0.00000000 0.00000000 1.00000000
vn 0.00000000 1.00000000 0.00000000
vn 0.00000000 1.00000000 0.00000000
vn 0.00000000 1.00000000 0.00000000
vn 0.00000000 1.00000000 0.00000000
vn -1.00000000 0.00000000 0.00000000
vn -1.00000000 0.00000000 0.00000000
vn -1.00000000 0.00000000 0.00000000
vn -1.00000000 0.00000000 0.00000000
vn 0.00000000 -1.00000000 0.00000000
vn 0.00000000 -1.00000000 0.00000000
vn 0.00000000 -1.00000000 0.00000000
vn 0.00000000 -1.00000000 0.00000000
s 1
usemtl Wood_Dark
f 1/1/1 2/2/2 4/4/4
f 2/2/2 3/3/3 4/4/4
s 2
f 6/8/8 5/7/7 1/5/5
f 5/7/7 2/6/6 1/5/5
s 3
f 8/12/12 7/11/11 6/9/9
f 7/11/11 5/10/10 6/9/9
s 4
f 4/16/16 8/15/15 6/14/14
f 4/16/16 6/14/14 1/13/13
s 5
f 4/17/17 3/18/18 8/20/20
f 3/18/18 7/19/19 8/20/20
s 6
f 2/21/21 5/22/22 3/24/24
f 5/22/22 7/23/23 3/24/24
o object2
g object2
v -0.50000000 0.00000000 0.55000000
v -0.50000000 1.10000000 0.65000000
v -0.40000000 0.10000000 0.55000000
v 0.25000000 0.15000000 0.55000000
v 0.10000000 0.10000000 0.55000000
v -0.00000000 0.00000000 0.55000000
v -0.10000000 0.10000000 0.55000000
v -0.25000000 0.15000000 0.55000000
v -0.50000000 1.10000000 0.55000000
v 0.50000000 1.10000000 0.55000000
v 0.50000000 0.00000000 0.55000000
v 0.40000000 0.10000000 0.55000000
v 0.25000000 1.10000000 0.65000000
v -0.00000000 1.10000000 0.65000000
v -0.25000000 1.10000000 0.65000000
v -0.50000000 1.21180340 0.55000000
v 0.50000000 1.21180340 0.55000000
v 0.50000000 1.10000000 0.65000000
v -0.50000000 1.21180340 -0.55000000
v 0.50000000 1.21180340 -0.55000000
v 0.25000000 1.10000000 -0.65000000
v -0.00000000 1.10000000 -0.65000000
v -0.25000000 1.10000000 -0.65000000
v -0.50000000 1.10000000 -0.65000000
v 0.50000000 1.10000000 -0.65000000
v 0.10000000 0.10000000 -0.55000000
v 0.25000000 0.15000000 -0.55000000
v -0.00000000 0.00000000 -0.55000000
v -0.10000000 0.10000000 -0.55000000
v -0.25000000 0.15000000 -0.55000000
v -0.40000000 0.10000000 -0.55000000
v -0.50000000 0.00000000 -0.55000000
v -0.50000000 1.10000000 -0.55000000
v 0.50000000 1.10000000 -0.55000000
v 0.50000000 0.00000000 -0.55000000
v 0.40000000 0.10000000 -0.55000000
vt 1.00000000 0.91666667
vt 0.00000000 1.00000000
vt 0.90909091 0.00000000
vt 0.86363636 0.25000000
vt 0.90909091 0.40000000
vt 1.00000000 0.50000000
vt 0.90909091 0.60000000
vt 0.86363636 0.75000000
vt 0.90909091 0.90000000
vt 1.00000000 1.00000000
vt 0.00000000 1.00000000
vt 0.00000000 0.00000000
vt 1.00000000 0.00000000
vt 0.90909091 0.10000000
vt 0.95000000 1.00000000
vt 0.00000000 0.97660819
vt 1.00000000 0.00000000
vt 0.00000000 1.00000000
vt 0.00000000 0.00000000
vt 1.00000000 0.40000000
vt 0.25000000 0.00000000
vt 0.50000000 0.00000000
vt 0.75000000 0.00000000
vt 1.00000000 0.00000000
vt 1.00000000 1.00000000
vt 0.00000000 1.00000000
vt 0.00000000 0.00000000
vt 1.00000000 1.00000000
vt 0.00000000 1.00000000
vt 0.00000000 0.00000000
vt 1.00000000 0.00000000
vt 0.25000000 0.00000000
vt 0.50000000 0.00000000
vt 0.75000000 0.00000000
vt 1.00000000 0.00000000
vt 1.00000000 1.00000000
vt 0.00000000 1.00000000
vt 0.00000000 0.00000000
vt 0.00000000 1.00000000
vt 0.00000000 0.00000000
vt 1.00000000 0.40000000
vt 0.95000000 1.00000000
vt 0.00000000 0.97660819
vt 1.00000000 0.00000000
vt 0.86363636 0.25000000
vt 0.90909091 0.40000000
vt 1.00000000 0.50000000
vt 0.90909091 0.60000000
vt 0.86363636 0.75000000
vt 0.90909091 0.90000000
vt 1.00000000 1.00000000
vt 0.00000000 1.00000000
vt 0.00000000 0.00000000
vt 1.00000000 0.00000000
vt 0.90909091 0.10000000
vt 1.00000000 0.91666667
vt 0.00000000 1.00000000
vt 0.90909091 0.00000000
vt 0.95000000 1.00000000
vt 0.00000000 0.97660819
vt 1.00000000 0.00000000
vt 1.00000000 1.00000000
vt 0.00000000 0.02339181
vt 0.95000000 0.00000000
vt 1.00000000 0.91666667
vt 0.00000000 1.00000000
vt 0.90909091 0.00000000
vt 1.00000000 0.91666667
vt 0.00000000 1.00000000
vt 0.90909091 0.00000000
vt 1.00000000 1.00000000
vt 0.00000000 0.02339181
vt 0.95000000 0.00000000
vt 1.00000000 0.91666667
vt 0.00000000 1.00000000
vt 0.90909091 0.00000000
vt 0.00000000 1.00000000
vt 0.00000000 0.00000000
vt 1.00000000 0.60000000
vt 0.00000000 1.00000000
vt 0.00000000 0.00000000
vt 1.00000000 0.60000000
vt 0.00000000 1.00000000
vt 0.00000000 0.00000000
vt 1.00000000 0.40000000
vt 0.00000000 1.00000000
vt 0.00000000 0.00000000
vt 1.00000000 0.60000000
vt 0.00000000 1.00000000
vt 0.00000000 0.00000000
vt 1.00000000 0.40000000
vt 1.00000000 1.00000000
vt 0.00000000 0.02339181
vt 0.95000000 0.00000000
vt 1.00000000 0.91666667
vt 0.00000000 1.00000000
vt 0.90909091 0.00000000
vt 0.92307692 0.00000000
vt 1.00000000 0.09226199
vt 0.92307692 1.00000000
vt 0.92307692 0.09226199
vt 0.07692308 0.09226199
vt 0.07692308 1.00000000
vt 0.00000000 0.09226199
vt 0.07692308 0.00000000
vt 1.00000000 1.00000000
vt 0.00000000 1.00000000
vt 0.00000000 0.00000000
vt 1.00000000 0.00000000
vt 1.00000000 1.00000000
vt 0.00000000 0.02339181
vt 0.95000000 0.00000000
vt 0.95000000 1.00000000
vt 0.00000000 0.97660819
vt 1.00000000 0.00000000
vt 1.00000000 0.91666667
vt 0.00000000 1.00000000
vt 0.90909091 0.00000000
vt 1.00000000 0.91666667
vt 0.00000000 1.00000000
vt 0.90909091 0.00000000
vt 0.92307692 0.00000000
vt 1.00000000 0.09226199
vt 0.92307692 1.00000000
vt 0.92307692 0.09226199
vt 0.07692308 0.09226199
vt 0.07692308 1.00000000
vt 0.00000000 0.09226199
vt 0.07692308 0.00000000
vt 0.00000000 1.00000000
vt 0.00000000 0.00000000
vt 1.00000000 0.60000000
vn 0.09016696 -0.09016696 0.99183660
vn 0.09016696 -0.09016696 0.99183660
vn 0.09016696 -0.09016696 0.99183660
vn -0.00000000 -0.00000000 -1.00000000
vn -0.00000000 -0.00000000 -1.00000000
vn -0.00000000 -0.00000000 -1.00000000
vn -0.00000000 -0.00000000 -1.00000000
vn -0.00000000 -0.00000000 -1.00000000
vn -0.00000000 -0.00000000 -1.00000000
vn -0.00000000 -0.00000000 -1.00000000
vn -0.00000000 -0.00000000 -1.00000000
vn -0.00000000 -0.00000000 -1.00000000
vn -0.00000000 -0.00000000 -1.00000000
vn -0.00000000 -0.00000000 -1.00000000
vn 0.03487370 -0.10462111 0.99390052
vn 0.03487370 -0.10462111 0.99390052
vn 0.03487370 -0.10462111 0.99390052
vn 0.00000000 -0.09950372 0.99503719
vn 0.00000000 0.66666667 0.74535599
vn 0.00000000 0.66666667 0.74535599
vn 0.00000000 0.66666667 0.74535599
vn 0.00000000 0.66666667 0.74535599
vn 0.00000000 0.66666667 0.74535599
vn 0.00000000 0.66666667 0.74535599
vn 0.00000000 0.66666667 0.74535599
vn -0.00000000 1.00000000 0.00000000
vn -0.00000000 1.00000000 0.00000000
vn -0.00000000 1.00000000 0.00000000
vn -0.00000000 1.00000000 0.00000000
vn 0.00000000 0.66666667 -0.74535599
vn 0.00000000 0.66666667 -0.74535599
vn 0.00000000 0.66666667 -0.74535599
vn 0.00000000 0.66666667 -0.74535599
vn 0.00000000 0.66666667 -0.74535599
vn 0.00000000 0.66666667 -0.74535599
vn 0.00000000 0.66666667 -0.74535599
vn 0.00000000 -0.09950372 -0.99503719
vn 0.00000000 -0.09950372 -0.99503719
vn 0.00000000 -0.09950372 -0.99503719
vn 0.03487370 -0.10462111 -0.99390052
vn -0.00000000 -0.00000000 1.00000000
vn -0.00000000 -0.00000000 1.00000000
vn -0.00000000 -0.00000000 1.00000000
vn -0.00000000 -0.00000000 1.00000000
vn -0.00000000 -0.00000000 1.00000000
vn -0.00000000 -0.00000000 1.00000000
vn -0.00000000 -0.00000000 1.00000000
vn -0.00000000 -0.00000000 1.00000000
vn -0.00000000 -0.00000000 1.00000000
vn -0.00000000 -0.00000000 1.00000000
vn -0.00000000 -0.00000000 1.00000000
vn -0.09016696 -0.09016696 -0.99183660
vn -0.09016696 -0.09016696 -0.99183660
vn -0.09016696 -0.09016696 -0.99183660
vn -0.03487370 -0.10462111 -0.99390052
vn -0.03487370 -0.10462111 -0.99390052
vn -0.03487370 -0.10462111 -0.99390052
vn 0.03487370 -0.10462111 -0.99390052
vn 0.03487370 -0.10462111 -0.99390052
vn 0.03487370 -0.10462111 -0.99390052
vn 0.09016696 -0.09016696 -0.99183660
vn 0.09016696 -0.09016696 -0.99183660
vn 0.09016696 -0.09016696 -0.99183660
vn -0.09016696 -0.09016696 -0.99183660
vn -0.09016696 -0.09016696 -0.99183660
vn -0.09016696 -0.09016696 -0.99183660
vn -0.03487370 -0.10462111 -0.99390052
vn -0.03487370 -0.10462111 -0.99390052
vn 0.09016696 -0.09016696 -0.99183660
vn 0.09016696 -0.09016696 -0.99183660
vn 0.09016696 -0.09016696 -0.99183660
vn 0.00000000 -0.09950372 -0.99503719
vn 0.00000000 -0.09950372 -0.99503719
vn 0.00000000 -0.09950372 0.99503719
vn 0.00000000 -0.09950372 0.99503719
vn 0.00000000 -0.09950372 0.99503719
vn 0.00000000 -0.09950372 0.99503719
vn -0.03487370 -0.10462111 0.99390052
vn -0.03487370 -0.10462111 0.99390052
vn -0.09016696 -0.09016696 0.99183660
vn -0.09016696 -0.09016696 0.99183660
vn -0.09016696 -0.09016696 0.99183660
vn 1.00000000 -0.00000000 0.00000000
vn 1.00000000 -0.00000000 0.00000000
vn 1.00000000 -0.00000000 0.00000000
vn 1.00000000 -0.00000000 0.00000000
vn 1.00000000 -0.00000000 0.00000000
vn 1.00000000 -0.00000000 0.00000000
vn 1.00000000 -0.00000000 0.00000000
vn 1.00000000 -0.00000000 0.00000000
vn 0.00000000 -1.00000000 -0.00000000
vn 0.00000000 -1.00000000 -0.00000000
vn 0.00000000 -1.00000000 -0.00000000
vn 0.00000000 -1.00000000 -0.00000000
vn 0.03487370 -0.10462111 0.99390052
vn 0.03487370 -0.10462111 0.99390052
vn -0.03487370 -0.10462111 0.99390052
vn -0.09016696 -0.09016696 0.99183660
vn -0.09016696 -0.09016696 0.99183660
vn -0.09016696 -0.09016696 0.99183660
vn 0.09016696 -0.09016696 0.99183660
vn 0.09016696 -0.09016696 0.99183660
vn 0.09016696 -0.09016696 0.99183660
vn -1.00000000 0.00000000 -0.00000000
vn -1.00000000 0.00000000 -0.00000000
vn -1.00000000 0.00000000 -0.00000000
vn -1.00000000 0.00000000 -0.00000000
vn -1.00000000 0.00000000 -0.00000000
vn -1.00000000 0.00000000 -0.00000000
vn -1.00000000 0.00000000 -0.00000000
vn -1.00000000 0.00000000 -0.00000000
vn 0.00000000 -0.09950372 0.99503719
s 1
usemtl Canvas
f 11/27/27 10/26/26 9/25/25
s 2
f 13/29/29 14/30/30 15/31/31
f 12/28/28 15/31/31 16/32/32
f 16/32/32 11/33/33 17/35/35
f 17/35/35 19/37/37 20/38/38
f 17/35/35 18/36/36 19/37/37
f 11/33/33 9/34/34 17/35/35
f 20/38/38 12/28/28 17/35/35
f 12/28/28 16/32/32 17/35/35
f 12/28/28 13/29/29 15/31/31
s 3
f 12/39/39 21/40/40 13/41/41
f 26/110/98 21/111/40 20/112/99
f 20/116/99 21/117/102 12/118/103
f 21/42/40 22/43/42 13/44/41
f 15/115/101 22/114/42 23/113/100
f 11/156/119 23/155/100 10/154/136
f 16/136/120 23/135/100 11/134/119
f 15/139/101 23/138/100 16/137/121
s 4
f 21/45/43 26/51/49 25/50/48
f 25/50/48 24/49/47 22/46/44
f 24/49/47 23/47/45 22/46/44
f 24/49/47 10/48/46 23/47/45
f 22/46/44 21/45/43 25/50/48
s 5
f 24/55/53 25/54/52 28/53/51
f 24/55/53 28/53/51 27/52/50
s 6
f 28/61/59 33/62/60 29/56/54
f 30/57/55 27/60/58 28/61/59
f 31/58/56 32/59/57 27/60/58
f 30/57/55 31/58/56 27/60/58
f 28/61/59 29/56/54 30/57/55
s 7
f 34/65/63 30/64/62 29/63/61
f 44/103/91 29/102/61 33/101/96
f 35/97/92 29/96/61 44/95/91
f 31/107/80 30/108/62 37/109/81
f 32/104/97 31/105/80 39/106/82
f 39/86/82 31/87/83 38/88/84
f 38/83/79 31/84/80 37/85/81
f 34/68/63 29/67/61 35/66/64
s 8
f 37/72/68 36/71/67 34/70/66
f 38/73/69 37/72/68 35/69/65
f 41/76/72 35/69/65 44/79/75
f 44/79/75 43/78/74 41/76/72
f 41/76/72 40/75/71 39/74/70
f 43/78/74 42/77/73 41/76/72
f 41/76/72 38/73/69 35/69/65
f 41/76/72 39/74/70 38/73/69
f 37/72/68 34/70/66 35/69/65
s 9
f 37/82/78 30/81/77 36/80/76
s 10
f 40/89/85 32/90/86 39/91/87
s 11
f 44/94/90 33/93/89 43/92/88
s 12
f 36/98/93 30/99/94 34/100/95
s 13
f 19/119/104 26/120/105 20/121/106
s 14
f 26/128/113 19/127/112 18/126/111
f 25/129/114 18/126/111 28/122/107
f 42/125/110 33/123/108 28/122/107
f 42/125/110 43/124/109 33/123/108
f 18/126/111 42/125/110 28/122/107
f 25/129/114 26/128/113 18/126/111
s 15
f 41/130/115 42/131/116 18/132/117
f 41/130/115 18/132/117 17/133/118
s 16
f 14/140/122 22/141/123 15/142/124
s 17
f 13/145/127 22/144/126 14/143/125
s 18
f 17/150/132 9/151/133 10/152/134
f 41/149/131 17/150/132 24/153/135
f 24/153/135 27/146/128 41/149/131
f 27/146/128 32/147/129 41/149/131
f 32/147/129 40/148/130 41/149/131
f 17/150/132 10/152/134 24/153/135
o object3
g object3
v 0.50000000 1.10000000 -0.45000000
v 0.50000000 1.00000000 -0.45000000
v -0.50000000 1.00000000 -0.45000000
v -0.50000000 1.10000000 -0.45000000
v -0.50000000 1.00000000 -0.55000000
v -0.50000000 1.10000000 -0.55000000
v 0.50000000 1.10000000 -0.55000000
v 0.50000000 1.00000000 -0.55000000
vt 1.00000000 1.00000000
vt 0.00000000 1.00000000
vt 0.00000000 0.00000000
vt 1.00000000 0.00000000
vt 1.00000000 1.00000000
vt 0.00000000 1.00000000
vt 0.00000000 0.00000000
vt 1.00000000 0.00000000
vt 1.00000000 1.00000000
vt 0.00000000 1.00000000
vt 0.00000000 0.00000000
vt 1.00000000 0.00000000
vt 1.00000000 1.00000000
vt 0.00000000 1.00000000
vt 0.00000000 0.00000000
vt 1.00000000 0.00000000
vt 1.00000000 1.00000000
vt 0.00000000 1.00000000
vt 0.00000000 0.00000000
vt 1.00000000 0.00000000
vt 1.00000000 1.00000000
vt 0.00000000 1.00000000
vt 0.00000000 0.00000000
vt 1.00000000 0.00000000
vn -0.00000000 0.00000000 1.00000000
vn -0.00000000 0.00000000 1.00000000
vn -0.00000000 0.00000000 1.00000000
vn -0.00000000 0.00000000 1.00000000
vn -1.00000000 0.00000000 0.00000000
vn -1.00000000 0.00000000 0.00000000
vn -1.00000000 0.00000000 0.00000000
vn -1.00000000 0.00000000 0.00000000
vn 0.00000000 0.00000000 -1.00000000
vn 0.00000000 0.00000000 -1.00000000
vn 0.00000000 0.00000000 -1.00000000
vn 0.00000000 0.00000000 -1.00000000
vn 0.00000000 1.00000000 0.00000000
vn 0.00000000 1.00000000 0.00000000
vn 0.00000000 1.00000000 0.00000000
vn 0.00000000 1.00000000 0.00000000
vn 1.00000000 0.00000000 0.00000000
vn 1.00000000 0.00000000 0.00000000
vn 1.00000000 0.00000000 0.00000000
vn 1.00000000 0.00000000 0.00000000
vn 0.00000000 -1.00000000 0.00000000
vn 0.00000000 -1.00000000 0.00000000
vn 0.00000000 -1.00000000 0.00000000
vn 0.00000000 -1.00000000 0.00000000
s 1
usemtl Wood_Dark
f 48/160/140 47/159/139 45/157/137
f 47/159/139 46/158/138 45/157/137
s 2
f 50/164/144 49/163/143 48/161/141
f 49/163/143 47/162/142 48/161/141
s 3
f 51/165/145 52/166/146 50/168/148
f 52/166/146 49/167/147 50/168/148
s 4
f 45/169/149 51/170/150 48/172/152
f 51/170/150 50/171/151 48/172/152
s 5
f 45/173/153 46/174/154 51/176/156
f 46/174/154 52/175/155 51/176/156
s 6
f 47/180/160 49/179/159 52/178/158
f 47/180/160 52/178/158 46/177/157
