mtllib Materials_Modular_Village.mtl
o object1
g object1
v 0.45971395 0.64299336 0.50000000
v 0.45971395 0.64299336 -0.50000000
v 0.41672059 0.55270731 -0.50000000
v 0.41672059 0.55270731 0.50000000
v 0.55000000 0.60000000 0.50000000
v 0.55000000 0.60000000 -0.50000000
v 0.50700664 0.50971395 -0.50000000
v 0.50700664 0.50971395 0.50000000
vt 1.00000000 1.00000000
vt 0.00000000 1.00000000
vt 0.00000000 0.00000000
vt 1.00000000 0.00000000
vt 1.00000000 1.00000000
vt 0.00000000 1.00000000
vt 0.00000000 0.00000000
vt 1.00000000 0.00000000
vt 1.00000000 1.00000000
vt 0.00000000 1.00000000
vt 0.00000000 0.00000000
vt 1.00000000 0.00000000
vt 1.00000000 1.00000000
vt 0.00000000 1.00000000
vt 0.00000000 0.00000000
vt 1.00000000 0.00000000
vt 1.00000000 1.00000000
vt 0.00000000 1.00000000
vt 0.00000000 0.00000000
vt 1.00000000 0.00000000
vt 1.00000000 1.00000000
vt 0.00000000 1.00000000
vt 0.00000000 0.00000000
vt 1.00000000 0.00000000
vn -0.90286052 0.42993358 0.00000000
vn -0.90286052 0.42993358 0.00000000
vn -0.90286052 0.42993358 0.00000000
vn -0.90286052 0.42993358 0.00000000
vn 0.42993358 0.90286052 0.00000000
vn 0.42993358 0.90286052 0.00000000
vn 0.42993358 0.90286052 0.00000000
vn 0.42993358 0.90286052 0.00000000
vn 0.90286052 -0.42993358 -0.00000000
vn 0.90286052 -0.42993358 -0.00000000
vn 0.90286052 -0.42993358 -0.00000000
vn 0.90286052 -0.42993358 -0.00000000
vn 0.00000000 -0.00000000 1.00000000
vn 0.00000000 -0.00000000 1.00000000
vn 0.00000000 -0.00000000 1.00000000
vn 0.00000000 -0.00000000 1.00000000
vn -0.42993358 -0.90286052 -0.00000000
vn -0.42993358 -0.90286052 -0.00000000
vn -0.42993358 -0.90286052 -0.00000000
vn -0.42993358 -0.90286052 -0.00000000
vn 0.00000000 0.00000000 -1.00000000
vn 0.00000000 0.00000000 -1.00000000
vn 0.00000000 0.00000000 -1.00000000
vn 0.00000000 0.00000000 -1.00000000
s 1
usemtl Wood_Dark
f 1/1/1 2/2/2 4/4/4
f 2/2/2 3/3/3 4/4/4
s 2
f 5/5/5 6/6/6 1/8/8
f 6/6/6 2/7/7 1/8/8
s 3
f 8/12/12 7/11/11 6/10/10
f 8/12/12 6/10/10 5/9/9
s 4
f 1/16/16 4/15/15 8/14/14
f 1/16/16 8/14/14 5/13/13
s 5
f 4/20/20 3/19/19 7/18/18
f 4/20/20 7/18/18 8/17/17
s 6
f 6/21/21 7/22/22 2/24/24
f 7/22/22 3/23/23 2/24/24
o object2
g object2
v -0.50000000 1.10000000 -0.50000000
v -0.50000000 1.10000000 0.50000000
v 0.55000000 0.60000000 0.50000000
v 0.55000000 0.60000000 -0.50000000
v 0.55000000 0.15000000 -0.25000000
v 0.55000000 0.10000000 -0.10000000
v 0.55000000 -0.00000000 -0.00000000
v 0.55000000 0.10000000 0.10000000
v 0.55000000 0.15000000 0.25000000
v 0.55000000 0.10000000 0.40000000
v 0.55000000 -0.00000000 0.50000000
v 0.55000000 -0.00000000 -0.50000000
v 0.55000000 0.10000000 -0.40000000
v 0.65000000 0.60000000 -0.25000000
v 0.65000000 0.60000000 -0.00000000
v 0.55000000 0.71180340 -0.50000000
v 0.65000000 0.60000000 -0.50000000
v 0.65000000 0.60000000 0.25000000
v 0.65000000 0.60000000 0.50000000
v 0.55000000 0.71180340 0.50000000
v -0.50000000 1.21180340 -0.50000000
v -0.50000000 1.21180340 0.50000000
vt 1.00000000 1.00000000
vt 0.00000000 1.00000000
vt 0.00000000 0.00000000
vt 1.00000000 0.00000000
vt 0.75000000 0.25000000
vt 0.83333333 0.40000000
vt 1.00000000 0.50000000
vt 0.83333333 0.60000000
vt 0.75000000 0.75000000
vt 0.83333333 0.90000000
vt 1.00000000 1.00000000
vt 0.00000000 1.00000000
vt 0.00000000 0.00000000
vt 1.00000000 0.00000000
vt 0.83333333 0.10000000
vt 0.90000000 1.00000000
vt 0.00000000 0.95061728
vt 1.00000000 0.00000000
vt 0.00000000 1.00000000
vt 0.00000000 0.00000000
vt 1.00000000 0.40000000
vt 1.00000000 0.00000000
vt 1.00000000 1.00000000
vt 0.75000000 1.00000000
vt 0.50000000 1.00000000
vt 0.25000000 1.00000000
vt 0.00000000 1.00000000
vt 0.00000000 0.00000000
vt 0.00000000 1.00000000
vt 0.00000000 0.00000000
vt 1.00000000 0.40000000
vt 0.00000000 1.00000000
vt 0.00000000 0.00000000
vt 1.00000000 0.60000000
vt 1.00000000 1.00000000
vt 0.00000000 1.00000000
vt 0.00000000 0.00000000
vt 1.00000000 0.00000000
vt 0.00000000 1.00000000
vt 0.00000000 0.00000000
vt 1.00000000 0.60000000
vt 1.00000000 1.00000000
vt 0.00000000 0.04938272
vt 0.90000000 0.00000000
vt 1.00000000 0.85714286
vt 0.00000000 1.00000000
vt 0.83333333 0.00000000
vt 1.00000000 0.85714286
vt 0.00000000 1.00000000
vt 0.83333333 0.00000000
vt 1.00000000 1.00000000
vt 0.00000000 0.04938272
vt 0.90000000 0.00000000
vt 0.90000000 1.00000000
vt 0.00000000 0.95061728
vt 1.00000000 0.00000000
vt 1.00000000 0.85714286
vt 0.00000000 1.00000000
vt 0.83333333 0.00000000
vt 1.00000000 0.85714286
vt 0.00000000 1.00000000
vt 0.83333333 0.00000000
vt 0.49512982 0.00000000
vt 0.58739182 0.08695652
vt 1.00000000 1.00000000
vt 0.90773801 1.00000000
vt 0.49512982 0.08695652
vt 0.00000000 0.08695652
vt 1.00000000 1.00000000
vt 0.00000000 1.00000000
vt 0.00000000 0.00000000
vt 1.00000000 0.00000000
vt 0.77829483 0.98403391
vt 0.68465447 1.00000000
vt 0.00000000 0.22084363
vt 0.04953152 0.06377302
vt 0.73418599 0.84292938
vt 1.00000000 0.00000000
vn -0.42993358 -0.90286052 -0.00000000
vn -0.42993358 -0.90286052 -0.00000000
vn -0.42993358 -0.90286052 -0.00000000
vn -0.42993358 -0.90286052 -0.00000000
vn -1.00000000 -0.00000000 0.00000000
vn -1.00000000 -0.00000000 0.00000000
vn -1.00000000 -0.00000000 0.00000000
vn -1.00000000 -0.00000000 0.00000000
vn -1.00000000 -0.00000000 0.00000000
vn -1.00000000 -0.00000000 0.00000000
vn -1.00000000 -0.00000000 0.00000000
vn -1.00000000 -0.00000000 0.00000000
vn -1.00000000 -0.00000000 0.00000000
vn -1.00000000 -0.00000000 0.00000000
vn -1.00000000 -0.00000000 0.00000000
vn 0.97364490 -0.21636553 -0.07212184
vn 0.97364490 -0.21636553 -0.07212184
vn 0.97364490 -0.21636553 -0.07212184
vn 0.98058068 -0.19611614 -0.00000000
vn 0.98058068 -0.19611614 -0.00000000
vn 0.98058068 -0.19611614 -0.00000000
vn 0.74535599 0.66666667 -0.00000000
vn 0.74535599 0.66666667 -0.00000000
vn 0.74535599 0.66666667 -0.00000000
vn 0.74535599 0.66666667 -0.00000000
vn 0.74535599 0.66666667 -0.00000000
vn 0.74535599 0.66666667 -0.00000000
vn 0.74535599 0.66666667 -0.00000000
vn 0.98058068 -0.19611614 -0.00000000
vn 0.98058068 -0.19611614 -0.00000000
vn 0.98058068 -0.19611614 -0.00000000
vn 0.98058068 -0.19611614 -0.00000000
vn 0.42993358 0.90286052 0.00000000
vn 0.42993358 0.90286052 0.00000000
vn 0.42993358 0.90286052 0.00000000
vn 0.42993358 0.90286052 0.00000000
vn 0.98058068 -0.19611614 -0.00000000
vn 0.98058068 -0.19611614 -0.00000000
vn 0.97364490 -0.21636553 0.07212184
vn 0.97364490 -0.21636553 0.07212184
vn 0.97364490 -0.21636553 0.07212184
vn 0.97332853 -0.16222142 0.16222142
vn 0.97332853 -0.16222142 0.16222142
vn 0.97332853 -0.16222142 0.16222142
vn 0.97332853 -0.16222142 -0.16222142
vn 0.97332853 -0.16222142 -0.16222142
vn 0.97332853 -0.16222142 -0.16222142
vn 0.97364490 -0.21636553 -0.07212184
vn 0.97364490 -0.21636553 -0.07212184
vn 0.97364490 -0.21636553 -0.07212184
vn 0.97364490 -0.21636553 0.07212184
vn 0.97364490 -0.21636553 0.07212184
vn 0.97364490 -0.21636553 0.07212184
vn 0.97332853 -0.16222142 0.16222142
vn 0.97332853 -0.16222142 0.16222142
vn 0.97332853 -0.16222142 0.16222142
vn 0.97332853 -0.16222142 -0.16222142
vn 0.97332853 -0.16222142 -0.16222142
vn 0.97332853 -0.16222142 -0.16222142
vn -0.00000000 -0.00000000 -1.00000000
vn -0.00000000 -0.00000000 -1.00000000
vn -0.00000000 -0.00000000 -1.00000000
vn -0.00000000 -0.00000000 -1.00000000
vn -0.00000000 -0.00000000 -1.00000000
vn -0.00000000 -0.00000000 -1.00000000
vn -1.00000000 -0.00000000 0.00000000
vn -1.00000000 -0.00000000 0.00000000
vn -1.00000000 -0.00000000 0.00000000
vn -1.00000000 -0.00000000 0.00000000
vn 0.00000000 -0.00000000 1.00000000
vn 0.00000000 -0.00000000 1.00000000
vn 0.00000000 -0.00000000 1.00000000
vn 0.00000000 -0.00000000 1.00000000
vn 0.00000000 -0.00000000 1.00000000
vn 0.00000000 -0.00000000 1.00000000
s 1
usemtl Canvas
f 12/28/28 11/27/27 9/25/25
f 11/27/27 10/26/26 9/25/25
s 2
f 14/30/30 15/31/31 16/32/32
f 13/29/29 14/30/30 17/33/33
f 17/33/33 11/36/36 12/37/37
f 12/37/37 20/38/38 21/39/39
f 18/34/34 19/35/35 11/36/36
f 17/33/33 18/34/34 11/36/36
f 17/33/33 12/37/37 13/29/29
f 12/37/37 21/39/39 13/29/29
f 14/30/30 16/32/32 17/33/33
s 3
f 13/40/40 22/41/41 14/42/42
s 4
f 22/43/43 23/44/44 14/45/45
f 16/55/54 23/54/44 26/53/53
f 18/58/56 26/57/53 27/56/55
f 25/63/61 22/64/43 21/65/62
s 5
f 22/48/48 25/47/47 24/46/46
f 28/52/52 23/49/49 24/46/46
f 28/52/52 26/50/50 23/49/49
f 28/52/52 27/51/51 26/50/50
f 23/49/49 22/48/48 24/46/46
s 6
f 29/59/57 30/60/58 28/61/59
f 29/59/57 28/61/59 24/62/60
s 7
f 21/66/63 22/67/64 13/68/65
s 8
f 20/69/66 25/70/67 21/71/68
s 9
f 18/74/71 27/73/70 19/72/69
s 10
f 17/77/74 26/76/73 18/75/72
s 11
f 16/80/77 26/79/76 17/78/75
s 12
f 15/81/78 23/82/79 16/83/80
s 13
f 14/86/83 23/85/82 15/84/81
s 14
f 25/87/84 20/92/89 12/91/88
f 12/91/88 9/90/87 24/88/85
f 9/90/87 29/89/86 24/88/85
f 24/88/85 25/87/84 12/91/88
s 15
f 10/96/93 30/95/92 29/94/91
f 10/96/93 29/94/91 9/93/90
s 16
f 11/101/98 19/102/99 27/97/94
f 28/98/95 10/100/97 11/101/98
f 28/98/95 30/99/96 10/100/97
f 11/101/98 27/97/94 28/98/95
