mtllib Materials_Modular_Village.mtl
o object1
g object1
v 0.55000000 0.60000000 0.50000000
v 0.50700664 0.50971395 0.50000000
v 0.41672059 0.55270731 0.50000000
v 0.45971395 0.64299336 0.50000000
v 0.45971395 0.64299336 -0.45000000
v 0.41672059 0.55270731 -0.45000000
v -0.50000000 0.98924092 -0.45000000
v -0.50000000 1.10000000 -0.45000000
v -0.50000000 1.10000000 -0.55000000
v -0.50000000 0.98924092 -0.55000000
v 0.50700664 0.50971395 -0.55000000
v 0.55000000 0.60000000 -0.55000000
vt 1.00000000 1.00000000
vt 0.00000000 1.00000000
vt 0.00000000 0.00000000
vt 1.00000000 0.00000000
vt 1.00000000 1.00000000
vt 0.00000000 1.00000000
vt 0.00000000 0.00000000
vt 1.00000000 0.00000000
vt 0.20114535 0.00000000
vt 1.00000000 0.95127270
vt 0.83632021 1.00000000
vt 0.00000000 0.00411348
vt 1.00000000 0.00000000
vt 1.00000000 1.00000000
vt 0.00000000 1.00000000
vt 0.00000000 0.00000000
vt 0.00000000 0.00376110
vt 0.18647401 0.00000000
vt 1.00000000 0.95544684
vt 0.84825884 1.00000000
vt 0.00000000 0.00000000
vt 1.00000000 0.00000000
vt 1.00000000 0.08598672
vt 0.09523810 0.08598672
vt 0.09523810 1.00000000
vt 0.00000000 1.00000000
vt 1.00000000 0.00000000
vt 1.00000000 1.00000000
vt 0.00000000 1.00000000
vt 0.00000000 0.00000000
vt 0.00000000 1.00000000
vt 0.00000000 0.00000000
vt 0.09523810 0.00000000
vt 0.09523810 0.91034215
vt 1.00000000 0.91034215
vt 1.00000000 1.00000000
vn 0.00000000 0.00000000 1.00000000
vn 0.00000000 0.00000000 1.00000000
vn 0.00000000 0.00000000 1.00000000
vn 0.00000000 0.00000000 1.00000000
vn -0.90286052 0.42993358 0.00000000
vn -0.90286052 0.42993358 0.00000000
vn -0.90286052 0.42993358 0.00000000
vn -0.90286052 0.42993358 0.00000000
vn -0.00000000 0.00000000 1.00000000
vn -0.00000000 0.00000000 1.00000000
vn -0.00000000 0.00000000 1.00000000
vn -0.00000000 0.00000000 1.00000000
vn -1.00000000 0.00000000 0.00000000
vn -1.00000000 0.00000000 0.00000000
vn -1.00000000 0.00000000 0.00000000
vn -1.00000000 0.00000000 0.00000000
vn 0.00000000 -0.00000000 -1.00000000
vn 0.00000000 -0.00000000 -1.00000000
vn 0.00000000 0.00000000 -1.00000000
vn 0.00000000 0.00000000 -1.00000000
vn 0.42993358 0.90286052 0.00000000
vn 0.42993358 0.90286052 0.00000000
vn 0.42993358 0.90286052 0.00000000
vn 0.42993358 0.90286052 0.00000000
vn 0.42993358 0.90286052 0.00000000
vn 0.42993358 0.90286052 0.00000000
vn 0.90286052 -0.42993358 -0.00000000
vn 0.90286052 -0.42993358 -0.00000000
vn 0.90286052 -0.42993358 -0.00000000
vn 0.90286052 -0.42993358 -0.00000000
vn -0.42993358 -0.90286052 -0.00000000
vn -0.42993358 -0.90286052 -0.00000000
vn -0.42993358 -0.90286052 -0.00000000
vn -0.42993358 -0.90286052 -0.00000000
vn -0.42993358 -0.90286052 -0.00000000
vn -0.42993358 -0.90286052 -0.00000000
s 1
usemtl Wood_Dark
f 4/4/4 3/3/3 1/1/1
f 3/3/3 2/2/2 1/1/1
s 2
f 4/5/5 5/6/6 3/8/8
f 5/6/6 6/7/7 3/8/8
s 3
f 7/9/9 6/10/10 5/11/11
f 7/9/9 5/11/11 8/12/12
s 4
f 8/13/13 9/14/14 10/15/15
f 8/13/13 10/15/15 7/16/16
s 5
f 12/20/20 11/19/19 10/18/18
f 12/20/20 10/18/18 9/17/17
s 6
f 5/24/24 4/23/23 1/22/22
f 9/26/26 5/24/24 12/21/21
f 9/26/26 8/25/25 5/24/24
f 5/24/24 1/22/22 12/21/21
s 7
f 11/30/30 12/29/29 1/28/28
f 11/30/30 1/28/28 2/27/27
s 8
f 2/36/36 3/35/35 6/34/34
f 6/34/34 10/32/32 11/31/31
f 6/34/34 7/33/33 10/32/32
f 11/31/31 2/36/36 6/34/34
o object2
g object2
v 0.55000000 0.15000000 0.23750000
v 0.65000000 0.60000000 0.23750000
v 0.55000000 0.10000000 0.08000000
v 0.55000000 -0.00000000 -0.02500000
v 0.55000000 0.10000000 -0.13000000
v 0.55000000 0.15000000 -0.28750000
v 0.55000000 0.10000000 -0.44500000
v 0.55000000 -0.00000000 -0.55000000
v 0.55000000 0.60000000 -0.55000000
v 0.55000000 0.60000000 0.50000000
v 0.55000000 -0.00000000 0.50000000
v 0.55000000 0.10000000 0.39500000
v 0.65000000 0.60000000 -0.02500000
v 0.65000000 0.60000000 -0.28750000
v 0.55000000 0.71180340 0.50000000
v 0.65000000 0.60000000 0.50000000
v 0.65000000 0.60000000 -0.55000000
v 0.55000000 0.71180340 -0.55000000
v -0.50000000 1.21180340 0.50000000
v -0.50000000 1.21180340 -0.55000000
v -0.50000000 1.10000000 -0.55000000
v -0.50000000 -0.00000000 -0.55000000
v -0.50000000 1.10000000 -0.65000000
v -0.50000000 1.10000000 0.50000000
v -0.39500000 0.10000000 -0.55000000
v -0.23750000 0.97500000 -0.65000000
v -0.23750000 0.15000000 -0.55000000
v -0.08000000 0.10000000 -0.55000000
v 0.02500000 0.85000000 -0.65000000
v 0.02500000 -0.00000000 -0.55000000
v 0.13000000 0.10000000 -0.55000000
v 0.28750000 0.72500000 -0.65000000
v 0.28750000 0.15000000 -0.55000000
v 0.44500000 0.10000000 -0.55000000
v 0.55000000 0.60000000 -0.65000000
vt 0.90000000 1.00000000
vt 0.00000000 0.95061728
vt 1.00000000 0.00000000
vt 0.75000000 0.25000000
vt 0.83333333 0.40000000
vt 1.00000000 0.50000000
vt 0.83333333 0.60000000
vt 0.75000000 0.75000000
vt 0.83333333 0.90000000
vt 1.00000000 1.00000000
vt 0.00000000 1.00000000
vt 0.00000000 0.00000000
vt 1.00000000 0.00000000
vt 0.83333333 0.10000000
vt 1.00000000 0.85714286
vt 0.00000000 1.00000000
vt 0.83333333 0.00000000
vt 0.00000000 1.00000000
vt 0.00000000 0.00000000
vt 1.00000000 0.40000000
vt 1.00000000 0.00000000
vt 1.00000000 1.00000000
vt 0.75000000 1.00000000
vt 0.50000000 1.00000000
vt 0.25000000 1.00000000
vt 0.00000000 1.00000000
vt 0.00000000 0.00000000
vt 1.00000000 1.00000000
vt 0.00000000 1.00000000
vt 0.00000000 0.00000000
vt 1.00000000 0.00000000
vt 0.08695652 0.09226199
vt 0.08695652 1.00000000
vt 0.00000000 0.09226199
vt 0.08695652 0.00000000
vt 1.00000000 0.00000000
vt 1.00000000 0.09226199
vt 1.00000000 0.91666667
vt 0.00000000 1.00000000
vt 0.90909091 0.00000000
vt 0.00000000 1.00000000
vt 0.12500000 0.00000000
vt 1.00000000 0.62105263
vt 1.00000000 1.00000000
vt 0.00000000 0.02693603
vt 0.94285714 0.00000000
vt 0.94285714 1.00000000
vt 0.00000000 0.97306397
vt 1.00000000 0.00000000
vt 0.00000000 1.00000000
vt 0.14285714 0.00000000
vt 1.00000000 0.42500000
vt 1.00000000 0.89473684
vt 0.00000000 1.00000000
vt 0.88235294 0.00000000
vt 1.00000000 0.89473684
vt 0.00000000 1.00000000
vt 0.88235294 0.00000000
vt 0.16666667 1.00000000
vt 0.00000000 0.00000000
vt 1.00000000 0.37142857
vt 0.92000000 1.00000000
vt 0.00000000 0.96135266
vt 1.00000000 0.00000000
vt 1.00000000 1.00000000
vt 0.00000000 0.03864734
vt 0.92000000 0.00000000
vt 0.20000000 1.00000000
vt 0.00000000 0.00000000
vt 1.00000000 0.56363636
vt 1.00000000 0.85714286
vt 0.00000000 1.00000000
vt 0.83333333 0.00000000
vt 1.00000000 1.00000000
vt 0.00000000 0.97297297
vt 1.00000000 0.00000000
vt 0.25000000 0.00000000
vt 0.50000000 0.00000000
vt 0.75000000 0.00000000
vt 1.00000000 0.00000000
vt 1.00000000 1.00000000
vt 0.00000000 1.00000000
vt 0.00000000 0.00000000
vt 1.00000000 0.00000000
vt 1.00000000 1.00000000
vt 0.00000000 0.44444444
vt 0.00000000 1.00000000
vt 0.00000000 0.00000000
vt 1.00000000 0.60000000
vt 0.00000000 1.00000000
vt 0.00000000 0.00000000
vt 1.00000000 0.60000000
vt 0.90000000 1.00000000
vt 0.00000000 0.95061728
vt 1.00000000 0.00000000
vt 1.00000000 1.00000000
vt 0.00000000 0.04938272
vt 0.90000000 0.00000000
vt 1.00000000 0.85714286
vt 0.00000000 1.00000000
vt 0.83333333 0.00000000
vt 0.86363636 0.25000000
vt 0.90909091 0.40000000
vt 1.00000000 0.50000000
vt 0.90909091 0.60000000
vt 0.86363636 0.75000000
vt 0.90909091 0.90000000
vt 1.00000000 1.00000000
vt 0.00000000 1.00000000
vt 0.45454545 0.00000000
vt 1.00000000 0.00000000
vt 0.90909091 0.10000000
vt 1.00000000 1.00000000
vt 0.00000000 1.00000000
vt 0.00000000 0.00000000
vt 1.00000000 0.00000000
vt 0.49512982 0.00000000
vt 0.58739182 0.08695652
vt 1.00000000 1.00000000
vt 0.90773801 1.00000000
vt 0.49512982 0.08695652
vt 0.00000000 0.08695652
vt 1.00000000 0.85714286
vt 0.00000000 1.00000000
vt 0.83333333 0.00000000
vt 1.00000000 0.85714286
vt 0.00000000 1.00000000
vt 0.83333333 0.00000000
vt 1.00000000 1.00000000
vt 0.00000000 0.04938272
vt 0.90000000 0.00000000
vt 0.00000000 1.00000000
vt 0.00000000 0.00000000
vt 1.00000000 0.40000000
vn 0.97388041 -0.21641787 0.06870409
vn 0.97388041 -0.21641787 0.06870409
vn 0.97388041 -0.21641787 0.06870409
vn -1.00000000 -0.00000000 -0.00000000
vn -1.00000000 -0.00000000 -0.00000000
vn -1.00000000 -0.00000000 -0.00000000
vn -1.00000000 -0.00000000 -0.00000000
vn -1.00000000 -0.00000000 -0.00000000
vn -1.00000000 -0.00000000 -0.00000000
vn -1.00000000 -0.00000000 -0.00000000
vn -1.00000000 -0.00000000 -0.00000000
vn -1.00000000 -0.00000000 -0.00000000
vn -1.00000000 -0.00000000 -0.00000000
vn -1.00000000 -0.00000000 -0.00000000
vn 0.97452139 -0.16242023 -0.15468593
vn 0.97452139 -0.16242023 -0.15468593
vn 0.97452139 -0.16242023 -0.15468593
vn 0.98058068 -0.19611614 0.00000000
vn 0.98058068 -0.19611614 0.00000000
vn 0.98058068 -0.19611614 0.00000000
vn 0.74535599 0.66666667 0.00000000
vn 0.74535599 0.66666667 0.00000000
vn 0.74535599 0.66666667 0.00000000
vn 0.74535599 0.66666667 0.00000000
vn 0.74535599 0.66666667 0.00000000
vn 0.74535599 0.66666667 0.00000000
vn 0.74535599 0.66666667 0.00000000
vn 0.42993358 0.90286052 0.00000000
vn 0.42993358 0.90286052 0.00000000
vn 0.42993358 0.90286052 0.00000000
vn 0.42993358 0.90286052 0.00000000
vn -1.00000000 0.00000000 -0.00000000
vn -1.00000000 0.00000000 -0.00000000
vn -1.00000000 0.00000000 -0.00000000
vn -1.00000000 0.00000000 -0.00000000
vn -1.00000000 0.00000000 -0.00000000
vn -1.00000000 0.00000000 -0.00000000
vn 0.08590577 -0.09020106 -0.99221165
vn 0.08590577 -0.09020106 -0.99221165
vn 0.08590577 -0.09020106 -0.99221165
vn -0.04978807 -0.10455495 -0.99327207
vn -0.04978807 -0.10455495 -0.99327207
vn -0.04978807 -0.10455495 -0.99327207
vn 0.03817259 -0.12024367 -0.99201024
vn 0.03817259 -0.12024367 -0.99201024
vn 0.03817259 -0.12024367 -0.99201024
vn -0.03817259 -0.12024367 -0.99201024
vn -0.03817259 -0.12024367 -0.99201024
vn -0.05896140 -0.12381895 -0.99055157
vn -0.11059476 -0.11612449 -0.98705821
vn -0.11059476 -0.11612449 -0.98705821
vn 0.11059476 -0.11612449 -0.98705821
vn 0.11059476 -0.11612449 -0.98705821
vn 0.11059476 -0.11612449 -0.98705821
vn -0.06719131 -0.14110176 -0.98771232
vn -0.06719131 -0.14110176 -0.98771232
vn 0.05431373 -0.17108826 -0.98375750
vn 0.05431373 -0.17108826 -0.98375750
vn 0.05431373 -0.17108826 -0.98375750
vn -0.05431373 -0.17108826 -0.98375750
vn -0.05431373 -0.17108826 -0.98375750
vn -0.08487616 -0.17823993 -0.98031962
vn -0.15468593 -0.16242023 -0.97452139
vn -0.15468593 -0.16242023 -0.97452139
vn -0.15468593 -0.16242023 -0.97452139
vn 0.70224688 -0.11704115 -0.70224688
vn 0.70224688 -0.11704115 -0.70224688
vn 0.70224688 -0.11704115 -0.70224688
vn 0.30257913 0.63541618 -0.71041688
vn 0.30257913 0.63541618 -0.71041688
vn 0.30257913 0.63541618 -0.71041688
vn 0.30257913 0.63541618 -0.71041688
vn 0.30257913 0.63541618 -0.71041688
vn 0.30257913 0.63541618 -0.71041688
vn 0.30257913 0.63541618 -0.71041688
vn 0.59761430 0.53452248 -0.59761430
vn 0.59761430 0.53452248 -0.59761430
vn 0.59761430 0.53452248 -0.59761430
vn 0.98058068 -0.19611614 0.00000000
vn 0.98058068 -0.19611614 0.00000000
vn 0.98058068 -0.19611614 0.00000000
vn 0.98058068 -0.19611614 0.00000000
vn 0.98058068 -0.19611614 0.00000000
vn 0.97388041 -0.21641787 -0.06870409
vn 0.97388041 -0.21641787 -0.06870409
vn 0.97388041 -0.21641787 -0.06870409
vn 0.97388041 -0.21641787 0.06870409
vn 0.97388041 -0.21641787 0.06870409
vn 0.97388041 -0.21641787 0.06870409
vn 0.97452139 -0.16242023 0.15468593
vn 0.97452139 -0.16242023 0.15468593
vn 0.97452139 -0.16242023 0.15468593
vn -0.00000000 -0.00000000 1.00000000
vn -0.00000000 -0.00000000 1.00000000
vn -0.00000000 -0.00000000 1.00000000
vn -0.00000000 -0.00000000 1.00000000
vn -0.00000000 -0.00000000 1.00000000
vn -0.00000000 -0.00000000 1.00000000
vn -0.00000000 -0.00000000 1.00000000
vn -0.00000000 -0.00000000 1.00000000
vn -0.00000000 -0.00000000 1.00000000
vn -0.00000000 -0.00000000 1.00000000
vn -0.00000000 -0.00000000 1.00000000
vn -0.42993358 -0.90286052 -0.00000000
vn -0.42993358 -0.90286052 -0.00000000
vn -0.42993358 -0.90286052 -0.00000000
vn -0.42993358 -0.90286052 -0.00000000
vn -0.00000000 -0.00000000 1.00000000
vn -0.00000000 -0.00000000 1.00000000
vn -0.00000000 -0.00000000 1.00000000
vn -0.00000000 -0.00000000 1.00000000
vn -0.00000000 -0.00000000 1.00000000
vn -0.00000000 -0.00000000 1.00000000
vn 0.97452139 -0.16242023 -0.15468593
vn 0.97452139 -0.16242023 -0.15468593
vn 0.97452139 -0.16242023 -0.15468593
vn 0.97452139 -0.16242023 0.15468593
vn 0.97452139 -0.16242023 0.15468593
vn 0.97452139 -0.16242023 0.15468593
vn 0.97388041 -0.21641787 -0.06870409
vn 0.97388041 -0.21641787 -0.06870409
vn 0.97388041 -0.21641787 -0.06870409
vn 0.98058068 -0.19611614 0.00000000
s 1
usemtl Canvas
f 15/39/39 14/38/38 13/37/37
s 2
f 17/43/43 16/42/42 15/41/41
f 18/44/44 15/41/41 13/40/40
f 13/40/40 24/50/50 22/48/48
f 24/50/50 23/49/49 22/48/48
f 13/40/40 22/48/48 18/44/44
f 22/48/48 21/47/47 18/44/44
f 21/47/47 20/46/46 19/45/45
f 21/47/47 19/45/45 18/44/44
f 18/44/44 17/43/43 15/41/41
s 3
f 17/53/53 25/52/52 16/51/51
s 4
f 26/54/54 25/55/55 17/56/56
f 15/170/159 25/169/55 14/168/118
f 24/128/119 14/127/118 28/126/117
f 29/123/115 26/124/54 19/125/116
s 5
f 27/57/57 28/58/58 14/59/59
f 27/57/57 25/60/60 30/63/63
f 26/61/61 29/62/62 30/63/63
f 25/60/60 26/61/61 30/63/63
f 27/57/57 14/59/59 25/60/60
s 6
f 27/67/67 30/66/66 31/64/64
f 30/66/66 32/65/65 31/64/64
s 7
f 33/68/68 36/73/73 31/72/72
f 35/70/70 34/69/69 33/68/68
f 33/68/68 32/71/71 35/70/70
f 33/68/68 31/72/72 32/71/71
s 8
f 34/74/74 35/75/75 37/76/76
s 9
f 35/77/77 38/78/78 37/79/79
f 38/86/78 41/87/85 40/88/84
f 43/97/92 41/96/85 44/95/91
f 46/106/96 44/105/91 47/104/98
f 45/103/97 44/102/91 46/101/96
f 40/91/87 41/90/85 42/89/86
f 39/83/83 38/84/78 40/85/84
s 10
f 37/80/80 38/81/81 39/82/82
s 11
f 42/92/88 41/93/89 43/94/90
s 12
f 43/100/95 44/99/94 45/98/93
s 13
f 46/109/101 47/108/100 20/107/99
s 14
f 20/112/104 47/111/103 29/110/102
s 15
f 30/117/109 47/116/108 44/115/107
f 32/118/110 30/117/109 41/114/106
f 41/114/106 38/113/105 32/118/110
f 38/113/105 35/119/111 32/118/110
f 30/117/109 44/115/107 41/114/106
s 16
f 47/122/114 30/121/113 29/120/112
s 17
f 18/129/120 26/130/121 17/131/122
s 18
f 19/132/123 26/133/124 18/134/125
s 19
f 20/135/126 29/136/127 19/137/128
s 20
f 40/141/132 42/140/131 43/139/130
f 39/142/133 40/141/132 33/145/136
f 33/145/136 34/144/135 37/143/134
f 45/138/129 21/146/137 33/145/136
f 46/148/139 20/147/138 21/146/137
f 45/138/129 46/148/139 21/146/137
f 37/143/134 39/142/133 33/145/136
f 40/141/132 45/138/129 33/145/136
f 40/141/132 43/139/130 45/138/129
s 21
f 36/149/140 33/150/141 21/151/142
f 36/149/140 21/151/142 22/152/143
s 22
f 22/157/148 23/158/149 28/153/144
f 27/154/145 36/156/147 22/157/148
f 27/154/145 31/155/146 36/156/147
f 22/157/148 28/153/144 27/154/145
s 23
f 24/161/152 28/160/151 23/159/150
s 24
f 16/162/153 25/163/154 15/164/155
s 25
f 13/167/158 14/166/157 24/165/156
