mtllib Materials_Modular_Village.mtl
o object1
g object1
v -1.00000000 -0.00421306 -0.50000000
v -1.00000000 -0.00421306 0.50000000
v -0.50000000 0.04578694 0.50000000
v -0.50000000 0.04578694 -0.50000000
v -1.00000000 -0.20000000 -0.50000000
v -1.00000000 -0.20000000 0.50000000
v 0.00000000 -0.20000000 -0.50000000
v 0.00000000 -0.20000000 0.50000000
v 0.00000000 -0.00421306 -0.50000000
v 0.00000000 -0.00421306 0.50000000
vt 0.00000000 0.00000000
vt 1.00000000 0.00000000
vt 1.00000000 1.00000000
vt 0.00000000 1.00000000
vt 0.00000000 0.00000000
vt 1.00000000 0.00000000
vt 1.00000000 1.00000000
vt 0.00000000 1.00000000
vt 0.00000000 0.00000000
vt 1.00000000 0.00000000
vt 1.00000000 1.00000000
vt 0.00000000 1.00000000
vt 0.00000000 0.00000000
vt 1.00000000 0.00000000
vt 1.00000000 1.00000000
vt 0.00000000 1.00000000
vt 0.20342822 0.00000000
vt 1.00000000 0.00000000
vt 1.00000000 1.00000000
vt 0.20342822 1.00000000
vt 0.00000000 0.50000000
vt 0.00000000 0.00000000
vt 1.00000000 0.00000000
vt 1.00000000 1.00000000
vt 0.00000000 1.00000000
vt 0.00000000 0.00000000
vt 0.79657178 0.00000000
vt 1.00000000 0.50000000
vt 0.79657178 1.00000000
vt 0.00000000 1.00000000
vn -0.09950372 0.99503719 -0.00000000
vn -0.09950372 0.99503719 -0.00000000
vn -0.09950372 0.99503719 -0.00000000
vn -0.09950372 0.99503719 -0.00000000
vn -1.00000000 0.00000000 0.00000000
vn -1.00000000 0.00000000 0.00000000
vn -1.00000000 0.00000000 0.00000000
vn -1.00000000 0.00000000 0.00000000
vn 0.00000000 -1.00000000 0.00000000
vn 0.00000000 -1.00000000 0.00000000
vn 0.00000000 -1.00000000 0.00000000
vn 0.00000000 -1.00000000 0.00000000
vn 1.00000000 0.00000000 0.00000000
vn 1.00000000 0.00000000 0.00000000
vn 1.00000000 0.00000000 0.00000000
vn 1.00000000 0.00000000 0.00000000
vn 0.00000000 -0.00000000 -1.00000000
vn 0.00000000 -0.00000000 -1.00000000
vn 0.00000000 -0.00000000 -1.00000000
vn 0.00000000 -0.00000000 -1.00000000
vn 0.00000000 -0.00000000 -1.00000000
vn 0.09950372 0.99503719 -0.00000000
vn 0.09950372 0.99503719 -0.00000000
vn 0.09950372 0.99503719 -0.00000000
vn 0.09950372 0.99503719 -0.00000000
vn 0.00000000 0.00000000 1.00000000
vn 0.00000000 0.00000000 1.00000000
vn 0.00000000 0.00000000 1.00000000
vn 0.00000000 0.00000000 1.00000000
vn 0.00000000 0.00000000 1.00000000
s 1
usemtl Dirt
f 1/1/1 2/2/2 3/3/3
f 1/1/1 3/3/3 4/4/4
s 2
f 1/5/5 5/6/6 2/8/8
f 5/6/6 6/7/7 2/8/8
s 3
f 7/9/9 8/10/10 5/12/12
f 8/10/10 6/11/11 5/12/12
s 4
f 10/16/16 8/15/15 9/13/13
f 8/15/15 7/14/14 9/13/13
s 5
f 4/21/21 9/17/17 7/18/18
f 7/18/18 5/19/19 4/21/21
f 5/19/19 1/20/20 4/21/21
s 6
f 4/22/22 3/23/23 10/24/24
f 4/22/22 10/24/24 9/25/25
s 7
f 8/30/30 10/29/29 3/28/28
f 3/28/28 2/27/27 6/26/26
f 8/30/30 3/28/28 6/26/26
