mtllib Materials_Modular_Village.mtl
o object1
g object1
v -0.22530922 1.00000000 -0.09332614
v -0.22530922 1.00000000 0.09332614
v -0.22530922 0.00000000 0.09332614
v -0.22530922 0.00000000 -0.09332614
v -0.00000000 1.00000000 -0.22530922
v -0.09332614 1.00000000 -0.22530922
v -0.09332614 1.00000000 0.22530922
v -0.00000000 1.00000000 0.22530922
v -0.00000000 1.00000000 0.33245208
v -0.13770616 1.00000000 0.33245208
v -0.33245208 1.00000000 0.13770616
v -0.33245208 1.00000000 -0.13770616
v -0.13770616 1.00000000 -0.33245208
v -0.00000000 1.00000000 -0.33245208
v 0.09332614 1.00000000 0.22530922
v 0.22530922 1.00000000 0.09332614
v 0.22530922 1.00000000 -0.09332614
v 0.09332614 1.00000000 -0.22530922
v 0.13770616 1.00000000 -0.33245208
v 0.33245208 1.00000000 -0.13770616
v 0.33245208 1.00000000 0.13770616
v 0.13770616 1.00000000 0.33245208
v 0.09332614 0.00000000 0.22530922
v -0.09332614 0.00000000 0.22530922
v -0.00000000 0.00000000 0.22530922
v 0.22530922 0.00000000 0.09332614
v 0.22530922 0.00000000 -0.09332614
v 0.09332614 0.00000000 -0.22530922
v -0.09332614 0.00000000 -0.22530922
v -0.00000000 0.00000000 -0.22530922
v -0.33245208 0.00000000 -0.13770616
v -0.13770616 0.00000000 -0.33245208
v 0.13770616 0.00000000 -0.33245208
v -0.00000000 0.00000000 -0.33245208
v 0.33245208 0.00000000 -0.13770616
v 0.33245208 0.00000000 0.13770616
v 0.13770616 0.00000000 0.33245208
v -0.13770616 0.00000000 0.33245208
v -0.00000000 0.00000000 0.33245208
v -0.33245208 0.00000000 0.13770616
vt 0.00000000 1.00000000
vt 0.00000000 0.00000000
vt 1.00000000 0.00000000
vt 1.00000000 1.00000000
vt 0.83885970 0.50000000
vt 0.83885970 0.35963972
vt 0.64036028 0.16114030
vt 0.35963972 0.16114030
vt 0.16114030 0.35963972
vt 0.16114030 0.50000000
vt 0.00000000 0.50000000
vt 0.00000000 0.29289322
vt 0.29289322 0.00000000
vt 0.70710678 0.00000000
vt 1.00000000 0.29289322
vt 1.00000000 0.50000000
vt 0.16114030 0.64036028
vt 0.35963972 0.83885970
vt 0.64036028 0.83885970
vt 0.83885970 0.64036028
vt 1.00000000 0.70710678
vt 0.70710678 1.00000000
vt 0.29289322 1.00000000
vt 0.00000000 0.70710678
vt 0.00000000 1.00000000
vt 0.00000000 0.00000000
vt 1.00000000 0.00000000
vt 1.00000000 1.00000000
vt 0.00000000 0.50000000
vt 1.00000000 0.50000000
vt 0.00000000 1.00000000
vt 0.00000000 0.00000000
vt 1.00000000 0.00000000
vt 1.00000000 1.00000000
vt 0.00000000 1.00000000
vt 0.00000000 0.00000000
vt 1.00000000 0.00000000
vt 1.00000000 1.00000000
vt 0.00000000 1.00000000
vt 0.00000000 0.00000000
vt 1.00000000 0.00000000
vt 1.00000000 1.00000000
vt 0.00000000 1.00000000
vt 0.00000000 0.00000000
vt 1.00000000 0.00000000
vt 1.00000000 1.00000000
vt 0.00000000 0.50000000
vt 1.00000000 0.50000000
vt 0.00000000 1.00000000
vt 0.00000000 0.00000000
vt 1.00000000 0.00000000
vt 1.00000000 1.00000000
vt 0.00000000 1.00000000
vt 0.00000000 0.00000000
vt 1.00000000 0.00000000
vt 1.00000000 1.00000000
vt 1.00000000 0.50000000
vt 0.00000000 0.50000000
vt 0.00000000 1.00000000
vt 0.00000000 0.00000000
vt 1.00000000 0.00000000
vt 1.00000000 1.00000000
vt 0.00000000 1.00000000
vt 0.00000000 0.00000000
vt 1.00000000 0.00000000
vt 1.00000000 1.00000000
vt 0.00000000 1.00000000
vt 0.00000000 0.00000000
vt 1.00000000 0.00000000
vt 1.00000000 1.00000000
vt 0.00000000 1.00000000
vt 0.00000000 0.00000000
vt 1.00000000 0.00000000
vt 1.00000000 1.00000000
vt 1.00000000 0.50000000
vt 0.00000000 0.50000000
vt 0.00000000 1.00000000
vt 0.00000000 0.00000000
vt 1.00000000 0.00000000
vt 1.00000000 1.00000000
vt 0.00000000 1.00000000
vt 0.00000000 0.00000000
vt 1.00000000 0.00000000
vt 1.00000000 1.00000000
vt 0.00000000 1.00000000
vt 0.00000000 0.00000000
vt 1.00000000 0.00000000
vt 1.00000000 1.00000000
vt 0.83885970 0.50000000
vt 0.83885970 0.35963972
vt 0.64036028 0.16114030
vt 0.35963972 0.16114030
vt 0.16114030 0.35963972
vt 0.16114030 0.50000000
vt 0.00000000 0.50000000
vt 0.00000000 0.29289322
vt 0.29289322 0.00000000
vt 0.70710678 0.00000000
vt 1.00000000 0.29289322
vt 1.00000000 0.50000000
vt 0.16114030 0.64036028
vt 0.35963972 0.83885970
vt 0.64036028 0.83885970
vt 0.83885970 0.64036028
vt 1.00000000 0.70710678
vt 0.70710678 1.00000000
vt 0.29289322 1.00000000
vt 0.00000000 0.70710678
vt 0.00000000 1.00000000
vt 0.00000000 0.00000000
vt 1.00000000 0.00000000
vt 1.00000000 1.00000000
vn 1.00000000 0.00000000 0.00000000
vn 1.00000000 0.00000000 0.00000000
vn 1.00000000 0.00000000 0.00000000
vn 1.00000000 0.00000000 0.00000000
vn 0.00000000 1.00000000 0.00000000
vn 0.00000000 1.00000000 0.00000000
vn 0.00000000 1.00000000 0.00000000
vn 0.00000000 1.00000000 0.00000000
vn 0.00000000 1.00000000 0.00000000
vn 0.00000000 1.00000000 0.00000000
vn 0.00000000 1.00000000 0.00000000
vn 0.00000000 1.00000000 0.00000000
vn 0.00000000 1.00000000 0.00000000
vn 0.00000000 1.00000000 0.00000000
vn 0.00000000 1.00000000 0.00000000
vn 0.00000000 1.00000000 0.00000000
vn 0.00000000 1.00000000 0.00000000
vn 0.00000000 1.00000000 0.00000000
vn 0.00000000 1.00000000 0.00000000
vn 0.00000000 1.00000000 0.00000000
vn 0.00000000 1.00000000 0.00000000
vn 0.00000000 1.00000000 0.00000000
vn 0.00000000 1.00000000 0.00000000
vn 0.00000000 1.00000000 0.00000000
vn 0.00000000 0.00000000 -1.00000000
vn 0.00000000 0.00000000 -1.00000000
vn 0.00000000 0.00000000 -1.00000000
vn 0.00000000 0.00000000 -1.00000000
vn 0.00000000 0.00000000 -1.00000000
vn 0.00000000 0.00000000 -1.00000000
vn -0.70710678 0.00000000 -0.70710678
vn -0.70710678 0.00000000 -0.70710678
vn -0.70710678 0.00000000 -0.70710678
vn -0.70710678 0.00000000 -0.70710678
vn -1.00000000 0.00000000 0.00000000
vn -1.00000000 0.00000000 0.00000000
vn -1.00000000 0.00000000 0.00000000
vn -1.00000000 0.00000000 0.00000000
vn -0.70710678 0.00000000 0.70710678
vn -0.70710678 0.00000000 0.70710678
vn -0.70710678 0.00000000 0.70710678
vn -0.70710678 0.00000000 0.70710678
vn 0.00000000 0.00000000 1.00000000
vn 0.00000000 0.00000000 1.00000000
vn 0.00000000 0.00000000 1.00000000
vn 0.00000000 0.00000000 1.00000000
vn 0.00000000 0.00000000 1.00000000
vn 0.00000000 0.00000000 1.00000000
vn -0.70710678 0.00000000 -0.70710678
vn -0.70710678 0.00000000 -0.70710678
vn -0.70710678 0.00000000 -0.70710678
vn -0.70710678 0.00000000 -0.70710678
vn 0.00000000 0.00000000 -1.00000000
vn 0.00000000 0.00000000 -1.00000000
vn 0.00000000 0.00000000 -1.00000000
vn 0.00000000 0.00000000 -1.00000000
vn 0.00000000 0.00000000 -1.00000000
vn 0.00000000 0.00000000 -1.00000000
vn 0.70710678 0.00000000 -0.70710678
vn 0.70710678 0.00000000 -0.70710678
vn 0.70710678 0.00000000 -0.70710678
vn 0.70710678 0.00000000 -0.70710678
vn 1.00000000 0.00000000 0.00000000
vn 1.00000000 0.00000000 0.00000000
vn 1.00000000 0.00000000 0.00000000
vn 1.00000000 0.00000000 0.00000000
vn 0.70710678 0.00000000 0.70710678
vn 0.70710678 0.00000000 0.70710678
vn 0.70710678 0.00000000 0.70710678
vn 0.70710678 0.00000000 0.70710678
vn 0.00000000 0.00000000 1.00000000
vn 0.00000000 0.00000000 1.00000000
vn 0.00000000 0.00000000 1.00000000
vn 0.00000000 0.00000000 1.00000000
vn 0.00000000 0.00000000 1.00000000
vn 0.00000000 0.00000000 1.00000000
vn -0.70710678 0.00000000 0.70710678
vn -0.70710678 0.00000000 0.70710678
vn -0.70710678 0.00000000 0.70710678
vn -0.70710678 0.00000000 0.70710678
vn -1.00000000 0.00000000 -0.00000000
vn -1.00000000 0.00000000 -0.00000000
vn -1.00000000 0.00000000 -0.00000000
vn -1.00000000 0.00000000 -0.00000000
vn 0.70710678 0.00000000 0.70710678
vn 0.70710678 0.00000000 0.70710678
vn 0.70710678 0.00000000 0.70710678
vn 0.70710678 0.00000000 0.70710678
vn 0.00000000 -1.00000000 0.00000000
vn 0.00000000 -1.00000000 0.00000000
vn 0.00000000 -1.00000000 0.00000000
vn 0.00000000 -1.00000000 0.00000000
vn 0.00000000 -1.00000000 0.00000000
vn 0.00000000 -1.00000000 0.00000000
vn 0.00000000 -1.00000000 0.00000000
vn 0.00000000 -1.00000000 0.00000000
vn 0.00000000 -1.00000000 0.00000000
vn 0.00000000 -1.00000000 0.00000000
vn 0.00000000 -1.00000000 0.00000000
vn 0.00000000 -1.00000000 0.00000000
vn 0.00000000 -1.00000000 0.00000000
vn 0.00000000 -1.00000000 0.00000000
vn 0.00000000 -1.00000000 0.00000000
vn 0.00000000 -1.00000000 0.00000000
vn 0.00000000 -1.00000000 0.00000000
vn 0.00000000 -1.00000000 0.00000000
vn 0.00000000 -1.00000000 0.00000000
vn 0.00000000 -1.00000000 0.00000000
vn 0.70710678 0.00000000 -0.70710678
vn 0.70710678 0.00000000 -0.70710678
vn 0.70710678 0.00000000 -0.70710678
vn 0.70710678 0.00000000 -0.70710678
s 1
usemtl Stone_Brit_Gray_Dark
f 1/1/1 2/2/2 3/3/3
f 1/1/1 3/3/3 4/4/4
s 2
f 6/6/6 5/5/5 14/16/16
f 19/21/21 14/16/16 18/20/20
f 20/22/22 19/21/21 17/19/19
f 17/19/19 16/18/18 21/23/23
f 16/18/18 22/24/24 21/23/23
f 15/17/17 9/11/11 22/24/24
f 10/12/12 9/11/11 7/9/9
f 11/13/13 10/12/12 2/8/8
f 2/8/8 1/7/7 12/14/14
f 1/7/7 13/15/15 12/14/14
f 2/8/8 12/14/14 11/13/13
f 10/12/12 7/9/9 2/8/8
f 9/11/11 8/10/10 7/9/9
f 15/17/17 8/10/10 9/11/11
f 16/18/18 15/17/17 22/24/24
f 17/19/19 21/23/23 20/22/22
f 19/21/21 18/20/20 17/19/19
f 14/16/16 5/5/5 18/20/20
f 1/7/7 6/6/6 13/15/15
f 6/6/6 14/16/16 13/15/15
s 3
f 8/29/29 15/26/26 23/27/27
f 7/25/25 8/29/29 24/28/28
f 8/29/29 25/30/30 24/28/28
f 8/29/29 23/27/27 25/30/30
s 4
f 15/31/31 16/32/32 26/33/33
f 15/31/31 26/33/33 23/34/34
s 5
f 16/35/35 17/36/36 27/37/37
f 16/35/35 27/37/37 26/38/38
s 6
f 17/39/39 18/40/40 27/42/42
f 18/40/40 28/41/41 27/42/42
s 7
f 28/46/46 18/43/43 5/47/47
f 5/47/47 6/44/44 30/48/48
f 6/44/44 29/45/45 30/48/48
f 30/48/48 28/46/46 5/47/47
s 8
f 32/52/52 31/51/51 13/49/49
f 31/51/51 12/50/50 13/49/49
s 9
f 14/58/58 19/53/53 33/56/56
f 34/57/57 13/54/54 14/58/58
f 34/57/57 32/55/55 13/54/54
f 14/58/58 33/56/56 34/57/57
s 10
f 35/62/62 33/61/61 19/60/60
f 35/62/62 19/60/60 20/59/59
s 11
f 36/66/66 35/65/65 21/63/63
f 35/65/65 20/64/64 21/63/63
s 12
f 37/70/70 36/69/69 22/67/67
f 36/69/69 21/68/68 22/67/67
s 13
f 37/73/73 22/72/72 9/76/76
f 38/74/74 9/76/76 10/71/71
f 38/74/74 39/75/75 9/76/76
f 39/75/75 37/73/73 9/76/76
s 14
f 40/80/80 38/79/79 10/78/78
f 40/80/80 10/78/78 11/77/77
s 15
f 31/84/84 40/83/83 12/81/81
f 40/83/83 11/82/82 12/81/81
s 16
f 6/85/85 1/86/86 4/87/87
f 6/85/85 4/87/87 29/88/88
s 17
f 34/100/100 30/89/89 29/90/90
f 32/99/99 29/90/90 4/91/91
f 31/98/98 4/91/91 3/92/92
f 3/92/92 38/96/96 40/97/97
f 24/93/93 39/95/95 38/96/96
f 37/108/108 39/95/95 23/101/101
f 36/107/107 37/108/108 26/102/102
f 35/106/106 36/107/107 27/103/103
f 27/103/103 28/104/104 33/105/105
f 27/103/103 33/105/105 35/106/106
f 36/107/107 26/102/102 27/103/103
f 37/108/108 23/101/101 26/102/102
f 39/95/95 25/94/94 23/101/101
f 24/93/93 25/94/94 39/95/95
f 3/92/92 24/93/93 38/96/96
f 40/97/97 31/98/98 3/92/92
f 31/98/98 32/99/99 4/91/91
f 28/104/104 34/100/100 33/105/105
f 28/104/104 30/89/89 34/100/100
f 32/99/99 34/100/100 29/90/90
s 18
f 2/109/109 7/110/110 3/112/112
f 7/110/110 24/111/111 3/112/112
