mtllib Materials_Modular_Village.mtl
o object1
g object1
v 0.50000000 0.20000000 0.50000000
v 0.50000000 0.20000000 -0.50000000
v 0.50000000 0.00000000 -0.50000000
v 0.50000000 0.00000000 0.50000000
v 0.50000000 0.00000000 -0.00000000
v 0.50000000 0.20000000 -0.00000000
v -0.29154759 0.00000000 -0.00000000
v -0.29154759 0.00000000 0.12076297
v -0.12076297 0.00000000 0.29154759
v 0.12076297 0.00000000 0.29154759
v 0.29154759 0.00000000 0.12076297
v 0.29154759 0.00000000 -0.00000000
v -0.50000000 0.00000000 0.50000000
v -0.50000000 0.00000000 -0.00000000
v 0.29154759 0.00000000 -0.12076297
v 0.12076297 0.00000000 -0.29154759
v -0.12076297 0.00000000 -0.29154759
v -0.29154759 0.00000000 -0.12076297
v -0.50000000 0.00000000 -0.50000000
v 0.12076297 0.20000000 0.29154759
v -0.12076297 0.20000000 0.29154759
v -0.29154759 0.20000000 0.12076297
v -0.29154759 0.20000000 -0.12076297
v -0.29154759 0.20000000 -0.00000000
v -0.12076297 0.20000000 -0.29154759
v 0.12076297 0.20000000 -0.29154759
v 0.29154759 0.20000000 -0.12076297
v 0.29154759 0.20000000 0.12076297
v 0.29154759 0.20000000 -0.00000000
v -0.50000000 0.20000000 0.50000000
v -0.50000000 0.20000000 -0.50000000
v -0.50000000 0.20000000 -0.00000000
vt 1.00000000 0.00000000
vt 1.00000000 1.00000000
vt 0.00000000 1.00000000
vt 0.00000000 0.00000000
vt 0.00000000 0.50000000
vt 1.00000000 0.50000000
vt 0.79154759 0.50000000
vt 0.79154759 0.37923703
vt 0.62076297 0.20845241
vt 0.37923703 0.20845241
vt 0.20845241 0.37923703
vt 0.20845241 0.50000000
vt 0.00000000 0.50000000
vt 0.00000000 0.00000000
vt 1.00000000 0.00000000
vt 1.00000000 0.50000000
vt 0.20845241 0.62076297
vt 0.37923703 0.79154759
vt 0.62076297 0.79154759
vt 0.79154759 0.62076297
vt 1.00000000 1.00000000
vt 0.00000000 1.00000000
vt 1.00000000 0.00000000
vt 1.00000000 1.00000000
vt 0.00000000 1.00000000
vt 0.00000000 0.00000000
vt 1.00000000 0.00000000
vt 1.00000000 1.00000000
vt 0.00000000 1.00000000
vt 0.00000000 0.00000000
vt 1.00000000 0.00000000
vt 1.00000000 1.00000000
vt 0.00000000 1.00000000
vt 0.00000000 0.00000000
vt 0.00000000 0.50000000
vt 1.00000000 0.50000000
vt 1.00000000 0.00000000
vt 1.00000000 1.00000000
vt 0.00000000 1.00000000
vt 0.00000000 0.00000000
vt 1.00000000 0.00000000
vt 1.00000000 1.00000000
vt 0.00000000 1.00000000
vt 0.00000000 0.00000000
vt 1.00000000 0.00000000
vt 1.00000000 1.00000000
vt 0.00000000 1.00000000
vt 0.00000000 0.00000000
vt 1.00000000 0.00000000
vt 1.00000000 1.00000000
vt 0.00000000 1.00000000
vt 0.00000000 0.00000000
vt 0.00000000 0.50000000
vt 1.00000000 0.50000000
vt 1.00000000 0.00000000
vt 1.00000000 1.00000000
vt 0.00000000 1.00000000
vt 0.00000000 0.00000000
vt 1.00000000 0.00000000
vt 1.00000000 1.00000000
vt 0.00000000 1.00000000
vt 0.00000000 0.00000000
vt 1.00000000 0.50000000
vt 0.00000000 0.50000000
vt 1.00000000 0.00000000
vt 1.00000000 1.00000000
vt 0.00000000 1.00000000
vt 0.00000000 0.00000000
vt 0.79154759 0.50000000
vt 0.79154759 0.37923703
vt 0.62076297 0.20845241
vt 0.37923703 0.20845241
vt 0.20845241 0.37923703
vt 0.20845241 0.50000000
vt 0.00000000 0.50000000
vt 0.00000000 0.00000000
vt 1.00000000 0.00000000
vt 1.00000000 0.50000000
vt 0.20845241 0.62076297
vt 0.37923703 0.79154759
vt 0.62076297 0.79154759
vt 0.79154759 0.62076297
vt 1.00000000 1.00000000
vt 0.00000000 1.00000000
vt 1.00000000 0.00000000
vt 1.00000000 1.00000000
vt 0.00000000 1.00000000
vt 0.00000000 0.00000000
vn 1.00000000 0.00000000 0.00000000
vn 1.00000000 0.00000000 0.00000000
vn 1.00000000 0.00000000 0.00000000
vn 1.00000000 0.00000000 0.00000000
vn 1.00000000 0.00000000 0.00000000
vn 1.00000000 0.00000000 0.00000000
vn 0.00000000 -1.00000000 0.00000000
vn 0.00000000 -1.00000000 0.00000000
vn 0.00000000 -1.00000000 0.00000000
vn 0.00000000 -1.00000000 0.00000000
vn 0.00000000 -1.00000000 0.00000000
vn 0.00000000 -1.00000000 0.00000000
vn 0.00000000 -1.00000000 0.00000000
vn 0.00000000 -1.00000000 0.00000000
vn 0.00000000 -1.00000000 0.00000000
vn 0.00000000 -1.00000000 0.00000000
vn 0.00000000 -1.00000000 0.00000000
vn 0.00000000 -1.00000000 0.00000000
vn 0.00000000 -1.00000000 0.00000000
vn 0.00000000 -1.00000000 0.00000000
vn 0.00000000 -1.00000000 0.00000000
vn 0.00000000 -1.00000000 0.00000000
vn -0.00000000 0.00000000 -1.00000000
vn -0.00000000 0.00000000 -1.00000000
vn -0.00000000 0.00000000 -1.00000000
vn -0.00000000 0.00000000 -1.00000000
vn 0.70710678 0.00000000 -0.70710678
vn 0.70710678 0.00000000 -0.70710678
vn 0.70710678 0.00000000 -0.70710678
vn 0.70710678 0.00000000 -0.70710678
vn 1.00000000 0.00000000 0.00000000
vn 1.00000000 0.00000000 0.00000000
vn 1.00000000 0.00000000 0.00000000
vn 1.00000000 0.00000000 0.00000000
vn 1.00000000 0.00000000 0.00000000
vn 1.00000000 0.00000000 0.00000000
vn 0.70710678 0.00000000 0.70710678
vn 0.70710678 0.00000000 0.70710678
vn 0.70710678 0.00000000 0.70710678
vn 0.70710678 0.00000000 0.70710678
vn 0.00000000 0.00000000 1.00000000
vn 0.00000000 0.00000000 1.00000000
vn 0.00000000 0.00000000 1.00000000
vn 0.00000000 0.00000000 1.00000000
vn -0.70710678 0.00000000 0.70710678
vn -0.70710678 0.00000000 0.70710678
vn -0.70710678 0.00000000 0.70710678
vn -0.70710678 0.00000000 0.70710678
vn -1.00000000 0.00000000 0.00000000
vn -1.00000000 0.00000000 0.00000000
vn -1.00000000 0.00000000 0.00000000
vn -1.00000000 0.00000000 0.00000000
vn -1.00000000 0.00000000 0.00000000
vn -1.00000000 0.00000000 0.00000000
vn -0.70710678 0.00000000 -0.70710678
vn -0.70710678 0.00000000 -0.70710678
vn -0.70710678 0.00000000 -0.70710678
vn -0.70710678 0.00000000 -0.70710678
vn -1.00000000 0.00000000 0.00000000
vn -1.00000000 0.00000000 0.00000000
vn -1.00000000 0.00000000 0.00000000
vn -1.00000000 0.00000000 0.00000000
vn -1.00000000 0.00000000 0.00000000
vn -1.00000000 0.00000000 0.00000000
vn 0.00000000 0.00000000 1.00000000
vn 0.00000000 0.00000000 1.00000000
vn 0.00000000 0.00000000 1.00000000
vn 0.00000000 0.00000000 1.00000000
vn 0.00000000 1.00000000 -0.00000000
vn 0.00000000 1.00000000 -0.00000000
vn 0.00000000 1.00000000 0.00000000
vn 0.00000000 1.00000000 -0.00000000
vn 0.00000000 1.00000000 -0.00000000
vn 0.00000000 1.00000000 -0.00000000
vn 0.00000000 1.00000000 -0.00000000
vn 0.00000000 1.00000000 -0.00000000
vn 0.00000000 1.00000000 -0.00000000
vn 0.00000000 1.00000000 -0.00000000
vn 0.00000000 1.00000000 0.00000000
vn 0.00000000 1.00000000 0.00000000
vn 0.00000000 1.00000000 0.00000000
vn 0.00000000 1.00000000 0.00000000
vn 0.00000000 1.00000000 0.00000000
vn 0.00000000 1.00000000 0.00000000
vn 0.00000000 0.00000000 -1.00000000
vn 0.00000000 0.00000000 -1.00000000
vn 0.00000000 0.00000000 -1.00000000
vn 0.00000000 0.00000000 -1.00000000
s 1
usemtl Grass
f 6/6/6 1/1/1 4/4/4
f 4/4/4 5/5/5 6/6/6
f 5/5/5 3/3/3 6/6/6
f 3/3/3 2/2/2 6/6/6
s 2
f 14/16/16 7/7/7 8/8/8
f 13/15/15 8/8/8 9/9/9
f 10/10/10 4/14/14 13/15/15
f 11/11/11 5/13/13 4/14/14
f 3/22/22 5/13/13 15/17/17
f 16/18/18 19/21/21 3/22/22
f 17/19/19 18/20/20 19/21/21
f 16/18/18 17/19/19 19/21/21
f 3/22/22 15/17/17 16/18/18
f 5/13/13 12/12/12 15/17/17
f 11/11/11 12/12/12 5/13/13
f 10/10/10 11/11/11 4/14/14
f 13/15/15 9/9/9 10/10/10
f 18/20/20 14/16/16 19/21/21
f 18/20/20 7/7/7 14/16/16
f 13/15/15 14/16/16 8/8/8
s 3
f 10/26/26 9/25/25 20/23/23
f 9/25/25 21/24/24 20/23/23
s 4
f 9/30/30 8/29/29 21/27/27
f 8/29/29 22/28/28 21/27/27
s 5
f 7/35/35 18/33/33 23/32/32
f 8/34/34 7/35/35 24/36/36
f 24/36/36 22/31/31 8/34/34
f 7/35/35 23/32/32 24/36/36
s 6
f 18/40/40 17/39/39 23/37/37
f 17/39/39 25/38/38 23/37/37
s 7
f 17/44/44 16/43/43 25/41/41
f 16/43/43 26/42/42 25/41/41
s 8
f 16/48/48 15/47/47 26/45/45
f 15/47/47 27/46/46 26/45/45
s 9
f 29/54/54 27/49/49 15/52/52
f 15/52/52 12/53/53 29/54/54
f 12/53/53 11/51/51 29/54/54
f 11/51/51 28/50/50 29/54/54
s 10
f 11/58/58 10/57/57 28/55/55
f 10/57/57 20/56/56 28/55/55
s 11
f 13/62/62 30/59/59 32/63/63
f 32/63/63 19/61/61 14/64/64
f 32/63/63 31/60/60 19/61/61
f 32/63/63 14/64/64 13/62/62
s 12
f 4/68/68 1/67/67 13/65/65
f 1/67/67 30/66/66 13/65/65
s 13
f 22/70/70 24/69/69 32/78/78
f 31/83/83 32/78/78 23/82/82
f 2/84/84 31/83/83 26/80/80
f 26/80/80 27/79/79 2/84/84
f 27/79/79 29/74/74 6/75/75
f 1/76/76 6/75/75 28/73/73
f 30/77/77 1/76/76 20/72/72
f 20/72/72 21/71/71 30/77/77
f 1/76/76 28/73/73 20/72/72
f 6/75/75 29/74/74 28/73/73
f 27/79/79 6/75/75 2/84/84
f 31/83/83 25/81/81 26/80/80
f 31/83/83 23/82/82 25/81/81
f 32/78/78 24/69/69 23/82/82
f 21/71/71 22/70/70 30/77/77
f 22/70/70 32/78/78 30/77/77
s 14
f 19/85/85 31/86/86 3/88/88
f 31/86/86 2/87/87 3/88/88
