mtllib Materials_Modular_Village.mtl
o object1
g object1
v -0.00000000 0.55000000 0.50000000
v -0.00000000 0.55000000 0.25000000
v 0.31108013 0.42166144 0.30000000
v 0.31108013 0.42166144 0.50000000
v 0.25000000 0.40000000 0.25000000
v 0.25000000 0.40000000 0.50000000
v 0.25000000 0.40000000 0.00000000
v 0.56659009 0.21075917 0.05000000
v 0.56659009 0.21075917 0.45000000
v 0.50000000 0.20000000 0.00000000
v 0.50000000 0.20000000 0.50000000
v 0.50000000 0.20000000 -0.50000000
v 0.50000000 -0.00000000 0.50000000
v 0.50000000 0.00000000 -0.50000000
v 0.56659009 0.21075917 -0.05000000
v 0.56659009 0.21075917 -0.56659009
v 0.25000000 0.40000000 -0.25000000
v 0.05000000 0.21075917 -0.56659009
v -0.00000000 0.40000000 -0.25000000
v -0.20000000 0.42166144 -0.31108013
v 0.31108013 0.42166144 -0.31108013
v -0.25000000 0.40000000 -0.25000000
v -0.00000000 0.55000000 0.00000000
v -0.25000000 0.55000000 0.00000000
v 0.31108013 0.42166144 0.20000000
v -0.45000000 0.58228170 -0.05392487
v 0.05392487 0.58228170 -0.05392487
v -0.50000000 0.55000000 0.00000000
v -0.25000000 0.65000000 0.25000000
v -0.50000000 0.65000000 0.25000000
v 0.05392487 0.58228170 0.45000000
v -0.25000000 0.65000000 0.50000000
v -0.20483885 0.69195797 0.50000000
v -0.20483885 0.69195797 0.20483885
v -0.50000000 0.70000000 0.50000000
v -0.50000000 0.69195797 0.20483885
v -0.50000000 0.40000000 -0.25000000
v -0.50000000 0.42166144 -0.31108013
v -0.50000000 -0.00000000 0.50000000
v -0.50000000 0.00000000 -0.50000000
v -0.50000000 0.20000000 -0.50000000
v -0.45000000 0.21075917 -0.56659009
v -0.00000000 0.20000000 -0.50000000
v -0.05000000 0.21075917 -0.56659009
v -0.30000000 0.42166144 -0.31108013
vt 1.00000000 1.00000000
vt 0.00000000 1.00000000
vt 0.00000000 0.00000000
vt 1.00000000 0.00000000
vt 1.00000000 1.00000000
vt 0.00000000 1.00000000
vt 0.00000000 0.00000000
vt 1.00000000 0.00000000
vt 0.50000000 1.00000000
vt 0.00000000 1.00000000
vt 0.00000000 0.00000000
vt 1.00000000 0.00000000
vt 1.00000000 1.00000000
vt 0.00000000 0.00000000
vt 1.00000000 0.00000000
vt 1.00000000 1.00000000
vt 0.00000000 1.00000000
vt 0.00000000 1.00000000
vt 0.00000000 0.50000000
vt 0.00000000 0.00000000
vt 1.00000000 0.00000000
vt 1.00000000 1.00000000
vt 1.00000000 0.11752781
vt 1.00000000 1.00000000
vt 0.00000000 0.91175278
vt 0.00000000 0.00000000
vt 1.00000000 0.44123610
vt 0.00000000 1.00000000
vt 0.00000000 0.08824722
vt 1.00000000 0.00000000
vt 0.55876390 1.00000000
vt 0.00000000 0.00000000
vt 0.91175278 0.00000000
vt 1.00000000 1.00000000
vt 0.91088617 1.00000000
vt 0.00000000 1.00000000
vt 0.10886168 0.00000000
vt 0.55443084 0.00000000
vt 1.00000000 0.00000000
vt 0.55443084 1.00000000
vt 0.00000000 0.00000000
vt 0.91088617 0.00000000
vt 1.00000000 1.00000000
vt 1.00000000 0.44556916
vt 0.00000000 1.00000000
vt 0.00000000 0.08911383
vt 1.00000000 0.00000000
vt 1.00000000 0.00000000
vt 1.00000000 0.87610066
vt 0.00000000 1.00000000
vt 0.90973505 1.00000000
vt 0.00000000 1.00000000
vt 0.09735052 0.00000000
vt 0.54867526 0.00000000
vt 1.00000000 0.00000000
vt 0.54867526 1.00000000
vt 0.00000000 0.00000000
vt 0.90973505 0.00000000
vt 1.00000000 1.00000000
vt 1.00000000 0.45132474
vt 0.00000000 1.00000000
vt 0.00000000 0.09026495
vt 1.00000000 0.00000000
vt 1.00000000 0.00000000
vt 1.00000000 0.87610066
vt 0.00000000 1.00000000
vt 1.00000000 1.00000000
vt 0.00000000 1.00000000
vt 0.00000000 0.00000000
vt 1.00000000 0.15300505
vt 1.00000000 0.00000000
vt 0.00000000 1.00000000
vt 0.00000000 0.00000000
vt 1.00000000 0.00000000
vt 1.00000000 1.00000000
vt 0.00000000 1.00000000
vt 0.42857143 0.75000000
vt 0.39762651 0.81108013
vt 0.21428571 0.50000000
vt 0.07142857 0.25000000
vt 0.01148862 0.29516115
vt 0.00000000 0.00000000
vt 1.00000000 0.00000000
vt 1.00000000 1.00000000
vt 0.71428571 1.00000000
vt 1.00000000 0.87610066
vt 0.00000000 1.00000000
vt 1.00000000 0.00000000
vt 0.00000000 0.00000000
vt 1.00000000 0.00000000
vt 1.00000000 1.00000000
vt 0.00000000 1.00000000
vt 0.00000000 0.12389934
vt 1.00000000 0.00000000
vt 0.00000000 1.00000000
vt 1.00000000 1.00000000
vt 0.00000000 1.00000000
vt 0.00000000 0.00000000
vt 1.00000000 0.00000000
vt 0.00000000 1.00000000
vt 0.00000000 0.12389934
vt 1.00000000 0.00000000
vt 1.00000000 0.00000000
vt 1.00000000 1.00000000
vt 0.00000000 1.00000000
vt 0.15300505 0.00000000
vt 1.00000000 0.00000000
vt 1.00000000 0.87610066
vt 0.00000000 1.00000000
vt 1.00000000 1.00000000
vt 0.00000000 1.00000000
vt 0.00000000 0.00000000
vt 1.00000000 0.00000000
vt 1.00000000 0.00000000
vt 1.00000000 0.87610066
vt 0.00000000 1.00000000
vt 0.50000000 1.00000000
vt 0.00000000 1.00000000
vt 0.00000000 0.00000000
vt 1.00000000 0.00000000
vt 1.00000000 1.00000000
vt 0.00000000 1.00000000
vt 1.00000000 0.00000000
vt 1.00000000 0.87610066
vt 0.11752781 0.00000000
vt 1.00000000 0.00000000
vt 0.91175278 1.00000000
vt 0.00000000 1.00000000
vt 1.00000000 0.87610066
vt 0.00000000 1.00000000
vt 1.00000000 0.00000000
vt 1.00000000 0.00000000
vt 1.00000000 1.00000000
vt 0.50000000 1.00000000
vt 0.00000000 1.00000000
vt 0.00000000 0.00000000
vt 0.00000000 0.00000000
vt 1.00000000 0.00000000
vt 1.00000000 1.00000000
vt 0.00000000 1.00000000
vt 1.00000000 0.87610066
vt 0.00000000 1.00000000
vt 1.00000000 0.00000000
vt 0.00000000 0.91088617
vt 0.00000000 0.00000000
vt 1.00000000 0.10886168
vt 1.00000000 0.55443084
vt 1.00000000 1.00000000
vt 0.00000000 0.12389934
vt 1.00000000 0.00000000
vt 0.00000000 1.00000000
vt 0.00000000 0.71428571
vt 0.25000000 0.42857143
vt 0.18891987 0.39762651
vt 0.50000000 0.21428571
vt 0.75000000 0.07142857
vt 0.70483885 0.01148862
vt 1.00000000 0.00000000
vt 1.00000000 1.00000000
vt 0.00000000 1.00000000
vt 0.00000000 0.90973505
vt 0.00000000 0.00000000
vt 1.00000000 0.09735052
vt 1.00000000 0.54867526
vt 1.00000000 1.00000000
vt 0.00000000 1.00000000
vt 0.00000000 0.12389934
vt 1.00000000 0.00000000
vn 0.38137665 0.92441974 0.00000000
vn 0.38137665 0.92441974 0.00000000
vn 0.38137665 0.92441974 0.00000000
vn 0.38137665 0.92441974 0.00000000
vn 0.33424332 -0.94248682 0.00000000
vn 0.33424332 -0.94248682 0.00000000
vn 0.33424332 -0.94248682 0.00000000
vn 0.33424332 -0.94248682 0.00000000
vn 0.51307321 0.85834485 0.00000000
vn 0.51307321 0.85834485 0.00000000
vn 0.51307321 0.85834485 0.00000000
vn 0.51307321 0.85834485 0.00000000
vn 0.51307321 0.85834485 0.00000000
vn 0.15950454 -0.98719720 0.00000000
vn 0.15950454 -0.98719720 0.00000000
vn 0.15950454 -0.98719720 0.00000000
vn 0.15950454 -0.98719720 0.00000000
vn 1.00000000 -0.00000000 0.00000000
vn 1.00000000 -0.00000000 0.00000000
vn 1.00000000 -0.00000000 0.00000000
vn 1.00000000 -0.00000000 0.00000000
vn 1.00000000 -0.00000000 0.00000000
vn 0.15950454 -0.98719720 0.00000000
vn 0.15950454 -0.98719720 0.00000000
vn 0.15950454 -0.98719720 0.00000000
vn 0.51307321 0.85834485 0.00000000
vn 0.51307321 0.85834485 0.00000000
vn 0.51307321 0.85834485 0.00000000
vn -0.00000000 0.85834485 -0.51307321
vn -0.00000000 0.85834485 -0.51307321
vn -0.00000000 0.85834485 -0.51307321
vn -0.00000000 0.85834485 -0.51307321
vn -0.00000000 -0.94248682 -0.33424332
vn -0.00000000 -0.94248682 -0.33424332
vn -0.00000000 -0.94248682 -0.33424332
vn -0.00000000 -0.94248682 -0.33424332
vn -0.00000000 -0.94248682 -0.33424332
vn 0.00000000 0.92441974 -0.38137665
vn 0.00000000 0.92441974 -0.38137665
vn 0.00000000 0.92441974 -0.38137665
vn 0.00000000 0.92441974 -0.38137665
vn 0.38137665 0.92441974 0.00000000
vn 0.38137665 0.92441974 0.00000000
vn 0.38137665 0.92441974 0.00000000
vn 0.36380344 0.60633906 0.70710678
vn 0.36380344 0.60633906 0.70710678
vn 0.36380344 0.60633906 0.70710678
vn -0.00000000 -0.85800651 -0.51363881
vn -0.00000000 -0.85800651 -0.51363881
vn -0.00000000 -0.85800651 -0.51363881
vn -0.00000000 -0.85800651 -0.51363881
vn -0.00000000 -0.85800651 -0.51363881
vn 0.00000000 0.97606487 -0.21747958
vn 0.00000000 0.97606487 -0.21747958
vn 0.00000000 0.97606487 -0.21747958
vn 0.00000000 0.97606487 -0.21747958
vn 0.21747958 0.97606487 0.00000000
vn 0.21747958 0.97606487 0.00000000
vn 0.21747958 0.97606487 0.00000000
vn 0.21747958 0.97606487 0.00000000
vn 0.26261287 0.65653216 0.70710678
vn 0.26261287 0.65653216 0.70710678
vn 0.26261287 0.65653216 0.70710678
vn 0.68064809 -0.73261053 0.00000000
vn 0.68064809 -0.73261053 0.00000000
vn 0.68064809 -0.73261053 0.00000000
vn 0.68064809 -0.73261053 0.00000000
vn 0.02723614 0.99962903 0.00000000
vn 0.02723614 0.99962903 0.00000000
vn 0.02723614 0.99962903 0.00000000
vn -0.00000000 0.99962903 -0.02723614
vn -1.00000000 0.00000000 -0.00000000
vn -1.00000000 0.00000000 -0.00000000
vn -1.00000000 0.00000000 -0.00000000
vn -1.00000000 0.00000000 -0.00000000
vn -1.00000000 0.00000000 -0.00000000
vn -1.00000000 0.00000000 -0.00000000
vn -1.00000000 0.00000000 -0.00000000
vn -1.00000000 0.00000000 -0.00000000
vn -1.00000000 0.00000000 -0.00000000
vn -0.70710678 0.55215763 -0.44172610
vn -0.70710678 0.55215763 -0.44172610
vn -0.70710678 0.55215763 -0.44172610
vn 0.00000000 -0.98719720 -0.15950454
vn 0.00000000 -0.98719720 -0.15950454
vn 0.00000000 -0.98719720 -0.15950454
vn 0.00000000 -0.98719720 -0.15950454
vn 0.70710678 0.55215763 -0.44172610
vn 0.70710678 0.55215763 -0.44172610
vn 0.70710678 0.55215763 -0.44172610
vn 0.00000000 -0.94248682 -0.33424332
vn 0.00000000 -0.94248682 -0.33424332
vn 0.00000000 -0.94248682 -0.33424332
vn 0.70710678 0.60633906 -0.36380344
vn 0.70710678 0.60633906 -0.36380344
vn 0.70710678 0.60633906 -0.36380344
vn -0.00000000 -0.73261053 -0.68064809
vn -0.00000000 -0.73261053 -0.68064809
vn -0.00000000 -0.73261053 -0.68064809
vn -0.00000000 -0.73261053 -0.68064809
vn -0.70710678 0.65653216 -0.26261287
vn -0.70710678 0.65653216 -0.26261287
vn -0.70710678 0.65653216 -0.26261287
vn 0.00000000 0.92441974 -0.38137665
vn 0.00000000 0.92441974 -0.38137665
vn 0.00000000 0.92441974 -0.38137665
vn -0.70710678 0.60633906 -0.36380344
vn -0.70710678 0.60633906 -0.36380344
vn -0.70710678 0.60633906 -0.36380344
vn 0.00000000 0.85834485 -0.51307321
vn 0.00000000 0.85834485 -0.51307321
vn 0.00000000 0.85834485 -0.51307321
vn 0.00000000 0.85834485 -0.51307321
vn -0.70710678 0.55215763 -0.44172610
vn -0.70710678 0.55215763 -0.44172610
vn -0.70710678 0.55215763 -0.44172610
vn -0.00000000 -0.98719720 -0.15950454
vn -0.00000000 -0.98719720 -0.15950454
vn -0.00000000 -0.98719720 -0.15950454
vn 0.44172610 0.55215763 0.70710678
vn 0.44172610 0.55215763 0.70710678
vn 0.44172610 0.55215763 0.70710678
vn 0.00000000 0.00000000 -1.00000000
vn 0.00000000 0.00000000 -1.00000000
vn 0.00000000 0.00000000 -1.00000000
vn 0.00000000 0.00000000 -1.00000000
vn 0.00000000 0.00000000 -1.00000000
vn -0.00000000 -1.00000000 -0.00000000
vn -0.00000000 -1.00000000 -0.00000000
vn -0.00000000 -1.00000000 -0.00000000
vn -0.00000000 -1.00000000 -0.00000000
vn 0.44172610 0.55215763 0.70710678
vn 0.44172610 0.55215763 0.70710678
vn 0.44172610 0.55215763 0.70710678
vn 0.33424332 -0.94248682 0.00000000
vn 0.33424332 -0.94248682 0.00000000
vn 0.33424332 -0.94248682 0.00000000
vn 0.33424332 -0.94248682 0.00000000
vn 0.44172610 0.55215763 -0.70710678
vn 0.44172610 0.55215763 -0.70710678
vn 0.44172610 0.55215763 -0.70710678
vn -0.00000000 -0.00000000 1.00000000
vn -0.00000000 -0.00000000 1.00000000
vn -0.00000000 -0.00000000 1.00000000
vn -0.00000000 -0.00000000 1.00000000
vn -0.00000000 -0.00000000 1.00000000
vn -0.00000000 -0.00000000 1.00000000
vn -0.00000000 -0.00000000 1.00000000
vn -0.00000000 -0.00000000 1.00000000
vn -0.00000000 -0.00000000 1.00000000
vn 0.51363881 -0.85800651 0.00000000
vn 0.51363881 -0.85800651 0.00000000
vn 0.51363881 -0.85800651 0.00000000
vn 0.51363881 -0.85800651 0.00000000
vn 0.51363881 -0.85800651 0.00000000
vn 0.36380344 0.60633906 -0.70710678
vn 0.36380344 0.60633906 -0.70710678
vn 0.36380344 0.60633906 -0.70710678
s 1
usemtl Red_Roof
f 2/47/2 25/46/44 23/44/42
f 25/46/44 21/45/43 23/44/42
usemtl Dark_Red_Roof
f 4/4/4 3/3/3 1/1/1
f 3/3/3 2/2/2 1/1/1
s 2
usemtl Red_Roof
f 25/144/135 5/148/7 7/147/138
f 7/147/138 17/146/137 21/145/136
f 7/147/138 21/145/136 25/144/135
usemtl Dark_Red_Roof
f 6/8/8 5/7/7 3/6/6
f 6/8/8 3/6/6 4/5/5
s 3
usemtl Red_Roof
f 7/30/10 15/29/28 17/27/26
f 15/29/28 16/28/27 17/27/26
usemtl Dark_Red_Roof
f 8/11/11 7/10/10 5/9/9
f 5/9/9 6/13/13 9/12/12
f 9/12/12 8/11/11 5/9/9
s 4
f 8/17/17 9/16/16 10/14/14
f 15/25/24 10/24/14 12/23/23
f 16/26/25 15/25/24 12/23/23
f 9/16/16 11/15/15 10/14/14
s 5
usemtl Stucco
f 14/22/22 12/18/18 10/19/19
f 10/19/19 11/20/20 13/21/21
f 10/19/19 13/21/21 14/22/22
s 6
usemtl Red_Roof
f 17/31/29 16/32/30 18/33/31
f 17/31/29 18/33/31 19/34/32
usemtl Dark_Red_Roof
f 22/117/110 19/118/32 44/119/111
f 22/117/110 44/119/111 42/120/112
f 42/120/112 37/121/113 22/117/110
s 7
usemtl Red_Roof
f 19/38/36 22/39/37 20/35/33
f 20/35/33 21/36/34 19/38/36
f 21/36/34 17/37/35 19/38/36
usemtl Dark_Red_Roof
f 45/97/92 22/98/37 37/99/93
f 38/96/91 45/97/92 37/99/93
s 8
usemtl Red_Roof
f 23/40/38 21/41/39 20/42/40
f 23/40/38 20/42/40 24/43/41
usemtl Dark_Red_Roof
f 28/110/104 24/111/41 45/112/105
f 28/110/104 45/112/105 38/113/106
s 9
usemtl Red_Roof
f 2/48/45 5/49/46 25/50/47
s 10
usemtl Dark_Red_Roof
f 24/54/51 28/55/52 26/51/48
f 26/51/48 27/52/49 24/54/51
f 27/52/49 23/53/50 24/54/51
s 11
f 29/56/53 27/57/54 26/58/55
f 29/56/53 26/58/55 30/59/56
s 12
f 32/63/60 31/62/59 29/60/57
f 31/62/59 27/61/58 29/60/57
s 13
f 32/64/61 1/65/62 31/66/63
s 14
f 29/70/67 34/69/66 33/68/65
f 29/70/67 33/68/65 32/67/64
s 15
f 33/73/70 34/72/69 35/71/68
f 34/76/69 36/75/71 35/74/68
s 16
usemtl Stucco
f 37/77/72 41/85/80 40/84/79
f 35/82/77 28/79/74 37/77/72
f 35/82/77 30/80/75 28/79/74
f 35/82/77 36/81/76 30/80/75
f 28/79/74 38/78/73 37/77/72
f 37/77/72 39/83/78 35/82/77
f 37/77/72 40/84/79 39/83/78
s 17
usemtl Dark_Red_Roof
f 37/88/83 42/87/82 41/86/81
s 18
f 43/89/84 41/90/85 44/92/87
f 41/90/85 42/91/86 44/92/87
f 12/125/117 43/126/84 18/127/118
f 12/125/117 18/127/118 16/128/119
s 19
f 43/93/88 44/94/89 19/95/90
s 20
f 24/100/94 22/101/95 45/102/96
s 21
f 30/103/97 36/104/98 29/106/100
f 36/104/98 34/105/99 29/106/100
s 22
f 26/109/103 28/108/102 30/107/101
s 23
usemtl Red_Roof
f 20/116/109 22/115/108 24/114/107
s 24
f 43/124/116 19/123/115 18/122/114
s 25
f 10/129/120 15/130/121 7/131/122
s 26
usemtl Stucco
f 40/132/123 41/133/124 43/134/125
f 43/134/125 12/135/126 14/136/127
f 40/132/123 43/134/125 14/136/127
s 27
f 13/137/128 39/138/129 14/140/131
f 39/138/129 40/139/130 14/140/131
s 28
usemtl Dark_Red_Roof
f 11/141/132 9/142/133 6/143/134
s 29
f 7/151/141 8/150/140 10/149/139
s 30
usemtl Stucco
f 13/160/150 11/152/142 6/153/143
f 6/153/143 1/155/145 35/158/148
f 32/156/146 33/157/147 35/158/148
f 1/155/145 32/156/146 35/158/148
f 6/153/143 4/154/144 1/155/145
f 35/158/148 39/159/149 6/153/143
f 39/159/149 13/160/150 6/153/143
s 31
usemtl Dark_Red_Roof
f 31/161/151 1/165/155 2/164/154
f 2/164/154 23/163/153 27/162/152
f 2/164/154 27/162/152 31/161/151
s 32
f 3/168/158 5/167/157 2/166/156
