mtllib Materials_Modular_Village.mtl
o object1
g object1
v -0.50000000 0.70000000 0.50000000
v -0.50000000 0.70000000 0.25000000
v -0.28621497 0.69417516 0.28621497
v -0.25000000 0.70000000 0.50000000
v 0.50000000 -0.00000000 0.50000000
v 0.50000000 0.70000000 0.50000000
v 0.25000000 0.70000000 0.50000000
v -0.50000000 -0.00000000 0.50000000
v 0.50000000 0.00000000 -0.50000000
v 0.50000000 0.20000000 -0.50000000
v 0.50000000 0.40000000 -0.25000000
v 0.50000000 0.42166144 -0.31108013
v 0.50000000 0.55000000 0.00000000
v 0.50000000 0.65000000 0.25000000
v 0.50000000 0.69195797 0.20483885
v 0.25000000 0.65000000 0.25000000
v 0.30000000 0.69195797 0.20483885
v 0.04922716 0.58332841 -0.04922716
v -0.00000000 0.65000000 0.25000000
v 0.45000000 0.58228170 -0.05392487
v 0.05392487 0.58228170 -0.05392487
v -0.00000000 0.55000000 0.00000000
v -0.03531823 0.60216619 0.03531823
v -0.25000000 0.65000000 0.25000000
v -0.25000000 0.65000000 -0.00000000
v -0.20483885 0.69195797 0.20000000
v -0.20483885 0.69195797 -0.20000000
v -0.25000000 0.65000000 -0.25000000
v -0.50000000 0.70000000 -0.25000000
v -0.20483885 0.69195797 -0.30000000
v -0.20483885 0.69195797 -0.50000000
v -0.50000000 0.70000000 -0.50000000
v -0.25000000 0.65000000 -0.50000000
v 0.05392487 0.58228170 -0.45000000
v -0.00000000 0.55000000 -0.50000000
v -0.00000000 0.55000000 -0.25000000
v 0.31108013 0.42166144 -0.50000000
v 0.31108013 0.42166144 -0.31108013
v 0.29787802 0.42710808 -0.29787802
v 0.25000000 0.40000000 -0.25000000
v 0.25000000 0.55000000 0.00000000
v 0.21538165 0.46114261 -0.21538165
v 0.25000000 0.40000000 -0.50000000
v 0.46590197 0.27094521 -0.46590197
v -0.20000000 0.69195797 0.20483885
v 0.20000000 0.69195797 0.20483885
v -0.50000000 0.00000000 -0.50000000
vt 1.00000000 1.00000000
vt 0.00000000 1.00000000
vt 0.00000000 0.00000000
vt 1.00000000 1.00000000
vt 0.00000000 1.00000000
vt 0.00000000 0.00000000
vt 0.00000000 1.00000000
vt 0.00000000 0.00000000
vt 0.25000000 0.00000000
vt 0.75000000 0.00000000
vt 1.00000000 0.00000000
vt 1.00000000 1.00000000
vt 0.00000000 0.00000000
vt 1.00000000 0.00000000
vt 1.00000000 1.00000000
vt 0.71428571 1.00000000
vt 0.42857143 0.75000000
vt 0.39762651 0.81108013
vt 0.21428571 0.50000000
vt 0.07142857 0.25000000
vt 0.01148862 0.29516115
vt 0.00000000 0.00000000
vt 1.00000000 0.00000000
vt 1.00000000 1.00000000
vt 0.00000000 1.00000000
vt 1.00000000 0.01545683
vt 1.00000000 1.00000000
vt 0.50000000 1.00000000
vt 0.00000000 1.00000000
vt 0.00000000 0.00000000
vt 0.99018782 0.00000000
vt 1.00000000 0.88985499
vt 0.00000000 1.00000000
vt 1.00000000 0.00000000
vt 1.00000000 0.19374036
vt 0.00000000 1.00000000
vt 0.00000000 0.00000000
vt 1.00000000 1.00000000
vt 0.00000000 1.00000000
vt 0.00000000 0.00000000
vt 1.00000000 1.00000000
vt 0.00000000 1.00000000
vt 0.00000000 0.00000000
vt 1.00000000 1.00000000
vt 0.00000000 1.00000000
vt 0.00000000 0.00000000
vt 0.50000000 0.00000000
vt 1.00000000 0.00000000
vt 1.00000000 0.00000000
vt 1.00000000 0.87610066
vt 0.00000000 1.00000000
vt 0.00000000 0.00000000
vt 1.00000000 0.00000000
vt 1.00000000 1.00000000
vt 0.00000000 1.00000000
vt 0.00000000 1.00000000
vt 0.00000000 0.12389934
vt 1.00000000 0.00000000
vt 1.00000000 0.00000000
vt 1.00000000 0.87610066
vt 0.00000000 1.00000000
vt 0.00000000 0.00000000
vt 1.00000000 0.00000000
vt 1.00000000 1.00000000
vt 0.00000000 1.00000000
vt 0.00000000 0.00000000
vt 1.00000000 0.00000000
vt 1.00000000 1.00000000
vt 0.00000000 1.00000000
vt 1.00000000 0.19374036
vt 0.00000000 1.00000000
vt 0.00000000 0.00000000
vt 1.00000000 0.88985499
vt 0.00000000 1.00000000
vt 1.00000000 0.00000000
vt 1.00000000 0.01545683
vt 1.00000000 1.00000000
vt 0.50000000 1.00000000
vt 0.00000000 1.00000000
vt 0.00000000 0.00000000
vt 0.99018782 0.00000000
vt 0.00000000 1.00000000
vt 0.00000000 0.12389934
vt 1.00000000 0.00000000
vt 0.50000000 0.00000000
vt 1.00000000 0.00000000
vt 0.99018782 1.00000000
vt 0.00000000 1.00000000
vt 0.00000000 0.00000000
vt 0.00000000 0.00000000
vt 0.94459937 0.00000000
vt 1.00000000 0.04243956
vt 1.00000000 1.00000000
vt 0.00000000 1.00000000
vt 1.00000000 0.91492988
vt 0.00000000 1.00000000
vt 1.00000000 0.00000000
vt 1.00000000 0.91492988
vt 0.00000000 1.00000000
vt 1.00000000 0.00000000
vt 1.00000000 0.20971741
vt 0.00000000 1.00000000
vt 0.00000000 0.00000000
vt 1.00000000 1.00000000
vt 0.00000000 1.00000000
vt 0.00000000 0.00000000
vt 0.00000000 0.00000000
vt 1.00000000 0.20971741
vt 0.00000000 1.00000000
vt 0.94459937 1.00000000
vt 0.00000000 1.00000000
vt 0.00000000 0.00000000
vt 1.00000000 0.00000000
vt 1.00000000 1.00000000
vt 0.00000000 1.00000000
vt 0.00000000 0.00000000
vt 1.00000000 1.00000000
vt 0.00000000 1.00000000
vt 0.00000000 0.00000000
vt 0.00000000 0.00000000
vt 1.00000000 0.22159560
vt 0.00000000 1.00000000
vt 1.00000000 1.00000000
vt 0.00000000 1.00000000
vt 0.00000000 0.00000000
vt 0.50000000 0.00000000
vt 1.00000000 0.00000000
vt 0.99018782 1.00000000
vt 0.00000000 1.00000000
vt 0.00000000 0.00000000
vt 1.00000000 1.00000000
vt 0.00000000 1.00000000
vt 0.00000000 0.00000000
vt 0.50000000 0.00000000
vt 1.00000000 0.00000000
vt 1.00000000 0.87610066
vt 0.00000000 1.00000000
vt 1.00000000 0.00000000
vt 0.00000000 1.00000000
vt 0.00000000 0.12389934
vt 1.00000000 0.00000000
vt 1.00000000 0.00000000
vt 1.00000000 0.87610066
vt 0.00000000 1.00000000
vt 0.00000000 1.00000000
vt 0.00000000 0.12389934
vt 1.00000000 0.00000000
vt 0.00000000 0.00000000
vt 0.94459937 0.00000000
vt 1.00000000 0.04243956
vt 1.00000000 1.00000000
vt 0.00000000 1.00000000
vt 0.94459937 1.00000000
vt 0.00000000 1.00000000
vt 0.00000000 0.00000000
vt 1.00000000 0.00000000
vt 1.00000000 0.22159560
vt 0.00000000 1.00000000
vt 0.00000000 0.00000000
vt 0.25000000 0.57142857
vt 0.00000000 0.28571429
vt 0.00000000 0.00000000
vt 1.00000000 0.00000000
vt 1.00000000 1.00000000
vt 0.70483885 0.98851138
vt 0.75000000 0.92857143
vt 0.50000000 0.78571429
vt 0.18891987 0.60237349
vt 0.00000000 0.00000000
vt 1.00000000 0.00000000
vt 1.00000000 1.00000000
vt 0.00000000 1.00000000
vt 0.00000000 0.00000000
vt 1.00000000 0.00000000
vt 1.00000000 1.00000000
vt 0.00000000 1.00000000
vt 0.00000000 0.00000000
vt 1.00000000 0.00000000
vt 1.00000000 1.00000000
vt 0.00000000 1.00000000
vt 1.00000000 0.17326923
vt 0.00000000 1.00000000
vt 0.00000000 0.00000000
vt 0.00000000 1.00000000
vt 0.00000000 0.00000000
vt 0.25000000 0.00000000
vt 0.75000000 0.00000000
vt 1.00000000 0.00000000
vt 1.00000000 1.00000000
vt 1.00000000 0.17326923
vt 0.00000000 1.00000000
vt 0.00000000 0.00000000
vn 0.02723614 0.99962903 0.00000000
vn 0.02723614 0.99962903 0.00000000
vn 0.02723614 0.99962903 0.00000000
vn -0.00000000 0.99962903 -0.02723614
vn -0.00000000 -0.00000000 1.00000000
vn -0.00000000 -0.00000000 1.00000000
vn -0.00000000 -0.00000000 1.00000000
vn -0.00000000 -0.00000000 1.00000000
vn -0.00000000 -0.00000000 1.00000000
vn -0.00000000 -0.00000000 1.00000000
vn 1.00000000 -0.00000000 0.00000000
vn 1.00000000 -0.00000000 0.00000000
vn 1.00000000 -0.00000000 0.00000000
vn 1.00000000 -0.00000000 0.00000000
vn 1.00000000 -0.00000000 0.00000000
vn 1.00000000 -0.00000000 0.00000000
vn 1.00000000 -0.00000000 0.00000000
vn 1.00000000 -0.00000000 0.00000000
vn 1.00000000 -0.00000000 0.00000000
vn 0.00000000 -0.73261053 -0.68064809
vn 0.00000000 -0.73261053 -0.68064809
vn 0.00000000 -0.73261053 -0.68064809
vn 0.00000000 -0.73261053 -0.68064809
vn 0.00000000 0.97606487 -0.21747958
vn 0.00000000 0.97606487 -0.21747958
vn 0.00000000 0.97606487 -0.21747958
vn 0.00000000 0.97606487 -0.21747958
vn 0.00000000 0.97606487 -0.21747958
vn 0.00000000 0.97606487 -0.21747958
vn -0.70710678 0.65653216 -0.26261287
vn -0.70710678 0.65653216 -0.26261287
vn -0.70710678 0.65653216 -0.26261287
vn 0.70710678 0.65653216 -0.26261287
vn 0.70710678 0.65653216 -0.26261287
vn 0.70710678 0.65653216 -0.26261287
vn 0.00000000 0.97606487 -0.21747958
vn 0.00000000 0.97606487 -0.21747958
vn 0.21747958 0.97606487 0.00000000
vn 0.21747958 0.97606487 0.00000000
vn 0.21747958 0.97606487 0.00000000
vn 0.68064809 -0.73261053 0.00000000
vn 0.68064809 -0.73261053 0.00000000
vn 0.68064809 -0.73261053 0.00000000
vn 0.68064809 -0.73261053 0.00000000
vn 0.68064809 -0.73261053 0.00000000
vn 0.13867505 0.69337525 0.70710678
vn 0.13867505 0.69337525 0.70710678
vn 0.13867505 0.69337525 0.70710678
vn 0.02723614 0.99962903 0.00000000
vn 0.02723614 0.99962903 0.00000000
vn 0.02723614 0.99962903 0.00000000
vn 0.13867505 0.69337525 -0.70710678
vn 0.13867505 0.69337525 -0.70710678
vn 0.13867505 0.69337525 -0.70710678
vn 0.13867505 0.69337525 0.70710678
vn 0.13867505 0.69337525 0.70710678
vn 0.13867505 0.69337525 0.70710678
vn 0.02723614 0.99962903 0.00000000
vn 0.02723614 0.99962903 0.00000000
vn 0.02723614 0.99962903 0.00000000
vn 0.68064809 -0.73261053 0.00000000
vn 0.68064809 -0.73261053 0.00000000
vn 0.68064809 -0.73261053 0.00000000
vn 0.26261287 0.65653216 -0.70710678
vn 0.26261287 0.65653216 -0.70710678
vn 0.26261287 0.65653216 -0.70710678
vn 0.26261287 0.65653216 0.70710678
vn 0.26261287 0.65653216 0.70710678
vn 0.26261287 0.65653216 0.70710678
vn 0.21747958 0.97606487 0.00000000
vn 0.21747958 0.97606487 0.00000000
vn 0.21747958 0.97606487 0.00000000
vn 0.21747958 0.97606487 0.00000000
vn 0.21747958 0.97606487 0.00000000
vn 0.26261287 0.65653216 -0.70710678
vn 0.26261287 0.65653216 -0.70710678
vn 0.26261287 0.65653216 -0.70710678
vn 0.51363881 -0.85800651 0.00000000
vn 0.51363881 -0.85800651 0.00000000
vn 0.51363881 -0.85800651 0.00000000
vn 0.51363881 -0.85800651 0.00000000
vn 0.51363881 -0.85800651 0.00000000
vn 0.38137665 0.92441974 0.00000000
vn 0.38137665 0.92441974 0.00000000
vn 0.38137665 0.92441974 0.00000000
vn 0.38137665 0.92441974 0.00000000
vn 0.38137665 0.92441974 0.00000000
vn 0.36380344 0.60633906 0.70710678
vn 0.36380344 0.60633906 0.70710678
vn 0.36380344 0.60633906 0.70710678
vn -0.70710678 0.60633906 -0.36380344
vn -0.70710678 0.60633906 -0.36380344
vn -0.70710678 0.60633906 -0.36380344
vn 0.70710678 0.60633906 -0.36380344
vn 0.70710678 0.60633906 -0.36380344
vn 0.70710678 0.60633906 -0.36380344
vn 0.00000000 0.92441974 -0.38137665
vn 0.00000000 0.92441974 -0.38137665
vn 0.00000000 0.92441974 -0.38137665
vn 0.36380344 0.60633906 -0.70710678
vn 0.36380344 0.60633906 -0.70710678
vn 0.36380344 0.60633906 -0.70710678
vn 0.33424332 -0.94248682 0.00000000
vn 0.33424332 -0.94248682 0.00000000
vn 0.33424332 -0.94248682 0.00000000
vn 0.33424332 -0.94248682 0.00000000
vn 0.51307321 0.85834485 0.00000000
vn 0.51307321 0.85834485 0.00000000
vn 0.51307321 0.85834485 0.00000000
vn 0.00000000 0.85834485 -0.51307321
vn 0.00000000 0.85834485 -0.51307321
vn 0.00000000 0.85834485 -0.51307321
vn 0.44172610 0.55215763 -0.70710678
vn 0.44172610 0.55215763 -0.70710678
vn 0.44172610 0.55215763 -0.70710678
vn 0.38137665 0.92441974 0.00000000
vn 0.38137665 0.92441974 0.00000000
vn 0.00000000 -0.85800651 -0.51363881
vn 0.00000000 -0.85800651 -0.51363881
vn 0.00000000 -0.85800651 -0.51363881
vn 0.00000000 -0.85800651 -0.51363881
vn 0.00000000 -0.85800651 -0.51363881
vn 0.00000000 -0.73261053 -0.68064809
vn 0.00000000 -0.73261053 -0.68064809
vn 0.00000000 -0.73261053 -0.68064809
vn 0.00000000 -0.73261053 -0.68064809
vn -0.70710678 0.69337525 -0.13867505
vn -0.70710678 0.69337525 -0.13867505
vn -0.70710678 0.69337525 -0.13867505
vn 0.70710678 0.69337525 -0.13867505
vn 0.70710678 0.69337525 -0.13867505
vn 0.70710678 0.69337525 -0.13867505
vn -0.70710678 0.69337525 -0.13867505
vn -0.70710678 0.69337525 -0.13867505
vn -0.70710678 0.69337525 -0.13867505
vn 0.70710678 0.65653216 -0.26261287
vn 0.70710678 0.65653216 -0.26261287
vn 0.70710678 0.65653216 -0.26261287
vn 0.00000000 0.92441974 -0.38137665
vn 0.00000000 0.92441974 -0.38137665
vn 0.00000000 0.92441974 -0.38137665
vn 0.00000000 0.92441974 -0.38137665
vn 0.00000000 -0.94248682 -0.33424332
vn 0.00000000 -0.94248682 -0.33424332
vn 0.00000000 -0.94248682 -0.33424332
vn 0.00000000 -0.94248682 -0.33424332
vn 0.70710678 0.55215763 -0.44172610
vn 0.70710678 0.55215763 -0.44172610
vn 0.70710678 0.55215763 -0.44172610
vn 0.00000000 0.00000000 -1.00000000
vn 0.00000000 0.00000000 -1.00000000
vn 0.00000000 0.00000000 -1.00000000
vn 0.00000000 0.00000000 -1.00000000
vn 0.00000000 0.00000000 -1.00000000
vn 0.00000000 0.00000000 -1.00000000
vn 0.00000000 0.00000000 -1.00000000
vn 0.00000000 0.00000000 -1.00000000
vn 0.00000000 0.00000000 -1.00000000
vn -0.00000000 -1.00000000 -0.00000000
vn -0.00000000 -1.00000000 -0.00000000
vn -0.00000000 -1.00000000 -0.00000000
vn -0.00000000 -1.00000000 -0.00000000
vn -0.00000000 0.99962903 -0.02723614
vn -0.00000000 0.99962903 -0.02723614
vn -0.00000000 0.99962903 -0.02723614
vn -0.00000000 0.99962903 -0.02723614
vn -0.00000000 0.99962903 -0.02723614
vn -0.00000000 0.99962903 -0.02723614
vn 0.70710678 0.69337525 -0.13867505
vn 0.70710678 0.69337525 -0.13867505
vn 0.70710678 0.69337525 -0.13867505
vn -1.00000000 -0.00000000 -0.00000000
vn -1.00000000 -0.00000000 -0.00000000
vn -1.00000000 -0.00000000 -0.00000000
vn -1.00000000 -0.00000000 -0.00000000
vn -1.00000000 -0.00000000 -0.00000000
vn -1.00000000 -0.00000000 -0.00000000
vn 0.13867505 0.69337525 -0.70710678
vn 0.13867505 0.69337525 -0.70710678
vn 0.13867505 0.69337525 -0.70710678
s 1
usemtl Red_Roof
f 29/55/51 2/54/2 26/53/50
f 29/55/51 26/53/50 27/52/49
f 45/174/164 4/175/4 7/176/165
f 46/173/163 45/174/164 7/176/165
usemtl Dark_Red_Roof
f 3/3/3 2/2/2 1/1/1
f 32/65/60 29/64/51 30/63/59
f 32/65/60 30/63/59 31/62/58
f 1/4/1 4/5/4 3/6/3
f 17/178/167 7/179/165 6/180/168
f 15/177/166 17/178/167 6/180/168
s 2
usemtl Stucco
f 5/7/5 6/8/6 7/9/7
f 5/7/5 4/10/8 8/12/10
f 4/10/8 1/11/9 8/12/10
f 5/7/5 7/9/7 4/10/8
s 3
f 9/15/13 10/16/14 11/17/15
f 6/13/11 11/17/15 13/19/17
f 13/19/17 14/20/18 6/13/11
f 14/20/18 15/21/19 6/13/11
f 11/17/15 12/18/16 13/19/17
f 6/13/11 5/14/12 11/17/15
f 5/14/12 9/15/13 11/17/15
s 4
usemtl Red_Roof
f 46/132/124 16/133/21 19/134/125
f 19/134/125 24/135/126 45/131/123
f 45/131/123 46/132/124 19/134/125
usemtl Dark_Red_Roof
f 14/22/20 16/23/21 17/24/22
f 14/22/20 17/24/22 15/25/23
s 5
usemtl Red_Roof
f 18/26/24 19/27/25 16/28/26
f 16/28/26 20/30/28 21/31/29
f 16/28/26 14/29/27 20/30/28
f 18/26/24 16/28/26 21/31/29
usemtl Dark_Red_Roof
f 24/38/36 19/39/25 23/40/37
s 6
usemtl Red_Roof
f 19/34/32 18/33/31 22/32/30
s 7
usemtl Dark_Red_Roof
f 23/35/33 19/36/34 22/37/35
s 8
usemtl Red_Roof
f 28/78/71 25/77/39 18/76/70
f 21/81/74 28/78/71 18/76/70
f 21/81/74 34/80/73 28/78/71
f 34/80/73 33/79/72 28/78/71
usemtl Dark_Red_Roof
f 23/43/40 25/42/39 24/41/38
s 9
usemtl Red_Roof
f 25/47/44 28/46/43 27/45/42
f 25/47/44 27/45/42 26/44/41
f 26/44/41 24/48/45 25/47/44
usemtl Dark_Red_Roof
f 30/68/62 28/67/43 33/66/61
f 31/69/63 30/68/62 33/66/61
s 10
usemtl Red_Roof
f 2/49/46 24/50/47 26/51/48
s 11
f 27/58/54 28/57/53 29/56/52
s 12
usemtl Dark_Red_Roof
f 29/59/55 28/60/56 30/61/57
s 13
f 22/72/66 25/71/65 23/70/64
s 14
usemtl Red_Roof
f 22/73/67 18/74/68 25/75/69
s 15
f 34/84/77 35/83/76 33/82/75
s 16
f 21/87/80 22/86/79 36/85/78
f 36/85/78 35/89/82 34/88/81
f 34/88/81 21/87/80 36/85/78
s 17
f 42/125/117 36/124/86 22/123/116
usemtl Dark_Red_Roof
f 38/91/84 37/90/83 35/94/87
f 35/94/87 36/93/86 39/92/85
f 35/94/87 39/92/85 38/91/84
s 18
f 40/95/88 39/96/89 36/97/90
s 19
f 41/100/93 39/99/92 40/98/91
s 20
usemtl Red_Roof
f 42/101/94 41/102/95 40/103/96
s 21
f 22/104/97 41/105/98 42/106/99
usemtl Dark_Red_Roof
f 39/150/141 41/151/98 13/152/142
f 13/152/142 12/148/139 38/149/140
f 38/149/140 39/150/141 13/152/142
s 22
usemtl Red_Roof
f 36/109/102 42/108/101 40/107/100
s 23
usemtl Dark_Red_Roof
f 40/113/106 43/112/105 38/110/103
f 43/112/105 37/111/104 38/110/103
s 24
usemtl Red_Roof
f 44/116/109 43/115/108 40/114/107
s 25
f 40/117/110 11/118/111 44/119/112
s 26
f 43/122/115 44/121/114 10/120/113
s 27
f 41/126/118 22/127/119 21/128/120
f 41/126/118 21/128/120 20/129/121
f 20/129/121 13/130/122 41/126/118
s 28
f 4/138/129 45/137/128 24/136/127
s 29
f 7/139/130 16/140/131 46/141/132
s 30
usemtl Dark_Red_Roof
f 17/144/135 16/143/134 7/142/133
s 31
usemtl Red_Roof
f 14/145/136 13/146/137 20/147/138
s 32
usemtl Dark_Red_Roof
f 38/153/143 12/154/144 11/155/145
f 38/153/143 11/155/145 40/156/146
s 33
usemtl Red_Roof
f 44/157/147 11/158/148 10/159/149
s 34
usemtl Stucco
f 43/160/150 10/161/151 9/162/152
f 43/160/150 32/164/154 35/167/157
f 32/164/154 33/166/156 35/167/157
f 32/164/154 31/165/155 33/166/156
f 35/167/157 37/168/158 43/160/150
f 43/160/150 47/163/153 32/164/154
f 43/160/150 9/162/152 47/163/153
s 35
f 5/169/159 8/170/160 9/172/162
f 8/170/160 47/171/161 9/172/162
s 36
usemtl Dark_Red_Roof
f 3/181/169 4/182/170 24/183/171
s 37
usemtl Stucco
f 29/186/174 32/185/173 47/184/172
f 8/189/177 2/187/175 47/184/172
f 8/189/177 1/188/176 2/187/175
f 2/187/175 29/186/174 47/184/172
s 38
usemtl Dark_Red_Roof
f 24/192/180 2/191/179 3/190/178
