mtllib Materials_Modular_Village.mtl
o object1
g object1
v -0.50000000 -0.00000000 0.50000000
v 0.50000000 0.00000000 0.50000000
v 0.50000000 0.20000000 0.50000000
v 0.25000000 0.25000000 0.50000000
v 0.30392488 0.28228171 0.50000000
v 0.00000000 0.35000001 0.50000000
v -0.25000000 0.50000001 0.50000000
v -0.18340991 0.51075917 0.50000000
v -0.50000000 0.70000000 0.50000000
v -0.50000000 -0.00000000 -0.50000000
v -0.50000000 0.25049064 -0.50000000
v -0.49999999 0.25049064 -0.60000000
v -0.49999999 0.53333335 -0.60000000
v -0.49999999 0.53333335 -0.70000000
v -0.49999999 0.70000001 -0.70000000
v -0.50000000 0.70000001 -0.25000000
v -0.50000000 0.70000000 0.25000000
v -0.18340991 0.51075917 -0.20000000
v -0.18340991 0.51075917 0.20000000
v -0.24999999 0.50000001 -0.24999999
v -0.18340990 0.51075918 -0.30000000
v -0.24999999 0.50000001 -0.50000000
v -0.24999999 0.50000001 -0.70000000
v -0.18340990 0.51075918 -0.65000000
v 0.06108013 0.37166144 -0.45000000
v 0.06108013 0.37166144 -0.05000000
v -0.24999999 0.50000001 -0.00000000
v 0.00000000 0.35000001 -0.00000001
v 0.06108013 0.37166144 0.05000000
v -0.24999999 0.50000001 0.24999999
v 0.06108013 0.37166144 0.45000000
v 0.00000000 0.35000001 0.25000000
v 0.00000001 0.35000001 -0.25000000
v 0.30392488 0.28228171 -0.20000000
v 0.30392488 0.28228171 0.20000000
v 0.25000000 0.25000001 0.25000000
v 0.30392488 0.28228171 0.30000000
v 0.25000000 0.25000001 -0.25000000
v 0.25000000 0.25000001 -0.00000000
v 0.54516115 0.24195797 0.05000000
v 0.54516115 0.24195797 0.45000000
v 0.50000000 0.20000001 -0.00000000
v 0.54516115 0.24195797 -0.05000000
v 0.50000001 0.20000001 -0.50000000
v 0.54516115 0.24195797 -0.45000000
v 0.25000001 0.25000001 -0.50000000
v 0.54516115 0.24195798 -0.55000000
v 0.25000001 0.25000001 -0.70000000
v 0.54516115 0.24195798 -0.65000000
v 0.50000001 0.20000001 -0.70000000
v 0.30392488 0.28228171 -0.65000000
v 0.30392488 0.28228171 -0.30000000
v 0.00000001 0.35000001 -0.70000000
v 0.00000001 0.35000001 -0.49999999
v 0.06108013 0.37166146 -0.65000000
v 0.06108014 0.37166146 -0.55000000
v -0.18340991 0.51075917 0.30000000
v 0.50000001 0.03333335 -0.70000000
v -0.24999999 0.33333335 -0.70000000
v 0.00000001 0.18333335 -0.70000000
v 0.25000001 0.08333335 -0.70000000
v -0.24999999 0.05049064 -0.50000000
v -0.16584893 -0.00000000 -0.50000000
v 0.50000000 0.00000000 -0.50000000
v 0.50000001 0.03333335 -0.60000000
v 0.25000001 0.08333335 -0.60000000
v 0.00000001 0.18333335 -0.60000000
v -0.24999999 0.33333335 -0.60000000
v 0.50000001 -0.24950936 -0.60000000
v 0.25000001 -0.19950936 -0.60000000
v 0.00000001 -0.09950936 -0.60000000
v -0.24999999 0.05049064 -0.60000000
v 0.00000001 -0.09950936 -0.50000000
v 0.50000001 -0.24950936 -0.50000000
v 0.25000001 -0.19950936 -0.50000000
vt 0.00000000 0.00000000
vt 1.00000000 0.00000000
vt 1.00000000 0.28571429
vt 0.75000000 0.35714286
vt 0.80392488 0.40325958
vt 0.50000000 0.50000001
vt 0.25000002 0.71428572
vt 0.31659009 0.72965596
vt 0.00000000 1.00000000
vt 0.16666667 1.00000000
vt 0.16666667 0.64215624
vt 0.08333333 0.64215624
vt 0.08333333 0.23809523
vt 0.00000000 0.23809523
vt 0.00000000 0.00000000
vt 0.37500000 0.00000001
vt 0.79166667 0.00000002
vt 1.00000000 0.00000002
vt 1.00000000 1.00000000
vt 0.00000000 0.00000000
vt 1.00000000 0.00000000
vt 1.00000000 1.00000000
vt 0.00000000 1.00000000
vt 0.00000007 1.00000000
vt 0.00000000 0.12389940
vt 1.00000000 0.00000000
vt 0.99999993 0.00000000
vt 1.00000000 0.87610066
vt 0.00000000 1.00000000
vt 0.00000001 0.44444443
vt 0.00000002 0.00000000
vt 1.00000000 0.11111111
vt 1.00000000 0.88888887
vt 0.00000000 1.00000000
vt 0.50000002 1.00000000
vt 0.00000000 1.00000000
vt 0.00000000 0.00000000
vt 1.00000000 0.00000000
vt 1.00000000 1.00000000
vt 0.99999995 0.00000000
vt 1.00000000 0.87610062
vt 0.00000000 1.00000000
vt 0.00000000 1.00000000
vt 0.00000004 0.12389935
vt 1.00000000 0.00000000
vt 0.49999998 1.00000000
vt 0.00000000 1.00000000
vt 0.00000000 0.00000000
vt 1.00000000 0.00000000
vt 1.00000000 1.00000000
vt 1.00000000 1.00000000
vt 0.00000000 1.00000000
vt 0.00000000 0.00000012
vt 0.50000000 0.00000009
vt 1.00000000 0.00000007
vt 0.49999998 1.00000000
vt 0.00000000 0.99999999
vt 0.00000000 0.00000000
vt 1.00000000 0.00000000
vt 1.00000000 1.00000000
vt 0.99999999 0.00000000
vt 1.00000000 0.87610066
vt 0.00000000 1.00000000
vt 0.00000000 1.00000000
vt 0.00000000 0.12389934
vt 1.00000000 0.00000000
vt 1.00000000 1.00000000
vt 0.00000000 1.00000000
vt 0.00000000 0.00000006
vt 0.50000000 0.00000003
vt 1.00000000 0.00000000
vt 0.50000000 1.00000000
vt 0.00000000 0.99999999
vt 0.00000000 0.00000000
vt 1.00000000 0.00000000
vt 1.00000000 1.00000000
vt 0.00000000 0.00000006
vt 1.00000000 0.00000000
vt 1.00000000 1.00000000
vt 0.00000000 1.00000000
vt 0.00000000 1.00000000
vt 0.00000000 0.12389934
vt 1.00000000 0.00000000
vt 1.00000000 0.00000000
vt 1.00000000 0.87610066
vt 0.00000000 1.00000000
vt 0.00000000 0.00000016
vt 1.00000000 0.00000006
vt 1.00000000 1.00000000
vt 0.00000000 1.00000000
vt 0.00000000 1.00000000
vt 0.00000000 0.12389934
vt 1.00000000 0.00000000
vt 0.99999999 0.00000000
vt 1.00000000 0.87610067
vt 0.00000000 1.00000000
vt 0.00000000 1.00000000
vt 0.00000000 0.00000000
vt 1.00000000 0.25000000
vt 1.00000000 0.75000000
vt 0.00000000 1.00000000
vt 0.00000000 0.12389934
vt 1.00000000 0.00000000
vt 0.00000004 0.44444444
vt 0.00000007 0.00000000
vt 1.00000000 0.11111111
vt 1.00000000 0.88888888
vt 0.00000000 1.00000000
vt 0.99999998 0.00000000
vt 1.00000000 0.87610066
vt 0.00000000 1.00000000
vt 1.00000000 0.11111112
vt 1.00000000 0.88888889
vt 0.00000000 1.00000000
vt 0.00000000 0.55555554
vt 0.00000000 0.00000000
vt 1.00000000 0.24999997
vt 1.00000000 0.74999995
vt 0.00000000 1.00000000
vt 0.00000004 0.00000000
vt 0.00000000 1.00000000
vt 0.00000004 0.12389934
vt 1.00000000 0.00000000
vt 0.99999988 0.00000000
vt 1.00000000 0.87610065
vt 0.00000000 1.00000000
vt 0.00000000 1.00000000
vt 0.00000000 0.12389934
vt 1.00000000 0.00000000
vt 1.00000000 0.24999998
vt 1.00000000 0.74999999
vt 0.00000000 1.00000000
vt 0.00000004 0.00000000
vt 0.00000000 0.99999998
vt 0.00000000 0.00000000
vt 1.00000000 0.00000000
vt 1.00000000 0.99999999
vt 0.50000000 0.99999999
vt 0.00000000 1.00000000
vt 0.00000000 0.12389934
vt 1.00000000 0.00000000
vt 1.00000000 1.00000000
vt 0.00000000 1.00000000
vt 0.00000000 0.00000017
vt 0.50000000 0.00000014
vt 1.00000000 0.00000012
vt 0.00000001 1.00000000
vt 0.00000000 0.12389938
vt 1.00000000 0.00000000
vt 0.00000000 1.00000000
vt 0.00000000 0.12389934
vt 1.00000000 0.00000000
vt 0.00000001 1.00000000
vt 0.00000000 0.00000000
vt 1.00000000 0.25000000
vt 1.00000000 0.75000000
vt 0.99999991 0.00000000
vt 1.00000000 0.87610060
vt 0.00000000 1.00000000
vt 0.00000000 1.00000000
vt 0.00000001 0.12389935
vt 1.00000000 0.00000000
vt 1.00000000 1.00000000
vt 0.00000000 1.00000000
vt 0.00000001 0.00000012
vt 0.50000000 0.00000011
vt 0.99999999 0.00000010
vt 0.00000000 1.00000000
vt 0.00000000 0.00000000
vt 1.00000000 0.11111111
vt 1.00000000 0.88888889
vt 0.00000001 1.00000000
vt 0.00000000 0.75000000
vt 0.25000000 0.67500000
vt 0.50000000 0.52500000
vt 0.75000000 0.30000000
vt 1.00000000 0.00000000
vt 1.00000000 0.25000000
vt 0.75000000 0.55000000
vt 0.50000000 0.77500000
vt 0.25000000 0.92500000
vt 0.74816462 0.20156696
vt 0.00000000 1.00000000
vt 0.00000000 0.00000000
vt 1.00000000 0.00000000
vt 1.00000000 1.00000000
vt 0.00000000 1.00000000
vt 0.00000000 0.00000000
vt 1.00000000 0.00000000
vt 1.00000000 1.00000000
vt 0.00000000 1.00000000
vt 0.00000000 0.00000000
vt 1.00000000 0.00000009
vt 0.99999996 0.00000000
vt 1.00000000 0.87610063
vt 0.00000000 1.00000000
vt 1.00000000 1.00000000
vt 0.00000000 1.00000000
vt 0.00000000 0.00000000
vt 1.00000000 0.00000000
vt 1.00000000 1.00000000
vt 0.00000000 1.00000000
vt 0.00000000 0.00000000
vt 1.00000000 0.00000000
vt 0.99999996 0.00000000
vt 1.00000000 0.87610066
vt 0.00000000 1.00000000
vt 0.00000000 0.00000000
vt 1.00000000 0.00000000
vt 1.00000000 1.00000000
vt 0.00000000 1.00000000
vt 0.00000000 0.33415107
vt 0.00000000 1.00000000
vt 0.00000000 0.00000000
vt 1.00000000 0.00000000
vt 1.00000000 1.00000000
vt 0.00000000 1.00000000
vt 0.00000000 0.00000000
vt 1.00000000 0.00000000
vt 1.00000000 1.00000000
vt 0.00000000 1.00000000
vt 0.00000000 0.00000000
vt 1.00000000 0.00000000
vt 1.00000000 1.00000000
vt 0.00000000 1.00000000
vt 0.00000000 0.00000000
vt 1.00000000 0.00000000
vt 1.00000000 1.00000000
vt 0.50000000 0.55291147
vt 0.25000000 0.42517189
vt 0.00000000 0.36130210
vt 0.00000000 0.00000000
vt 0.25000000 0.06386979
vt 0.50000000 0.19160937
vt 0.75000000 0.38321874
vt 1.00000000 0.63869790
vt 1.00000000 1.00000000
vt 0.75000000 0.74452084
vt 0.00000000 0.00000000
vt 1.00000000 0.00000000
vt 1.00000000 0.66339576
vt 1.00000000 1.00000000
vt 0.00000000 1.00000000
vt 1.00000000 1.00000000
vt 0.00000001 1.00000000
vt 0.00000000 0.00000000
vt 0.37546054 0.20039328
vt 0.75092107 0.60117984
vt 0.00000000 0.00000000
vt 1.00000000 0.00000000
vt 1.00000000 1.00000000
vt 0.00000000 1.00000000
vt 0.00000000 0.00000000
vt 1.00000000 0.00000000
vt 1.00000000 1.00000000
vt 0.00000000 1.00000000
vt 1.00000000 0.44492955
vt 0.16666667 0.44492955
vt 0.16666667 1.00000000
vt 0.08333333 1.00000000
vt 0.08333333 0.37077459
vt 0.00000000 0.37077459
vt 0.00000000 0.00000000
vt 0.16666667 0.00000000
vt 0.58333333 0.00000000
vt 1.00000000 0.00000000
vt 0.00000000 0.00000000
vt 1.00000000 0.00000000
vt 1.00000000 1.00000000
vt 0.00000000 1.00000000
vn -0.00000000 0.00000000 1.00000000
vn -0.00000000 0.00000000 1.00000000
vn -0.00000000 0.00000000 1.00000000
vn -0.00000000 0.00000000 1.00000000
vn -0.00000000 0.00000000 1.00000000
vn -0.00000000 0.00000000 1.00000000
vn -0.00000000 0.00000000 1.00000000
vn -0.00000000 0.00000000 1.00000000
vn -0.00000000 0.00000000 1.00000000
vn -1.00000000 -0.00000000 0.00000000
vn -1.00000000 -0.00000000 0.00000000
vn -1.00000000 -0.00000000 0.00000000
vn -1.00000000 -0.00000000 0.00000000
vn -1.00000000 -0.00000000 0.00000000
vn -1.00000000 -0.00000000 0.00000000
vn -1.00000000 -0.00000000 0.00000000
vn -1.00000000 -0.00000000 0.00000000
vn -1.00000000 -0.00000000 0.00000000
vn -1.00000000 -0.00000000 0.00000000
vn 0.51307321 0.85834485 0.00000000
vn 0.51307321 0.85834485 0.00000000
vn 0.51307321 0.85834485 0.00000000
vn 0.51307321 0.85834485 0.00000000
vn 0.44172610 0.55215763 -0.70710678
vn 0.44172610 0.55215763 -0.70710678
vn 0.44172610 0.55215763 -0.70710678
vn 0.44172610 0.55215763 0.70710678
vn 0.44172610 0.55215763 0.70710678
vn 0.44172610 0.55215763 0.70710678
vn 0.15950454 -0.98719720 0.00000000
vn 0.15950454 -0.98719720 0.00000000
vn 0.15950454 -0.98719720 0.00000000
vn 0.15950454 -0.98719720 0.00000000
vn 0.15950454 -0.98719720 0.00000000
vn 0.38137665 0.92441974 0.00000000
vn 0.38137665 0.92441974 0.00000000
vn 0.38137665 0.92441974 0.00000000
vn 0.38137665 0.92441974 0.00000000
vn 0.38137665 0.92441974 0.00000000
vn 0.36380344 0.60633906 0.70710678
vn 0.36380344 0.60633906 0.70710678
vn 0.36380344 0.60633906 0.70710678
vn 0.36380344 0.60633906 -0.70710678
vn 0.36380344 0.60633906 -0.70710678
vn 0.36380344 0.60633906 -0.70710678
vn 0.38137665 0.92441974 0.00000000
vn 0.38137665 0.92441974 0.00000000
vn 0.38137665 0.92441974 0.00000000
vn 0.38137665 0.92441974 0.00000000
vn 0.33424332 -0.94248682 0.00000000
vn 0.33424332 -0.94248682 0.00000000
vn 0.33424332 -0.94248682 -0.00000000
vn 0.33424332 -0.94248682 -0.00000000
vn 0.33424332 -0.94248682 -0.00000000
vn 0.21747958 0.97606487 0.00000000
vn 0.21747958 0.97606487 0.00000000
vn 0.21747958 0.97606487 0.00000000
vn 0.21747958 0.97606487 0.00000000
vn 0.21747958 0.97606487 0.00000000
vn 0.26261287 0.65653216 0.70710678
vn 0.26261287 0.65653216 0.70710678
vn 0.26261287 0.65653216 0.70710678
vn 0.26261287 0.65653216 -0.70710678
vn 0.26261287 0.65653216 -0.70710678
vn 0.26261287 0.65653216 -0.70710678
vn 0.51363881 -0.85800651 -0.00000000
vn 0.51363881 -0.85800651 -0.00000000
vn 0.51363881 -0.85800651 -0.00000000
vn 0.51363881 -0.85800651 -0.00000000
vn 0.51363881 -0.85800651 -0.00000000
vn 0.02723614 0.99962903 0.00000000
vn 0.02723614 0.99962903 0.00000000
vn 0.02723614 0.99962903 0.00000000
vn 0.02723614 0.99962903 0.00000000
vn 0.02723614 0.99962903 0.00000000
vn 0.68064809 -0.73261053 -0.00000000
vn 0.68064809 -0.73261053 -0.00000000
vn 0.68064809 -0.73261053 -0.00000000
vn 0.68064809 -0.73261053 -0.00000000
vn 0.13867505 0.69337525 -0.70710678
vn 0.13867505 0.69337525 -0.70710678
vn 0.13867505 0.69337525 -0.70710678
vn 0.13867505 0.69337525 0.70710678
vn 0.13867505 0.69337525 0.70710678
vn 0.13867505 0.69337525 0.70710678
vn 0.68064809 -0.73261053 -0.00000000
vn 0.68064809 -0.73261053 -0.00000000
vn 0.68064809 -0.73261053 -0.00000000
vn 0.13867505 0.69337525 -0.70710678
vn 0.13867505 0.69337525 -0.70710678
vn 0.13867505 0.69337525 -0.70710678
vn 0.13867505 0.69337525 0.70710678
vn 0.13867505 0.69337525 0.70710678
vn 0.13867505 0.69337525 0.70710678
vn 0.02723614 0.99962903 -0.00000000
vn 0.02723614 0.99962903 -0.00000000
vn 0.02723614 0.99962903 -0.00000000
vn 0.02723614 0.99962903 -0.00000000
vn 0.13867505 0.69337525 -0.70710678
vn 0.13867505 0.69337525 -0.70710678
vn 0.13867505 0.69337525 -0.70710678
vn 0.51363882 -0.85800651 0.00000000
vn 0.51363882 -0.85800651 0.00000000
vn 0.51363882 -0.85800651 0.00000000
vn 0.51363882 -0.85800651 0.00000000
vn 0.26261287 0.65653216 0.70710678
vn 0.26261287 0.65653216 0.70710678
vn 0.26261287 0.65653216 0.70710678
vn 0.21747958 0.97606487 -0.00000000
vn 0.21747958 0.97606487 -0.00000000
vn 0.21747958 0.97606487 -0.00000000
vn 0.21747958 0.97606487 -0.00000000
vn 0.33424332 -0.94248682 -0.00000001
vn 0.33424332 -0.94248682 -0.00000001
vn 0.33424332 -0.94248682 -0.00000001
vn 0.33424332 -0.94248682 -0.00000001
vn 0.36380343 0.60633907 -0.70710678
vn 0.36380343 0.60633907 -0.70710678
vn 0.36380343 0.60633907 -0.70710678
vn 0.36380344 0.60633906 0.70710678
vn 0.36380344 0.60633906 0.70710678
vn 0.36380344 0.60633906 0.70710678
vn 0.26261287 0.65653216 -0.70710678
vn 0.26261287 0.65653216 -0.70710678
vn 0.26261287 0.65653216 -0.70710678
vn 0.68064809 -0.73261052 0.00000000
vn 0.68064809 -0.73261052 0.00000000
vn 0.68064809 -0.73261052 0.00000000
vn 0.02723614 0.99962903 0.00000000
vn 0.02723614 0.99962903 0.00000000
vn 0.02723614 0.99962903 0.00000000
vn 0.26261287 0.65653216 -0.70710678
vn 0.26261287 0.65653216 -0.70710678
vn 0.26261287 0.65653216 -0.70710678
vn 0.33424332 -0.94248682 0.00000000
vn 0.33424332 -0.94248682 0.00000000
vn 0.33424332 -0.94248682 -0.00000000
vn 0.36380344 0.60633906 -0.70710678
vn 0.36380344 0.60633906 -0.70710678
vn 0.36380344 0.60633906 -0.70710678
vn 0.44172610 0.55215763 -0.70710678
vn 0.44172610 0.55215763 -0.70710678
vn 0.44172610 0.55215763 -0.70710678
vn 0.38137665 0.92441974 0.00000000
vn 0.38137665 0.92441974 0.00000000
vn 0.38137665 0.92441974 0.00000000
vn 0.44172610 0.55215763 0.70710678
vn 0.44172610 0.55215763 0.70710678
vn 0.44172610 0.55215763 0.70710678
vn 0.44172610 0.55215763 -0.70710678
vn 0.44172610 0.55215763 -0.70710678
vn 0.44172610 0.55215763 -0.70710678
vn 0.15950454 -0.98719720 -0.00000000
vn 0.15950454 -0.98719720 -0.00000000
vn 0.15950454 -0.98719720 -0.00000000
vn 0.15950454 -0.98719720 -0.00000000
vn 0.51307321 0.85834485 0.00000000
vn 0.51307321 0.85834485 0.00000000
vn 0.51307321 0.85834485 0.00000000
vn -0.00000000 0.00000000 -1.00000000
vn -0.00000000 0.00000000 -1.00000000
vn -0.00000000 0.00000000 -1.00000000
vn -0.00000000 0.00000000 -1.00000000
vn -0.00000000 0.00000000 -1.00000000
vn -0.00000000 0.00000000 -1.00000000
vn -0.00000000 0.00000000 -1.00000000
vn -0.00000000 0.00000000 -1.00000000
vn -0.00000000 0.00000000 -1.00000000
vn -0.00000000 0.00000000 -1.00000000
vn 0.00000000 -0.00000000 -1.00000000
vn 0.00000000 -0.00000000 -1.00000000
vn 0.00000000 -0.00000000 -1.00000000
vn 0.00000000 -0.00000000 -1.00000000
vn 0.51307321 0.85834485 0.00000000
vn 0.51307321 0.85834485 0.00000000
vn 0.51307321 0.85834485 0.00000000
vn 0.15950454 -0.98719720 -0.00000000
vn 0.15950454 -0.98719720 -0.00000000
vn 0.15950454 -0.98719720 -0.00000000
vn 0.36380344 0.60633906 0.70710678
vn 0.36380344 0.60633906 0.70710678
vn 0.36380344 0.60633906 0.70710678
vn 0.21747958 0.97606487 0.00000000
vn 0.21747958 0.97606487 0.00000000
vn 0.21747958 0.97606487 0.00000000
vn 0.51363881 -0.85800651 -0.00000000
vn 0.51363881 -0.85800651 -0.00000000
vn 0.51363881 -0.85800651 -0.00000000
vn 0.13867505 0.69337525 0.70710678
vn 0.13867505 0.69337525 0.70710678
vn 0.13867505 0.69337525 0.70710678
vn 0.00000000 -1.00000000 0.00000000
vn 0.00000000 -1.00000000 0.00000000
vn 0.00000000 -1.00000000 0.00000000
vn 0.00000000 -1.00000000 0.00000000
vn 0.00000000 -1.00000000 0.00000000
vn -0.19611614 -0.98058068 -0.00000000
vn -0.19611614 -0.98058068 -0.00000000
vn -0.19611614 -0.98058068 -0.00000000
vn -0.19611614 -0.98058068 -0.00000000
vn -0.37139068 -0.92847669 -0.00000000
vn -0.37139068 -0.92847669 -0.00000000
vn -0.37139068 -0.92847669 -0.00000000
vn -0.37139068 -0.92847669 -0.00000000
vn -0.51449576 -0.85749293 -0.00000000
vn -0.51449576 -0.85749293 -0.00000000
vn -0.51449576 -0.85749293 -0.00000000
vn -0.51449576 -0.85749293 -0.00000000
vn -0.62469505 -0.78086881 -0.00000000
vn -0.62469505 -0.78086881 -0.00000000
vn -0.62469505 -0.78086881 -0.00000000
vn -0.62469505 -0.78086881 -0.00000000
vn -0.00000000 0.00000000 -1.00000000
vn -0.00000000 0.00000000 -1.00000000
vn -0.00000000 0.00000000 -1.00000000
vn -0.00000000 0.00000000 -1.00000000
vn -0.00000000 0.00000000 -1.00000000
vn -0.00000000 0.00000000 -1.00000000
vn -0.00000000 0.00000000 -1.00000000
vn -0.00000000 0.00000000 -1.00000000
vn -0.00000000 0.00000000 -1.00000000
vn -0.00000000 0.00000000 -1.00000000
vn -0.51449576 -0.85749293 -0.00000000
vn -0.51449576 -0.85749293 -0.00000000
vn -0.51449576 -0.85749293 -0.00000000
vn -0.51449576 -0.85749293 -0.00000000
vn -0.51449576 -0.85749293 -0.00000000
vn 0.00000000 -0.00000000 1.00000000
vn 0.00000000 -0.00000000 1.00000000
vn 0.00000000 -0.00000000 1.00000000
vn 0.00000000 -0.00000000 1.00000000
vn 0.00000000 -0.00000000 1.00000000
vn -0.37139068 -0.92847669 -0.00000000
vn -0.37139068 -0.92847669 -0.00000000
vn -0.37139068 -0.92847669 -0.00000000
vn -0.37139068 -0.92847669 -0.00000000
vn -0.19611614 -0.98058068 -0.00000000
vn -0.19611614 -0.98058068 -0.00000000
vn -0.19611614 -0.98058068 -0.00000000
vn -0.19611614 -0.98058068 -0.00000000
vn 1.00000000 0.00000000 -0.00000000
vn 1.00000000 0.00000000 -0.00000000
vn 1.00000000 0.00000000 -0.00000000
vn 1.00000000 0.00000000 -0.00000000
vn 1.00000000 0.00000000 -0.00000000
vn 1.00000000 0.00000000 -0.00000000
vn 1.00000000 0.00000000 -0.00000000
vn 1.00000000 0.00000000 -0.00000000
vn 1.00000000 0.00000000 -0.00000000
vn 1.00000000 0.00000000 -0.00000000
vn -0.62469505 -0.78086881 -0.00000000
vn -0.62469505 -0.78086881 -0.00000000
vn -0.62469505 -0.78086881 -0.00000000
vn -0.62469505 -0.78086881 -0.00000000
s 1
usemtl Stucco
f 2/2/2 3/3/3 4/4/4
f 1/1/1 4/4/4 6/6/6
f 9/9/9 1/1/1 7/7/7
f 7/7/7 8/8/8 9/9/9
f 1/1/1 6/6/6 7/7/7
f 4/4/4 5/5/5 6/6/6
f 1/1/1 2/2/2 4/4/4
s 2
f 15/15/15 14/14/14 13/13/13
f 16/16/16 13/13/13 11/11/11
f 17/17/17 11/11/11 10/10/10
f 1/19/19 17/17/17 10/10/10
f 1/19/19 9/18/18 17/17/17
f 17/17/17 16/16/16 11/11/11
f 13/13/13 12/12/12 11/11/11
f 16/16/16 15/15/15 13/13/13
s 3
usemtl Red_Roof
f 16/23/23 17/22/22 18/20/20
f 17/22/22 19/21/21 18/20/20
usemtl Dark_Red_Roof
f 57/188/175 17/187/22 9/186/174
f 8/189/176 57/188/175 9/186/174
f 16/169/23 21/170/158 24/171/159
f 15/168/157 16/169/23 24/171/159
s 4
usemtl Red_Roof
f 18/26/26 20/25/25 16/24/24
s 5
usemtl Dark_Red_Roof
f 16/27/27 20/28/28 21/29/29
s 6
usemtl Red_Roof
f 27/166/155 20/165/34 18/164/154
f 27/166/155 18/164/154 19/163/153
f 19/163/153 30/167/156 27/166/155
usemtl Dark_Red_Roof
f 22/30/30 23/31/31 24/32/32
f 22/30/30 24/32/32 21/33/33
f 21/33/33 20/34/34 22/30/30
f 7/193/179 30/192/156 57/191/178
f 7/193/179 57/191/178 8/190/177
s 7
usemtl Red_Roof
f 20/35/35 27/39/39 26/38/38
f 26/38/38 25/37/37 20/35/35
f 25/37/37 22/36/36 20/35/35
usemtl Dark_Red_Roof
f 29/48/47 27/47/39 30/46/46
f 30/46/46 7/50/49 31/49/48
f 31/49/48 29/48/47 30/46/46
f 23/153/144 22/154/36 56/155/145
f 23/153/144 56/155/145 55/156/146
s 8
usemtl Red_Roof
f 27/40/40 28/41/41 26/42/42
s 9
usemtl Dark_Red_Roof
f 29/45/45 28/44/44 27/43/43
s 10
usemtl Red_Roof
f 26/142/135 28/146/52 33/145/137
f 33/145/137 54/144/115 25/143/136
f 33/145/137 25/143/136 26/142/135
usemtl Dark_Red_Roof
f 31/51/50 6/55/54 32/54/53
f 32/54/53 28/53/52 29/52/51
f 56/118/114 54/119/115 53/120/116
f 55/117/113 56/118/114 53/120/116
f 32/54/53 29/52/51 31/51/50
s 11
usemtl Red_Roof
f 34/58/57 33/57/56 28/56/55
f 28/56/55 32/60/59 35/59/58
f 35/59/58 34/58/57 28/56/55
usemtl Dark_Red_Roof
f 37/199/184 32/198/59 6/197/183
f 5/200/185 37/199/184 6/197/183
f 54/115/112 33/116/56 52/112/109
f 52/112/109 51/113/110 54/115/112
f 51/113/110 53/114/111 54/115/112
s 12
usemtl Red_Roof
f 32/61/60 36/62/61 35/63/62
s 13
usemtl Dark_Red_Roof
f 37/66/65 36/65/64 32/64/63
s 14
usemtl Red_Roof
f 39/70/69 38/69/68 34/68/67
f 39/70/69 34/68/67 35/67/66
f 35/67/66 36/71/70 39/70/69
usemtl Dark_Red_Roof
f 52/107/105 38/108/68 46/104/102
f 46/104/102 48/105/103 51/106/104
f 46/104/102 51/106/104 52/107/105
f 4/204/188 36/203/70 37/202/187
f 4/204/188 37/202/187 5/201/186
s 15
usemtl Red_Roof
f 38/138/131 39/137/72 43/136/130
f 38/138/131 43/136/130 45/135/129
f 45/135/129 46/134/96 38/138/131
usemtl Dark_Red_Roof
f 40/74/73 39/73/72 36/72/71
f 36/72/71 4/76/75 41/75/74
f 48/97/95 46/98/96 47/99/97
f 48/97/95 47/99/97 49/100/98
f 41/75/74 40/74/73 36/72/71
s 16
usemtl Red_Roof
f 43/89/87 42/88/76 44/87/86
f 45/90/88 43/89/87 44/87/86
usemtl Dark_Red_Roof
f 40/80/79 41/79/78 42/77/76
f 47/131/127 44/132/86 50/133/128
f 49/130/126 47/131/127 50/133/128
f 41/79/78 3/78/77 42/77/76
s 17
f 40/83/82 42/82/81 39/81/80
s 18
usemtl Red_Roof
f 39/84/83 42/85/84 43/86/85
s 19
f 45/93/91 44/92/90 46/91/89
s 20
usemtl Dark_Red_Roof
f 46/94/92 44/95/93 47/96/94
s 21
f 49/103/101 50/102/100 48/101/99
s 22
f 33/109/106 38/110/107 52/111/108
s 23
f 55/123/119 53/122/118 23/121/117
s 24
f 22/124/120 54/125/121 56/126/122
s 25
f 51/129/125 48/128/124 53/127/123
s 26
usemtl Red_Roof
f 34/141/134 38/140/133 33/139/132
s 27
f 25/149/140 54/148/139 22/147/138
s 28
usemtl Dark_Red_Roof
f 24/152/143 23/151/142 15/150/141
s 29
usemtl Red_Roof
f 17/157/147 30/158/148 19/159/149
s 30
usemtl Dark_Red_Roof
f 57/162/152 30/161/151 17/160/150
s 31
f 50/173/161 58/172/160 61/181/169
f 48/174/162 61/181/169 60/180/168
f 53/175/163 60/180/168 59/179/167
f 59/179/167 14/178/166 23/176/164
f 14/178/166 15/177/165 23/176/164
f 23/176/164 53/175/163 59/179/167
f 53/175/163 48/174/162 60/180/168
f 48/174/162 50/173/161 61/181/169
s 32
usemtl Stucco
f 62/182/170 63/185/173 10/184/172
f 10/184/172 11/183/171 62/182/170
s 33
usemtl Dark_Red_Roof
f 7/194/180 6/195/181 31/196/182
s 34
f 4/205/189 3/206/190 41/207/191
s 35
usemtl Stucco
f 1/209/193 10/208/192 63/212/196
f 63/212/196 64/211/195 2/210/194
f 63/212/196 2/210/194 1/209/193
s 36
usemtl Dark_Red_Roof
f 65/213/197 66/214/198 61/215/199
f 65/213/197 61/215/199 58/216/200
s 37
f 66/217/201 67/218/202 60/219/203
f 66/217/201 60/219/203 61/220/204
s 38
f 67/221/205 68/222/206 59/223/207
f 67/221/205 59/223/207 60/224/208
s 39
f 68/225/209 13/226/210 14/227/211
f 68/225/209 14/227/211 59/228/212
s 40
usemtl Wood_Darker
f 12/236/220 13/237/221 68/238/222
f 72/235/219 68/238/222 67/229/213
f 71/234/218 67/229/213 66/230/214
f 70/233/217 66/230/214 65/231/215
f 65/231/215 69/232/216 70/233/217
f 70/233/217 71/234/218 66/230/214
f 71/234/218 72/235/219 67/229/213
f 72/235/219 12/236/220 68/238/222
s 41
f 63/241/225 62/242/226 72/243/227
f 71/239/223 63/241/225 72/243/227
f 71/239/223 73/240/224 63/241/225
s 42
f 75/247/231 74/246/230 64/245/229
f 73/248/232 64/245/229 63/244/228
f 73/248/232 75/247/231 64/245/229
s 43
f 70/249/233 75/250/234 71/252/236
f 75/250/234 73/251/235 71/252/236
s 44
f 69/253/237 74/254/238 70/256/240
f 74/254/238 75/255/239 70/256/240
s 45
usemtl Stucco
f 65/261/245 58/262/246 50/263/247
f 64/258/242 65/261/245 44/264/248
f 2/257/241 64/258/242 42/265/249
f 42/265/249 3/266/250 2/257/241
f 64/258/242 44/264/248 42/265/249
f 64/258/242 74/259/243 69/260/244
f 64/258/242 69/260/244 65/261/245
f 65/261/245 50/263/247 44/264/248
s 46
usemtl Wood_Darker
f 72/267/251 62/268/252 12/270/254
f 62/268/252 11/269/253 12/270/254
