mtllib Materials_Modular_Village.mtl
o object1
g object1
v -0.15393399 -0.00464466 0.20000000
v -0.50000000 0.30000000 0.20000000
v -0.50000000 0.30000000 0.40000000
v -0.15393399 -0.00464466 0.40000000
v -0.29535534 -0.14606601 0.20000000
v -0.50000000 0.10000000 0.20000000
v -0.29535534 -0.14606601 0.40000000
v -0.50000000 0.10000000 0.40000000
vt 0.00000000 0.00000000
vt 1.00000000 0.00000000
vt 1.00000000 1.00000000
vt 0.00000000 1.00000000
vt 0.00000000 0.00000000
vt 1.00000000 0.00000000
vt 1.00000000 1.00000000
vt 0.00000000 1.00000000
vt 0.00000000 0.00000000
vt 1.00000000 0.00000000
vt 1.00000000 1.00000000
vt 0.00000000 1.00000000
vt 1.00000000 0.00000000
vt 1.00000000 1.00000000
vt 0.00000000 1.00000000
vt 0.00000000 0.00000000
vt 0.00000000 0.00000000
vt 1.00000000 0.00000000
vt 1.00000000 1.00000000
vt 0.00000000 1.00000000
vt 1.00000000 0.00000000
vt 1.00000000 1.00000000
vt 0.00000000 1.00000000
vt 0.00000000 0.00000000
vn 0.66075815 0.75059887 -0.00000000
vn 0.66075815 0.75059887 -0.00000000
vn 0.66075815 0.75059887 -0.00000000
vn 0.66075815 0.75059887 -0.00000000
vn -0.00000000 0.00000000 -1.00000000
vn -0.00000000 0.00000000 -1.00000000
vn -0.00000000 0.00000000 -1.00000000
vn -0.00000000 0.00000000 -1.00000000
vn -0.76885148 -0.63942740 0.00000000
vn -0.76885148 -0.63942740 0.00000000
vn -0.76885148 -0.63942740 0.00000000
vn -0.76885148 -0.63942740 0.00000000
vn 0.70710678 -0.70710678 -0.00000000
vn 0.70710678 -0.70710678 -0.00000000
vn 0.70710678 -0.70710678 -0.00000000
vn 0.70710678 -0.70710678 -0.00000000
vn 0.00000000 -0.00000000 1.00000000
vn 0.00000000 0.00000000 1.00000000
vn 0.00000000 0.00000000 1.00000000
vn 0.00000000 -0.00000000 1.00000000
vn -1.00000000 0.00000000 0.00000000
vn -1.00000000 0.00000000 0.00000000
vn -1.00000000 0.00000000 0.00000000
vn -1.00000000 0.00000000 0.00000000
s 1
usemtl Wood_Darker
f 1/1/1 2/2/2 4/4/4
f 2/2/2 3/3/3 4/4/4
s 2
f 5/5/5 6/6/6 1/8/8
f 6/6/6 2/7/7 1/8/8
s 3
f 7/9/9 8/10/10 6/11/11
f 7/9/9 6/11/11 5/12/12
s 4
f 5/13/13 1/14/14 4/15/15
f 5/13/13 4/15/15 7/16/16
s 5
f 4/17/17 3/18/18 8/19/19
f 4/17/17 8/19/19 7/20/20
s 6
f 8/24/24 3/23/23 6/21/21
f 3/23/23 2/22/22 6/21/21
