mtllib Materials_Modular_Village.mtl
o object1
g object1
v 0.25000000 0.25000000 0.25000000
v 0.25000000 0.25000000 -0.00000000
v 0.54516115 0.24195797 0.05000000
v 0.54516115 0.24195797 0.45000000
v 0.25000000 0.25000001 0.50000000
v 0.50000000 0.20000000 -0.00000000
v 0.50000000 0.20000000 0.50000000
v 0.50000000 0.20000000 -0.50000000
v 0.50000000 -0.00000000 0.50000000
v 0.50000000 0.00000000 -0.50000000
v 0.54516115 0.24195797 -0.45000000
v 0.54516115 0.24195797 -0.05000000
v 0.54516115 0.24195797 -0.54516115
v 0.25000000 0.25000000 -0.25000000
v 0.05000000 0.24195797 -0.54516115
v -0.00000000 0.25000000 -0.25000000
v -0.20000000 0.28228171 -0.30392488
v 0.30392488 0.28228171 -0.30392488
v -0.25000000 0.25000000 -0.25000000
v -0.00000000 0.35000001 -0.00000000
v -0.25000000 0.35000001 -0.00000000
v 0.30392488 0.28228171 -0.20000000
v 0.00000000 0.35000001 0.25000000
v 0.30392488 0.28228171 0.20000000
v 0.30392488 0.28228171 0.30000000
v 0.00000000 0.35000001 0.50000000
v 0.30392488 0.28228171 0.50000000
v 0.06108013 0.37166144 0.45000000
v 0.06108013 0.37166144 0.05000000
v 0.06108013 0.37166144 -0.06108013
v -0.25000000 0.50000000 0.50000000
v -0.24999999 0.50000001 0.25000000
v -0.18340991 0.51075917 0.30000000
v -0.18340991 0.51075917 0.50000000
v -0.50000000 0.70000000 0.50000000
v -0.18340991 0.51075917 0.18340991
v -0.50000000 0.51075917 0.18340991
v -0.50000000 0.50000001 0.25000000
v -0.50000000 0.35000001 -0.00000000
v -0.50000000 0.28228171 -0.30392488
v -0.50000000 0.25000000 -0.25000000
v -0.50000000 0.20000000 -0.50000000
v -0.50000000 0.00000000 -0.50000000
v -0.50000000 -0.00000000 0.50000000
v -0.45000000 0.37166144 -0.06108013
v -0.45000000 0.24195797 -0.54516115
v -0.00000000 0.20000000 -0.50000000
v -0.05000000 0.24195797 -0.54516115
v -0.30000000 0.28228171 -0.30392488
vt 0.50000000 1.00000000
vt 0.00000000 1.00000000
vt 0.00000000 0.00000000
vt 1.00000000 0.00000000
vt 1.00000000 1.00000000
vt 0.00000000 0.00000000
vt 1.00000000 0.00000000
vt 1.00000000 1.00000000
vt 0.00000000 1.00000000
vt 0.00000002 1.00000000
vt 0.00000000 0.50000000
vt 0.00000002 0.00000000
vt 1.00000000 0.00000000
vt 1.00000000 1.00000000
vt 0.00000000 1.00000000
vt 0.00000000 0.00000000
vt 1.00000000 0.00000000
vt 1.00000000 1.00000000
vt 1.00000000 0.87610066
vt 0.00000000 1.00000000
vt 1.00000000 0.00000000
vt 0.00000000 0.17455600
vt 0.00000000 0.00000000
vt 1.00000000 0.54142000
vt 1.00000000 1.00000000
vt 0.00000000 0.90828400
vt 0.54142000 1.00000000
vt 0.00000000 0.00000000
vt 0.90828400 0.00000000
vt 1.00000000 1.00000000
vt 0.90973505 1.00000000
vt 0.00000000 1.00000000
vt 0.09735052 0.00000000
vt 0.54867526 0.00000000
vt 1.00000000 0.00000000
vt 0.54867526 1.00000000
vt 0.00000000 0.00000000
vt 0.90973505 0.00000000
vt 1.00000000 1.00000000
vt 0.00000000 0.18761547
vt 0.00000000 0.00000000
vt 1.00000000 0.54867526
vt 0.99999999 1.00000000
vt 0.00000000 0.90973505
vt 0.99999995 0.00000000
vt 0.99999999 0.87610066
vt 0.00000000 1.00000000
vt 0.00000000 1.00000000
vt 0.00000000 0.12389934
vt 1.00000000 0.00000000
vt 1.00000000 1.00000000
vt 0.00000000 1.00000000
vt 0.00000000 0.00000000
vt 1.00000000 0.00000000
vt 1.00000000 0.00000007
vt 1.00000000 1.00000000
vt 0.00000000 1.00000000
vt 0.00000000 0.00000007
vt 0.50000000 0.00000007
vt 0.00000004 0.00000000
vt 1.00000000 1.00000000
vt 0.00000000 1.00000000
vt 0.99999996 0.00000000
vt 1.00000000 0.87610064
vt 0.00000000 1.00000000
vt 0.00000000 0.19797551
vt 0.00000000 0.00000000
vt 0.99999998 0.55443083
vt 1.00000000 1.00000000
vt 0.00000000 0.91088617
vt 0.00000000 1.00000000
vt 0.00000000 0.00000000
vt 1.00000000 0.00000009
vt 1.00000000 1.00000000
vt 1.00000000 1.00000000
vt 0.00000000 1.00000000
vt 0.00000000 0.36826829
vt 0.00000000 0.00000000
vt 1.00000000 0.00000000
vt 1.00000000 1.00000000
vt 0.00000000 1.00000000
vt 0.71428572 0.25000002
vt 0.50000001 0.50000000
vt 0.40325958 0.80392488
vt 0.35714286 0.75000000
vt 0.28571429 1.00000000
vt 0.00000000 1.00000000
vt 0.00000000 0.00000000
vt 1.00000000 0.00000000
vt 0.72965596 0.31659009
vt 0.99999996 0.00000000
vt 1.00000000 0.87610064
vt 0.00000000 1.00000000
vt 1.00000000 0.87610066
vt 0.00000000 1.00000000
vt 0.99999996 0.00000000
vt 0.00000000 0.00000000
vt 1.00000000 0.00000000
vt 1.00000000 1.00000000
vt 0.00000000 1.00000000
vt 0.00000001 0.12389934
vt 1.00000000 0.00000000
vt 0.00000004 1.00000000
vt 1.00000000 1.00000000
vt 0.00000000 1.00000000
vt 0.00000001 0.00000000
vt 1.00000000 0.00000000
vt 0.00000000 1.00000000
vt 0.00000000 0.12389934
vt 1.00000000 0.00000000
vt 1.00000000 1.00000000
vt 0.00000000 1.00000000
vt 0.00000000 0.00000000
vt 1.00000000 0.00000000
vt 0.21033534 0.00000000
vt 1.00000000 0.00000000
vt 1.00000000 1.00000000
vt 0.00000000 1.00000000
vt 0.00000000 0.00000000
vt 1.00000000 1.00000000
vt 0.00000000 1.00000000
vt 1.00000000 1.00000000
vt 0.55443082 1.00000000
vt 0.00000000 0.00000000
vt 0.91088617 0.00000000
vt 0.10886168 0.00000000
vt 0.55443084 0.00000000
vt 1.00000000 0.00000000
vt 0.91088617 1.00000000
vt 0.00000000 1.00000000
vt 0.99999995 0.00000000
vt 0.99999999 0.87610066
vt 0.00000000 1.00000000
vt 0.50000000 1.00000000
vt 0.00000000 1.00000000
vt 0.00000000 0.00000000
vt 1.00000000 0.00000000
vt 1.00000000 1.00000000
vt 0.00000000 0.00000000
vt 1.00000000 1.00000000
vt 0.00000002 1.00000000
vt 0.00000000 1.00000000
vt 1.00000000 0.00000000
vt 1.00000000 0.87610066
vt 1.00000000 0.00000000
vt 0.90828400 1.00000000
vt 0.00000000 1.00000000
vt 0.08283999 0.00000000
vt 0.00000000 0.00000000
vt 1.00000000 1.00000000
vt 0.00000003 1.00000000
vt 1.00000000 0.00000000
vt 1.00000000 1.00000000
vt 0.50000000 1.00000000
vt 0.00000000 1.00000000
vt 0.00000000 0.00000000
vt 0.00000000 0.00000000
vt 1.00000000 0.00000000
vt 1.00000000 1.00000000
vt 0.00000000 1.00000000
vt 0.00000000 0.71428571
vt 0.25000000 0.64285713
vt 0.19607512 0.59674042
vt 0.50000000 0.49999999
vt 0.74999998 0.28571428
vt 0.68340991 0.27034404
vt 1.00000000 0.00000000
vt 1.00000000 1.00000000
vt 0.00000000 1.00000000
vt 1.00000000 0.87610066
vt 0.00000000 1.00000000
vt 0.99999996 0.00000000
vt 1.00000000 1.00000000
vt 0.00000000 1.00000000
vt 0.00000001 0.00000000
vt 1.00000000 0.00000000
vt 1.00000000 0.00000000
vt 1.00000000 1.00000000
vt 0.00000000 1.00000000
vt 0.00000000 0.00000000
vt 0.50000000 0.00000000
vt 0.00000001 0.12389934
vt 1.00000000 0.00000000
vt 0.00000004 1.00000000
vn 0.02723614 0.99962903 0.00000000
vn 0.02723614 0.99962903 0.00000000
vn 0.02723614 0.99962903 0.00000000
vn 0.02723614 0.99962903 0.00000000
vn 0.02723614 0.99962903 0.00000000
vn 0.68064809 -0.73261053 0.00000000
vn 0.68064809 -0.73261053 0.00000000
vn 0.68064809 -0.73261053 0.00000000
vn 0.68064809 -0.73261053 0.00000000
vn 1.00000000 -0.00000000 0.00000000
vn 1.00000000 -0.00000000 0.00000000
vn 1.00000000 -0.00000000 0.00000000
vn 1.00000000 -0.00000000 0.00000000
vn 1.00000000 -0.00000000 0.00000000
vn 0.68064809 -0.73261053 0.00000000
vn 0.68064809 -0.73261053 0.00000000
vn 0.68064809 -0.73261053 0.00000000
vn 0.13867505 0.69337525 0.70710678
vn 0.13867505 0.69337525 0.70710678
vn 0.13867505 0.69337525 0.70710678
vn 0.02723614 0.99962903 0.00000000
vn 0.02723614 0.99962903 0.00000000
vn 0.02723614 0.99962903 0.00000000
vn 0.02723614 0.99962903 0.00000000
vn -0.00000000 0.99962903 -0.02723614
vn -0.00000000 0.99962903 -0.02723614
vn 0.00000000 -0.85800649 -0.51363884
vn 0.00000000 -0.85800649 -0.51363884
vn 0.00000000 -0.85800649 -0.51363884
vn 0.00000000 -0.85800649 -0.51363884
vn 0.00000000 -0.85800649 -0.51363884
vn -0.00000000 0.97606487 -0.21747958
vn -0.00000000 0.97606487 -0.21747958
vn -0.00000000 0.97606487 -0.21747958
vn -0.00000000 0.97606487 -0.21747958
vn 0.21747958 0.97606487 0.00000000
vn 0.21747958 0.97606487 0.00000000
vn 0.21747958 0.97606487 0.00000000
vn 0.21747958 0.97606487 0.00000000
vn 0.21747958 0.97606487 0.00000000
vn 0.26261287 0.65653216 0.70710678
vn 0.26261287 0.65653216 0.70710678
vn 0.26261287 0.65653216 0.70710678
vn 0.26261287 0.65653216 -0.70710678
vn 0.26261287 0.65653216 -0.70710678
vn 0.26261287 0.65653216 -0.70710678
vn 0.21747958 0.97606487 0.00000000
vn 0.21747958 0.97606487 0.00000000
vn 0.21747958 0.97606487 0.00000000
vn 0.33424332 -0.94248682 0.00000000
vn 0.33424332 -0.94248682 0.00000000
vn 0.33424332 -0.94248682 0.00000000
vn 0.33424332 -0.94248682 0.00000000
vn 0.33424332 -0.94248682 0.00000000
vn 0.33424332 -0.94248682 0.00000000
vn 0.36380344 0.60633906 0.70710678
vn 0.36380344 0.60633906 0.70710678
vn 0.36380344 0.60633906 0.70710678
vn 0.38137666 0.92441973 -0.00000001
vn 0.38137666 0.92441973 -0.00000001
vn 0.38137666 0.92441973 -0.00000001
vn 0.38137666 0.92441973 -0.00000001
vn 0.38137666 0.92441973 -0.00000001
vn 0.15950454 -0.98719720 0.00000000
vn 0.15950454 -0.98719720 0.00000000
vn 0.15950454 -0.98719720 0.00000000
vn 0.15950454 -0.98719720 0.00000000
vn 0.51307321 0.85834485 0.00000000
vn 0.51307321 0.85834485 0.00000000
vn 0.51307321 0.85834485 0.00000000
vn 0.51307321 0.85834485 0.00000000
vn 0.00000000 0.85834485 -0.51307321
vn 0.00000000 0.85834485 -0.51307321
vn 0.00000000 0.85834485 -0.51307321
vn -1.00000000 0.00000000 -0.00000000
vn -1.00000000 0.00000000 -0.00000000
vn -1.00000000 0.00000000 -0.00000000
vn -1.00000000 0.00000000 -0.00000000
vn -1.00000000 0.00000000 -0.00000000
vn -1.00000000 0.00000000 -0.00000000
vn -1.00000000 0.00000000 -0.00000000
vn -1.00000000 0.00000000 -0.00000000
vn -1.00000000 0.00000000 -0.00000000
vn -0.70710678 0.60633906 -0.36380344
vn -0.70710678 0.60633906 -0.36380344
vn -0.70710678 0.60633906 -0.36380344
vn -0.70710678 0.69337525 -0.13867505
vn -0.70710678 0.69337525 -0.13867505
vn -0.70710678 0.69337525 -0.13867505
vn 0.00000000 -0.73261053 -0.68064809
vn 0.00000000 -0.73261053 -0.68064809
vn 0.00000000 -0.73261053 -0.68064809
vn 0.00000000 -0.73261053 -0.68064809
vn 0.70710678 0.69337525 -0.13867505
vn 0.70710678 0.69337525 -0.13867505
vn 0.70710678 0.69337525 -0.13867505
vn 0.00000000 -0.85800651 -0.51363881
vn 0.00000000 -0.85800651 -0.51363881
vn 0.00000000 -0.85800651 -0.51363881
vn 0.70710678 0.65653216 -0.26261287
vn 0.70710678 0.65653216 -0.26261287
vn 0.70710678 0.65653216 -0.26261287
vn 0.00000000 0.97606487 -0.21747958
vn 0.00000000 0.97606487 -0.21747958
vn 0.00000000 0.97606487 -0.21747958
vn -0.00000000 -0.98719721 -0.15950446
vn -0.00000000 -0.98719721 -0.15950446
vn -0.00000000 -0.98719721 -0.15950446
vn -0.00000000 -0.98719721 -0.15950446
vn 0.15950454 -0.98719720 0.00000000
vn 0.00000001 0.92441973 -0.38137666
vn 0.00000001 0.92441973 -0.38137666
vn 0.00000001 0.92441973 -0.38137666
vn 0.00000001 0.92441973 -0.38137666
vn -0.00000000 -0.94248684 -0.33424325
vn -0.00000000 -0.94248684 -0.33424325
vn -0.00000000 -0.94248684 -0.33424325
vn -0.00000000 -0.94248684 -0.33424325
vn -0.00000000 -0.94248684 -0.33424325
vn -0.70710678 0.65653216 -0.26261287
vn -0.70710678 0.65653216 -0.26261287
vn -0.70710678 0.65653216 -0.26261287
vn -0.00000000 0.99962903 -0.02723614
vn -0.00000000 0.99962903 -0.02723614
vn -0.00000000 0.99962903 -0.02723614
vn -0.00000000 0.99962903 -0.02723614
vn 0.51363881 -0.85800651 0.00000000
vn 0.51363881 -0.85800651 0.00000000
vn 0.51363881 -0.85800651 0.00000000
vn -0.70710678 0.69337525 -0.13867505
vn -0.70710678 0.69337525 -0.13867505
vn -0.70710678 0.69337525 -0.13867505
vn 0.00000000 -0.73261051 -0.68064810
vn 0.00000000 -0.73261051 -0.68064810
vn 0.00000000 -0.73261051 -0.68064810
vn 0.68064809 -0.73261053 0.00000000
vn 0.00000000 0.00000000 -1.00000000
vn 0.00000000 0.00000000 -1.00000000
vn 0.00000000 0.00000000 -1.00000000
vn 0.00000000 0.00000000 -1.00000000
vn 0.00000000 0.00000000 -1.00000000
vn -0.00000000 -1.00000000 -0.00000000
vn -0.00000000 -1.00000000 -0.00000000
vn -0.00000000 -1.00000000 -0.00000000
vn -0.00000000 -1.00000000 -0.00000000
vn -0.00000000 -0.00000000 1.00000000
vn -0.00000000 -0.00000000 1.00000000
vn -0.00000000 -0.00000000 1.00000000
vn -0.00000000 -0.00000000 1.00000000
vn -0.00000000 -0.00000000 1.00000000
vn -0.00000000 -0.00000000 1.00000000
vn -0.00000000 -0.00000000 1.00000000
vn -0.00000000 -0.00000000 1.00000000
vn -0.00000000 -0.00000000 1.00000000
vn 0.13867505 0.69337525 0.70710678
vn 0.13867505 0.69337525 0.70710678
vn 0.13867505 0.69337525 0.70710678
vn 0.51363881 -0.85800651 0.00000000
vn 0.51363881 -0.85800651 0.00000000
vn 0.51363881 -0.85800651 0.00000000
vn 0.51363881 -0.85800651 0.00000000
vn 0.51363881 -0.85800651 0.00000000
vn 0.51363881 -0.85800651 0.00000000
vn 0.13867505 0.69337525 -0.70710678
vn 0.13867505 0.69337525 -0.70710678
vn 0.13867505 0.69337525 -0.70710678
s 1
usemtl Red_Roof
f 14/24/23 2/25/2 12/26/24
f 14/27/23 15/29/25 16/30/26
f 14/27/23 13/28/22 15/29/25
f 11/22/21 14/24/23 12/26/24
f 11/22/21 13/23/22 14/24/23
usemtl Dark_Red_Roof
f 1/1/1 5/5/5 4/4/4
f 4/4/4 3/3/3 1/1/1
f 3/3/3 2/2/2 1/1/1
f 19/134/123 16/135/26 48/136/124
f 19/134/123 48/136/124 46/137/125
f 46/137/125 41/138/126 19/134/123
s 2
usemtl Red_Roof
f 12/18/17 6/17/6 8/16/16
f 8/149/16 13/150/136 11/151/15
f 12/18/17 8/16/16 11/15/15
usemtl Dark_Red_Roof
f 3/9/9 4/8/8 6/6/6
f 4/8/8 7/7/7 6/6/6
s 3
usemtl Stucco
f 10/14/14 8/10/10 6/11/11
f 6/11/11 7/12/12 9/13/13
f 6/11/11 9/13/13 10/14/14
s 4
usemtl Red_Roof
f 6/19/18 12/20/19 2/21/20
s 5
f 16/34/30 19/35/31 17/31/27
f 17/31/27 18/32/28 16/34/30
f 18/32/28 14/33/29 16/34/30
usemtl Dark_Red_Roof
f 49/105/98 19/106/31 41/107/99
f 40/104/97 49/105/98 41/107/99
s 6
usemtl Red_Roof
f 20/36/32 18/37/33 17/38/34
f 20/36/32 17/38/34 21/39/35
usemtl Dark_Red_Roof
f 39/111/103 21/112/35 49/113/104
f 39/111/103 49/113/104 40/114/105
s 7
usemtl Red_Roof
f 22/40/36 18/41/37 20/42/38
f 20/42/38 23/43/39 24/44/40
f 22/40/36 20/42/38 24/44/40
usemtl Dark_Red_Roof
f 25/53/48 23/52/39 26/51/47
f 27/54/49 25/53/48 26/51/47
s 8
usemtl Red_Roof
f 23/45/41 1/46/42 24/47/43
s 9
usemtl Dark_Red_Roof
f 25/50/46 1/49/45 23/48/44
s 10
f 28/56/51 26/55/50 23/59/54
f 23/59/54 20/58/53 29/57/52
f 20/60/53 30/61/55 29/62/52
f 23/59/54 29/57/52 28/56/51
s 11
f 31/63/56 26/64/57 28/65/58
s 12
f 29/66/59 30/67/60 32/68/61
f 32/68/61 31/69/62 28/70/63
f 29/66/59 32/68/61 28/70/63
s 13
f 34/74/67 31/73/66 33/71/64
f 32/119/65 36/120/110 33/121/64
f 31/73/66 32/72/65 33/71/64
s 14
f 35/75/68 34/76/69 33/77/70
f 35/75/68 33/77/70 36/78/71
s 15
f 36/81/74 37/80/73 35/79/72
s 16
usemtl Stucco
f 41/85/78 42/86/79 43/87/80
f 39/83/76 41/85/78 44/88/81
f 38/82/75 44/88/81 35/89/82
f 38/82/75 35/89/82 37/90/83
f 38/82/75 39/83/76 44/88/81
f 39/83/76 40/84/77 41/85/78
f 41/85/78 43/87/80 44/88/81
s 17
usemtl Dark_Red_Roof
f 45/93/86 39/92/85 38/91/84
s 18
f 41/96/89 46/95/88 42/94/87
s 19
usemtl Red_Roof
f 47/145/90 15/146/133 8/148/135
f 15/146/133 13/147/134 8/148/135
usemtl Dark_Red_Roof
f 47/97/90 42/98/91 48/100/93
f 42/98/91 46/99/92 48/100/93
s 20
f 47/101/94 48/102/95 16/103/96
s 21
f 21/108/100 19/109/101 49/110/102
s 22
f 32/115/106 38/116/107 37/117/108
f 32/115/106 37/117/108 36/118/109
s 23
f 38/122/111 32/123/112 45/125/114
f 32/123/112 30/124/113 45/125/114
s 24
f 21/127/116 39/128/117 45/129/118
f 21/127/116 45/129/118 30/130/119
f 30/130/119 20/126/115 21/127/116
s 25
usemtl Red_Roof
f 17/133/122 19/132/121 21/131/120
s 26
f 14/139/127 18/140/128 22/141/129
f 2/181/163 22/179/129 24/178/162
f 24/178/162 1/177/160 2/181/163
f 2/181/163 14/180/127 22/179/129
usemtl Dark_Red_Roof
f 5/176/161 1/175/160 25/174/159
f 5/176/161 25/174/159 27/173/158
s 27
usemtl Red_Roof
f 47/144/132 16/143/131 15/142/130
s 28
usemtl Stucco
f 43/152/137 42/153/138 47/154/139
f 47/154/139 8/155/140 10/156/141
f 43/152/137 47/154/139 10/156/141
s 29
f 9/157/142 44/158/143 10/160/145
f 44/158/143 43/159/144 10/160/145
s 30
f 9/169/154 7/161/146 5/162/147
f 44/168/153 5/162/147 26/164/149
f 35/167/152 44/168/153 31/165/150
f 31/165/150 34/166/151 35/167/152
f 44/168/153 26/164/149 31/165/150
f 5/162/147 27/163/148 26/164/149
f 44/168/153 9/169/154 5/162/147
s 31
usemtl Dark_Red_Roof
f 7/170/155 4/171/156 5/172/157
s 32
f 2/184/166 3/183/165 6/182/164
