mtllib Materials_Modular_Village.mtl
o object1
g object1
v -0.25000000 0.95000000 0.25000000
v -0.00000000 0.95000000 0.25000000
v -0.03371902 0.78140491 0.03371902
v -0.17928932 0.95000000 0.17928932
v 0.20000000 0.95000000 0.17928932
v 0.25000000 0.95000000 0.25000000
v -0.20000000 0.95000000 0.17928932
v -0.20382524 0.96912621 0.20382524
v -0.25000000 1.20000000 0.50000000
v 0.25000000 1.20000000 0.50000000
v 0.50000000 0.00000000 0.50000000
v -0.50000000 0.00000000 0.50000000
v -0.50000000 1.20000000 0.50000000
v 0.50000000 1.20000000 0.50000000
v -0.28371902 1.03140491 0.28371902
v -0.50000000 1.20000000 0.25000000
v 0.50000000 0.95000000 0.17928932
v 0.30000000 0.95000000 0.17928932
v 0.50000000 0.95000000 0.25000000
v 0.50000000 0.70000000 0.00000000
v 0.50000000 0.45000000 -0.32071068
v 0.50000000 0.45000000 -0.25000000
v 0.50000000 0.20000000 -0.50000000
v 0.50000000 -0.00000000 -0.50000000
v 0.45000000 0.70000000 -0.07071068
v 0.07071068 0.70000000 -0.07071068
v 0.25000000 0.70000000 0.00000000
v -0.00000000 0.70000000 0.00000000
v 0.05000000 0.70000000 -0.07071068
v 0.07071068 0.70000000 -0.45000000
v -0.00000000 0.70000000 -0.50000000
v -0.00000000 0.70000000 -0.25000000
v 0.32071068 0.45000000 -0.50000000
v 0.32071068 0.45000000 -0.32071068
v 0.29617476 0.46912621 -0.29617476
v 0.25000000 0.45000000 -0.25000000
v 0.21628098 0.53140491 -0.21628098
v 0.25000000 0.45000000 -0.50000000
v 0.30000000 0.45000000 -0.32071068
v 0.46628098 0.28140491 -0.46628098
v 0.04617476 0.71912621 -0.04617476
v -0.25000000 0.95000000 0.00000000
v -0.25000000 0.95000000 -0.25000000
v -0.25000000 0.95000000 -0.50000000
v -0.17928932 0.95000000 -0.30000000
v -0.17928932 0.95000000 -0.50000000
v -0.50000000 1.20000000 -0.25000000
v -0.50000000 1.20000000 -0.50000000
v -0.17928932 0.95000000 -0.20000000
v -0.50000000 -0.00000000 -0.50000000
vt 1.00000000 1.00000000
vt 0.00000000 1.00000000
vt 0.00000000 0.00000000
vt 0.94822330 1.00000000
vt 0.00000000 1.00000000
vt 0.00000000 0.00000000
vt 0.50000000 0.00000000
vt 1.00000000 0.00000000
vt 1.00000000 1.00000000
vt 0.00000000 0.00000000
vt 0.94822330 0.00000000
vt 1.00000000 0.07650484
vt 1.00000000 1.00000000
vt 0.00000000 1.00000000
vt 0.00000000 1.00000000
vt 0.00000000 0.00000000
vt 1.00000000 0.00000000
vt 1.00000000 0.25000000
vt 1.00000000 0.75000000
vt 1.00000000 1.00000000
vt 1.00000000 1.00000000
vt 0.00000000 1.00000000
vt 0.00000000 0.00000000
vt 1.00000000 1.00000000
vt 0.00000000 1.00000000
vt 0.00000000 0.00000000
vt 1.00000000 0.23024786
vt 0.00000000 1.00000000
vt 0.00000000 0.00000000
vt 1.00000000 0.94867921
vt 0.00000000 1.00000000
vt 1.00000000 0.00000000
vt 1.00000000 0.23024786
vt 0.00000000 1.00000000
vt 0.00000000 0.00000000
vt 0.00000000 0.00000000
vt 1.00000000 0.00000000
vt 1.00000000 1.00000000
vt 0.00000000 1.00000000
vt 0.00000000 0.00000000
vt 1.00000000 0.00000000
vt 1.00000000 1.00000000
vt 0.00000000 1.00000000
vt 1.00000000 0.00000000
vt 1.00000000 0.87610066
vt 0.00000000 1.00000000
vt 0.00000000 0.00000000
vt 1.00000000 0.00000000
vt 0.79166667 0.32071068
vt 0.79166667 0.25000000
vt 0.58333333 0.50000000
vt 0.37500000 0.82071068
vt 0.37500000 0.75000000
vt 0.16666667 1.00000000
vt 0.00000000 1.00000000
vt 0.00000000 1.00000000
vt 0.00000000 0.12389934
vt 1.00000000 0.00000000
vt 0.94822330 1.00000000
vt 0.00000000 1.00000000
vt 0.00000000 0.00000000
vt 0.50000000 0.00000000
vt 1.00000000 0.00000000
vt 1.00000000 1.00000000
vt 0.94822330 1.00000000
vt 0.00000000 1.00000000
vt 0.00000000 0.00000000
vt 0.50000000 0.00000000
vt 1.00000000 0.00000000
vt 0.91764217 0.70710678
vt 0.00000000 0.00000000
vt 0.89644661 0.00000000
vt 1.00000000 0.07650484
vt 1.00000000 1.00000000
vt 0.00000000 1.00000000
vt 1.00000000 0.94867921
vt 0.00000000 1.00000000
vt 1.00000000 0.00000000
vt 1.00000000 0.94867921
vt 0.00000000 1.00000000
vt 1.00000000 0.00000000
vt 1.00000000 0.23024786
vt 0.00000000 1.00000000
vt 0.00000000 0.00000000
vt 1.00000000 0.23024786
vt 0.00000000 1.00000000
vt 0.00000000 0.00000000
vt 0.00000000 0.00000000
vt 1.00000000 0.00000000
vt 0.83528433 0.70710678
vt 0.89644661 1.00000000
vt 0.00000000 1.00000000
vt 1.00000000 1.00000000
vt 0.00000000 1.00000000
vt 0.00000000 0.00000000
vt 1.00000000 1.00000000
vt 0.00000000 1.00000000
vt 0.00000000 0.00000000
vt 1.00000000 0.23024786
vt 0.00000000 1.00000000
vt 0.00000000 0.00000000
vt 1.00000000 1.00000000
vt 0.00000000 1.00000000
vt 0.00000000 0.00000000
vt 1.00000000 0.07650484
vt 1.00000000 1.00000000
vt 0.50000000 1.00000000
vt 0.00000000 1.00000000
vt 0.00000000 0.00000000
vt 0.94822330 0.00000000
vt 0.00000000 0.00000000
vt 1.00000000 0.00000000
vt 1.00000000 1.00000000
vt 0.00000000 1.00000000
vt 0.00000000 0.00000000
vt 1.00000000 0.00000000
vt 1.00000000 1.00000000
vt 0.00000000 1.00000000
vt 1.00000000 0.00000000
vt 1.00000000 0.87610066
vt 0.00000000 1.00000000
vt 0.00000000 1.00000000
vt 0.00000000 0.12389934
vt 1.00000000 0.00000000
vt 1.00000000 0.94867921
vt 0.00000000 1.00000000
vt 1.00000000 0.00000000
vt 1.00000000 0.94867921
vt 0.00000000 1.00000000
vt 1.00000000 0.00000000
vt 1.00000000 0.23024786
vt 0.00000000 1.00000000
vt 0.00000000 0.00000000
vt 0.00000000 1.00000000
vt 0.00000000 0.12389934
vt 1.00000000 0.00000000
vt 1.00000000 1.00000000
vt 0.00000000 1.00000000
vt 0.00000000 0.00000000
vt 0.00000000 0.00000000
vt 0.89644661 0.00000000
vt 1.00000000 0.07650484
vt 1.00000000 1.00000000
vt 0.00000000 1.00000000
vt 0.00000000 1.00000000
vt 0.00000000 0.00000000
vt 1.00000000 0.00000000
vt 1.00000000 1.00000000
vt 0.89644661 1.00000000
vt 1.00000000 0.23024786
vt 0.00000000 1.00000000
vt 0.00000000 0.00000000
vt 0.79166667 0.75000000
vt 0.79166667 0.67928932
vt 1.00000000 1.00000000
vt 0.00000000 1.00000000
vt 0.00000000 0.00000000
vt 0.16666667 0.00000000
vt 0.37500000 0.25000000
vt 0.37500000 0.17928932
vt 0.58333333 0.50000000
vt 0.00000000 0.00000000
vt 1.00000000 0.00000000
vt 1.00000000 1.00000000
vt 0.00000000 1.00000000
vt 0.00000000 1.00000000
vt 0.00000000 0.00000000
vt 1.00000000 0.00000000
vt 1.00000000 0.25000000
vt 1.00000000 0.75000000
vt 1.00000000 1.00000000
vt 1.00000000 0.94867921
vt 0.00000000 1.00000000
vt 1.00000000 0.00000000
vt 0.00000000 0.00000000
vt 0.94822330 0.00000000
vt 1.00000000 0.07650484
vt 1.00000000 1.00000000
vt 0.00000000 1.00000000
vt 0.91764217 0.70710678
vt 0.94822330 1.00000000
vt 0.00000000 1.00000000
vt 0.00000000 0.00000000
vt 0.50000000 0.00000000
vt 1.00000000 0.00000000
vt 1.00000000 0.07650484
vt 1.00000000 1.00000000
vt 0.50000000 1.00000000
vt 0.00000000 1.00000000
vt 0.00000000 0.00000000
vt 0.94822330 0.00000000
vt 0.00000000 1.00000000
vt 0.00000000 0.12389934
vt 1.00000000 0.00000000
vt 1.00000000 1.00000000
vt 0.00000000 1.00000000
vt 0.00000000 0.00000000
vt 1.00000000 0.23024786
vt 0.00000000 1.00000000
vt 0.00000000 0.00000000
vn 0.00000000 0.78868632 -0.61479581
vn 0.00000000 0.78868632 -0.61479581
vn 0.00000000 0.78868632 -0.61479581
vn -0.00000000 -1.00000000 0.00000000
vn -0.00000000 -1.00000000 0.00000000
vn -0.00000000 -1.00000000 0.00000000
vn -0.00000000 -1.00000000 0.00000000
vn -0.00000000 -1.00000000 0.00000000
vn -0.00000000 -1.00000000 0.00000000
vn 0.00000000 0.78868632 -0.61479581
vn 0.00000000 0.78868632 -0.61479581
vn 0.00000000 0.78868632 -0.61479581
vn 0.00000000 0.78868632 -0.61479581
vn 0.00000000 0.78868632 -0.61479581
vn -0.00000000 0.00000000 1.00000000
vn -0.00000000 0.00000000 1.00000000
vn -0.00000000 0.00000000 1.00000000
vn -0.00000000 0.00000000 1.00000000
vn -0.00000000 0.00000000 1.00000000
vn -0.00000000 0.00000000 1.00000000
vn 0.00000000 0.78868632 -0.61479581
vn 0.00000000 0.78868632 -0.61479581
vn 0.61479581 0.78868632 0.00000000
vn 0.61479581 0.78868632 0.00000000
vn 0.61479581 0.78868632 0.00000000
vn 0.50000000 0.50000000 -0.70710678
vn 0.50000000 0.50000000 -0.70710678
vn 0.50000000 0.50000000 -0.70710678
vn 0.50000000 0.50000000 0.70710678
vn 0.50000000 0.50000000 0.70710678
vn 0.50000000 0.50000000 0.70710678
vn 0.70710678 0.50000000 -0.50000000
vn 0.70710678 0.50000000 -0.50000000
vn 0.70710678 0.50000000 -0.50000000
vn 0.00000000 0.78868632 -0.61479581
vn 0.00000000 0.78868632 -0.61479581
vn 0.00000000 0.78868632 -0.61479581
vn -0.00000000 -1.00000000 0.00000000
vn -0.00000000 -1.00000000 0.00000000
vn -0.00000000 -1.00000000 0.00000000
vn -0.70710678 0.50000000 -0.50000000
vn -0.70710678 0.50000000 -0.50000000
vn -0.70710678 0.50000000 -0.50000000
vn 1.00000000 0.00000000 -0.00000000
vn 1.00000000 0.00000000 -0.00000000
vn 1.00000000 0.00000000 -0.00000000
vn 1.00000000 0.00000000 -0.00000000
vn 1.00000000 0.00000000 -0.00000000
vn 1.00000000 0.00000000 -0.00000000
vn 1.00000000 0.00000000 -0.00000000
vn 1.00000000 0.00000000 -0.00000000
vn 1.00000000 0.00000000 -0.00000000
vn 0.70710678 0.50000000 -0.50000000
vn 0.70710678 0.50000000 -0.50000000
vn 0.70710678 0.50000000 -0.50000000
vn -0.00000000 -1.00000000 0.00000000
vn -0.00000000 -1.00000000 0.00000000
vn -0.00000000 -1.00000000 0.00000000
vn -0.00000000 -1.00000000 0.00000000
vn -0.00000000 -1.00000000 0.00000000
vn -0.00000000 -1.00000000 0.00000000
vn -0.00000000 -1.00000000 -0.00000000
vn -0.00000000 -1.00000000 -0.00000000
vn -0.00000000 -1.00000000 -0.00000000
vn 0.61479581 0.78868632 0.00000000
vn 0.61479581 0.78868632 0.00000000
vn 0.61479581 0.78868632 0.00000000
vn 0.61479581 0.78868632 0.00000000
vn 0.61479581 0.78868632 0.00000000
vn 0.50000000 0.50000000 0.70710678
vn 0.50000000 0.50000000 0.70710678
vn 0.50000000 0.50000000 0.70710678
vn -0.70710678 0.50000000 -0.50000000
vn -0.70710678 0.50000000 -0.50000000
vn -0.70710678 0.50000000 -0.50000000
vn 0.70710678 0.50000000 -0.50000000
vn 0.70710678 0.50000000 -0.50000000
vn 0.70710678 0.50000000 -0.50000000
vn 0.50000000 0.50000000 -0.70710678
vn 0.50000000 0.50000000 -0.70710678
vn 0.50000000 0.50000000 -0.70710678
vn -0.00000000 -1.00000000 -0.00000000
vn -0.00000000 -1.00000000 -0.00000000
vn -0.00000000 -1.00000000 -0.00000000
vn -0.00000000 -1.00000000 -0.00000000
vn -0.00000000 -1.00000000 -0.00000000
vn 0.61479581 0.78868632 0.00000000
vn 0.61479581 0.78868632 0.00000000
vn 0.61479581 0.78868632 0.00000000
vn 0.00000000 0.78868632 -0.61479581
vn 0.00000000 0.78868632 -0.61479581
vn 0.00000000 0.78868632 -0.61479581
vn 0.50000000 0.50000000 -0.70710678
vn 0.50000000 0.50000000 -0.70710678
vn 0.50000000 0.50000000 -0.70710678
vn 0.61479581 0.78868632 0.00000000
vn 0.61479581 0.78868632 0.00000000
vn 0.61479581 0.78868632 0.00000000
vn 0.61479581 0.78868632 0.00000000
vn 0.61479581 0.78868632 0.00000000
vn 0.61479581 0.78868632 0.00000000
vn 0.61479581 0.78868632 0.00000000
vn 0.61479581 0.78868632 0.00000000
vn -0.00000000 -1.00000000 -0.00000000
vn -0.00000000 -1.00000000 -0.00000000
vn -0.00000000 -1.00000000 -0.00000000
vn -0.00000000 -1.00000000 -0.00000000
vn 0.61479581 0.78868632 0.00000000
vn 0.61479581 0.78868632 0.00000000
vn 0.61479581 0.78868632 0.00000000
vn 0.61479581 0.78868632 0.00000000
vn 0.50000000 0.50000000 0.70710678
vn 0.50000000 0.50000000 0.70710678
vn 0.50000000 0.50000000 0.70710678
vn 0.50000000 0.50000000 -0.70710678
vn 0.50000000 0.50000000 -0.70710678
vn 0.50000000 0.50000000 -0.70710678
vn 0.50000000 0.50000000 0.70710678
vn 0.50000000 0.50000000 0.70710678
vn 0.50000000 0.50000000 0.70710678
vn -0.70710678 0.50000000 -0.50000000
vn -0.70710678 0.50000000 -0.50000000
vn -0.70710678 0.50000000 -0.50000000
vn 0.50000000 0.50000000 -0.70710678
vn 0.50000000 0.50000000 -0.70710678
vn 0.50000000 0.50000000 -0.70710678
vn 0.50000000 0.50000000 -0.70710678
vn 0.50000000 0.50000000 -0.70710678
vn 0.50000000 0.50000000 -0.70710678
vn 0.00000000 0.78868632 -0.61479581
vn 0.00000000 0.78868632 -0.61479581
vn 0.00000000 0.78868632 -0.61479581
vn 0.00000000 0.78868632 -0.61479581
vn 0.00000000 0.78868632 -0.61479581
vn 0.00000000 0.78868632 -0.61479581
vn 0.00000000 0.78868632 -0.61479581
vn -0.00000000 -1.00000000 0.00000000
vn -0.00000000 -1.00000000 0.00000000
vn 0.70710678 0.50000000 -0.50000000
vn 0.70710678 0.50000000 -0.50000000
vn 0.70710678 0.50000000 -0.50000000
vn 0.00000000 -0.00000000 -1.00000000
vn 0.00000000 -0.00000000 -1.00000000
vn 0.00000000 -0.00000000 -1.00000000
vn 0.00000000 -0.00000000 -1.00000000
vn 0.00000000 -0.00000000 -1.00000000
vn 0.00000000 -0.00000000 -1.00000000
vn 0.00000000 -0.00000000 -1.00000000
vn 0.00000000 -0.00000000 -1.00000000
vn 0.00000000 -0.00000000 -1.00000000
vn -0.00000000 -1.00000000 0.00000000
vn -0.00000000 -1.00000000 0.00000000
vn -0.00000000 -1.00000000 0.00000000
vn -0.00000000 -1.00000000 0.00000000
vn -1.00000000 0.00000000 -0.00000000
vn -1.00000000 0.00000000 -0.00000000
vn -1.00000000 0.00000000 -0.00000000
vn -1.00000000 0.00000000 -0.00000000
vn -1.00000000 0.00000000 -0.00000000
vn -1.00000000 0.00000000 -0.00000000
vn -0.70710678 0.50000000 -0.50000000
vn -0.70710678 0.50000000 -0.50000000
vn -0.70710678 0.50000000 -0.50000000
vn 0.61479581 0.78868632 0.00000000
vn 0.61479581 0.78868632 0.00000000
vn 0.61479581 0.78868632 0.00000000
vn -0.00000000 -1.00000000 -0.00000000
vn -0.00000000 -1.00000000 -0.00000000
vn 0.00000000 0.78868632 -0.61479581
vn 0.00000000 0.78868632 -0.61479581
vn 0.00000000 0.78868632 -0.61479581
vn 0.00000000 0.78868632 -0.61479581
vn 0.00000000 0.78868632 -0.61479581
vn 0.70710678 0.50000000 -0.50000000
vn 0.70710678 0.50000000 -0.50000000
vn 0.70710678 0.50000000 -0.50000000
vn 0.61479581 0.78868632 0.00000000
vn 0.61479581 0.78868632 0.00000000
vn 0.70710678 0.50000000 -0.50000000
vn 0.70710678 0.50000000 -0.50000000
vn 0.70710678 0.50000000 -0.50000000
s 1
usemtl Red_Roof
f 41/186/169 2/187/2 6/188/170
f 6/188/170 25/190/172 26/191/173
f 6/188/170 19/189/171 25/190/172
f 41/186/169 6/188/170 26/191/173
usemtl Dark_Red_Roof
f 1/1/1 2/2/2 3/3/3
s 2
usemtl Red_Roof
f 5/5/5 6/6/6 2/7/7
f 4/4/4 2/7/7 7/9/9
f 7/180/9 42/184/168 49/182/167
f 42/184/168 43/183/105 49/182/167
f 7/180/9 1/185/8 42/184/168
f 49/182/167 4/181/4 7/180/9
f 2/7/7 1/8/8 7/9/9
f 4/4/4 5/5/5 2/7/7
usemtl Dark_Red_Roof
f 45/113/106 43/112/105 44/111/104
f 46/114/107 45/113/106 44/111/104
f 19/40/38 6/41/6 18/42/39
f 19/40/38 18/42/39 17/43/40
s 3
usemtl Red_Roof
f 10/14/14 5/10/10 4/11/11
f 4/11/11 8/12/12 10/14/14
f 8/12/12 9/13/13 10/14/14
usemtl Dark_Red_Roof
f 18/37/36 10/38/14 14/39/37
f 17/36/35 18/37/36 14/39/37
f 13/21/21 9/22/13 15/23/22
s 4
usemtl Stucco
f 11/15/15 14/20/20 10/19/19
f 9/18/18 12/16/16 11/15/15
f 9/18/18 13/17/17 12/16/16
f 11/15/15 10/19/19 9/18/18
s 5
usemtl Red_Roof
f 47/179/110 16/178/24 8/177/166
f 47/179/110 8/177/166 4/176/165
f 4/176/165 49/175/164 47/179/110
usemtl Dark_Red_Roof
f 15/26/25 16/25/24 13/24/23
f 48/118/111 47/117/110 45/116/109
f 48/118/111 45/116/109 46/115/108
s 6
f 1/29/28 16/28/27 15/27/26
s 7
usemtl Red_Roof
f 1/30/29 8/31/30 16/32/31
s 8
usemtl Dark_Red_Roof
f 15/33/32 9/34/33 1/35/34
s 9
f 18/46/43 6/45/42 10/44/41
s 10
usemtl Stucco
f 24/55/52 23/54/51 22/53/50
f 11/47/44 22/53/50 20/51/48
f 14/48/45 11/47/44 19/50/47
f 19/50/47 17/49/46 14/48/45
f 11/47/44 20/51/48 19/50/47
f 22/53/50 21/52/49 20/51/48
f 11/47/44 24/55/52 22/53/50
s 11
usemtl Red_Roof
f 19/56/53 20/57/54 25/58/55
s 12
f 25/60/57 20/61/58 27/62/59
f 26/59/56 27/62/59 29/64/61
f 29/70/61 32/68/64 30/66/62
f 32/68/64 31/67/63 30/66/62
f 29/70/61 28/69/60 32/68/64
f 29/70/61 30/66/62 26/65/56
f 27/62/59 28/63/60 29/64/61
f 26/59/56 25/60/57 27/62/59
s 13
f 37/104/97 32/103/68 28/102/96
usemtl Dark_Red_Roof
f 34/72/66 33/71/65 31/75/69
f 31/75/69 32/74/68 35/73/67
f 31/75/69 35/73/67 34/72/66
s 14
f 36/76/70 35/77/71 32/78/72
s 15
f 27/81/75 35/80/74 36/79/73
s 16
usemtl Red_Roof
f 37/82/76 27/83/77 36/84/78
s 17
f 36/87/81 32/86/80 37/85/79
s 18
usemtl Dark_Red_Roof
f 38/88/82 33/92/86 34/91/85
f 36/147/83 39/148/84 34/149/85
f 34/149/85 22/146/138 36/147/83
f 34/149/85 21/145/137 22/146/138
f 34/91/85 39/90/84 38/88/82
f 39/90/84 36/89/83 38/88/82
s 19
usemtl Red_Roof
f 40/95/89 38/94/88 36/93/87
s 20
f 36/96/90 22/97/91 40/98/92
s 21
f 23/101/95 38/100/94 40/99/93
s 22
f 43/107/100 42/106/99 41/105/98
f 26/110/103 43/107/100 41/105/98
f 26/110/103 30/109/102 43/107/100
f 30/109/102 44/108/101 43/107/100
usemtl Dark_Red_Roof
f 3/197/178 42/196/99 1/195/177
s 23
f 47/119/112 43/120/113 45/121/114
s 24
usemtl Red_Roof
f 49/124/117 43/123/116 47/122/115
s 25
f 28/125/118 41/126/119 42/127/120
s 26
f 2/130/123 41/129/122 28/128/121
s 27
usemtl Dark_Red_Roof
f 28/133/126 42/132/125 3/131/124
s 28
usemtl Red_Roof
f 30/136/129 31/135/128 44/134/127
s 29
f 28/137/130 27/138/131 37/139/132
usemtl Dark_Red_Roof
f 35/142/135 27/143/131 20/144/136
f 20/144/136 21/140/133 34/141/134
f 34/141/134 35/142/135 20/144/136
s 30
usemtl Red_Roof
f 40/150/139 22/151/140 23/152/141
s 31
usemtl Stucco
f 38/159/148 23/158/147 24/157/146
f 31/161/150 38/159/148 50/156/145
f 44/153/142 50/156/145 48/155/144
f 48/155/144 46/154/143 44/153/142
f 44/153/142 31/161/150 50/156/145
f 31/161/150 33/160/149 38/159/148
f 38/159/148 24/157/146 50/156/145
s 32
f 50/165/154 24/164/153 11/163/152
f 50/165/154 11/163/152 12/162/151
s 33
f 47/170/159 48/171/160 50/166/155
f 50/166/155 12/167/156 16/169/158
f 12/167/156 13/168/157 16/169/158
f 16/169/158 47/170/159 50/166/155
s 34
usemtl Red_Roof
f 9/174/163 8/173/162 1/172/161
s 35
f 10/192/174 6/193/175 5/194/176
s 36
usemtl Dark_Red_Roof
f 3/198/179 2/199/180 28/200/181
