mtllib Materials_Modular_Village.mtl
o object1
g object1
v -0.00000000 0.70000000 0.25000000
v 0.25000000 0.45000000 0.25000000
v 0.32071068 0.45000000 0.30000000
v -0.00000000 0.70000000 0.50000000
v 0.32071068 0.45000000 0.50000000
v 0.25000000 0.45000000 0.50000000
v 0.50000000 0.20000000 0.50000000
v 0.50000000 -0.00000000 0.50000000
v -0.50000000 0.00000000 0.50000000
v -0.50000000 1.20000000 0.50000000
v -0.17928932 0.95000000 0.50000000
v -0.25000000 0.95000000 0.50000000
v 0.07071068 0.70000000 0.45000000
v -0.25000000 0.95000000 -0.00000000
v 0.07071068 0.70000000 0.05000000
v -0.25000000 0.95000000 0.25000000
v -0.00000000 0.70000000 -0.00000000
v 0.07071068 0.70000000 -0.05000000
v -0.25000000 0.95000000 -0.25000000
v -0.25000000 0.95000000 -0.50000000
v 0.07071068 0.70000000 -0.45000000
v -0.00000000 0.70000000 -0.50000000
v 0.07071068 0.70000000 -0.55000000
v -0.25000000 0.95000000 -0.70000000
v 0.07071068 0.70000000 -0.65000000
v -0.00000000 0.70000000 -0.70000000
v 0.25000000 0.45000000 -0.70000000
v 0.50000000 0.20000000 -0.70000000
v 0.50000000 0.03333333 -0.70000000
v -0.50000000 1.03333333 -0.70000000
v -0.50000000 1.20000000 -0.70000000
v -0.17928932 0.95000000 -0.65000000
v -0.17928932 0.95000000 -0.30000000
v -0.50000000 1.20000000 -0.25000000
v -0.17928932 0.95000000 -0.20000000
v -0.17928932 0.95000000 0.20000000
v -0.50000000 1.20000000 0.25000000
v -0.17928932 0.95000000 0.30000000
v 0.57071068 0.20000000 -0.65000000
v 0.25000000 0.45000000 -0.50000000
v 0.57071068 0.20000000 -0.55000000
v 0.50000000 0.20000000 -0.50000000
v 0.57071068 0.20000000 -0.45000000
v 0.25000000 0.45000000 -0.25000000
v 0.57071068 0.20000000 -0.05000000
v 0.25000000 0.45000000 0.00000000
v 0.32071068 0.45000000 0.20000000
v 0.32071068 0.45000000 -0.20000000
v 0.57071068 0.20000000 0.05000000
v 0.57071068 0.20000000 0.45000000
v 0.50000000 0.20000000 0.00000000
v -0.00000000 0.70000000 -0.25000000
v 0.32071068 0.45000000 -0.30000000
v 0.32071068 0.45000000 -0.65000000
v -0.50000000 0.00000000 -0.50000000
v 0.25049062 -0.00000000 -0.50000000
v 0.50000000 -0.00000000 -0.50000000
v -0.50000000 0.75049062 -0.50000000
v 0.50000000 0.03333333 -0.60000000
v -0.50000000 1.03333333 -0.60000000
v 0.50000000 -0.24950938 -0.50000000
v 0.50000000 -0.24950938 -0.60000000
v -0.50000000 0.75049062 -0.60000000
vt 0.00000000 1.00000000
vt 0.00000000 0.12389934
vt 1.00000000 0.00000000
vt 1.00000000 1.00000000
vt 0.00000000 1.00000000
vt 0.00000000 0.00000000
vt 1.00000000 0.00000000
vt 0.37500000 0.82071068
vt 0.37500000 0.75000000
vt 0.16666667 1.00000000
vt 0.00000000 1.00000000
vt 0.00000000 0.00000000
vt 1.00000000 0.00000000
vt 0.79166667 0.32071068
vt 0.79166667 0.25000000
vt 0.58333333 0.50000000
vt 1.00000000 0.00000000
vt 1.00000000 0.87610066
vt 0.00000000 1.00000000
vt 0.00000000 1.00000000
vt 0.00000000 0.00000000
vt 1.00000000 0.00000000
vt 1.00000000 1.00000000
vt 0.50000000 1.00000000
vt 0.00000000 1.00000000
vt 0.00000000 0.12389934
vt 1.00000000 0.00000000
vt 1.00000000 0.00000000
vt 1.00000000 0.87610066
vt 0.00000000 1.00000000
vt 0.50000000 1.00000000
vt 0.00000000 1.00000000
vt 0.00000000 0.00000000
vt 1.00000000 0.00000000
vt 1.00000000 1.00000000
vt 0.00000000 1.00000000
vt 0.00000000 0.12389934
vt 1.00000000 0.00000000
vt 1.00000000 0.00000000
vt 1.00000000 0.87610066
vt 0.00000000 1.00000000
vt 0.00000000 1.00000000
vt 0.00000000 0.00000000
vt 1.00000000 0.25000000
vt 1.00000000 0.75000000
vt 0.00000000 1.00000000
vt 0.00000000 0.12389934
vt 1.00000000 0.00000000
vt 0.76415094 1.00000000
vt 0.52830189 1.00000000
vt 0.29245283 1.00000000
vt 0.05660377 1.00000000
vt 0.00000000 0.00000000
vt 0.94339623 0.00000000
vt 1.00000000 1.00000000
vt 0.00000000 1.00000000
vt 0.00000000 0.12389934
vt 1.00000000 0.00000000
vt 1.00000000 0.88888889
vt 0.00000000 1.00000000
vt 0.00000000 0.00000000
vt 1.00000000 0.11111111
vt 1.00000000 0.00000000
vt 1.00000000 0.87610066
vt 0.00000000 1.00000000
vt 0.00000000 1.00000000
vt 0.00000000 0.12389934
vt 1.00000000 0.00000000
vt 0.00000000 0.00000000
vt 1.00000000 0.00000000
vt 1.00000000 1.00000000
vt 0.00000000 1.00000000
vt 1.00000000 0.00000000
vt 1.00000000 0.87610066
vt 0.00000000 1.00000000
vt 0.00000000 1.00000000
vt 0.00000000 0.12389934
vt 1.00000000 0.00000000
vt 0.00000000 1.00000000
vt 0.00000000 0.12389934
vt 1.00000000 0.00000000
vt 0.00000000 1.00000000
vt 0.00000000 0.00000000
vt 1.00000000 0.25000000
vt 1.00000000 0.75000000
vt 1.00000000 0.00000000
vt 1.00000000 0.87610066
vt 0.00000000 1.00000000
vt 0.00000000 1.00000000
vt 0.00000000 0.12389934
vt 1.00000000 0.00000000
vt 0.50000000 1.00000000
vt 0.00000000 1.00000000
vt 0.00000000 0.00000000
vt 1.00000000 0.00000000
vt 1.00000000 1.00000000
vt 1.00000000 1.00000000
vt 0.00000000 1.00000000
vt 0.00000000 0.00000000
vt 0.50000000 0.00000000
vt 1.00000000 0.00000000
vt 0.50000000 1.00000000
vt 0.00000000 1.00000000
vt 0.00000000 0.00000000
vt 1.00000000 0.00000000
vt 1.00000000 1.00000000
vt 0.00000000 0.00000000
vt 1.00000000 0.00000000
vt 1.00000000 1.00000000
vt 0.00000000 1.00000000
vt 0.00000000 1.00000000
vt 0.00000000 0.12389934
vt 1.00000000 0.00000000
vt 0.00000000 1.00000000
vt 0.00000000 0.12389934
vt 1.00000000 0.00000000
vt 1.00000000 0.00000000
vt 1.00000000 0.87610066
vt 0.00000000 1.00000000
vt 0.00000000 0.00000000
vt 1.00000000 0.11111111
vt 1.00000000 0.88888889
vt 0.00000000 1.00000000
vt 0.00000000 0.44444444
vt 0.50000000 1.00000000
vt 0.00000000 1.00000000
vt 0.00000000 0.00000000
vt 1.00000000 0.00000000
vt 1.00000000 1.00000000
vt 1.00000000 0.00000000
vt 1.00000000 0.87610066
vt 0.00000000 1.00000000
vt 0.00000000 0.00000000
vt 1.00000000 0.00000000
vt 1.00000000 1.00000000
vt 0.00000000 1.00000000
vt 0.00000000 0.00000000
vt 1.00000000 0.11111111
vt 1.00000000 0.88888889
vt 0.00000000 1.00000000
vt 0.00000000 0.44444444
vt 1.00000000 0.25000000
vt 1.00000000 0.75000000
vt 0.00000000 1.00000000
vt 0.00000000 0.00000000
vt 0.00000000 1.00000000
vt 0.00000000 0.12389934
vt 1.00000000 0.00000000
vt 1.00000000 0.25000000
vt 1.00000000 0.75000000
vt 0.00000000 1.00000000
vt 0.00000000 0.00000000
vt 0.00000000 0.00000000
vt 1.00000000 0.11111111
vt 1.00000000 0.88888889
vt 0.00000000 1.00000000
vt 0.00000000 0.44444444
vt 1.00000000 1.00000000
vt 0.00000000 1.00000000
vt 0.00000000 0.00000000
vt 0.50000000 0.00000000
vt 1.00000000 0.00000000
vt 1.00000000 1.00000000
vt 0.00000000 1.00000000
vt 0.00000000 0.00000000
vt 0.50000000 0.00000000
vt 1.00000000 0.00000000
vt 1.00000000 1.00000000
vt 0.00000000 1.00000000
vt 0.00000000 0.00000000
vt 1.00000000 0.00000000
vt 1.00000000 1.00000000
vt 0.00000000 1.00000000
vt 0.00000000 0.00000000
vt 1.00000000 0.00000000
vt 0.00000000 0.00000000
vt 1.00000000 0.00000000
vt 1.00000000 0.75049062
vt 1.00000000 1.00000000
vt 0.00000000 1.00000000
vt 1.00000000 0.00000000
vt 1.00000000 0.87610066
vt 0.00000000 1.00000000
vt 1.00000000 1.00000000
vt 0.00000000 1.00000000
vt 0.00000000 0.00000000
vt 0.50000000 0.00000000
vt 1.00000000 0.00000000
vt 1.00000000 1.00000000
vt 0.00000000 1.00000000
vt 0.00000000 0.00000000
vt 1.00000000 0.00000000
vt 1.00000000 0.00000000
vt 1.00000000 0.87610066
vt 0.00000000 1.00000000
vt 0.00000000 0.00000000
vt 1.00000000 1.00000000
vt 0.00000000 1.00000000
vt 1.00000000 1.00000000
vt 0.00000000 1.00000000
vt 0.00000000 0.00000000
vt 1.00000000 0.00000000
vt 0.00000000 0.83333333
vt 0.55507046 0.83333333
vt 0.55507046 0.00000000
vt 1.00000000 0.00000000
vt 1.00000000 0.41666667
vt 1.00000000 0.83333333
vt 1.00000000 1.00000000
vt 0.62922539 1.00000000
vt 0.62922539 0.91666667
vt 0.00000000 0.91666667
vt 1.00000000 0.00000000
vt 0.50000000 1.00000000
vt 0.00000000 0.00000000
vt 0.00000000 0.00000000
vt 0.24950938 0.00000000
vt 1.00000000 0.00000000
vt 1.00000000 1.00000000
vt 0.00000000 1.00000000
vt 0.86111111 1.00000000
vt 0.86111111 0.91666667
vt 0.62540885 0.91666667
vt 0.62540885 0.83333333
vt 0.00000000 0.83333333
vt 0.00000000 0.00000000
vt 1.00000000 0.00000000
vt 1.00000000 0.20833333
vt 1.00000000 0.62500000
vt 1.00000000 1.00000000
vt 0.00000000 0.00000000
vt 0.87610066 0.00000000
vt 1.00000000 1.00000000
vt 0.12389934 1.00000000
vn 0.50000000 0.50000000 -0.70710678
vn 0.50000000 0.50000000 -0.70710678
vn 0.50000000 0.50000000 -0.70710678
vn 0.61479581 0.78868632 0.00000000
vn 0.61479581 0.78868632 0.00000000
vn 0.61479581 0.78868632 0.00000000
vn 0.61479581 0.78868632 0.00000000
vn 0.00000000 0.00000000 1.00000000
vn 0.00000000 0.00000000 1.00000000
vn 0.00000000 0.00000000 1.00000000
vn 0.00000000 0.00000000 1.00000000
vn 0.00000000 0.00000000 1.00000000
vn 0.00000000 0.00000000 1.00000000
vn 0.00000000 0.00000000 1.00000000
vn 0.00000000 0.00000000 1.00000000
vn 0.00000000 0.00000000 1.00000000
vn 0.50000000 0.50000000 0.70710678
vn 0.50000000 0.50000000 0.70710678
vn 0.50000000 0.50000000 0.70710678
vn 0.61479581 0.78868632 0.00000000
vn 0.61479581 0.78868632 0.00000000
vn 0.61479581 0.78868632 0.00000000
vn 0.61479581 0.78868632 0.00000000
vn 0.61479581 0.78868632 0.00000000
vn 0.50000000 0.50000000 -0.70710678
vn 0.50000000 0.50000000 -0.70710678
vn 0.50000000 0.50000000 -0.70710678
vn 0.50000000 0.50000000 0.70710678
vn 0.50000000 0.50000000 0.70710678
vn 0.50000000 0.50000000 0.70710678
vn 0.61479581 0.78868632 0.00000000
vn 0.61479581 0.78868632 0.00000000
vn 0.61479581 0.78868632 0.00000000
vn 0.61479581 0.78868632 0.00000000
vn 0.50000000 0.50000000 -0.70710678
vn 0.50000000 0.50000000 -0.70710678
vn 0.50000000 0.50000000 -0.70710678
vn 0.50000000 0.50000000 0.70710678
vn 0.50000000 0.50000000 0.70710678
vn 0.50000000 0.50000000 0.70710678
vn 0.61479581 0.78868632 -0.00000000
vn 0.61479581 0.78868632 -0.00000000
vn 0.61479581 0.78868632 -0.00000000
vn 0.50000000 0.50000000 -0.70710678
vn 0.50000000 0.50000000 -0.70710678
vn 0.50000000 0.50000000 -0.70710678
vn 0.00000000 -0.00000000 -1.00000000
vn 0.00000000 -0.00000000 -1.00000000
vn 0.00000000 -0.00000000 -1.00000000
vn 0.00000000 -0.00000000 -1.00000000
vn 0.00000000 -0.00000000 -1.00000000
vn 0.00000000 -0.00000000 -1.00000000
vn 0.00000000 -0.00000000 -1.00000000
vn 0.50000000 0.50000000 -0.70710678
vn 0.50000000 0.50000000 -0.70710678
vn 0.61479581 0.78868632 -0.00000000
vn 0.61479581 0.78868632 -0.00000000
vn 0.61479581 0.78868632 -0.00000000
vn 0.61479581 0.78868632 -0.00000000
vn 0.50000000 0.50000000 0.70710678
vn 0.50000000 0.50000000 0.70710678
vn 0.50000000 0.50000000 0.70710678
vn 0.50000000 0.50000000 -0.70710678
vn 0.50000000 0.50000000 -0.70710678
vn 0.50000000 0.50000000 -0.70710678
vn 0.61479581 0.78868632 0.00000000
vn 0.61479581 0.78868632 0.00000000
vn 0.61479581 0.78868632 0.00000000
vn 0.50000000 0.50000000 0.70710678
vn 0.50000000 0.50000000 0.70710678
vn 0.50000000 0.50000000 0.70710678
vn 0.50000000 0.50000000 -0.70710678
vn 0.50000000 0.50000000 -0.70710678
vn 0.50000000 0.50000000 -0.70710678
vn 0.50000000 0.50000000 -0.70710678
vn 0.50000000 0.50000000 -0.70710678
vn 0.50000000 0.50000000 -0.70710678
vn 0.61479581 0.78868632 -0.00000000
vn 0.61479581 0.78868632 -0.00000000
vn 0.61479581 0.78868632 -0.00000000
vn 0.61479581 0.78868632 -0.00000000
vn 0.50000000 0.50000000 0.70710678
vn 0.50000000 0.50000000 0.70710678
vn 0.50000000 0.50000000 0.70710678
vn 0.50000000 0.50000000 -0.70710678
vn 0.50000000 0.50000000 -0.70710678
vn 0.50000000 0.50000000 -0.70710678
vn 0.61479581 0.78868632 0.00000000
vn 0.61479581 0.78868632 0.00000000
vn 0.61479581 0.78868632 0.00000000
vn 0.61479581 0.78868632 0.00000000
vn -0.00000000 -1.00000000 0.00000000
vn -0.00000000 -1.00000000 0.00000000
vn -0.00000000 -1.00000000 0.00000000
vn -0.00000000 -1.00000000 0.00000000
vn -0.00000000 -1.00000000 0.00000000
vn 0.61479581 0.78868632 0.00000000
vn 0.61479581 0.78868632 0.00000000
vn 0.61479581 0.78868632 0.00000000
vn 0.61479581 0.78868632 0.00000000
vn -0.00000000 -1.00000000 0.00000000
vn -0.00000000 -1.00000000 0.00000000
vn -0.00000000 -1.00000000 0.00000000
vn -0.00000000 -1.00000000 0.00000000
vn 0.50000000 0.50000000 -0.70710678
vn 0.50000000 0.50000000 -0.70710678
vn 0.50000000 0.50000000 -0.70710678
vn 0.50000000 0.50000000 -0.70710678
vn 0.50000000 0.50000000 -0.70710678
vn 0.50000000 0.50000000 -0.70710678
vn 0.50000000 0.50000000 0.70710678
vn 0.50000000 0.50000000 0.70710678
vn 0.50000000 0.50000000 0.70710678
vn 0.61479581 0.78868632 -0.00000000
vn 0.61479581 0.78868632 -0.00000000
vn 0.61479581 0.78868632 -0.00000000
vn 0.61479581 0.78868632 -0.00000000
vn 0.61479581 0.78868632 -0.00000000
vn 0.61479581 0.78868632 0.00000000
vn 0.61479581 0.78868632 0.00000000
vn 0.61479581 0.78868632 0.00000000
vn 0.50000000 0.50000000 0.70710678
vn 0.50000000 0.50000000 0.70710678
vn 0.50000000 0.50000000 0.70710678
vn -0.00000000 -1.00000000 0.00000000
vn -0.00000000 -1.00000000 0.00000000
vn -0.00000000 -1.00000000 0.00000000
vn -0.00000000 -1.00000000 0.00000000
vn -0.00000000 -1.00000000 0.00000000
vn -0.00000000 -1.00000000 0.00000000
vn -0.00000000 -1.00000000 0.00000000
vn -0.00000000 -1.00000000 0.00000000
vn -0.00000000 -1.00000000 0.00000000
vn -0.00000000 -1.00000000 0.00000000
vn 0.50000000 0.50000000 -0.70710678
vn -0.00000000 -1.00000000 0.00000000
vn -0.00000000 -1.00000000 0.00000000
vn -0.00000000 -1.00000000 0.00000000
vn -0.00000000 -1.00000000 0.00000000
vn -0.00000000 -1.00000000 0.00000000
vn -0.00000000 -1.00000000 0.00000000
vn -0.00000000 -1.00000000 0.00000000
vn -0.00000000 -1.00000000 0.00000000
vn -0.00000000 -1.00000000 0.00000000
vn -0.00000000 -1.00000000 0.00000000
vn -0.00000000 -1.00000000 0.00000000
vn -0.00000000 -1.00000000 0.00000000
vn -0.00000000 -1.00000000 0.00000000
vn -0.00000000 -1.00000000 0.00000000
vn -0.00000000 -1.00000000 0.00000000
vn -0.00000000 -1.00000000 0.00000000
vn -0.00000000 -1.00000000 0.00000000
vn -0.00000000 -1.00000000 0.00000000
vn -0.00000000 -1.00000000 0.00000000
vn -0.00000000 -1.00000000 0.00000000
vn 0.61479581 0.78868632 0.00000000
vn 0.61479581 0.78868632 0.00000000
vn 0.61479581 0.78868632 0.00000000
vn -0.00000000 -1.00000000 0.00000000
vn -0.00000000 -1.00000000 0.00000000
vn -0.00000000 -1.00000000 0.00000000
vn -0.00000000 -1.00000000 0.00000000
vn -0.00000000 -1.00000000 0.00000000
vn 0.50000000 0.50000000 0.70710678
vn 0.50000000 0.50000000 0.70710678
vn 0.50000000 0.50000000 0.70710678
vn -0.00000000 -1.00000000 0.00000000
vn -0.00000000 -1.00000000 0.00000000
vn -0.00000000 -1.00000000 0.00000000
vn -0.00000000 -1.00000000 0.00000000
vn -0.00000000 -1.00000000 0.00000000
vn -0.00000000 -1.00000000 0.00000000
vn -0.00000000 -1.00000000 0.00000000
vn 0.50000000 0.50000000 0.70710678
vn 0.50000000 0.50000000 0.70710678
vn 0.50000000 0.50000000 0.70710678
vn 0.00000000 0.00000000 -1.00000000
vn 0.00000000 0.00000000 -1.00000000
vn 0.00000000 0.00000000 -1.00000000
vn -0.70710678 -0.70710678 0.00000000
vn -0.70710678 -0.70710678 0.00000000
vn -0.70710678 -0.70710678 0.00000000
vn -0.70710678 -0.70710678 0.00000000
vn 1.00000000 0.00000000 0.00000000
vn 1.00000000 0.00000000 0.00000000
vn 1.00000000 0.00000000 0.00000000
vn 1.00000000 0.00000000 0.00000000
vn 1.00000000 0.00000000 0.00000000
vn 1.00000000 0.00000000 0.00000000
vn 1.00000000 0.00000000 0.00000000
vn 1.00000000 0.00000000 0.00000000
vn 1.00000000 0.00000000 0.00000000
vn 1.00000000 0.00000000 0.00000000
vn 0.00000000 0.00000000 1.00000000
vn 0.00000000 0.00000000 1.00000000
vn 0.00000000 0.00000000 1.00000000
vn -0.70710678 -0.70710678 0.00000000
vn -0.70710678 -0.70710678 0.00000000
vn -0.70710678 -0.70710678 0.00000000
vn -0.70710678 -0.70710678 0.00000000
vn -0.70710678 -0.70710678 0.00000000
vn -1.00000000 0.00000000 0.00000000
vn -1.00000000 0.00000000 0.00000000
vn -1.00000000 0.00000000 0.00000000
vn -1.00000000 0.00000000 0.00000000
vn -1.00000000 0.00000000 0.00000000
vn -1.00000000 0.00000000 0.00000000
vn -1.00000000 0.00000000 0.00000000
vn -1.00000000 0.00000000 0.00000000
vn -1.00000000 0.00000000 0.00000000
vn -1.00000000 0.00000000 0.00000000
vn 0.00000000 0.00000000 -1.00000000
vn 0.00000000 0.00000000 -1.00000000
vn 0.00000000 0.00000000 -1.00000000
vn 0.00000000 0.00000000 -1.00000000
s 1
usemtl Dark_Red_Roof
f 3/3/3 2/2/2 1/1/1
s 2
usemtl Red_Roof
f 17/125/119 1/129/5 47/128/121
f 47/128/121 48/127/120 17/125/119
f 48/127/120 52/126/117 17/125/119
usemtl Dark_Red_Roof
f 5/7/7 3/6/6 4/4/4
f 3/6/6 1/5/5 4/4/4
f 22/124/118 52/123/117 53/122/116
f 22/124/118 53/122/116 54/121/115
f 54/121/115 26/120/114 22/124/118
s 3
usemtl Stucco
f 8/11/11 7/10/10 6/9/9
f 9/12/12 6/9/9 4/16/16
f 10/13/13 9/12/12 12/15/15
f 12/15/15 11/14/14 10/13/13
f 9/12/12 4/16/16 12/15/15
f 6/9/9 5/8/8 4/16/16
f 9/12/12 8/11/11 6/9/9
s 4
usemtl Dark_Red_Roof
f 12/17/17 4/18/18 13/19/19
s 5
usemtl Red_Roof
f 19/31/31 14/35/20 18/34/34
f 18/34/34 21/33/33 19/31/31
f 21/33/33 20/32/32 19/31/31
usemtl Dark_Red_Roof
f 15/21/21 14/20/20 16/24/24
f 16/24/24 12/23/23 13/22/22
f 24/42/41 20/43/32 23/44/42
f 24/42/41 23/44/42 25/45/43
f 16/24/24 13/22/22 15/21/21
s 6
f 15/27/27 17/26/26 14/25/25
s 7
usemtl Red_Roof
f 14/28/28 17/29/29 18/30/30
s 8
f 21/38/37 22/37/36 20/36/35
s 9
usemtl Dark_Red_Roof
f 20/39/38 22/40/39 23/41/40
s 10
f 25/48/46 26/47/45 24/46/44
f 32/58/55 24/57/44 31/56/54
f 54/148/135 27/147/75 26/146/45
f 39/81/77 28/80/76 27/79/75
s 11
f 30/54/52 31/55/53 24/49/47
f 26/50/48 29/53/51 30/54/52
f 27/51/49 28/52/50 29/53/51
f 26/50/48 27/51/49 29/53/51
f 30/54/52 24/49/47 26/50/48
s 12
usemtl Red_Roof
f 34/72/57 36/70/67 35/69/66
f 34/72/57 37/71/68 36/70/67
usemtl Dark_Red_Roof
f 32/62/59 31/61/58 33/59/56
f 31/61/58 34/60/57 33/59/56
f 38/174/157 37/173/68 10/172/156
f 11/175/158 38/174/157 10/172/156
s 13
f 34/63/60 19/64/61 33/65/62
s 14
usemtl Red_Roof
f 35/68/65 19/67/64 34/66/63
s 15
f 37/73/69 16/74/70 36/75/71
s 16
usemtl Dark_Red_Roof
f 38/78/74 16/77/73 37/76/72
s 17
usemtl Red_Roof
f 43/94/89 40/93/79 44/92/88
f 44/92/88 46/96/91 45/95/90
f 45/95/90 43/94/89 44/92/88
usemtl Dark_Red_Roof
f 27/82/78 40/83/79 41/84/80
f 49/104/98 46/103/91 2/102/97
f 2/102/97 6/106/100 50/105/99
f 50/105/99 49/104/98 2/102/97
f 27/82/78 41/84/80 39/85/81
s 18
f 40/86/82 42/87/83 41/88/84
s 19
usemtl Red_Roof
f 43/91/87 42/90/86 40/89/85
s 20
f 47/97/92 2/101/96 46/100/95
f 46/100/95 44/99/94 48/98/93
f 46/100/95 48/98/93 47/97/92
usemtl Dark_Red_Roof
f 53/139/130 44/140/94 40/141/131
f 40/141/131 27/137/128 54/138/129
f 54/138/129 53/139/130 40/141/131
f 6/192/173 2/191/96 3/190/172
f 6/192/173 3/190/172 5/189/171
s 21
usemtl Red_Roof
f 45/135/126 51/134/101 42/133/125
f 43/136/127 45/135/126 42/133/125
usemtl Dark_Red_Roof
f 49/110/104 50/109/103 51/107/101
f 41/143/133 42/144/125 28/145/134
f 39/142/132 41/143/133 28/145/134
f 50/109/103 7/108/102 51/107/101
s 22
f 49/113/107 51/112/106 46/111/105
s 23
usemtl Red_Roof
f 48/116/110 44/115/109 52/114/108
s 24
usemtl Dark_Red_Roof
f 52/117/111 44/118/112 53/119/113
s 25
usemtl Red_Roof
f 46/130/122 51/131/123 45/132/124
s 26
f 52/161/147 22/160/138 21/159/146
f 52/161/147 21/159/146 18/158/145
f 18/158/145 17/162/148 52/161/147
usemtl Dark_Red_Roof
f 25/149/136 23/150/137 26/152/139
f 23/150/137 22/151/138 26/152/139
f 1/187/169 17/186/148 15/185/168
f 1/187/169 15/185/168 13/184/167
f 13/184/167 4/188/170 1/187/169
s 27
usemtl Red_Roof
f 14/166/151 19/165/143 35/164/150
f 14/166/151 35/164/150 36/163/149
f 36/163/149 16/167/152 14/166/151
usemtl Dark_Red_Roof
f 20/157/144 24/153/140 32/154/141
f 32/154/141 33/155/142 20/157/144
f 33/155/142 19/156/143 20/157/144
f 12/171/155 16/170/152 38/169/154
f 12/171/155 38/169/154 11/168/153
s 28
usemtl Stucco
f 56/178/161 57/179/162 8/180/163
f 9/176/159 56/178/161 8/180/163
f 9/176/159 55/177/160 56/178/161
s 29
usemtl Dark_Red_Roof
f 6/181/164 7/182/165 50/183/166
s 30
usemtl Red_Roof
f 1/193/174 2/194/175 47/195/176
s 31
usemtl Stucco
f 58/196/177 56/197/178 55/198/179
s 32
usemtl Dark_Red_Roof
f 59/199/180 60/200/181 29/202/183
f 60/200/181 30/201/182 29/202/183
s 33
usemtl Stucco
f 59/211/192 29/210/191 28/209/190
f 57/204/185 59/211/192 42/208/189
f 51/207/188 8/205/186 57/204/185
f 51/207/188 7/206/187 8/205/186
f 57/204/185 42/208/189 51/207/188
f 57/204/185 61/203/184 62/212/193
f 57/204/185 62/212/193 59/211/192
f 59/211/192 28/209/190 42/208/189
s 34
usemtl Wood_Darker
f 61/215/196 57/214/195 56/213/194
s 35
f 62/220/201 61/216/197 56/217/198
f 56/217/198 58/218/199 63/219/200
f 56/217/198 63/219/200 62/220/201
s 36
f 31/230/211 30/221/202 60/222/203
f 34/229/210 60/222/203 58/224/205
f 58/224/205 9/226/207 37/228/209
f 9/226/207 10/227/208 37/228/209
f 58/224/205 55/225/206 9/226/207
f 37/228/209 34/229/210 58/224/205
f 60/222/203 63/223/204 58/224/205
f 34/229/210 31/230/211 60/222/203
s 37
f 62/231/212 63/232/213 59/234/215
f 63/232/213 60/233/214 59/234/215
