mtllib Materials_Modular_Village.mtl
o object1
g object1
v -0.50000000 1.20000000 -0.50000000
v -0.50000000 0.00000000 -0.50000000
v -0.50000000 0.00000000 0.50000000
v -0.50000000 1.20000000 0.50000000
v -0.50000000 1.20000000 0.25000000
v -0.50000000 1.20000000 -0.25000000
v -0.17928932 0.95000000 -0.50000000
v -0.25000000 0.95000000 -0.50000000
v -0.00000000 0.70000000 -0.50000000
v 0.32071068 0.45000000 -0.50000000
v 0.25000000 0.45000000 -0.50000000
v 0.50000000 0.20000000 -0.50000000
v 0.80929646 -0.03858579 -0.50000000
v 0.74000000 -0.04000000 -0.50000000
v 0.65666667 -0.12333333 -0.50000000
v 0.50000000 0.03333333 -0.50000000
v 0.50000000 -0.00000000 -0.50000000
v -0.17928932 0.95000000 -0.30000000
v -0.25000000 0.95000000 -0.25000000
v 0.07071068 0.70000000 -0.45000000
v 0.07071068 0.70000000 -0.05000000
v -0.25000000 0.95000000 -0.00000000
v -0.00000000 0.70000000 -0.25000000
v -0.00000000 0.70000000 -0.00000000
v 0.32071068 0.45000000 -0.20000000
v 0.32071068 0.45000000 0.20000000
v -0.00000000 0.70000000 0.25000000
v 0.25000000 0.45000000 -0.25000000
v 0.25000000 0.45000000 -0.00000000
v 0.25000000 0.45000000 0.25000000
v 0.57071068 0.20000000 -0.45000000
v 0.57071068 0.20000000 -0.05000000
v 0.50000000 0.20000000 -0.25000000
v 0.50000000 0.20000000 -0.00000000
v 0.80929646 -0.03858579 -0.20000000
v 0.80929646 -0.03858579 0.20000000
v 0.50000000 0.20000000 0.25000000
v 0.74000000 -0.04000000 -0.25000000
v 0.74000000 -0.04000000 0.25000000
v 0.80929646 -0.03858579 0.30000000
v 0.50000000 0.20000000 0.50000000
v 0.80929646 -0.03858579 0.50000000
v 0.74000000 -0.04000000 0.50000000
v 0.57071068 0.20000000 0.45000000
v 0.57071068 0.20000000 0.05000000
v 0.25000000 0.45000000 0.50000000
v 0.80929646 -0.03858579 -0.30000000
v 0.32071068 0.45000000 0.50000000
v 0.32071068 0.45000000 0.30000000
v -0.00000000 0.70000000 0.50000000
v 0.07071068 0.70000000 0.45000000
v 0.07071068 0.70000000 0.05000000
v -0.25000000 0.95000000 0.50000000
v -0.25000000 0.95000000 0.25000000
v -0.17928932 0.95000000 0.50000000
v -0.17928932 0.95000000 0.30000000
v -0.17928932 0.95000000 0.20000000
v 0.32071068 0.45000000 -0.30000000
v -0.17928932 0.95000000 -0.20000000
v 0.50000000 0.03333333 0.50000000
v 0.50000000 -0.00000000 0.50000000
v 0.65666667 -0.12333333 0.50000000
vt 1.00000000 1.00000000
vt 0.00000000 1.00000000
vt 0.00000000 0.00000000
vt 1.00000000 0.00000000
vt 1.00000000 0.25000000
vt 1.00000000 0.75000000
vt 0.24494886 0.18891688
vt 0.19094224 0.18891688
vt 0.38188448 0.37783375
vt 0.62683334 0.56675063
vt 0.57282672 0.56675063
vt 0.76376896 0.75566751
vt 1.00000000 0.93595903
vt 0.94707351 0.93702771
vt 0.88342610 1.00000000
vt 0.76376896 0.88161209
vt 0.76376896 0.90680101
vt 0.00000000 0.90680101
vt 0.00000000 0.00000000
vt 1.00000000 0.00000000
vt 1.00000000 0.80000000
vt 0.00000000 1.00000000
vt 0.00000000 0.00000000
vt 0.50000000 1.00000000
vt 0.00000000 1.00000000
vt 0.00000000 0.00000000
vt 1.00000000 0.00000000
vt 1.00000000 1.00000000
vt 1.00000000 1.00000000
vt 0.00000000 1.00000000
vt 0.00000000 0.00000000
vt 0.50000000 0.00000000
vt 1.00000000 0.00000000
vt 0.50000000 1.00000000
vt 0.00000000 1.00000000
vt 0.00000000 0.00000000
vt 1.00000000 0.00000000
vt 1.00000000 1.00000000
vt 1.00000000 1.00000000
vt 0.00000000 1.00000000
vt 0.00000000 0.00000000
vt 0.50000000 0.00000000
vt 1.00000000 0.00000000
vt 0.50000000 1.00000000
vt 0.00000000 1.00000000
vt 0.00000000 0.00000000
vt 1.00000000 0.00000000
vt 1.00000000 1.00000000
vt 1.00000000 1.00000000
vt 0.00000000 1.00000000
vt 0.00000000 0.00000000
vt 0.50000000 0.00000000
vt 1.00000000 0.00000000
vt 0.50000000 1.00000000
vt 0.00000000 1.00000000
vt 0.00000000 0.00000000
vt 1.00000000 0.00000000
vt 1.00000000 1.00000000
vt 0.00000000 0.00000000
vt 1.00000000 0.00000000
vt 1.00000000 1.00000000
vt 0.00000000 1.00000000
vt 1.00000000 0.00000000
vt 1.00000000 0.87610066
vt 0.00000000 1.00000000
vt 0.00000000 1.00000000
vt 0.00000000 0.12389934
vt 1.00000000 0.00000000
vt 1.00000000 1.00000000
vt 0.00000000 1.00000000
vt 0.00000000 0.00000000
vt 1.00000000 0.00000000
vt 0.00000000 0.80365147
vt 1.00000000 0.00000000
vt 0.14440962 1.00000000
vt 1.00000000 1.00000000
vt 0.00000000 1.00000000
vt 0.00000000 0.00000000
vt 1.00000000 0.00000000
vt 1.00000000 1.00000000
vt 0.00000000 1.00000000
vt 0.00000000 0.00000000
vt 0.50000000 0.00000000
vt 1.00000000 0.00000000
vt 1.00000000 0.00000000
vt 1.00000000 0.87610066
vt 0.00000000 1.00000000
vt 0.00000000 1.00000000
vt 0.00000000 0.12389934
vt 1.00000000 0.00000000
vt 0.00000000 1.00000000
vt 0.00000000 0.12389934
vt 1.00000000 0.00000000
vt 1.00000000 0.00000000
vt 1.00000000 0.87610066
vt 0.00000000 1.00000000
vt 1.00000000 0.00000000
vt 1.00000000 0.87610066
vt 0.00000000 1.00000000
vt 0.50000000 1.00000000
vt 0.00000000 1.00000000
vt 0.00000000 0.00000000
vt 1.00000000 0.00000000
vt 1.00000000 1.00000000
vt 1.00000000 1.00000000
vt 0.00000000 1.00000000
vt 0.00000000 0.00000000
vt 1.00000000 0.00000000
vt 1.00000000 1.00000000
vt 0.00000000 1.00000000
vt 0.00000000 0.00000000
vt 1.00000000 0.00000000
vt 0.00000000 1.00000000
vt 0.00000000 0.12389934
vt 1.00000000 0.00000000
vt 1.00000000 0.00000000
vt 1.00000000 0.87610066
vt 0.00000000 1.00000000
vt 1.00000000 1.00000000
vt 0.00000000 1.00000000
vt 0.00000000 0.00000000
vt 0.50000000 0.00000000
vt 1.00000000 0.00000000
vt 1.00000000 0.00000000
vt 1.00000000 0.87610066
vt 0.00000000 1.00000000
vt 0.50000000 1.00000000
vt 0.00000000 1.00000000
vt 0.00000000 0.00000000
vt 1.00000000 0.00000000
vt 1.00000000 1.00000000
vt 1.00000000 1.00000000
vt 0.00000000 1.00000000
vt 0.00000000 0.00000000
vt 1.00000000 0.00000000
vt 0.00000000 1.00000000
vt 0.00000000 0.12389934
vt 1.00000000 0.00000000
vt 1.00000000 0.00000000
vt 1.00000000 0.87610066
vt 0.00000000 1.00000000
vt 0.00000000 1.00000000
vt 0.00000000 0.12389934
vt 1.00000000 0.00000000
vt 0.00000000 1.00000000
vt 0.00000000 0.12389934
vt 1.00000000 0.00000000
vt 1.00000000 0.00000000
vt 1.00000000 0.87610066
vt 0.00000000 1.00000000
vt 1.00000000 0.00000000
vt 1.00000000 0.87610066
vt 0.00000000 1.00000000
vt 1.00000000 1.00000000
vt 0.00000000 1.00000000
vt 0.00000000 0.00000000
vt 0.50000000 0.00000000
vt 1.00000000 0.00000000
vt 0.00000000 1.00000000
vt 0.00000000 0.12389934
vt 1.00000000 0.00000000
vt 1.00000000 0.00000000
vt 1.00000000 0.87610066
vt 0.00000000 1.00000000
vt 0.00000000 0.00000000
vt 1.00000000 0.00000000
vt 1.00000000 1.00000000
vt 0.00000000 1.00000000
vt 1.00000000 0.00000000
vt 1.00000000 1.00000000
vt 0.00000000 1.00000000
vt 0.00000000 0.00000000
vt 0.00000000 1.00000000
vt 0.00000000 0.00000000
vt 1.00000000 0.00000000
vt 1.00000000 0.25000000
vt 1.00000000 0.75000000
vt 1.00000000 1.00000000
vt 1.00000000 0.00000000
vt 1.00000000 0.80000000
vt 0.00000000 1.00000000
vt 0.00000000 0.00000000
vt 1.00000000 0.00000000
vt 1.00000000 0.80000000
vt 0.00000000 1.00000000
vt 0.00000000 0.00000000
vt 0.00000000 1.00000000
vt 0.00000000 0.12389934
vt 1.00000000 0.00000000
vt 1.00000000 0.00000000
vt 1.00000000 0.80000000
vt 0.00000000 1.00000000
vt 0.00000000 0.00000000
vt 1.00000000 0.00000000
vt 1.00000000 0.80000000
vt 0.00000000 1.00000000
vt 0.00000000 0.00000000
vt 0.00000000 1.00000000
vt 0.00000000 0.12389934
vt 1.00000000 0.00000000
vt 1.00000000 0.00000000
vt 1.00000000 0.80000000
vt 0.00000000 1.00000000
vt 0.00000000 0.00000000
vt 0.00000000 0.00000000
vt 1.00000000 0.00000000
vt 1.00000000 1.00000000
vt 0.00000000 1.00000000
vt 1.00000000 1.00000000
vt 0.00000000 1.00000000
vt 0.00000000 0.00000000
vt 1.00000000 0.00000000
vt 0.43324937 0.60483871
vt 0.24433249 0.80645161
vt 0.06297229 1.00000000
vt 0.00000000 0.93279570
vt 0.11838791 0.80645161
vt 0.09319899 0.80645161
vt 0.09319899 0.00000000
vt 1.00000000 0.00000000
vt 0.81108312 0.25863764
vt 0.81108312 0.20161290
vt 0.62216625 0.40322581
vt 0.43324937 0.66186345
vt 0.00000000 0.00000000
vt 1.00000000 0.00000000
vt 1.00000000 1.00000000
vt 0.00000000 1.00000000
vn -1.00000000 -0.00000000 -0.00000000
vn -1.00000000 -0.00000000 -0.00000000
vn -1.00000000 -0.00000000 -0.00000000
vn -1.00000000 -0.00000000 -0.00000000
vn -1.00000000 -0.00000000 -0.00000000
vn -1.00000000 -0.00000000 -0.00000000
vn 0.00000000 0.00000000 -1.00000000
vn 0.00000000 0.00000000 -1.00000000
vn 0.00000000 0.00000000 -1.00000000
vn 0.00000000 0.00000000 -1.00000000
vn 0.00000000 0.00000000 -1.00000000
vn 0.00000000 0.00000000 -1.00000000
vn 0.00000000 0.00000000 -1.00000000
vn 0.00000000 0.00000000 -1.00000000
vn 0.00000000 0.00000000 -1.00000000
vn 0.00000000 0.00000000 -1.00000000
vn 0.00000000 0.00000000 -1.00000000
vn 0.00000000 0.00000000 -1.00000000
vn 0.00000000 0.00000000 -1.00000000
vn -0.00000000 -1.00000000 0.00000000
vn -0.00000000 -1.00000000 0.00000000
vn -0.00000000 -1.00000000 0.00000000
vn -0.00000000 -1.00000000 0.00000000
vn 0.61479581 0.78868632 0.00000000
vn 0.61479581 0.78868632 0.00000000
vn 0.61479581 0.78868632 0.00000000
vn 0.61479581 0.78868632 0.00000000
vn 0.61479581 0.78868632 0.00000000
vn -0.00000000 -1.00000000 0.00000000
vn -0.00000000 -1.00000000 0.00000000
vn -0.00000000 -1.00000000 0.00000000
vn -0.00000000 -1.00000000 0.00000000
vn -0.00000000 -1.00000000 0.00000000
vn 0.61479581 0.78868632 0.00000000
vn 0.61479581 0.78868632 0.00000000
vn 0.61479581 0.78868632 0.00000000
vn 0.61479581 0.78868632 0.00000000
vn 0.61479581 0.78868632 0.00000000
vn -0.00000000 -1.00000000 0.00000000
vn -0.00000000 -1.00000000 0.00000000
vn -0.00000000 -1.00000000 0.00000000
vn -0.00000000 -1.00000000 0.00000000
vn -0.00000000 -1.00000000 0.00000000
vn 0.61479581 0.78868632 0.00000000
vn 0.61479581 0.78868632 0.00000000
vn 0.61479581 0.78868632 0.00000000
vn 0.61479581 0.78868632 0.00000000
vn 0.61479581 0.78868632 0.00000000
vn -0.00000000 -1.00000000 0.00000000
vn -0.00000000 -1.00000000 0.00000000
vn -0.00000000 -1.00000000 0.00000000
vn -0.00000000 -1.00000000 0.00000000
vn -0.00000000 -1.00000000 0.00000000
vn 0.61078043 0.79180001 -0.00000000
vn 0.61078043 0.79180001 -0.00000000
vn 0.61078043 0.79180001 -0.00000000
vn 0.61078043 0.79180001 -0.00000000
vn 0.61078043 0.79180001 -0.00000000
vn 0.02040391 -0.99979182 0.00000000
vn 0.02040391 -0.99979182 0.00000000
vn 0.02040391 -0.99979182 0.00000000
vn 0.02040391 -0.99979182 0.00000000
vn 0.50000000 0.50000000 0.70710678
vn 0.50000000 0.50000000 0.70710678
vn 0.50000000 0.50000000 0.70710678
vn 0.50000000 0.50000000 -0.70710678
vn 0.50000000 0.50000000 -0.70710678
vn 0.50000000 0.50000000 -0.70710678
vn 0.61078043 0.79180001 -0.00000000
vn 0.61078043 0.79180001 -0.00000000
vn 0.61078043 0.79180001 -0.00000000
vn 0.00000000 0.00000000 1.00000000
vn 0.00000000 0.00000000 1.00000000
vn 0.00000000 0.00000000 1.00000000
vn 0.02040391 -0.99979182 0.00000000
vn 0.02040391 -0.99979182 0.00000000
vn 0.02040391 -0.99979182 0.00000000
vn -0.00000000 -1.00000000 0.00000000
vn -0.00000000 -1.00000000 0.00000000
vn -0.00000000 -1.00000000 0.00000000
vn -0.00000000 -1.00000000 0.00000000
vn 0.50000000 0.50000000 0.70710678
vn 0.50000000 0.50000000 0.70710678
vn 0.50000000 0.50000000 0.70710678
vn 0.50000000 0.50000000 -0.70710678
vn 0.50000000 0.50000000 -0.70710678
vn 0.50000000 0.50000000 -0.70710678
vn 0.50000000 0.50000000 -0.70710678
vn 0.50000000 0.50000000 -0.70710678
vn 0.50000000 0.50000000 -0.70710678
vn 0.50000000 0.50000000 0.70710678
vn 0.50000000 0.50000000 0.70710678
vn 0.50000000 0.50000000 0.70710678
vn 0.50000000 0.50000000 0.70710678
vn 0.50000000 0.50000000 0.70710678
vn 0.50000000 0.50000000 0.70710678
vn 0.61479581 0.78868632 0.00000000
vn 0.61479581 0.78868632 0.00000000
vn 0.61479581 0.78868632 0.00000000
vn 0.61479581 0.78868632 0.00000000
vn -0.00000000 -1.00000000 0.00000000
vn -0.00000000 -1.00000000 0.00000000
vn -0.00000000 -1.00000000 0.00000000
vn 0.61479581 0.78868632 0.00000000
vn 0.61479581 0.78868632 0.00000000
vn 0.61479581 0.78868632 0.00000000
vn 0.50000000 0.50000000 -0.70710678
vn 0.50000000 0.50000000 -0.70710678
vn 0.50000000 0.50000000 -0.70710678
vn 0.50000000 0.50000000 0.70710678
vn 0.50000000 0.50000000 0.70710678
vn 0.50000000 0.50000000 0.70710678
vn -0.00000000 -1.00000000 0.00000000
vn -0.00000000 -1.00000000 0.00000000
vn -0.00000000 -1.00000000 0.00000000
vn -0.00000000 -1.00000000 0.00000000
vn 0.50000000 0.50000000 0.70710678
vn 0.50000000 0.50000000 0.70710678
vn 0.50000000 0.50000000 0.70710678
vn 0.61479581 0.78868632 0.00000000
vn 0.61479581 0.78868632 0.00000000
vn 0.61479581 0.78868632 0.00000000
vn 0.61479581 0.78868632 0.00000000
vn -0.00000000 -1.00000000 0.00000000
vn -0.00000000 -1.00000000 0.00000000
vn -0.00000000 -1.00000000 0.00000000
vn -0.00000000 -1.00000000 0.00000000
vn 0.50000000 0.50000000 -0.70710678
vn 0.50000000 0.50000000 -0.70710678
vn 0.50000000 0.50000000 -0.70710678
vn 0.50000000 0.50000000 0.70710678
vn 0.50000000 0.50000000 0.70710678
vn 0.50000000 0.50000000 0.70710678
vn 0.50000000 0.50000000 -0.70710678
vn 0.50000000 0.50000000 -0.70710678
vn 0.50000000 0.50000000 -0.70710678
vn 0.50000000 0.50000000 -0.70710678
vn 0.50000000 0.50000000 -0.70710678
vn 0.50000000 0.50000000 -0.70710678
vn 0.50000000 0.50000000 0.70710678
vn 0.50000000 0.50000000 0.70710678
vn 0.50000000 0.50000000 0.70710678
vn 0.50000000 0.50000000 0.70710678
vn 0.50000000 0.50000000 0.70710678
vn 0.50000000 0.50000000 0.70710678
vn -0.00000000 -1.00000000 0.00000000
vn -0.00000000 -1.00000000 0.00000000
vn -0.00000000 -1.00000000 0.00000000
vn 0.50000000 0.50000000 -0.70710678
vn 0.50000000 0.50000000 -0.70710678
vn 0.50000000 0.50000000 -0.70710678
vn 0.50000000 0.50000000 0.70710678
vn 0.50000000 0.50000000 0.70710678
vn 0.50000000 0.50000000 0.70710678
vn 1.00000000 0.00000000 -0.00000000
vn 1.00000000 0.00000000 -0.00000000
vn 1.00000000 0.00000000 -0.00000000
vn 1.00000000 0.00000000 -0.00000000
vn -0.70710678 -0.70710678 0.00000000
vn -0.70710678 -0.70710678 0.00000000
vn -0.70710678 -0.70710678 0.00000000
vn -0.70710678 -0.70710678 0.00000000
vn 0.70710678 -0.70710678 0.00000000
vn 0.70710678 -0.70710678 0.00000000
vn 0.70710678 -0.70710678 0.00000000
vn 0.70710678 -0.70710678 0.00000000
vn 0.70710678 -0.70710678 0.00000000
vn 0.70710678 -0.70710678 0.00000000
vn 0.02040391 -0.99979182 0.00000000
vn 0.02040391 -0.99979182 0.00000000
vn 0.02040391 -0.99979182 0.00000000
vn 0.61078043 0.79180001 -0.00000000
vn 0.61078043 0.79180001 -0.00000000
vn 0.61078043 0.79180001 -0.00000000
vn 0.50000000 0.50000000 -0.70710678
vn 0.50000000 0.50000000 -0.70710678
vn 0.50000000 0.50000000 -0.70710678
vn -0.00000000 -1.00000000 0.00000000
vn -0.00000000 -1.00000000 0.00000000
vn -0.00000000 -1.00000000 0.00000000
vn 0.61479581 0.78868632 -0.00000000
vn 0.61479581 0.78868632 -0.00000000
vn 0.61479581 0.78868632 -0.00000000
vn 0.50000000 0.50000000 -0.70710678
vn 0.50000000 0.50000000 -0.70710678
vn 0.50000000 0.50000000 -0.70710678
vn 0.61479581 0.78868632 -0.00000000
vn 0.61479581 0.78868632 -0.00000000
vn 0.61479581 0.78868632 -0.00000000
vn 0.61479581 0.78868632 -0.00000000
vn 0.61479581 0.78868632 0.00000000
vn 0.61479581 0.78868632 0.00000000
vn 0.61479581 0.78868632 0.00000000
vn 0.61479581 0.78868632 0.00000000
vn 0.61479581 0.78868632 0.00000000
vn 0.61479581 0.78868632 0.00000000
vn 0.00000000 0.00000000 1.00000000
vn 0.00000000 0.00000000 1.00000000
vn 0.00000000 0.00000000 1.00000000
vn 0.00000000 0.00000000 1.00000000
vn 0.00000000 0.00000000 1.00000000
vn 0.00000000 0.00000000 1.00000000
vn 0.00000000 0.00000000 1.00000000
vn 0.00000000 0.00000000 1.00000000
vn 0.00000000 0.00000000 1.00000000
vn 0.00000000 0.00000000 1.00000000
vn -0.00000000 -1.00000000 0.00000000
vn -0.00000000 -1.00000000 0.00000000
vn -0.00000000 -1.00000000 0.00000000
vn -0.00000000 -1.00000000 0.00000000
s 1
usemtl Stucco
f 6/6/6 1/1/1 2/2/2
f 2/2/2 3/3/3 5/5/5
f 3/3/3 4/4/4 5/5/5
f 5/5/5 6/6/6 2/2/2
s 2
f 14/14/14 15/15/15 16/16/16
f 11/11/11 16/16/16 17/17/17
f 8/8/8 17/17/17 1/19/19
f 1/19/19 7/7/7 8/8/8
f 8/8/8 9/9/9 17/17/17
f 17/17/17 2/18/18 1/19/19
f 9/9/9 11/11/11 17/17/17
f 9/9/9 10/10/10 11/11/11
f 11/11/11 12/12/12 16/16/16
f 12/12/12 13/13/13 16/16/16
f 13/13/13 14/14/14 16/16/16
s 3
usemtl Red_Roof
f 22/157/148 19/156/22 59/155/147
f 22/157/148 59/155/147 57/154/146
f 57/154/146 54/158/126 22/157/148
usemtl Dark_Red_Roof
f 7/20/20 18/21/21 8/23/23
f 18/21/21 19/22/22 8/23/23
f 53/135/127 54/134/126 56/133/125
f 53/135/127 56/133/125 55/132/124
s 4
usemtl Red_Roof
f 19/24/24 22/28/28 21/27/27
f 21/27/27 20/26/26 19/24/24
f 20/26/26 8/25/25 19/24/24
usemtl Dark_Red_Roof
f 52/129/121 22/128/28 54/127/120
f 54/127/120 53/131/123 51/130/122
f 51/130/122 52/129/121 54/127/120
s 5
usemtl Red_Roof
f 23/32/32 9/31/31 20/30/30
f 23/32/32 20/30/30 21/29/29
f 21/29/29 24/33/33 23/32/32
usemtl Dark_Red_Roof
f 27/122/115 24/121/33 52/120/114
f 27/122/115 52/120/114 51/119/113
f 51/119/113 50/123/116 27/122/115
s 6
usemtl Red_Roof
f 24/34/34 27/38/38 26/37/37
f 26/37/37 25/36/36 24/34/34
f 25/36/36 23/35/35 24/34/34
usemtl Dark_Red_Roof
f 49/111/105 27/110/38 50/109/104
f 48/112/106 49/111/105 50/109/104
f 9/197/183 23/196/35 58/195/182
f 9/197/183 58/195/182 10/194/181
s 7
usemtl Red_Roof
f 26/39/39 30/43/43 29/42/42
f 29/42/42 28/41/41 25/40/40
f 29/42/42 25/40/40 26/39/39
usemtl Dark_Red_Roof
f 58/191/179 28/192/41 11/193/180
f 10/190/178 58/191/179 11/193/180
f 46/108/103 30/107/43 49/106/102
f 46/108/103 49/106/102 48/105/101
s 8
usemtl Red_Roof
f 31/46/46 11/45/45 28/44/44
f 28/44/44 29/48/48 32/47/47
f 32/47/47 31/46/46 28/44/44
usemtl Dark_Red_Roof
f 45/102/98 29/101/48 30/100/97
f 30/100/97 46/104/100 44/103/99
f 44/103/99 45/102/98 30/100/97
s 9
usemtl Red_Roof
f 33/52/52 12/51/51 31/50/50
f 33/52/52 31/50/50 32/49/49
f 32/49/49 34/53/53 33/52/52
usemtl Dark_Red_Roof
f 37/83/80 34/82/53 45/81/79
f 37/83/80 45/81/79 44/80/78
f 44/80/78 41/84/81 37/83/80
s 10
f 34/54/54 37/58/58 36/57/57
f 40/71/70 37/70/58 41/69/69
f 42/72/71 40/71/70 41/69/69
f 36/57/57 35/56/56 34/54/54
f 35/56/56 33/55/55 34/54/54
f 12/186/174 33/185/55 47/184/173
f 12/186/174 47/184/173 13/183/172
s 11
f 35/62/62 36/61/61 38/59/59
f 47/180/170 38/181/59 14/182/171
f 13/179/169 47/180/170 14/182/171
f 36/61/61 39/60/60 38/59/59
f 43/79/77 39/78/60 40/77/76
f 43/79/77 40/77/76 42/76/75
s 12
f 37/63/63 39/64/64 36/65/65
s 13
f 40/68/68 39/67/67 37/66/66
s 14
usemtl Stucco
f 60/217/199 62/216/198 43/215/72
f 61/218/200 60/217/199 46/213/197
f 46/213/197 48/224/206 50/223/205
f 53/222/204 4/220/202 61/218/200
f 53/222/204 55/221/203 4/220/202
f 61/218/200 50/223/205 53/222/204
f 61/218/200 46/213/197 50/223/205
f 4/220/202 3/219/201 61/218/200
f 60/217/199 41/214/73 46/213/197
f 60/217/199 43/215/72 41/214/73
usemtl Dark_Red_Roof
f 42/75/74 41/74/73 43/73/72
s 15
f 46/85/82 41/86/83 44/87/84
s 16
f 45/90/87 34/89/86 29/88/85
s 17
f 35/93/90 38/92/89 33/91/88
s 18
f 33/94/91 38/95/92 47/96/93
s 19
usemtl Red_Roof
f 29/97/94 34/98/95 32/99/96
s 20
usemtl Dark_Red_Roof
f 49/115/109 30/114/108 27/113/107
s 21
usemtl Red_Roof
f 27/116/110 30/117/111 26/118/112
s 22
usemtl Dark_Red_Roof
f 53/124/117 50/125/118 51/126/119
s 23
f 56/138/130 54/137/129 5/136/128
s 24
usemtl Red_Roof
f 5/139/131 54/140/132 57/141/133
s 25
usemtl Dark_Red_Roof
f 52/144/136 24/143/135 22/142/134
s 26
usemtl Red_Roof
f 25/147/139 28/146/138 23/145/137
s 27
usemtl Dark_Red_Roof
f 23/148/140 28/149/141 58/150/142
s 28
usemtl Red_Roof
f 22/151/143 24/152/144 21/153/145
s 29
f 59/161/151 19/160/150 6/159/149
s 30
usemtl Dark_Red_Roof
f 6/162/152 19/163/153 18/164/154
s 31
usemtl Stucco
f 60/165/155 61/166/156 16/168/158
f 61/166/156 17/167/157 16/168/158
s 32
usemtl Dark_Red_Roof
f 15/169/159 62/170/160 60/171/161
f 15/169/159 60/171/161 16/172/162
s 33
f 15/173/163 14/178/168 38/177/167
f 39/176/166 62/174/164 15/173/163
f 39/176/166 43/175/165 62/174/164
f 15/173/163 38/177/167 39/176/166
s 34
usemtl Red_Roof
f 31/189/177 12/188/176 11/187/175
s 35
f 20/200/186 9/199/185 8/198/184
s 36
f 6/208/189 57/206/192 59/205/191
f 6/208/189 5/207/193 57/206/192
usemtl Dark_Red_Roof
f 1/204/190 6/203/189 18/202/188
f 56/211/195 5/210/193 4/209/194
f 55/212/196 56/211/195 4/209/194
f 1/204/190 18/202/188 7/201/187
s 37
usemtl Stucco
f 3/225/207 2/226/208 17/227/209
f 3/225/207 17/227/209 61/228/210
