mtllib Materials_Modular_Village.mtl
o object1
g object1
v -0.50000000 1.00000000 0.50000000
v -0.55000000 1.00000000 0.50000000
v -0.55000000 -0.00000000 0.50000000
v -0.50000000 -0.00000000 0.50000000
v -0.50000000 0.25000000 0.50000000
v -0.50000000 0.65000000 0.50000000
v -0.50000000 1.00000000 -0.50000000
v -0.55000000 1.00000000 -0.50000000
v -0.55000000 -0.00000000 -0.50000000
v -0.50000000 -0.00000000 -0.50000000
v -0.50000000 0.17500000 -0.50000000
v -0.50000000 0.55000000 -0.50000000
v -0.50000000 1.00000000 -0.30000000
v -0.50000000 1.00000000 0.17500000
v -0.50000000 -0.00000000 -0.10000000
v -0.50000000 -0.00000000 0.25000000
v -0.49375000 0.62500000 0.47500000
v -0.49375000 0.27500000 0.47500000
v -0.50000000 0.25000000 0.25000000
v -0.49375000 0.27500000 0.07500000
v -0.50000000 0.25000000 0.05000000
v -0.50000000 0.65000000 0.05000000
v -0.49375000 0.62500000 0.07500000
v -0.50000000 0.65000000 0.17500000
v -0.50000000 0.17500000 0.05000000
v -0.49375000 0.62500000 0.02500000
v -0.49375000 0.20000000 0.02500000
v -0.50000000 0.17500000 -0.10000000
v -0.49375000 0.20000000 -0.27500000
v -0.50000000 0.17500000 -0.30000000
v -0.50000000 0.55000000 -0.30000000
v -0.49375000 0.62500000 -0.27500000
v -0.50000000 0.65000000 -0.30000000
v -0.49375000 0.67500000 0.15000000
v -0.49375000 0.67500000 -0.27500000
v -0.49375000 0.97500000 -0.27500000
v -0.49375000 0.97500000 0.15000000
v -0.49375000 0.97500000 -0.47500000
v -0.49375000 0.97500000 -0.32500000
v -0.49375000 0.57500000 -0.32500000
v -0.49375000 0.57500000 -0.47500000
v -0.49375000 0.97500000 0.20000000
v -0.49375000 0.97500000 0.47500000
v -0.49375000 0.67500000 0.47500000
v -0.49375000 0.67500000 0.20000000
v -0.49375000 0.02500000 -0.47500000
v -0.49375000 0.15000000 -0.47500000
v -0.49375000 0.15000000 -0.12500000
v -0.49375000 0.02500000 -0.12500000
v -0.49375000 0.15000000 0.07500000
v -0.49375000 0.15000000 -0.07500000
v -0.49375000 0.02500000 -0.07500000
v -0.49375000 0.02500000 0.22500000
v -0.49375000 0.22500000 0.22500000
v -0.49375000 0.22500000 0.07500000
v -0.49375000 0.52500000 -0.32500000
v -0.49375000 0.20000000 -0.32500000
v -0.49375000 0.20000000 -0.47500000
v -0.49375000 0.52500000 -0.47500000
v -0.49375000 0.22500000 0.47500000
v -0.49375000 0.02500000 0.47500000
v -0.49375000 0.02500000 0.27500000
v -0.49375000 0.22500000 0.27500000
vt 0.00000000 1.00000000
vt 0.00000000 0.00000000
vt 1.00000000 0.00000000
vt 1.00000000 1.00000000
vt 0.75000000 1.00000000
vt 0.35000000 1.00000000
vt 0.00000000 1.00000000
vt 0.00000000 0.00000000
vt 1.00000000 0.00000000
vt 1.00000000 1.00000000
vt 0.82500000 1.00000000
vt 0.45000000 1.00000000
vt 0.00000000 1.00000000
vt 0.00000000 0.00000000
vt 1.00000000 0.00000000
vt 1.00000000 1.00000000
vt 0.80000000 1.00000000
vt 0.32500000 1.00000000
vt 0.00000000 1.00000000
vt 0.00000000 0.00000000
vt 1.00000000 0.00000000
vt 1.00000000 1.00000000
vt 0.00000000 1.00000000
vt 0.00000000 0.00000000
vt 1.00000000 0.00000000
vt 1.00000000 1.00000000
vt 0.60000000 1.00000000
vt 0.25000000 1.00000000
vt 0.00000000 1.00000000
vt 0.00000000 0.00000000
vt 1.00000000 0.00000000
vt 1.00000000 1.00000000
vt 0.00000000 0.55555556
vt 0.00000000 0.00000000
vt 1.00000000 0.00000000
vt 1.00000000 1.00000000
vt 0.00000000 1.00000000
vt 0.00000000 1.00000000
vt 0.00000000 0.00000000
vt 1.00000000 0.00000000
vt 1.00000000 1.00000000
vt 1.00000000 0.00000000
vt 1.00000000 1.00000000
vt 0.00000000 1.00000000
vt 0.00000000 0.00000000
vt 0.00000000 0.27777778
vt 0.00000000 0.00000000
vt 1.00000000 0.00000000
vt 1.00000000 1.00000000
vt 0.00000000 1.00000000
vt 0.00000000 1.00000000
vt 0.00000000 0.84210526
vt 0.00000000 0.00000000
vt 1.00000000 0.00000000
vt 1.00000000 1.00000000
vt 0.00000000 0.42857143
vt 0.00000000 0.00000000
vt 1.00000000 0.00000000
vt 1.00000000 1.00000000
vt 0.00000000 1.00000000
vt 0.00000000 0.78947368
vt 0.00000000 0.00000000
vt 1.00000000 0.00000000
vt 1.00000000 1.00000000
vt 0.00000000 1.00000000
vt 1.00000000 0.00000000
vt 1.00000000 1.00000000
vt 0.00000000 1.00000000
vt 0.00000000 0.00000000
vt 0.00000000 1.00000000
vt 0.00000000 0.00000000
vt 1.00000000 0.00000000
vt 1.00000000 1.00000000
vt 0.00000000 1.00000000
vt 0.00000000 0.26315789
vt 0.00000000 0.00000000
vt 1.00000000 0.00000000
vt 1.00000000 1.00000000
vt 0.00000000 1.00000000
vt 0.00000000 0.00000000
vt 1.00000000 0.00000000
vt 1.00000000 1.00000000
vt 0.00000000 1.00000000
vt 0.00000000 0.00000000
vt 1.00000000 0.00000000
vt 1.00000000 1.00000000
vt 1.00000000 0.00000000
vt 1.00000000 1.00000000
vt 0.00000000 1.00000000
vt 0.00000000 0.00000000
vt 0.00000000 1.00000000
vt 0.00000000 0.00000000
vt 1.00000000 0.00000000
vt 1.00000000 1.00000000
vt 0.00000000 1.00000000
vt 0.00000000 0.00000000
vt 1.00000000 0.00000000
vt 1.00000000 1.00000000
vt 0.00000000 1.00000000
vt 0.00000000 0.77777778
vt 0.00000000 0.00000000
vt 1.00000000 0.00000000
vt 1.00000000 1.00000000
vt 0.00000000 1.00000000
vt 0.00000000 0.00000000
vt 1.00000000 0.00000000
vt 1.00000000 1.00000000
vt 1.00000000 0.00000000
vt 1.00000000 1.00000000
vt 0.00000000 1.00000000
vt 0.00000000 0.00000000
vt 0.00000000 1.00000000
vt 0.00000000 0.00000000
vt 1.00000000 0.00000000
vt 1.00000000 1.00000000
vt 0.00000000 1.00000000
vt 0.00000000 0.00000000
vt 1.00000000 0.00000000
vt 1.00000000 1.00000000
vt 0.00000000 1.00000000
vt 0.00000000 0.00000000
vt 1.00000000 0.00000000
vt 1.00000000 1.00000000
vt 0.00000000 1.00000000
vt 0.00000000 0.00000000
vt 1.00000000 0.00000000
vt 1.00000000 1.00000000
vt 1.00000000 0.00000000
vt 1.00000000 1.00000000
vt 0.00000000 1.00000000
vt 0.00000000 0.00000000
vt 0.00000000 1.00000000
vt 0.00000000 0.00000000
vt 1.00000000 0.00000000
vt 1.00000000 1.00000000
vt 0.00000000 1.00000000
vt 0.00000000 0.00000000
vt 1.00000000 0.00000000
vt 1.00000000 1.00000000
vt 0.00000000 1.00000000
vt 0.00000000 0.50000000
vt 0.00000000 0.00000000
vt 1.00000000 0.00000000
vt 1.00000000 1.00000000
vt 0.00000000 1.00000000
vt 0.00000000 0.00000000
vt 1.00000000 0.00000000
vt 1.00000000 1.00000000
vt 1.00000000 0.00000000
vt 1.00000000 1.00000000
vt 0.00000000 1.00000000
vt 0.00000000 0.00000000
vt 0.00000000 1.00000000
vt 0.00000000 0.00000000
vt 1.00000000 0.00000000
vt 1.00000000 1.00000000
vt 0.00000000 1.00000000
vt 0.00000000 0.00000000
vt 1.00000000 0.00000000
vt 1.00000000 1.00000000
vt 0.00000000 1.00000000
vt 0.00000000 0.00000000
vt 1.00000000 0.00000000
vt 1.00000000 1.00000000
vt 0.00000000 1.00000000
vt 0.00000000 0.00000000
vt 1.00000000 0.00000000
vt 1.00000000 1.00000000
vt 0.00000000 1.00000000
vt 0.00000000 0.00000000
vt 1.00000000 0.00000000
vt 1.00000000 1.00000000
vt 0.00000000 1.00000000
vt 0.00000000 0.00000000
vt 1.00000000 0.00000000
vt 1.00000000 1.00000000
vt 0.37500000 0.50000000
vt 0.37500000 0.00000000
vt 1.00000000 0.00000000
vt 1.00000000 1.00000000
vt 0.00000000 1.00000000
vt 0.00000000 0.50000000
vt 0.00000000 1.00000000
vt 0.00000000 0.00000000
vt 1.00000000 0.00000000
vt 1.00000000 1.00000000
vt 0.00000000 1.00000000
vt 0.00000000 0.00000000
vt 1.00000000 0.00000000
vt 1.00000000 1.00000000
vt 0.00000000 1.00000000
vt 0.00000000 0.00000000
vt 1.00000000 0.00000000
vt 1.00000000 1.00000000
vt 0.00000000 1.00000000
vt 0.00000000 0.00000000
vt 1.00000000 0.00000000
vt 1.00000000 1.00000000
vt 1.00000000 0.00000000
vt 1.00000000 1.00000000
vt 0.00000000 1.00000000
vt 0.00000000 0.00000000
vt 0.00000000 1.00000000
vt 0.00000000 0.00000000
vt 1.00000000 0.00000000
vt 1.00000000 1.00000000
vt 0.00000000 1.00000000
vt 0.00000000 0.00000000
vt 1.00000000 0.00000000
vt 1.00000000 1.00000000
vt 0.00000000 1.00000000
vt 0.00000000 0.00000000
vt 1.00000000 0.00000000
vt 1.00000000 1.00000000
vt 0.00000000 1.00000000
vt 0.00000000 0.00000000
vt 1.00000000 0.00000000
vt 1.00000000 1.00000000
vt 1.00000000 0.00000000
vt 1.00000000 1.00000000
vt 0.00000000 1.00000000
vt 0.00000000 0.00000000
vt 0.00000000 1.00000000
vt 0.00000000 0.00000000
vt 1.00000000 0.00000000
vt 1.00000000 1.00000000
vn 0.00000000 0.00000000 1.00000000
vn 0.00000000 0.00000000 1.00000000
vn 0.00000000 0.00000000 1.00000000
vn 0.00000000 0.00000000 1.00000000
vn 0.00000000 0.00000000 1.00000000
vn 0.00000000 0.00000000 1.00000000
vn 0.00000000 0.00000000 -1.00000000
vn 0.00000000 0.00000000 -1.00000000
vn 0.00000000 0.00000000 -1.00000000
vn 0.00000000 0.00000000 -1.00000000
vn 0.00000000 0.00000000 -1.00000000
vn 0.00000000 0.00000000 -1.00000000
vn 0.00000000 1.00000000 0.00000000
vn 0.00000000 1.00000000 0.00000000
vn 0.00000000 1.00000000 0.00000000
vn 0.00000000 1.00000000 0.00000000
vn 0.00000000 1.00000000 0.00000000
vn 0.00000000 1.00000000 0.00000000
vn -1.00000000 0.00000000 0.00000000
vn -1.00000000 0.00000000 0.00000000
vn -1.00000000 0.00000000 0.00000000
vn -1.00000000 0.00000000 0.00000000
vn 0.00000000 -1.00000000 0.00000000
vn 0.00000000 -1.00000000 0.00000000
vn 0.00000000 -1.00000000 0.00000000
vn 0.00000000 -1.00000000 0.00000000
vn 0.00000000 -1.00000000 0.00000000
vn 0.00000000 -1.00000000 0.00000000
vn 0.97014250 0.00000000 0.24253563
vn 0.97014250 0.00000000 0.24253563
vn 0.97014250 0.00000000 0.24253563
vn 0.97014250 0.00000000 0.24253563
vn 0.97014250 -0.24253563 0.00000000
vn 0.97014250 -0.24253563 0.00000000
vn 0.97014250 -0.24253563 0.00000000
vn 0.97014250 -0.24253563 0.00000000
vn 0.97014250 -0.24253563 0.00000000
vn 0.97014250 0.00000000 -0.24253563
vn 0.97014250 0.00000000 -0.24253563
vn 0.97014250 0.00000000 -0.24253563
vn 0.97014250 0.00000000 -0.24253563
vn 1.00000000 0.00000000 0.00000000
vn 1.00000000 0.00000000 0.00000000
vn 1.00000000 0.00000000 0.00000000
vn 1.00000000 0.00000000 0.00000000
vn 0.97014250 0.24253563 0.00000000
vn 0.97014250 0.24253563 0.00000000
vn 0.97014250 0.24253563 0.00000000
vn 0.97014250 0.24253563 0.00000000
vn 0.97014250 0.24253563 0.00000000
vn 0.97014250 0.00000000 0.24253563
vn 0.97014250 0.00000000 0.24253563
vn 0.97014250 0.00000000 0.24253563
vn 0.97014250 0.00000000 0.24253563
vn 0.97014250 0.00000000 0.24253563
vn 0.97014250 -0.24253563 0.00000000
vn 0.97014250 -0.24253563 0.00000000
vn 0.97014250 -0.24253563 0.00000000
vn 0.97014250 -0.24253563 0.00000000
vn 0.97014250 -0.24253563 0.00000000
vn 0.97014250 0.00000000 -0.24253563
vn 0.97014250 0.00000000 -0.24253563
vn 0.97014250 0.00000000 -0.24253563
vn 0.97014250 0.00000000 -0.24253563
vn 0.97014250 0.00000000 -0.24253563
vn 1.00000000 0.00000000 0.00000000
vn 1.00000000 0.00000000 0.00000000
vn 1.00000000 0.00000000 0.00000000
vn 1.00000000 0.00000000 0.00000000
vn 0.97014250 0.24253563 0.00000000
vn 0.97014250 0.24253563 0.00000000
vn 0.97014250 0.24253563 0.00000000
vn 0.97014250 -0.24253563 0.00000000
vn 0.97014250 -0.24253563 0.00000000
vn 0.97014250 -0.24253563 0.00000000
vn 0.97014250 -0.24253563 0.00000000
vn 0.97014250 -0.24253563 0.00000000
vn 0.97014250 -0.00000000 -0.24253563
vn 0.97014250 0.00000000 -0.24253563
vn 0.97014250 0.00000000 -0.24253563
vn 0.97014250 0.24253563 0.00000000
vn 0.97014250 0.24253563 0.00000000
vn 0.97014250 0.24253563 0.00000000
vn 0.97014250 0.24253563 0.00000000
vn 1.00000000 0.00000000 0.00000000
vn 1.00000000 0.00000000 0.00000000
vn 1.00000000 0.00000000 0.00000000
vn 1.00000000 0.00000000 0.00000000
vn 0.97014250 0.00000000 0.24253563
vn 0.97014250 0.00000000 0.24253563
vn 0.97014250 0.00000000 0.24253563
vn 0.97014250 0.00000000 0.24253563
vn 0.97014250 0.24253563 0.00000000
vn 0.97014250 0.24253563 0.00000000
vn 0.97014250 0.24253563 0.00000000
vn 0.97014250 0.00000000 0.24253563
vn 0.97014250 0.00000000 0.24253563
vn 0.97014250 0.00000000 0.24253563
vn 0.97014250 0.00000000 0.24253563
vn 0.97014250 0.00000000 0.24253563
vn 0.97014250 -0.24253563 0.00000000
vn 0.97014250 -0.24253563 0.00000000
vn 0.97014250 -0.24253563 0.00000000
vn 0.97014250 -0.24253563 0.00000000
vn 1.00000000 0.00000000 0.00000000
vn 1.00000000 0.00000000 0.00000000
vn 1.00000000 0.00000000 0.00000000
vn 1.00000000 0.00000000 0.00000000
vn 0.97014250 0.00000000 -0.24253563
vn 0.97014250 0.00000000 -0.24253563
vn 0.97014250 0.00000000 -0.24253563
vn 0.97014250 0.00000000 -0.24253563
vn 0.97014250 0.24253563 0.00000000
vn 0.97014250 0.24253563 0.00000000
vn 0.97014250 0.24253563 0.00000000
vn 0.97014250 0.00000000 0.24253563
vn 0.97014250 0.00000000 0.24253563
vn 0.97014250 0.00000000 0.24253563
vn 0.97014250 -0.24253563 0.00000000
vn 0.97014250 -0.24253563 0.00000000
vn 0.97014250 -0.24253563 0.00000000
vn 1.00000000 0.00000000 0.00000000
vn 1.00000000 0.00000000 0.00000000
vn 1.00000000 0.00000000 0.00000000
vn 1.00000000 0.00000000 0.00000000
vn 0.97014250 0.00000000 -0.24253563
vn 0.97014250 0.00000000 -0.24253563
vn 0.97014250 0.00000000 -0.24253563
vn 0.97014250 0.00000000 -0.24253563
vn 0.97014250 0.00000000 -0.24253563
vn 0.97014250 0.00000000 -0.24253563
vn 0.97014250 0.00000000 -0.24253563
vn 0.97014250 0.00000000 -0.24253563
vn 0.97014250 0.24253563 0.00000000
vn 0.97014250 0.24253563 0.00000000
vn 0.97014250 0.24253563 0.00000000
vn 0.97014250 0.24253563 0.00000000
vn 0.97014250 0.24253563 0.00000000
vn 0.97014250 0.00000000 0.24253563
vn 0.97014250 0.00000000 0.24253563
vn 0.97014250 0.00000000 0.24253563
vn 0.97014250 0.00000000 0.24253563
vn 1.00000000 0.00000000 0.00000000
vn 1.00000000 0.00000000 0.00000000
vn 1.00000000 0.00000000 0.00000000
vn 1.00000000 0.00000000 0.00000000
vn 0.97014250 -0.24253563 0.00000000
vn 0.97014250 -0.24253563 0.00000000
vn 0.97014250 -0.24253563 0.00000000
vn 0.97014250 -0.24253563 0.00000000
vn 0.97014250 0.24253563 0.00000000
vn 0.97014250 0.24253563 0.00000000
vn 0.97014250 0.24253563 0.00000000
vn 0.97014250 0.00000000 -0.24253563
vn 0.97014250 0.00000000 -0.24253563
vn 0.97014250 0.00000000 -0.24253563
vn 0.97014250 0.00000000 -0.24253563
vn 0.97014250 -0.24253563 0.00000000
vn 0.97014250 -0.24253563 0.00000000
vn 0.97014250 -0.24253563 0.00000000
vn 0.97014250 0.00000000 0.24253563
vn 0.97014250 0.00000000 0.24253563
vn 0.97014250 0.00000000 0.24253563
vn 0.97014250 0.00000000 0.24253563
vn 0.97014250 0.24253563 0.00000000
vn 0.97014250 0.24253563 0.00000000
vn 0.97014250 0.24253563 0.00000000
vn 0.97014250 0.24253563 0.00000000
vn 1.00000000 0.00000000 0.00000000
vn 1.00000000 0.00000000 0.00000000
vn 1.00000000 0.00000000 0.00000000
vn 1.00000000 0.00000000 0.00000000
vn 1.00000000 0.00000000 0.00000000
vn 1.00000000 0.00000000 0.00000000
vn 0.97014250 0.00000000 -0.24253563
vn 0.97014250 0.00000000 -0.24253563
vn 0.97014250 0.00000000 -0.24253563
vn 0.97014250 0.00000000 0.24253563
vn 0.97014250 0.00000000 0.24253563
vn 0.97014250 0.00000000 0.24253563
vn 0.97014250 -0.24253563 0.00000000
vn 0.97014250 -0.24253563 0.00000000
vn 0.97014250 -0.24253563 0.00000000
vn 0.97014250 0.00000000 -0.24253563
vn 0.97014250 0.00000000 -0.24253563
vn 1.00000000 0.00000000 0.00000000
vn 1.00000000 0.00000000 0.00000000
vn 1.00000000 0.00000000 0.00000000
vn 1.00000000 0.00000000 0.00000000
vn 0.97014250 0.24253563 0.00000000
vn 0.97014250 0.24253563 0.00000000
vn 0.97014250 0.24253563 0.00000000
vn 0.97014250 0.24253563 0.00000000
vn 0.97014250 0.00000000 0.24253563
vn 0.97014250 0.00000000 0.24253563
vn 0.97014250 0.00000000 0.24253563
vn 0.97014250 -0.24253563 0.00000000
vn 0.97014250 -0.24253563 0.00000000
vn 0.97014250 -0.24253563 0.00000000
vn 0.97014250 0.00000000 -0.24253563
vn 0.97014250 0.00000000 -0.24253563
vn 0.97014250 0.00000000 -0.24253563
vn 0.97014250 0.00000000 -0.24253563
vn 1.00000000 0.00000000 0.00000000
vn 1.00000000 0.00000000 0.00000000
vn 1.00000000 0.00000000 0.00000000
vn 1.00000000 0.00000000 0.00000000
vn 0.97014250 0.24253563 0.00000000
vn 0.97014250 0.24253563 0.00000000
vn 0.97014250 0.24253563 0.00000000
s 1
usemtl Stone_Brit_Gray
f 3/3/3 4/4/4 5/5/5
f 2/2/2 3/3/3 6/6/6
f 6/6/6 1/1/1 2/2/2
f 3/3/3 5/5/5 6/6/6
s 2
f 11/11/11 10/10/10 9/9/9
f 12/12/12 9/9/9 8/8/8
f 8/8/8 7/7/7 12/12/12
f 12/12/12 11/11/11 9/9/9
s 3
f 13/17/17 7/16/16 8/15/15
f 14/18/18 8/15/15 2/14/14
f 2/14/14 1/13/13 14/18/18
f 14/18/18 13/17/17 8/15/15
s 4
f 3/19/19 2/20/20 9/22/22
f 2/20/20 8/21/21 9/22/22
s 5
f 16/28/28 4/23/23 3/24/24
f 3/24/24 9/25/25 15/27/27
f 9/25/25 10/26/26 15/27/27
f 15/27/27 16/28/28 3/24/24
s 6
f 44/123/118 1/121/116 6/120/30
f 44/123/118 43/122/117 1/121/116
f 61/210/196 5/208/29 4/207/194
f 61/210/196 60/209/195 5/208/29
usemtl Stone_Brit_Gray_Light
f 18/32/32 17/31/31 6/30/30
f 18/32/32 6/30/30 5/29/29
s 7
f 19/33/33 21/37/37 20/36/36
f 20/36/36 18/35/35 19/33/33
f 18/35/35 5/34/34 19/33/33
s 8
f 23/41/41 20/40/40 21/39/39
f 25/183/175 21/184/39 55/185/176
f 25/183/175 55/185/176 50/186/177
f 23/41/41 21/39/39 22/38/38
s 9
f 18/42/42 20/43/43 17/45/45
f 20/43/43 23/44/44 17/45/45
s 10
usemtl Stone_Brit_Gray
f 32/72/71 33/71/70 22/70/47
f 26/73/72 32/72/71 22/70/47
usemtl Stone_Brit_Gray_Light
f 23/48/48 22/47/47 24/46/46
f 24/46/46 6/50/50 17/49/49
f 17/49/49 23/48/48 24/46/46
s 11
usemtl Stone_Brit_Gray
f 21/52/52 25/51/51 27/55/55
f 27/55/55 26/54/54 21/52/52
f 26/54/54 22/53/53 21/52/52
s 12
f 27/58/58 25/57/57 28/56/56
f 28/56/56 30/60/60 29/59/59
f 29/59/59 27/58/58 28/56/56
usemtl Stone_Brit_Gray_Light
f 57/193/182 30/192/60 11/191/181
f 58/194/183 57/193/182 11/191/181
s 13
usemtl Stone_Brit_Gray
f 31/61/61 33/65/65 32/64/64
f 32/64/64 29/63/63 31/61/61
f 29/63/63 30/62/62 31/61/61
usemtl Stone_Brit_Gray_Light
f 36/82/80 33/80/65 13/79/78
f 36/82/80 35/81/79 33/80/65
s 14
usemtl Stone_Brit_Gray
f 27/66/66 29/67/67 26/69/69
f 29/67/67 32/68/68 26/69/69
s 15
f 44/126/120 6/125/119 24/124/75
f 45/127/121 44/126/120 24/124/75
usemtl Stone_Brit_Gray_Light
f 34/77/76 24/76/75 22/75/74
f 22/75/74 33/74/73 35/78/77
f 35/78/77 34/77/76 22/75/74
s 16
usemtl Stone_Brit_Gray
f 42/118/114 14/117/81 1/116/113
f 43/119/115 42/118/114 1/116/113
f 38/97/94 7/96/93 13/95/82
f 39/98/95 38/97/94 13/95/82
usemtl Stone_Brit_Gray_Light
f 37/86/84 36/85/83 14/83/81
f 36/85/83 13/84/82 14/83/81
s 17
f 34/87/85 35/88/86 37/90/88
f 35/88/86 36/89/87 37/90/88
s 18
f 34/94/92 37/93/91 14/92/90
f 34/94/92 14/92/90 24/91/89
s 19
usemtl Stone_Brit_Gray
f 33/100/97 31/99/96 40/103/100
f 40/103/100 39/102/99 33/100/97
f 39/102/99 13/101/98 33/100/97
usemtl Stone_Brit_Gray_Light
f 57/190/180 31/188/96 30/187/178
f 57/190/180 56/189/179 31/188/96
s 20
usemtl Stone_Brit_Gray
f 41/107/104 40/106/103 12/104/101
f 40/106/103 31/105/102 12/104/101
s 21
f 40/108/105 41/109/106 39/111/108
f 41/109/106 38/110/107 39/111/108
s 22
f 38/115/112 41/114/111 12/113/110
f 46/138/132 10/137/131 11/136/130
f 47/139/133 46/138/132 11/136/130
f 38/115/112 12/113/110 7/112/109
usemtl Stone_Brit_Gray_Light
f 59/198/185 11/196/130 12/195/110
f 59/198/185 58/197/184 11/196/130
s 23
usemtl Stone_Brit_Gray
f 44/128/122 45/129/123 43/131/125
f 45/129/123 42/130/124 43/131/125
s 24
f 42/135/129 45/134/128 24/133/127
f 42/135/129 24/133/127 14/132/126
s 25
f 47/143/137 11/142/136 30/141/135
f 30/141/135 28/140/134 48/144/138
f 48/144/138 47/143/137 30/141/135
usemtl Stone_Brit_Gray_Light
f 28/157/134 25/158/151 51/160/153
f 25/158/151 50/159/152 51/160/153
s 26
usemtl Stone_Brit_Gray
f 49/148/142 48/147/141 28/146/140
f 49/148/142 28/146/140 15/145/139
s 27
f 49/149/143 46/150/144 48/152/146
f 46/150/144 47/151/145 48/152/146
s 28
f 46/156/150 49/155/149 10/153/147
f 49/155/149 15/154/148 10/153/147
f 61/213/198 4/212/197 16/211/158
f 62/214/199 61/213/198 16/211/158
usemtl Stone_Brit_Gray_Light
f 16/165/158 15/166/148 52/167/159
f 16/165/158 52/167/159 53/168/160
s 29
f 15/161/154 28/162/155 52/164/157
f 28/162/155 51/163/156 52/164/157
s 30
f 19/169/161 16/170/162 54/172/164
f 16/170/162 53/171/163 54/172/164
s 31
usemtl Stone_Brit_Gray
f 63/225/209 19/224/166 5/223/208
f 60/226/210 63/225/209 5/223/208
usemtl Stone_Brit_Gray_Light
f 21/173/165 19/174/166 54/175/167
f 21/173/165 54/175/167 55/176/168
s 32
f 50/177/169 55/182/174 54/181/173
f 53/180/172 52/179/171 50/177/169
f 50/177/169 54/181/173 53/180/172
f 52/179/171 51/178/170 50/177/169
s 33
f 57/199/186 58/200/187 56/202/189
f 58/200/187 59/201/188 56/202/189
s 34
f 56/206/193 59/205/192 31/203/190
f 59/205/192 12/204/191 31/203/190
s 35
usemtl Stone_Brit_Gray
f 63/218/203 62/217/202 19/215/200
f 62/217/202 16/216/201 19/215/200
s 36
f 61/219/204 62/220/205 60/222/207
f 62/220/205 63/221/206 60/222/207
