mtllib Materials_Modular_Village.mtl
o object1
g object1
v -0.50000000 1.00000000 0.50000000
v -0.55000000 1.00000000 0.50000000
v -0.55000000 -0.00000000 0.50000000
v -0.50000000 -0.00000000 0.50000000
v -0.50000000 0.37500000 0.50000000
v -0.50000000 0.62500000 0.50000000
v -0.50000000 1.00000000 -0.50000000
v -0.55000000 1.00000000 -0.50000000
v -0.55000000 -0.00000000 -0.50000000
v -0.50000000 -0.00000000 -0.50000000
v -0.50000000 0.30000000 -0.50000000
v -0.50000000 0.70000000 -0.50000000
v -0.50000000 1.00000000 -0.07500000
v -0.50000000 1.00000000 0.25000000
v -0.50000000 -0.00000000 -0.27500000
v -0.50000000 -0.00000000 0.07500000
v -0.49375000 0.32500000 -0.47500000
v -0.49375000 0.67500000 -0.47500000
v -0.50000000 0.70000000 -0.07500000
v -0.49375000 0.67500000 -0.10000000
v -0.50000000 0.37500000 -0.07500000
v -0.49375000 0.40000000 -0.10000000
v -0.50000000 0.37500000 -0.27500000
v -0.49375000 0.40000000 -0.30000000
v -0.50000000 0.30000000 -0.27500000
v -0.49375000 0.32500000 -0.30000000
v -0.50000000 0.85000000 -0.07500000
v -0.49375000 0.40000000 -0.05000000
v -0.49375000 0.82500000 -0.05000000
v -0.50000000 0.85000000 0.25000000
v -0.49375000 0.82500000 0.22500000
v -0.50000000 0.62500000 0.25000000
v -0.49375000 0.40000000 0.22500000
v -0.50000000 0.37500000 0.25000000
v -0.50000000 0.37500000 0.07500000
v -0.49375000 0.35000000 0.47500000
v -0.49375000 0.02500000 0.47500000
v -0.49375000 0.02500000 0.10000000
v -0.49375000 0.35000000 0.10000000
v -0.49375000 0.72500000 -0.47500000
v -0.49375000 0.97500000 -0.47500000
v -0.49375000 0.97500000 -0.10000000
v -0.49375000 0.72500000 -0.10000000
v -0.49375000 0.35000000 -0.25000000
v -0.49375000 0.35000000 0.05000000
v -0.49375000 0.02500000 0.05000000
v -0.49375000 0.02500000 -0.25000000
v -0.49375000 0.97500000 0.27500000
v -0.49375000 0.97500000 0.47500000
v -0.49375000 0.65000000 0.47500000
v -0.49375000 0.65000000 0.27500000
v -0.49375000 0.02500000 -0.47500000
v -0.49375000 0.27500000 -0.47500000
v -0.49375000 0.27500000 -0.30000000
v -0.49375000 0.02500000 -0.30000000
v -0.49375000 0.87500000 0.22500000
v -0.49375000 0.87500000 -0.05000000
v -0.49375000 0.97500000 -0.05000000
v -0.49375000 0.97500000 0.22500000
v -0.49375000 0.60000000 0.47500000
v -0.49375000 0.40000000 0.47500000
v -0.49375000 0.40000000 0.27500000
v -0.49375000 0.60000000 0.27500000
vt 0.00000000 1.00000000
vt 0.00000000 0.00000000
vt 1.00000000 0.00000000
vt 1.00000000 1.00000000
vt 0.62500000 1.00000000
vt 0.37500000 1.00000000
vt 0.00000000 1.00000000
vt 0.00000000 0.00000000
vt 1.00000000 0.00000000
vt 1.00000000 1.00000000
vt 0.70000000 1.00000000
vt 0.30000000 1.00000000
vt 0.00000000 1.00000000
vt 0.00000000 0.00000000
vt 1.00000000 0.00000000
vt 1.00000000 1.00000000
vt 0.57500000 1.00000000
vt 0.25000000 1.00000000
vt 0.00000000 1.00000000
vt 0.00000000 0.00000000
vt 1.00000000 0.00000000
vt 1.00000000 1.00000000
vt 0.00000000 1.00000000
vt 0.00000000 0.00000000
vt 1.00000000 0.00000000
vt 1.00000000 1.00000000
vt 0.77500000 1.00000000
vt 0.42500000 1.00000000
vt 0.00000000 1.00000000
vt 0.00000000 0.00000000
vt 1.00000000 0.00000000
vt 1.00000000 1.00000000
vt 0.00000000 1.00000000
vt 0.00000000 0.00000000
vt 1.00000000 0.00000000
vt 1.00000000 1.00000000
vt 0.00000000 1.00000000
vt 0.00000000 0.00000000
vt 1.00000000 0.00000000
vt 1.00000000 1.00000000
vt 0.00000000 1.00000000
vt 0.00000000 0.00000000
vt 1.00000000 0.00000000
vt 1.00000000 1.00000000
vt 0.00000000 1.00000000
vt 0.00000000 0.00000000
vt 1.00000000 0.00000000
vt 1.00000000 1.00000000
vt 0.00000000 1.00000000
vt 0.00000000 0.00000000
vt 0.78571429 0.00000000
vt 0.78571429 0.53333333
vt 1.00000000 0.53333333
vt 1.00000000 1.00000000
vt 0.00000000 1.00000000
vt 0.00000000 0.00000000
vt 1.00000000 0.00000000
vt 1.00000000 1.00000000
vt 0.00000000 1.00000000
vt 0.00000000 0.68421053
vt 0.00000000 0.00000000
vt 1.00000000 0.00000000
vt 1.00000000 1.00000000
vt 0.00000000 1.00000000
vt 0.00000000 0.00000000
vt 1.00000000 0.00000000
vt 1.00000000 1.00000000
vt 0.00000000 0.47368421
vt 0.00000000 0.00000000
vt 1.00000000 0.00000000
vt 1.00000000 1.00000000
vt 0.00000000 1.00000000
vt 1.00000000 0.00000000
vt 1.00000000 1.00000000
vt 0.00000000 1.00000000
vt 0.00000000 0.00000000
vt 0.00000000 0.53846154
vt 0.00000000 0.00000000
vt 1.00000000 0.00000000
vt 1.00000000 1.00000000
vt 0.00000000 1.00000000
vt 0.00000000 1.00000000
vt 0.00000000 0.00000000
vt 1.00000000 0.00000000
vt 1.00000000 1.00000000
vt 0.00000000 1.00000000
vt 0.00000000 0.00000000
vt 1.00000000 0.00000000
vt 1.00000000 1.00000000
vt 0.00000000 1.00000000
vt 0.00000000 0.00000000
vt 1.00000000 0.00000000
vt 1.00000000 1.00000000
vt 1.00000000 0.00000000
vt 1.00000000 1.00000000
vt 0.00000000 1.00000000
vt 0.00000000 0.00000000
vt 0.00000000 1.00000000
vt 0.00000000 0.41176471
vt 0.00000000 0.00000000
vt 1.00000000 0.00000000
vt 1.00000000 1.00000000
vt 0.00000000 1.00000000
vt 0.00000000 0.00000000
vt 1.00000000 0.00000000
vt 1.00000000 1.00000000
vt 0.00000000 1.00000000
vt 0.00000000 0.00000000
vt 1.00000000 0.00000000
vt 1.00000000 1.00000000
vt 0.00000000 1.00000000
vt 0.00000000 0.50000000
vt 0.00000000 0.00000000
vt 1.00000000 0.00000000
vt 1.00000000 1.00000000
vt 1.00000000 0.00000000
vt 1.00000000 1.00000000
vt 0.00000000 1.00000000
vt 0.00000000 0.00000000
vt 0.00000000 1.00000000
vt 0.00000000 0.00000000
vt 1.00000000 0.00000000
vt 1.00000000 1.00000000
vt 0.00000000 1.00000000
vt 0.00000000 0.57142857
vt 0.00000000 0.00000000
vt 1.00000000 0.00000000
vt 1.00000000 1.00000000
vt 0.00000000 1.00000000
vt 0.00000000 0.00000000
vt 1.00000000 0.00000000
vt 1.00000000 1.00000000
vt 0.00000000 1.00000000
vt 0.00000000 0.00000000
vt 1.00000000 0.00000000
vt 1.00000000 1.00000000
vt 1.00000000 0.00000000
vt 1.00000000 1.00000000
vt 0.00000000 1.00000000
vt 0.00000000 0.00000000
vt 0.00000000 1.00000000
vt 0.00000000 0.80000000
vt 0.00000000 0.00000000
vt 1.00000000 0.00000000
vt 1.00000000 1.00000000
vt 0.00000000 1.00000000
vt 0.00000000 0.00000000
vt 1.00000000 0.00000000
vt 1.00000000 1.00000000
vt 0.00000000 1.00000000
vt 0.00000000 0.00000000
vt 1.00000000 0.00000000
vt 1.00000000 1.00000000
vt 0.00000000 1.00000000
vt 0.00000000 0.00000000
vt 1.00000000 0.00000000
vt 1.00000000 1.00000000
vt 1.00000000 0.00000000
vt 1.00000000 1.00000000
vt 0.00000000 1.00000000
vt 0.00000000 0.00000000
vt 0.00000000 1.00000000
vt 0.00000000 0.60000000
vt 0.00000000 0.00000000
vt 1.00000000 0.00000000
vt 1.00000000 1.00000000
vt 0.00000000 1.00000000
vt 0.00000000 0.00000000
vt 1.00000000 0.00000000
vt 1.00000000 1.00000000
vt 0.00000000 1.00000000
vt 0.00000000 0.00000000
vt 1.00000000 0.00000000
vt 1.00000000 1.00000000
vt 0.00000000 1.00000000
vt 0.00000000 0.00000000
vt 1.00000000 0.00000000
vt 1.00000000 1.00000000
vt 1.00000000 0.00000000
vt 1.00000000 1.00000000
vt 0.00000000 1.00000000
vt 0.00000000 0.00000000
vt 0.00000000 1.00000000
vt 0.00000000 0.00000000
vt 1.00000000 0.00000000
vt 1.00000000 1.00000000
vt 0.00000000 1.00000000
vt 0.00000000 0.00000000
vt 1.00000000 0.00000000
vt 1.00000000 1.00000000
vt 0.00000000 1.00000000
vt 0.00000000 0.00000000
vt 1.00000000 0.00000000
vt 1.00000000 1.00000000
vt 0.00000000 1.00000000
vt 0.00000000 0.00000000
vt 1.00000000 0.00000000
vt 1.00000000 1.00000000
vt 1.00000000 0.00000000
vt 1.00000000 1.00000000
vt 0.00000000 1.00000000
vt 0.00000000 0.00000000
vt 0.00000000 1.00000000
vt 0.00000000 0.00000000
vt 1.00000000 0.00000000
vt 1.00000000 1.00000000
vt 0.00000000 1.00000000
vt 0.00000000 0.00000000
vt 1.00000000 0.00000000
vt 1.00000000 1.00000000
vt 0.00000000 1.00000000
vt 0.00000000 0.00000000
vt 1.00000000 0.00000000
vt 1.00000000 1.00000000
vt 0.00000000 1.00000000
vt 0.00000000 0.00000000
vt 1.00000000 0.00000000
vt 1.00000000 1.00000000
vt 1.00000000 0.00000000
vt 1.00000000 1.00000000
vt 0.00000000 1.00000000
vt 0.00000000 0.00000000
vt 0.00000000 1.00000000
vt 0.00000000 0.00000000
vt 1.00000000 0.00000000
vt 1.00000000 1.00000000
vn 0.00000000 0.00000000 1.00000000
vn 0.00000000 0.00000000 1.00000000
vn 0.00000000 0.00000000 1.00000000
vn 0.00000000 0.00000000 1.00000000
vn 0.00000000 0.00000000 1.00000000
vn 0.00000000 0.00000000 1.00000000
vn 0.00000000 0.00000000 -1.00000000
vn 0.00000000 0.00000000 -1.00000000
vn 0.00000000 0.00000000 -1.00000000
vn 0.00000000 0.00000000 -1.00000000
vn 0.00000000 0.00000000 -1.00000000
vn 0.00000000 0.00000000 -1.00000000
vn 0.00000000 1.00000000 0.00000000
vn 0.00000000 1.00000000 0.00000000
vn 0.00000000 1.00000000 0.00000000
vn 0.00000000 1.00000000 0.00000000
vn 0.00000000 1.00000000 0.00000000
vn 0.00000000 1.00000000 0.00000000
vn -1.00000000 0.00000000 0.00000000
vn -1.00000000 0.00000000 0.00000000
vn -1.00000000 0.00000000 0.00000000
vn -1.00000000 0.00000000 0.00000000
vn 0.00000000 -1.00000000 0.00000000
vn 0.00000000 -1.00000000 0.00000000
vn 0.00000000 -1.00000000 0.00000000
vn 0.00000000 -1.00000000 0.00000000
vn 0.00000000 -1.00000000 0.00000000
vn 0.00000000 -1.00000000 0.00000000
vn 0.97014250 0.00000000 -0.24253563
vn 0.97014250 0.00000000 -0.24253563
vn 0.97014250 0.00000000 -0.24253563
vn 0.97014250 0.00000000 -0.24253563
vn 0.97014250 0.24253563 0.00000000
vn 0.97014250 0.24253563 0.00000000
vn 0.97014250 0.24253563 0.00000000
vn 0.97014250 0.24253563 0.00000000
vn 0.97014250 0.00000000 0.24253563
vn 0.97014250 0.00000000 0.24253563
vn 0.97014250 0.00000000 0.24253563
vn 0.97014250 0.00000000 0.24253563
vn 0.97014250 -0.24253563 0.00000000
vn 0.97014250 -0.24253563 0.00000000
vn 0.97014250 -0.24253563 0.00000000
vn 0.97014250 -0.24253563 0.00000000
vn 0.97014250 0.00000000 0.24253563
vn 0.97014250 0.00000000 0.24253563
vn 0.97014250 0.00000000 0.24253563
vn 0.97014250 0.00000000 0.24253563
vn 1.00000000 0.00000000 0.00000000
vn 1.00000000 0.00000000 0.00000000
vn 1.00000000 0.00000000 0.00000000
vn 1.00000000 0.00000000 0.00000000
vn 1.00000000 0.00000000 0.00000000
vn 1.00000000 0.00000000 0.00000000
vn 0.97014250 -0.24253563 0.00000000
vn 0.97014250 -0.24253563 0.00000000
vn 0.97014250 -0.24253563 0.00000000
vn 0.97014250 -0.24253563 0.00000000
vn 0.97014250 0.00000000 -0.24253563
vn 0.97014250 0.00000000 -0.24253563
vn 0.97014250 0.00000000 -0.24253563
vn 0.97014250 0.00000000 -0.24253563
vn 0.97014250 0.00000000 -0.24253563
vn 0.97014250 0.24253563 0.00000000
vn 0.97014250 0.24253563 0.00000000
vn 0.97014250 0.24253563 0.00000000
vn 0.97014250 0.24253563 0.00000000
vn 0.97014250 0.00000000 0.24253563
vn 0.97014250 0.00000000 0.24253563
vn 0.97014250 0.00000000 0.24253563
vn 0.97014250 0.00000000 0.24253563
vn 0.97014250 0.00000000 0.24253563
vn 1.00000000 0.00000000 0.00000000
vn 1.00000000 0.00000000 0.00000000
vn 1.00000000 0.00000000 0.00000000
vn 1.00000000 0.00000000 0.00000000
vn 0.97014250 -0.24253563 0.00000000
vn 0.97014250 -0.24253563 0.00000000
vn 0.97014250 -0.24253563 0.00000000
vn 0.97014250 -0.24253563 0.00000000
vn 0.97014250 0.00000000 0.24253563
vn 0.97014250 0.00000000 0.24253563
vn 0.97014250 0.00000000 0.24253563
vn 0.97014250 0.00000000 0.24253563
vn 0.97014250 -0.24253563 0.00000000
vn 0.97014250 -0.24253563 0.00000000
vn 0.97014250 -0.24253563 0.00000000
vn 0.97014250 -0.24253563 0.00000000
vn 0.97014250 -0.00000000 -0.24253563
vn 0.97014250 -0.00000000 -0.24253563
vn 0.97014250 0.00000000 -0.24253563
vn 0.97014250 0.00000000 -0.24253563
vn 1.00000000 0.00000000 0.00000000
vn 1.00000000 0.00000000 0.00000000
vn 1.00000000 0.00000000 0.00000000
vn 1.00000000 0.00000000 0.00000000
vn 0.97014250 0.24253563 0.00000000
vn 0.97014250 0.24253563 0.00000000
vn 0.97014250 0.24253563 0.00000000
vn 0.97014250 0.24253563 0.00000000
vn 0.97014250 0.24253563 0.00000000
vn 0.97014250 0.00000000 -0.24253563
vn 0.97014250 0.00000000 -0.24253563
vn 0.97014250 0.00000000 -0.24253563
vn 0.97014250 0.24253563 0.00000000
vn 0.97014250 0.24253563 0.00000000
vn 0.97014250 0.24253563 0.00000000
vn 0.97014250 0.24253563 0.00000000
vn 0.97014250 0.00000000 0.24253563
vn 0.97014250 0.00000000 0.24253563
vn 0.97014250 0.00000000 0.24253563
vn 0.97014250 0.00000000 0.24253563
vn 1.00000000 0.00000000 0.00000000
vn 1.00000000 0.00000000 0.00000000
vn 1.00000000 0.00000000 0.00000000
vn 1.00000000 0.00000000 0.00000000
vn 0.97014250 -0.24253563 0.00000000
vn 0.97014250 -0.24253563 0.00000000
vn 0.97014250 -0.24253563 0.00000000
vn 0.97014250 -0.24253563 0.00000000
vn 0.97014250 0.24253563 0.00000000
vn 0.97014250 0.24253563 0.00000000
vn 0.97014250 0.24253563 0.00000000
vn 0.97014250 0.24253563 0.00000000
vn 0.97014250 0.00000000 0.24253563
vn 0.97014250 0.00000000 0.24253563
vn 0.97014250 0.00000000 0.24253563
vn 0.97014250 0.00000000 0.24253563
vn 0.97014250 -0.24253563 0.00000000
vn 0.97014250 -0.24253563 0.00000000
vn 0.97014250 -0.24253563 0.00000000
vn 1.00000000 0.00000000 0.00000000
vn 1.00000000 0.00000000 0.00000000
vn 1.00000000 0.00000000 0.00000000
vn 1.00000000 0.00000000 0.00000000
vn 0.97014250 0.00000000 -0.24253563
vn 0.97014250 0.00000000 -0.24253563
vn 0.97014250 0.00000000 -0.24253563
vn 0.97014250 0.00000000 -0.24253563
vn 0.97014250 0.00000000 -0.24253563
vn 0.97014250 0.24253563 0.00000000
vn 0.97014250 0.24253563 0.00000000
vn 0.97014250 0.24253563 0.00000000
vn 0.97014250 0.24253563 0.00000000
vn 0.97014250 0.00000000 0.24253563
vn 0.97014250 0.00000000 0.24253563
vn 0.97014250 0.00000000 0.24253563
vn 0.97014250 0.00000000 0.24253563
vn 0.97014250 -0.24253563 0.00000000
vn 0.97014250 -0.24253563 0.00000000
vn 0.97014250 -0.24253563 0.00000000
vn 0.97014250 -0.24253563 0.00000000
vn 1.00000000 0.00000000 0.00000000
vn 1.00000000 0.00000000 0.00000000
vn 1.00000000 0.00000000 0.00000000
vn 1.00000000 0.00000000 0.00000000
vn 0.97014250 0.00000000 -0.24253563
vn 0.97014250 0.00000000 -0.24253563
vn 0.97014250 0.00000000 -0.24253563
vn 0.97014250 0.00000000 -0.24253563
vn 0.97014250 0.00000000 -0.24253563
vn 0.97014250 0.00000000 -0.24253563
vn 0.97014250 0.00000000 -0.24253563
vn 0.97014250 0.00000000 -0.24253563
vn 0.97014250 0.24253563 0.00000000
vn 0.97014250 0.24253563 0.00000000
vn 0.97014250 0.24253563 0.00000000
vn 0.97014250 0.24253563 0.00000000
vn 0.97014250 0.00000000 0.24253563
vn 0.97014250 0.00000000 0.24253563
vn 0.97014250 0.00000000 0.24253563
vn 1.00000000 0.00000000 0.00000000
vn 1.00000000 0.00000000 0.00000000
vn 1.00000000 0.00000000 0.00000000
vn 1.00000000 0.00000000 0.00000000
vn 0.97014250 -0.24253563 0.00000000
vn 0.97014250 -0.24253563 0.00000000
vn 0.97014250 -0.24253563 0.00000000
vn 0.97014250 -0.24253563 0.00000000
vn 0.97014250 -0.24253563 0.00000000
vn 0.97014250 -0.24253563 0.00000000
vn 0.97014250 -0.24253563 0.00000000
vn 0.97014250 0.00000000 -0.24253563
vn 0.97014250 0.00000000 -0.24253563
vn 0.97014250 0.00000000 -0.24253563
vn 0.97014250 0.24253563 0.00000000
vn 0.97014250 0.24253563 0.00000000
vn 1.00000000 0.00000000 0.00000000
vn 1.00000000 0.00000000 0.00000000
vn 1.00000000 0.00000000 0.00000000
vn 1.00000000 0.00000000 0.00000000
vn 0.97014250 0.00000000 0.24253563
vn 0.97014250 0.00000000 0.24253563
vn 0.97014250 0.00000000 0.24253563
vn 0.97014250 0.00000000 0.24253563
vn 0.97014250 0.00000000 0.24253563
vn 0.97014250 -0.24253563 0.00000000
vn 0.97014250 -0.24253563 0.00000000
vn 0.97014250 -0.24253563 0.00000000
vn 0.97014250 0.00000000 -0.24253563
vn 0.97014250 0.00000000 -0.24253563
vn 0.97014250 0.00000000 -0.24253563
vn 1.00000000 0.00000000 0.00000000
vn 1.00000000 0.00000000 0.00000000
vn 1.00000000 0.00000000 0.00000000
vn 1.00000000 0.00000000 0.00000000
vn 0.97014250 0.24253563 0.00000000
vn 0.97014250 0.24253563 0.00000000
vn 0.97014250 0.24253563 0.00000000
vn 0.97014250 0.24253563 0.00000000
s 1
usemtl Stone_Brit_Gray
f 6/6/6 1/1/1 2/2/2
f 2/2/2 3/3/3 5/5/5
f 3/3/3 4/4/4 5/5/5
f 5/5/5 6/6/6 2/2/2
s 2
f 8/8/8 7/7/7 12/12/12
f 11/11/11 9/9/9 8/8/8
f 11/11/11 10/10/10 9/9/9
f 8/8/8 12/12/12 11/11/11
s 3
f 2/14/14 1/13/13 14/18/18
f 13/17/17 8/15/15 2/14/14
f 13/17/17 7/16/16 8/15/15
f 2/14/14 14/18/18 13/17/17
s 4
f 3/19/19 2/20/20 9/22/22
f 2/20/20 8/21/21 9/22/22
s 5
f 9/25/25 10/26/26 15/27/27
f 3/24/24 9/25/25 16/28/28
f 16/28/28 4/23/23 3/24/24
f 9/25/25 15/27/27 16/28/28
s 6
f 18/32/32 17/31/31 11/30/30
f 18/32/32 11/30/30 12/29/29
usemtl Stone_Brit_Gray_Light
f 53/170/164 10/168/162 11/167/30
f 53/170/164 52/169/163 10/168/162
f 41/106/104 12/104/29 7/103/102
f 41/106/104 40/105/103 12/104/29
s 7
usemtl Stone_Brit_Gray
f 20/36/36 18/35/35 19/33/33
f 18/35/35 12/34/34 19/33/33
s 8
f 22/40/40 20/39/39 21/37/37
f 20/39/39 19/38/38 21/37/37
usemtl Stone_Brit_Gray_Light
f 27/112/109 19/111/38 43/115/112
f 43/115/112 42/114/111 27/112/109
f 42/114/111 13/113/110 27/112/109
s 9
usemtl Stone_Brit_Gray
f 24/44/44 22/43/43 23/41/41
f 22/43/43 21/42/42 23/41/41
f 61/213/198 5/212/197 34/211/78
f 62/214/199 61/213/198 34/211/78
usemtl Stone_Brit_Gray_Light
f 35/77/77 21/81/42 28/80/80
f 28/80/80 33/79/79 35/77/77
f 33/79/79 34/78/78 35/77/77
s 10
usemtl Stone_Brit_Gray
f 26/48/48 24/47/47 23/46/46
f 26/48/48 23/46/46 25/45/45
usemtl Stone_Brit_Gray_Light
f 55/178/171 25/176/45 15/175/169
f 55/178/171 54/177/170 25/176/45
s 11
usemtl Stone_Brit_Gray
f 24/52/52 26/53/53 17/54/54
f 18/49/49 20/50/50 24/52/52
f 24/52/52 17/54/54 18/49/49
f 20/50/50 22/51/51 24/52/52
s 12
f 17/58/58 26/57/57 11/55/55
f 26/57/57 25/56/56 11/55/55
s 13
f 58/194/185 27/192/59 13/191/183
f 58/194/185 57/193/184 27/192/59
usemtl Stone_Brit_Gray_Light
f 19/60/60 27/59/59 29/63/63
f 29/63/63 28/62/62 19/60/60
f 28/62/62 21/61/61 19/60/60
s 14
f 31/67/67 29/66/66 30/64/64
f 29/66/66 27/65/65 30/64/64
s 15
usemtl Stone_Brit_Gray
f 56/206/194 14/204/192 30/203/69
f 56/206/194 59/205/193 14/204/192
usemtl Stone_Brit_Gray_Light
f 31/70/70 30/69/69 32/68/68
f 32/68/68 34/72/72 33/71/71
f 33/71/71 31/70/70 32/68/68
s 16
f 33/73/73 28/74/74 31/76/76
f 28/74/74 29/75/75 31/76/76
s 17
usemtl Stone_Brit_Gray
f 61/210/196 6/208/145 5/207/82
f 61/210/196 60/209/195 6/208/145
usemtl Stone_Brit_Gray_Light
f 37/85/84 36/84/83 5/83/82
f 50/153/148 1/151/146 6/150/145
f 50/153/148 49/152/147 1/151/146
f 37/85/84 5/83/82 4/82/81
s 18
usemtl Stone_Brit_Gray
f 46/135/130 16/134/85 15/133/129
f 47/136/131 46/135/130 15/133/129
usemtl Stone_Brit_Gray_Light
f 38/89/88 37/88/87 16/86/85
f 55/185/177 15/184/129 10/183/176
f 52/186/178 55/185/177 10/183/176
f 37/88/87 4/87/86 16/86/85
s 19
f 39/93/92 38/92/91 16/91/90
f 39/93/92 16/91/90 35/90/89
s 20
f 37/94/93 38/95/94 36/97/96
f 38/95/94 39/96/95 36/97/96
s 21
usemtl Stone_Brit_Gray
f 21/125/121 35/124/99 45/128/124
f 45/128/124 44/127/123 21/125/121
f 44/127/123 23/126/122 21/125/121
usemtl Stone_Brit_Gray_Light
f 39/101/100 35/100/99 34/99/98
f 34/99/98 5/98/97 36/102/101
f 36/102/101 39/101/100 34/99/98
s 22
usemtl Stone_Brit_Gray
f 58/197/186 13/196/105 14/195/142
f 59/198/187 58/197/186 14/195/142
usemtl Stone_Brit_Gray_Light
f 42/110/108 41/109/107 13/107/105
f 48/148/143 14/147/142 1/146/141
f 49/149/144 48/148/143 1/146/141
f 41/109/107 7/108/106 13/107/105
s 23
f 43/116/113 40/117/114 42/119/116
f 40/117/114 41/118/115 42/119/116
s 24
f 40/123/120 43/122/119 12/120/117
f 43/122/119 19/121/118 12/120/117
s 25
usemtl Stone_Brit_Gray
f 46/132/128 45/131/127 35/130/126
f 46/132/128 35/130/126 16/129/125
s 26
f 46/137/132 47/138/133 45/140/135
f 47/138/133 44/139/134 45/140/135
s 27
f 25/142/137 23/141/136 44/145/140
f 44/145/140 47/144/139 25/142/137
f 47/144/139 15/143/138 25/142/137
s 28
usemtl Stone_Brit_Gray_Light
f 51/157/152 50/156/151 32/154/149
f 50/156/151 6/155/150 32/154/149
s 29
f 50/158/153 51/159/154 49/161/156
f 51/159/154 48/160/155 49/161/156
s 30
usemtl Stone_Brit_Gray
f 62/217/201 34/216/200 32/215/159
f 63/218/202 62/217/201 32/215/159
usemtl Stone_Brit_Gray_Light
f 30/163/158 14/162/157 48/166/161
f 48/166/161 51/165/160 30/163/158
f 51/165/160 32/164/159 30/163/158
s 31
f 54/174/168 53/173/167 25/171/165
f 53/173/167 11/172/166 25/171/165
s 32
f 55/179/172 52/180/173 54/182/175
f 52/180/173 53/181/174 54/182/175
s 33
usemtl Stone_Brit_Gray
f 57/190/182 56/189/181 27/187/179
f 56/189/181 30/188/180 27/187/179
s 34
f 56/199/188 57/200/189 59/202/191
f 57/200/189 58/201/190 59/202/191
s 35
f 61/219/203 62/220/204 60/222/206
f 62/220/204 63/221/205 60/222/206
s 36
f 60/226/210 63/225/209 6/223/207
f 63/225/209 32/224/208 6/223/207
