mtllib Materials_Modular_Village.mtl
o object1
g object1
v -0.50000000 1.50000000 0.50000000
v -0.50000000 2.00000000 0.50000000
v -0.50000000 2.00000000 -0.50000000
v -0.50000000 1.50000000 -0.50000000
v 0.50000000 1.55000000 0.50000000
v 0.50000000 1.50000000 0.50000000
v 0.50000000 2.00000000 0.50000000
v 0.50000000 2.00000000 0.07500000
v 0.50000000 2.00000000 -0.50000000
v 0.50000000 1.72500000 -0.50000000
v 0.50000000 1.50000000 -0.50000000
v 0.50625000 1.50000000 0.47500000
v 0.50625000 1.52500000 0.47500000
v 0.50625000 1.52500000 0.32500000
v 0.50000000 1.55000000 0.30000000
v 0.50625000 1.50000000 0.32500000
v 0.50000000 1.50000000 0.30000000
v 0.50625000 1.50000000 -0.47500000
v 0.50625000 1.50000000 0.27500000
v 0.50625000 1.50000000 -0.05000000
v 0.50000000 1.50000000 -0.07500000
v 0.50625000 1.50000000 -0.10000000
v 0.50625000 1.50000000 -0.20000000
v 0.50000000 1.50000000 -0.22500000
v 0.50625000 1.50000000 -0.25000000
v 0.50625000 1.97500000 0.10000000
v 0.50625000 1.97500000 0.47500000
v 0.50625000 1.57500000 0.47500000
v 0.50625000 1.57500000 0.10000000
v 0.50000000 1.55000000 0.07500000
v 0.50000000 1.72500000 0.07500000
v 0.50625000 1.70000000 -0.47500000
v 0.50000000 1.72500000 -0.22500000
v 0.50625000 1.70000000 -0.25000000
v 0.50625000 1.70000000 -0.20000000
v 0.50625000 1.70000000 0.05000000
v 0.50625000 1.57500000 0.05000000
v 0.50000000 1.55000000 -0.07500000
v 0.50625000 1.57500000 -0.10000000
v 0.50625000 1.52500000 -0.05000000
v 0.50625000 1.52500000 0.27500000
v 0.50625000 1.75000000 -0.47500000
v 0.50625000 1.97500000 -0.47500000
v 0.50625000 1.97500000 0.05000000
v 0.50625000 1.75000000 0.05000000
vt 0.00000000 0.00000000
vt 1.00000000 0.00000000
vt 1.00000000 1.00000000
vt 0.00000000 1.00000000
vt 0.00000000 0.10000000
vt 0.00000000 0.00000000
vt 1.00000000 0.00000000
vt 1.00000000 1.00000000
vt 0.00000000 1.00000000
vt 0.00000000 0.42500000
vt 0.00000000 0.00000000
vt 1.00000000 0.00000000
vt 1.00000000 1.00000000
vt 0.00000000 1.00000000
vt 0.00000000 0.45000000
vt 0.00000000 0.00000000
vt 1.00000000 0.00000000
vt 1.00000000 1.00000000
vt 0.00000000 1.00000000
vt 1.00000000 1.00000000
vt 0.00000000 0.55000000
vt 0.00000000 0.00000000
vt 1.00000000 0.00000000
vt 0.00000000 1.00000000
vt 0.00000000 0.00000000
vt 1.00000000 0.00000000
vt 1.00000000 1.00000000
vt 0.00000000 0.45000000
vt 1.00000000 0.00000000
vt 1.00000000 1.00000000
vt 0.00000000 1.00000000
vt 1.00000000 0.00000000
vt 1.00000000 1.00000000
vt 0.00000000 1.00000000
vt 0.00000000 0.00000000
vt 0.00000000 0.02500000
vt 0.00621118 0.00000000
vt 1.00000000 0.00000000
vt 1.00000000 1.00000000
vt 0.00621118 1.00000000
vt 0.00000000 0.97500000
vt 0.00000000 0.82500000
vt 0.00621118 0.80000000
vt 0.00000000 0.77500000
vt 0.00000000 0.45000000
vt 0.00621118 0.42500000
vt 0.00000000 0.40000000
vt 0.00000000 0.30000000
vt 0.00621118 0.27500000
vt 0.00000000 0.25000000
vt 0.00000000 1.00000000
vt 0.00000000 0.00000000
vt 1.00000000 0.00000000
vt 1.00000000 1.00000000
vt 0.00000000 1.00000000
vt 0.00000000 0.00000000
vt 1.00000000 0.00000000
vt 1.00000000 1.00000000
vt 0.00000000 0.47058824
vt 0.00000000 0.00000000
vt 1.00000000 0.00000000
vt 1.00000000 1.00000000
vt 0.00000000 1.00000000
vt 1.00000000 0.00000000
vt 1.00000000 1.00000000
vt 0.00000000 1.00000000
vt 0.00000000 0.00000000
vt 0.00000000 1.00000000
vt 0.00000000 0.38888889
vt 0.00000000 0.00000000
vt 1.00000000 0.00000000
vt 1.00000000 1.00000000
vt 0.00000000 0.00000000
vt 1.00000000 0.00653595
vt 1.00000000 1.00000000
vt 0.00000000 1.00000000
vt 0.00000000 1.00000000
vt 0.00000000 0.00000000
vt 1.00000000 0.00000000
vt 1.00000000 1.00000000
vt 1.00000000 0.99346405
vt 0.00000000 1.00000000
vt 0.00000000 0.00000000
vt 1.00000000 0.00000000
vt 1.00000000 0.00000000
vt 1.00000000 1.00000000
vt 0.00000000 1.00000000
vt 0.00000000 0.00000000
vt 1.00000000 0.99346405
vt 0.00000000 1.00000000
vt 0.00000000 0.00000000
vt 1.00000000 0.00000000
vt 0.00000000 1.00000000
vt 0.00000000 0.00000000
vt 1.00000000 0.00000000
vt 1.00000000 1.00000000
vt 0.00000000 1.00000000
vt 0.00000000 0.00000000
vt 1.00000000 0.00000000
vt 1.00000000 1.00000000
vt 0.00000000 1.00000000
vt 0.00000000 0.00000000
vt 1.00000000 0.00000000
vt 1.00000000 1.00000000
vt 1.00000000 0.00000000
vt 1.00000000 0.40000000
vt 0.62500000 0.40000000
vt 0.62500000 1.00000000
vt 0.00000000 1.00000000
vt 0.00000000 0.00000000
vt 0.00000000 0.33333333
vt 1.00000000 0.00000000
vt 1.00000000 1.00000000
vt 0.00000000 1.00000000
vt 0.00000000 0.00000000
vt 1.00000000 0.30000000
vt 1.00000000 1.00000000
vt 0.00000000 1.00000000
vt 0.00000000 1.00000000
vt 0.00000000 0.40000000
vt 0.00000000 0.00000000
vt 1.00000000 0.00000000
vt 1.00000000 1.00000000
vt 1.00000000 0.00000000
vt 1.00000000 1.00000000
vt 0.00000000 1.00000000
vt 0.00000000 0.00000000
vt 1.00000000 0.70000000
vt 0.00000000 1.00000000
vt 0.00000000 0.00000000
vt 1.00000000 0.00000000
vt 0.00000000 1.00000000
vt 0.00000000 0.00000000
vt 1.00000000 0.00000000
vt 1.00000000 1.00000000
vt 0.00000000 1.00000000
vt 0.00000000 0.00000000
vt 1.00000000 0.00000000
vt 1.00000000 1.00000000
vt 0.00000000 1.00000000
vt 0.00000000 0.00000000
vt 1.00000000 0.00000000
vt 1.00000000 1.00000000
vt 1.00000000 0.00000000
vt 1.00000000 1.00000000
vt 0.00000000 1.00000000
vt 0.00000000 0.00000000
vt 0.00000000 0.52173913
vt 0.00000000 0.00000000
vt 1.00000000 0.00000000
vt 1.00000000 1.00000000
vt 0.00000000 1.00000000
vn -1.00000000 -0.00000000 0.00000000
vn -1.00000000 -0.00000000 0.00000000
vn -1.00000000 -0.00000000 0.00000000
vn -1.00000000 -0.00000000 0.00000000
vn 0.00000000 0.00000000 1.00000000
vn 0.00000000 0.00000000 1.00000000
vn 0.00000000 0.00000000 1.00000000
vn 0.00000000 0.00000000 1.00000000
vn 0.00000000 0.00000000 1.00000000
vn -0.00000000 1.00000000 0.00000000
vn -0.00000000 1.00000000 0.00000000
vn -0.00000000 1.00000000 0.00000000
vn -0.00000000 1.00000000 0.00000000
vn -0.00000000 1.00000000 0.00000000
vn 0.00000000 0.00000000 -1.00000000
vn 0.00000000 0.00000000 -1.00000000
vn 0.00000000 0.00000000 -1.00000000
vn 0.00000000 0.00000000 -1.00000000
vn 0.00000000 0.00000000 -1.00000000
vn 0.97014250 0.00000000 0.24253563
vn 0.97014250 0.00000000 0.24253563
vn 0.97014250 0.00000000 0.24253563
vn 0.97014250 0.00000000 0.24253563
vn 0.97014250 0.24253563 0.00000000
vn 0.97014250 0.24253563 0.00000000
vn 0.97014250 0.24253563 0.00000000
vn 0.97014250 0.24253563 0.00000000
vn 0.97014250 0.00000000 -0.24253563
vn 0.97014250 0.00000000 -0.24253563
vn 0.97014250 0.00000000 -0.24253563
vn 0.97014250 0.00000000 -0.24253563
vn 1.00000000 0.00000000 0.00000000
vn 1.00000000 0.00000000 0.00000000
vn 1.00000000 0.00000000 0.00000000
vn 1.00000000 0.00000000 0.00000000
vn 0.00000000 -1.00000000 0.00000000
vn 0.00000000 -1.00000000 0.00000000
vn 0.00000000 -1.00000000 0.00000000
vn 0.00000000 -1.00000000 0.00000000
vn 0.00000000 -1.00000000 0.00000000
vn 0.00000000 -1.00000000 0.00000000
vn 0.00000000 -1.00000000 0.00000000
vn 0.00000000 -1.00000000 0.00000000
vn 0.00000000 -1.00000000 0.00000000
vn 0.00000000 -1.00000000 0.00000000
vn 0.00000000 -1.00000000 0.00000000
vn 0.00000000 -1.00000000 0.00000000
vn 0.00000000 -1.00000000 0.00000000
vn 0.00000000 -1.00000000 0.00000000
vn 0.00000000 -1.00000000 0.00000000
vn 0.97014250 0.24253563 0.00000000
vn 0.97014250 0.24253563 0.00000000
vn 0.97014250 0.24253563 0.00000000
vn 0.97014250 0.24253563 0.00000000
vn 0.97014250 0.00000000 0.24253563
vn 0.97014250 0.00000000 0.24253563
vn 0.97014250 0.00000000 0.24253563
vn 0.97014250 -0.24253563 0.00000000
vn 0.97014250 -0.24253563 0.00000000
vn 0.97014250 -0.24253563 0.00000000
vn 0.97014250 -0.24253563 0.00000000
vn 0.97014250 -0.24253563 0.00000000
vn 1.00000000 0.00000000 0.00000000
vn 1.00000000 0.00000000 0.00000000
vn 1.00000000 0.00000000 0.00000000
vn 1.00000000 0.00000000 0.00000000
vn 0.97014250 -0.00000000 -0.24253563
vn 0.97014250 -0.00000000 -0.24253563
vn 0.97014250 -0.00000000 -0.24253563
vn 0.97014250 0.00000000 -0.24253563
vn 0.97014250 0.00000000 -0.24253563
vn 0.97014250 0.00000000 -0.24253563
vn 0.97014250 0.00000000 -0.24253563
vn 0.97014250 0.00000000 -0.24253563
vn 0.97014250 0.00000000 -0.24253563
vn 0.97014250 0.24253563 0.00000000
vn 0.97014250 0.24253563 0.00000000
vn 0.97014250 0.24253563 0.00000000
vn 0.97014250 0.24253563 0.00000000
vn 0.97014250 0.00000000 0.24253563
vn 0.97014250 0.00000000 0.24253563
vn 0.97014250 0.00000000 0.24253563
vn 0.97014250 0.00000000 0.24253563
vn 1.00000000 0.00000000 0.00000000
vn 1.00000000 0.00000000 0.00000000
vn 1.00000000 0.00000000 0.00000000
vn 1.00000000 0.00000000 0.00000000
vn 0.97014250 0.00000000 -0.24253563
vn 0.97014250 0.00000000 -0.24253563
vn 0.97014250 0.00000000 -0.24253563
vn 0.97014250 0.00000000 -0.24253563
vn 0.97014250 0.24253563 0.00000000
vn 0.97014250 0.24253563 0.00000000
vn 0.97014250 0.24253563 0.00000000
vn 0.97014250 0.00000000 0.24253563
vn 0.97014250 0.00000000 0.24253563
vn 0.97014250 0.00000000 0.24253563
vn 0.97014250 0.00000000 0.24253563
vn 0.97014250 -0.24253563 0.00000000
vn 0.97014250 -0.24253563 0.00000000
vn 0.97014250 -0.24253563 0.00000000
vn 1.00000000 0.00000000 0.00000000
vn 1.00000000 0.00000000 0.00000000
vn 1.00000000 0.00000000 0.00000000
vn 1.00000000 0.00000000 0.00000000
vn 1.00000000 0.00000000 0.00000000
vn 1.00000000 0.00000000 0.00000000
vn 0.97014250 0.00000000 0.24253563
vn 0.97014250 0.00000000 0.24253563
vn 0.97014250 0.00000000 0.24253563
vn 0.97014250 0.00000000 0.24253563
vn 0.97014250 0.00000000 -0.24253563
vn 0.97014250 0.00000000 -0.24253563
vn 0.97014250 0.00000000 -0.24253563
vn 0.97014250 0.00000000 -0.24253563
vn 0.97014250 0.24253563 0.00000000
vn 0.97014250 0.24253563 0.00000000
vn 0.97014250 0.24253563 0.00000000
vn 0.97014250 0.24253563 0.00000000
vn 1.00000000 -0.00000000 0.00000000
vn 1.00000000 -0.00000000 0.00000000
vn 1.00000000 -0.00000000 0.00000000
vn 1.00000000 -0.00000000 0.00000000
vn 0.97014250 0.00000000 0.24253563
vn 0.97014250 0.00000000 0.24253563
vn 0.97014250 0.00000000 0.24253563
vn 0.97014250 0.00000000 0.24253563
vn 0.97014250 0.00000000 -0.24253563
vn 0.97014250 0.00000000 -0.24253563
vn 0.97014250 0.00000000 -0.24253563
vn 0.97014250 0.24253563 0.00000000
vn 0.97014250 0.24253563 0.00000000
vn 0.97014250 0.24253563 0.00000000
vn 0.97014250 0.00000000 0.24253563
vn 0.97014250 0.00000000 0.24253563
vn 0.97014250 0.00000000 0.24253563
vn 1.00000000 0.00000000 0.00000000
vn 1.00000000 0.00000000 0.00000000
vn 1.00000000 0.00000000 0.00000000
vn 1.00000000 0.00000000 0.00000000
vn 0.97014250 -0.24253563 0.00000000
vn 0.97014250 -0.24253563 0.00000000
vn 0.97014250 -0.24253563 0.00000000
vn 0.97014250 -0.24253563 0.00000000
vn 0.97014250 -0.24253563 0.00000000
s 1
usemtl Stone_Brit_Gray
f 1/1/1 2/2/2 3/3/3
f 1/1/1 3/3/3 4/4/4
s 2
f 5/5/5 7/9/9 2/8/8
f 1/7/7 6/6/6 5/5/5
f 5/5/5 2/8/8 1/7/7
s 3
f 2/12/12 7/11/11 8/10/10
f 8/10/10 9/14/14 3/13/13
f 3/13/13 2/12/12 8/10/10
s 4
f 10/15/15 11/16/16 4/17/17
f 10/15/15 4/17/17 3/18/18
f 3/18/18 9/19/19 10/15/15
s 5
f 6/20/20 12/21/21 13/22/22
f 6/20/20 13/22/22 5/23/23
usemtl Stone_Brit_Gray_Light
f 27/57/56 7/56/55 5/55/23
f 28/58/57 27/57/56 5/55/23
s 6
usemtl Stone_Brit_Gray
f 13/24/24 14/25/25 15/26/26
f 30/120/116 15/119/26 41/123/119
f 41/123/119 40/122/118 30/120/116
f 40/122/118 38/121/117 30/120/116
f 13/24/24 15/26/26 5/27/27
s 7
f 16/28/28 17/29/29 14/31/31
f 17/29/29 15/30/30 14/31/31
s 8
f 12/32/32 16/33/33 14/34/34
f 12/32/32 14/34/34 13/35/35
s 9
f 1/39/39 4/38/38 11/37/37
f 11/37/37 25/50/50 24/49/49
f 24/49/49 22/47/47 21/46/46
f 21/46/46 19/44/44 17/43/43
f 17/43/43 12/41/41 6/40/40
f 17/43/43 16/42/42 12/41/41
f 21/46/46 20/45/45 19/44/44
f 24/49/49 23/48/48 22/47/47
f 11/37/37 18/36/36 25/50/50
f 24/49/49 1/39/39 11/37/37
f 24/49/49 21/46/46 1/39/39
f 21/46/46 17/43/43 1/39/39
f 17/43/43 6/40/40 1/39/39
s 10
usemtl Stone_Brit_Gray_Light
f 27/54/54 26/53/53 7/51/51
f 26/53/53 8/52/52 7/51/51
f 43/138/132 9/137/131 8/136/52
f 44/139/133 43/138/132 8/136/52
s 11
usemtl Stone_Brit_Gray
f 30/101/62 38/102/99 37/104/101
f 38/102/99 39/103/100 37/104/101
usemtl Stone_Brit_Gray_Light
f 28/61/60 5/60/59 15/59/58
f 15/59/58 30/63/62 29/62/61
f 29/62/61 28/61/60 15/59/58
s 12
f 28/64/63 29/65/64 27/67/66
f 29/65/64 26/66/65 27/67/66
s 13
f 29/71/70 30/70/69 31/69/68
f 31/69/68 8/68/67 26/72/71
f 26/72/71 29/71/70 31/69/68
s 14
f 10/76/75 32/75/74 11/73/72
f 32/75/74 18/74/73 11/73/72
f 43/135/130 10/133/75 9/132/128
f 43/135/130 42/134/129 10/133/75
s 15
usemtl Stone_Brit_Gray
f 33/93/76 36/95/93 35/96/94
f 33/93/76 31/94/92 36/95/93
usemtl Stone_Brit_Gray_Light
f 34/80/79 32/79/78 33/77/76
f 32/79/78 10/78/77 33/77/76
s 16
f 34/84/83 33/83/82 24/82/81
f 34/84/83 24/82/81 25/81/80
s 17
f 25/85/84 18/86/85 32/87/86
f 25/85/84 32/87/86 34/88/87
s 18
usemtl Stone_Brit_Gray
f 23/89/88 24/90/89 35/92/91
f 24/90/89 33/91/90 35/92/91
s 19
f 31/97/95 30/98/96 37/99/97
f 31/97/95 37/99/97 36/100/98
usemtl Stone_Brit_Gray_Light
f 44/142/135 8/141/134 31/140/95
f 45/143/136 44/142/135 31/140/95
s 20
usemtl Stone_Brit_Gray
f 39/107/104 22/106/103 23/105/102
f 35/110/107 36/109/106 39/107/104
f 39/107/104 23/105/102 35/110/107
f 36/109/106 37/108/105 39/107/104
s 21
f 21/111/108 22/112/109 38/114/111
f 22/112/109 39/113/110 38/114/111
s 22
f 38/118/115 40/117/114 21/115/112
f 40/117/114 20/116/113 21/115/112
s 23
f 19/124/120 20/125/121 40/126/122
f 19/124/120 40/126/122 41/127/123
s 24
f 41/131/127 15/130/126 17/129/125
f 41/131/127 17/129/125 19/128/124
s 25
usemtl Stone_Brit_Gray_Light
f 45/144/137 42/145/138 44/147/140
f 42/145/138 43/146/139 44/147/140
s 26
f 33/148/141 10/152/145 42/151/144
f 42/151/144 45/150/143 33/148/141
f 45/150/143 31/149/142 33/148/141
o object2
g object2
v 0.60000000 1.35000000 -0.35000000
v 0.60000000 0.00000000 -0.35000000
v 0.60000000 0.00000000 -0.50000000
v 0.60000000 1.35000000 -0.50000000
v 0.30000000 1.35000000 -0.35000000
v 0.30000000 0.00000000 -0.35000000
v 0.30000000 1.50000000 -0.50000000
v 0.30000000 1.50000000 0.50000000
v 0.30000000 1.35000000 0.50000000
v 0.30000000 0.00000000 0.50000000
v 0.30000000 0.00000000 0.35000000
v 0.30000000 1.35000000 0.35000000
v 0.30000000 0.00000000 -0.50000000
v 0.30000000 1.35000000 -0.50000000
v 0.60000000 0.00000000 0.50000000
v 0.60000000 1.35000000 0.50000000
v 0.60000000 0.00000000 0.35000000
v 0.60000000 1.35000000 0.35000000
v 0.30000000 1.55000000 0.55000000
v 0.30000000 1.55000000 -0.55000000
v 0.30000000 1.35000000 -0.55000000
v 0.30000000 1.35000000 0.55000000
v 0.65000000 1.55000000 -0.55000000
v 0.65000000 1.55000000 0.55000000
v 0.65000000 1.35000000 0.55000000
v 0.65000000 1.35000000 -0.55000000
vt 0.00000000 1.00000000
vt 0.00000000 0.00000000
vt 1.00000000 0.00000000
vt 1.00000000 1.00000000
vt 0.00000000 0.00000000
vt 1.00000000 0.00000000
vt 1.00000000 1.00000000
vt 0.00000000 1.00000000
vt 1.00000000 1.00000000
vt 0.00000000 1.00000000
vt 0.00000000 0.90000000
vt 0.00000000 0.00000000
vt 0.15000000 0.00000000
vt 0.15000000 0.90000000
vt 0.85000000 0.90000000
vt 0.85000000 0.00000000
vt 1.00000000 0.00000000
vt 1.00000000 0.90000000
vt 1.00000000 1.00000000
vt 0.00000000 1.00000000
vt 0.00000000 0.00000000
vt 1.00000000 0.00000000
vt 0.00000000 1.00000000
vt 0.00000000 0.00000000
vt 1.00000000 0.00000000
vt 1.00000000 1.00000000
vt 0.00000000 0.00000000
vt 1.00000000 0.00000000
vt 1.00000000 1.00000000
vt 0.00000000 1.00000000
vt 0.00000000 0.00000000
vt 1.00000000 0.00000000
vt 1.00000000 1.00000000
vt 0.00000000 1.00000000
vt 1.00000000 0.00000000
vt 1.00000000 1.00000000
vt 0.00000000 1.00000000
vt 0.00000000 0.95454545
vt 0.75000000 0.95454545
vt 0.75000000 0.04545455
vt 0.00000000 0.04545455
vt 0.00000000 0.00000000
vt 0.00000000 0.00000000
vt 1.00000000 0.00000000
vt 1.00000000 1.00000000
vt 0.00000000 1.00000000
vt 0.00000000 0.00000000
vt 1.00000000 0.00000000
vt 1.00000000 1.00000000
vt 0.00000000 1.00000000
vt 0.00000000 0.00000000
vt 1.00000000 0.00000000
vt 1.00000000 1.00000000
vt 0.00000000 1.00000000
vt 0.00000000 0.00000000
vt 1.00000000 0.00000000
vt 1.00000000 1.00000000
vt 0.00000000 1.00000000
vt 0.00000000 0.00000000
vt 1.00000000 0.00000000
vt 1.00000000 1.00000000
vt 0.00000000 1.00000000
vt 0.00000000 0.00000000
vt 0.04545455 0.00000000
vt 0.04545455 0.85714286
vt 0.18181818 0.85714286
vt 0.81818182 0.85714286
vt 0.95454545 0.85714286
vt 0.95454545 0.00000000
vt 1.00000000 0.00000000
vt 1.00000000 1.00000000
vt 0.00000000 1.00000000
vt 1.00000000 1.00000000
vt 0.00000000 1.00000000
vt 0.00000000 0.00000000
vt 1.00000000 0.00000000
vt 0.00000000 0.00000000
vt 1.00000000 0.00000000
vt 1.00000000 1.00000000
vt 0.00000000 1.00000000
vn 1.00000000 -0.00000000 -0.00000000
vn 1.00000000 -0.00000000 -0.00000000
vn 1.00000000 0.00000000 -0.00000000
vn 1.00000000 0.00000000 -0.00000000
vn 0.00000000 0.00000000 1.00000000
vn 0.00000000 0.00000000 1.00000000
vn 0.00000000 0.00000000 1.00000000
vn 0.00000000 0.00000000 1.00000000
vn -1.00000000 0.00000000 0.00000000
vn -1.00000000 0.00000000 0.00000000
vn -1.00000000 0.00000000 0.00000000
vn -1.00000000 0.00000000 0.00000000
vn -1.00000000 0.00000000 0.00000000
vn -1.00000000 0.00000000 0.00000000
vn -1.00000000 0.00000000 0.00000000
vn -1.00000000 0.00000000 0.00000000
vn -1.00000000 0.00000000 0.00000000
vn -1.00000000 0.00000000 0.00000000
vn 0.00000000 -0.00000000 1.00000000
vn 0.00000000 -0.00000000 1.00000000
vn 0.00000000 -0.00000000 1.00000000
vn 0.00000000 -0.00000000 1.00000000
vn 1.00000000 0.00000000 -0.00000000
vn 1.00000000 0.00000000 -0.00000000
vn 1.00000000 0.00000000 -0.00000000
vn 1.00000000 0.00000000 -0.00000000
vn 0.00000000 -1.00000000 0.00000000
vn 0.00000000 -1.00000000 0.00000000
vn 0.00000000 -1.00000000 0.00000000
vn 0.00000000 -1.00000000 0.00000000
vn -0.00000000 0.00000000 -1.00000000
vn -0.00000000 0.00000000 -1.00000000
vn -0.00000000 0.00000000 -1.00000000
vn -0.00000000 0.00000000 -1.00000000
vn -1.00000000 0.00000000 0.00000000
vn -1.00000000 0.00000000 0.00000000
vn -1.00000000 0.00000000 0.00000000
vn -1.00000000 0.00000000 0.00000000
vn 0.00000000 1.00000000 0.00000000
vn 0.00000000 1.00000000 0.00000000
vn 0.00000000 1.00000000 0.00000000
vn 0.00000000 1.00000000 0.00000000
vn 1.00000000 0.00000000 0.00000000
vn 1.00000000 0.00000000 0.00000000
vn 1.00000000 0.00000000 0.00000000
vn 1.00000000 0.00000000 0.00000000
vn 0.00000000 0.00000000 1.00000000
vn 0.00000000 0.00000000 1.00000000
vn 0.00000000 0.00000000 1.00000000
vn 0.00000000 0.00000000 1.00000000
vn 0.00000000 0.00000000 -1.00000000
vn 0.00000000 0.00000000 -1.00000000
vn 0.00000000 0.00000000 -1.00000000
vn 0.00000000 0.00000000 -1.00000000
vn 0.00000000 -1.00000000 0.00000000
vn 0.00000000 -1.00000000 0.00000000
vn 0.00000000 -1.00000000 0.00000000
vn 0.00000000 -1.00000000 0.00000000
vn 0.00000000 -1.00000000 0.00000000
vn 0.00000000 -1.00000000 0.00000000
vn 0.00000000 -1.00000000 0.00000000
vn 0.00000000 -1.00000000 0.00000000
vn 0.00000000 -1.00000000 0.00000000
vn 0.00000000 -1.00000000 0.00000000
vn 0.00000000 -1.00000000 0.00000000
vn 0.00000000 -1.00000000 0.00000000
vn -0.00000000 0.00000000 -1.00000000
vn -0.00000000 0.00000000 -1.00000000
vn -0.00000000 0.00000000 -1.00000000
vn -0.00000000 0.00000000 -1.00000000
vn 0.00000000 -1.00000000 0.00000000
vn 0.00000000 -1.00000000 0.00000000
vn 0.00000000 -1.00000000 0.00000000
vn 0.00000000 -1.00000000 0.00000000
s 1
usemtl Wood_Darker
f 46/153/146 47/154/147 49/156/149
f 47/154/147 48/155/148 49/156/149
s 2
f 51/160/153 47/159/152 50/157/150
f 47/159/152 46/158/151 50/157/150
s 3
f 53/162/155 52/161/154 59/170/163
f 59/170/163 58/169/162 50/167/160
f 58/169/162 51/168/161 50/167/160
f 64/187/180 65/188/181 52/191/154
f 65/188/181 66/189/182 52/191/154
f 66/189/182 59/190/163 52/191/154
f 52/191/154 53/192/155 64/187/180
f 53/192/155 67/194/183 64/187/180
f 53/192/155 54/193/156 67/194/183
f 57/166/159 55/164/157 54/163/156
f 57/166/159 56/165/158 55/164/157
f 50/167/160 53/162/155 59/170/163
f 50/167/160 57/166/159 53/162/155
f 57/166/159 54/163/156 53/162/155
s 4
f 54/171/164 55/172/165 61/174/167
f 55/172/165 60/173/166 61/174/167
s 5
f 61/175/168 60/176/169 63/178/171
f 60/176/169 62/177/170 63/178/171
s 6
f 56/182/175 62/181/174 60/180/173
f 56/182/175 60/180/173 55/179/172
s 7
f 57/186/179 63/185/178 56/183/176
f 63/185/178 62/184/177 56/183/176
s 8
f 69/198/187 68/197/186 64/195/184
f 68/197/186 65/196/185 64/195/184
s 9
f 71/202/191 68/201/190 70/199/188
f 68/201/190 69/200/189 70/199/188
s 10
f 70/206/195 69/205/194 67/203/192
f 69/205/194 64/204/193 67/203/192
s 11
f 66/207/196 65/208/197 71/210/199
f 65/208/197 68/209/198 71/210/199
s 12
f 50/214/203 46/213/202 63/212/201
f 63/218/201 71/223/210 70/224/211
f 70/224/211 67/215/204 61/217/206
f 67/215/204 54/216/205 61/217/206
f 49/220/207 66/222/209 71/223/210
f 49/220/207 59/221/208 66/222/209
f 70/224/211 61/217/206 63/218/201
f 63/218/201 46/219/202 71/223/210
f 46/219/202 49/220/207 71/223/210
f 50/214/203 63/212/201 57/211/200
s 13
f 49/225/212 48/226/213 59/228/215
f 48/226/213 58/227/214 59/228/215
s 14
f 58/232/219 48/231/218 47/230/217
f 58/232/219 47/230/217 51/229/216
