mtllib Materials_Modular_Village.mtl
o object1
g object1
v -0.50000000 1.65980812 -0.48452379
v -0.50000000 1.58658068 -0.50000000
v -0.50000000 3.00000000 -0.50000000
v -0.50000000 3.00000000 1.50000000
v -0.50000000 1.58658068 1.50000000
v -0.50000000 1.65980812 1.48452379
v -0.50000000 1.93300673 1.29056923
v -0.50000000 2.11555220 1.00029570
v -0.50000000 2.17965365 0.65789474
v -0.50000000 2.17965365 0.34210526
v -0.50000000 2.11555220 -0.00029570
v -0.50000000 1.93300673 -0.29056923
v 0.50000000 1.65980812 -0.48452379
v 0.50000000 1.58658068 -0.50000000
v 0.50000000 3.00000000 -0.50000000
v 0.50000000 3.00000000 1.50000000
v 0.50000000 1.58658068 1.50000000
v 0.50000000 1.65980812 1.48452379
v 0.50000000 1.93300673 1.29056923
v 0.50000000 2.11555220 1.00029570
v 0.50000000 2.17965365 0.65789474
v 0.50000000 2.17965365 0.34210526
v 0.50000000 2.11555220 -0.00029570
v 0.50000000 1.93300673 -0.29056923
vt 0.99226190 0.05180871
vt 1.00000000 0.00000000
vt 1.00000000 1.00000000
vt 0.00000000 1.00000000
vt 0.00000000 0.00000000
vt 0.00773810 0.05180871
vt 0.10471539 0.24509786
vt 0.24985215 0.37424953
vt 0.42105263 0.41960157
vt 0.57894737 0.41960157
vt 0.75014785 0.37424953
vt 0.89528461 0.24509786
vt 0.99226190 0.05180871
vt 1.00000000 0.00000000
vt 1.00000000 1.00000000
vt 0.00000000 1.00000000
vt 0.00000000 0.00000000
vt 0.00773810 0.05180871
vt 0.10471539 0.24509786
vt 0.24985215 0.37424953
vt 0.42105263 0.41960157
vt 0.57894737 0.41960157
vt 0.75014785 0.37424953
vt 0.89528461 0.24509786
vt 0.00000000 1.00000000
vt 0.00000000 0.00000000
vt 1.00000000 0.00000000
vt 1.00000000 1.00000000
vt 0.00000000 1.00000000
vt 0.00000000 0.00000000
vt 1.00000000 0.00000000
vt 1.00000000 1.00000000
vt 0.00000000 1.00000000
vt 0.00000000 0.00000000
vt 1.00000000 0.00000000
vt 1.00000000 1.00000000
vt 0.00000000 1.00000000
vt 0.00000000 0.00000000
vt 1.00000000 0.00000000
vt 1.00000000 1.00000000
vt 0.00000000 1.00000000
vt 0.00000000 0.00000000
vt 1.00000000 0.00000000
vt 1.00000000 1.00000000
vt 0.00000000 1.00000000
vt 0.00000000 0.00000000
vt 1.00000000 0.00000000
vt 1.00000000 1.00000000
vt 0.00000000 1.00000000
vt 0.00000000 0.00000000
vt 1.00000000 0.00000000
vt 1.00000000 1.00000000
vt 0.00000000 1.00000000
vt 0.00000000 0.00000000
vt 1.00000000 0.00000000
vt 1.00000000 1.00000000
vt 0.00000000 1.00000000
vt 0.00000000 0.00000000
vt 1.00000000 0.00000000
vt 1.00000000 1.00000000
vt 0.00000000 1.00000000
vt 0.00000000 0.00000000
vt 1.00000000 0.00000000
vt 1.00000000 1.00000000
vt 0.00000000 1.00000000
vt 0.00000000 0.00000000
vt 1.00000000 0.00000000
vt 1.00000000 1.00000000
vt 0.00000000 1.00000000
vt 0.00000000 0.00000000
vt 1.00000000 0.00000000
vt 1.00000000 1.00000000
vn -1.00000000 0.00000000 0.00000000
vn -1.00000000 0.00000000 0.00000000
vn -1.00000000 0.00000000 0.00000000
vn -1.00000000 0.00000000 0.00000000
vn -1.00000000 0.00000000 0.00000000
vn -1.00000000 0.00000000 0.00000000
vn -1.00000000 0.00000000 0.00000000
vn -1.00000000 0.00000000 0.00000000
vn -1.00000000 0.00000000 0.00000000
vn -1.00000000 0.00000000 0.00000000
vn -1.00000000 0.00000000 0.00000000
vn -1.00000000 0.00000000 0.00000000
vn 1.00000000 -0.00000000 0.00000000
vn 1.00000000 -0.00000000 0.00000000
vn 1.00000000 -0.00000000 0.00000000
vn 1.00000000 -0.00000000 0.00000000
vn 1.00000000 -0.00000000 0.00000000
vn 1.00000000 -0.00000000 0.00000000
vn 1.00000000 -0.00000000 0.00000000
vn 1.00000000 -0.00000000 0.00000000
vn 1.00000000 -0.00000000 0.00000000
vn 1.00000000 -0.00000000 0.00000000
vn 1.00000000 -0.00000000 0.00000000
vn 1.00000000 -0.00000000 0.00000000
vn -0.00000000 -0.20677684 0.97838813
vn -0.00000000 -0.20677684 0.97838813
vn -0.00000000 -0.20677684 0.97838813
vn -0.00000000 -0.20677684 0.97838813
vn -0.00000000 0.00000000 -1.00000000
vn -0.00000000 0.00000000 -1.00000000
vn -0.00000000 0.00000000 -1.00000000
vn -0.00000000 0.00000000 -1.00000000
vn 0.00000000 1.00000000 0.00000000
vn 0.00000000 1.00000000 0.00000000
vn 0.00000000 1.00000000 0.00000000
vn 0.00000000 1.00000000 0.00000000
vn 0.00000000 0.00000000 1.00000000
vn 0.00000000 0.00000000 1.00000000
vn 0.00000000 0.00000000 1.00000000
vn 0.00000000 0.00000000 1.00000000
vn -0.00000000 -0.20677684 -0.97838813
vn -0.00000000 -0.20677684 -0.97838813
vn -0.00000000 -0.20677684 -0.97838813
vn -0.00000000 -0.20677684 -0.97838813
vn -0.00000000 -0.57888928 -0.81540615
vn -0.00000000 -0.57888928 -0.81540615
vn -0.00000000 -0.57888928 -0.81540615
vn -0.00000000 -0.57888928 -0.81540615
vn -0.00000000 -0.84652112 -0.53235513
vn -0.00000000 -0.84652112 -0.53235513
vn -0.00000000 -0.84652112 -0.53235513
vn -0.00000000 -0.84652112 -0.53235513
vn -0.00000000 -0.98292349 -0.18401472
vn -0.00000000 -0.98292349 -0.18401472
vn -0.00000000 -0.98292349 -0.18401472
vn -0.00000000 -0.98292349 -0.18401472
vn -0.00000000 -1.00000000 0.00000000
vn -0.00000000 -1.00000000 0.00000000
vn -0.00000000 -1.00000000 0.00000000
vn -0.00000000 -1.00000000 0.00000000
vn -0.00000000 -0.98292349 0.18401472
vn -0.00000000 -0.98292349 0.18401472
vn -0.00000000 -0.98292349 0.18401472
vn -0.00000000 -0.98292349 0.18401472
vn -0.00000000 -0.84652112 0.53235513
vn -0.00000000 -0.84652112 0.53235513
vn -0.00000000 -0.84652112 0.53235513
vn -0.00000000 -0.84652112 0.53235513
vn -0.00000000 -0.57888928 0.81540615
vn -0.00000000 -0.57888928 0.81540615
vn -0.00000000 -0.57888928 0.81540615
vn -0.00000000 -0.57888928 0.81540615
s 1
usemtl Stone_Brit_Gray
f 6/6/6 5/5/5 4/4/4
f 9/9/9 4/4/4 3/3/3
f 3/3/3 11/11/11 10/10/10
f 3/3/3 12/12/12 11/11/11
f 3/3/3 1/1/1 12/12/12
f 3/3/3 2/2/2 1/1/1
f 10/10/10 9/9/9 3/3/3
f 9/9/9 8/8/8 4/4/4
f 8/8/8 7/7/7 4/4/4
f 7/7/7 6/6/6 4/4/4
s 2
f 16/16/16 17/17/17 18/18/18
f 15/15/15 16/16/16 21/21/21
f 15/15/15 21/21/21 22/22/22
f 22/22/22 23/23/23 15/15/15
f 23/23/23 24/24/24 15/15/15
f 24/24/24 13/13/13 15/15/15
f 13/13/13 14/14/14 15/15/15
f 16/16/16 20/20/20 21/21/21
f 16/16/16 19/19/19 20/20/20
f 16/16/16 18/18/18 19/19/19
s 3
f 14/28/28 13/27/27 2/25/25
f 13/27/27 1/26/26 2/25/25
s 4
f 15/32/32 14/31/31 3/29/29
f 14/31/31 2/30/30 3/29/29
s 5
f 16/36/36 15/35/35 4/33/33
f 15/35/35 3/34/34 4/33/33
s 6
f 17/40/40 16/39/39 5/37/37
f 16/39/39 4/38/38 5/37/37
s 7
f 18/44/44 17/43/43 6/41/41
f 17/43/43 5/42/42 6/41/41
s 8
f 19/48/48 18/47/47 7/45/45
f 18/47/47 6/46/46 7/45/45
s 9
f 20/52/52 19/51/51 8/49/49
f 19/51/51 7/50/50 8/49/49
s 10
f 21/56/56 20/55/55 9/53/53
f 20/55/55 8/54/54 9/53/53
s 11
f 22/60/60 21/59/59 10/57/57
f 21/59/59 9/58/58 10/57/57
s 12
f 23/64/64 22/63/63 11/61/61
f 22/63/63 10/62/62 11/61/61
s 13
f 24/68/68 23/67/67 12/65/65
f 23/67/67 11/66/66 12/65/65
s 14
f 13/72/72 24/71/71 1/69/69
f 24/71/71 12/70/70 1/69/69
