mtllib Materials_Modular_Village.mtl
o object1
g object1
v -0.50000000 1.50000000 0.50000000
v -0.50000000 2.00000000 0.50000000
v -0.50000000 2.00000000 -0.50000000
v -0.50000000 1.50000000 -0.50000000
v 0.50000000 1.60000000 0.50000000
v 0.50000000 1.50000000 0.50000000
v 0.50000000 2.00000000 0.50000000
v 0.50000000 2.00000000 0.15000000
v 0.50000000 2.00000000 -0.50000000
v 0.50000000 2.00000000 -0.05000000
v 0.50000000 1.50000000 -0.50000000
v 0.50625000 1.50000000 0.47500000
v 0.50625000 1.57500000 0.47500000
v 0.50625000 1.50000000 -0.02500000
v 0.50625000 1.57500000 -0.02500000
v 0.50000000 1.50000000 -0.05000000
v 0.50000000 1.60000000 -0.05000000
v 0.50000000 1.60000000 0.15000000
v 0.50625000 1.97500000 0.17500000
v 0.50625000 1.97500000 0.47500000
v 0.50625000 1.62500000 0.47500000
v 0.50625000 1.62500000 0.17500000
v 0.50625000 1.52500000 -0.47500000
v 0.50625000 1.97500000 -0.47500000
v 0.50625000 1.97500000 -0.07500000
v 0.50625000 1.52500000 -0.07500000
v 0.50625000 1.97500000 -0.02500000
v 0.50625000 1.97500000 0.12500000
v 0.50625000 1.62500000 0.12500000
v 0.50625000 1.62500000 -0.02500000
vt 0.00000000 0.00000000
vt 1.00000000 0.00000000
vt 1.00000000 1.00000000
vt 0.00000000 1.00000000
vt 0.00000000 0.20000000
vt 0.00000000 0.00000000
vt 1.00000000 0.00000000
vt 1.00000000 1.00000000
vt 0.00000000 1.00000000
vt 0.00000000 0.35000000
vt 0.00000000 0.00000000
vt 1.00000000 0.00000000
vt 1.00000000 1.00000000
vt 0.00000000 1.00000000
vt 0.00000000 0.55000000
vt 1.00000000 1.00000000
vt 0.00000000 1.00000000
vt 0.00000000 0.00000000
vt 1.00000000 0.00000000
vt 1.00000000 0.87500000
vt 0.00000000 1.00000000
vt 0.00000000 0.00000000
vt 1.00000000 0.00000000
vt 1.00000000 0.00000000
vt 1.00000000 1.00000000
vt 0.00000000 1.00000000
vt 0.00000000 0.00000000
vt 0.00000000 0.00000000
vt 1.00000000 0.12500000
vt 1.00000000 1.00000000
vt 0.00000000 1.00000000
vt 0.00000000 0.00000000
vt 1.00000000 0.00000000
vt 1.00000000 1.00000000
vt 0.00000000 1.00000000
vt 0.00000000 0.36363636
vt 0.00621118 0.45000000
vt 0.00621118 0.00000000
vt 1.00000000 0.00000000
vt 1.00000000 1.00000000
vt 0.00621118 1.00000000
vt 0.00000000 0.97500000
vt 0.00000000 0.47500000
vt 0.00000000 1.00000000
vt 0.00000000 0.00000000
vt 1.00000000 0.00000000
vt 1.00000000 1.00000000
vt 0.00000000 1.00000000
vt 0.00000000 0.00000000
vt 1.00000000 0.00000000
vt 1.00000000 1.00000000
vt 0.00000000 1.00000000
vt 0.00000000 0.00000000
vt 1.00000000 0.00000000
vt 1.00000000 1.00000000
vt 1.00000000 0.00000000
vt 1.00000000 1.00000000
vt 0.00000000 1.00000000
vt 0.00000000 0.00000000
vt 0.00000000 1.00000000
vt 0.00000000 0.00000000
vt 1.00000000 0.00000000
vt 1.00000000 1.00000000
vt 0.00000000 1.00000000
vt 0.00000000 0.00000000
vt 1.00000000 0.00000000
vt 1.00000000 1.00000000
vt 0.00000000 1.00000000
vt 0.00000000 0.00000000
vt 1.00000000 0.00000000
vt 1.00000000 1.00000000
vt 0.00000000 0.80000000
vt 0.00000000 0.00000000
vt 1.00000000 0.00000000
vt 1.00000000 1.00000000
vt 0.00000000 1.00000000
vt 1.00000000 0.00000000
vt 1.00000000 1.00000000
vt 0.00000000 1.00000000
vt 0.00000000 0.00000000
vt 0.00000000 1.00000000
vt 0.00000000 0.00000000
vt 1.00000000 0.00000000
vt 1.00000000 1.00000000
vt 0.00000000 1.00000000
vt 0.00000000 0.00000000
vt 1.00000000 0.00000000
vt 1.00000000 1.00000000
vt 0.00000000 1.00000000
vt 0.00000000 0.00000000
vt 1.00000000 0.00000000
vt 1.00000000 1.00000000
vt 0.00000000 1.00000000
vt 0.00000000 0.00000000
vt 1.00000000 0.00000000
vt 1.00000000 1.00000000
vt 1.00000000 0.00000000
vt 1.00000000 1.00000000
vt 0.00000000 1.00000000
vt 0.00000000 0.00000000
vt 0.00000000 1.00000000
vt 0.00000000 0.00000000
vt 1.00000000 0.00000000
vt 1.00000000 1.00000000
vn -1.00000000 -0.00000000 0.00000000
vn -1.00000000 -0.00000000 0.00000000
vn -1.00000000 -0.00000000 0.00000000
vn -1.00000000 -0.00000000 0.00000000
vn 0.00000000 0.00000000 1.00000000
vn 0.00000000 0.00000000 1.00000000
vn 0.00000000 0.00000000 1.00000000
vn 0.00000000 0.00000000 1.00000000
vn 0.00000000 0.00000000 1.00000000
vn -0.00000000 1.00000000 0.00000000
vn -0.00000000 1.00000000 0.00000000
vn -0.00000000 1.00000000 0.00000000
vn -0.00000000 1.00000000 0.00000000
vn -0.00000000 1.00000000 0.00000000
vn -0.00000000 1.00000000 0.00000000
vn 0.00000000 0.00000000 -1.00000000
vn 0.00000000 0.00000000 -1.00000000
vn 0.00000000 0.00000000 -1.00000000
vn 0.00000000 0.00000000 -1.00000000
vn 0.97014250 0.00000000 0.24253563
vn 0.97014250 0.00000000 0.24253563
vn 0.97014250 0.00000000 0.24253563
vn 0.97014250 0.00000000 0.24253563
vn 1.00000000 0.00000000 0.00000000
vn 1.00000000 0.00000000 0.00000000
vn 1.00000000 0.00000000 0.00000000
vn 1.00000000 0.00000000 0.00000000
vn 0.97014250 0.00000000 -0.24253563
vn 0.97014250 0.00000000 -0.24253563
vn 0.97014250 0.00000000 -0.24253563
vn 0.97014250 0.00000000 -0.24253563
vn 0.97014250 0.24253563 0.00000000
vn 0.97014250 0.24253563 0.00000000
vn 0.97014250 0.24253563 0.00000000
vn 0.97014250 0.24253563 0.00000000
vn 0.97014250 0.24253563 0.00000000
vn 0.00000000 -1.00000000 0.00000000
vn 0.00000000 -1.00000000 0.00000000
vn 0.00000000 -1.00000000 0.00000000
vn 0.00000000 -1.00000000 0.00000000
vn 0.00000000 -1.00000000 0.00000000
vn 0.00000000 -1.00000000 0.00000000
vn 0.00000000 -1.00000000 0.00000000
vn 0.97014250 0.24253563 0.00000000
vn 0.97014250 0.24253563 0.00000000
vn 0.97014250 0.24253563 0.00000000
vn 0.97014250 0.24253563 0.00000000
vn 0.97014250 0.00000000 0.24253563
vn 0.97014250 0.00000000 0.24253563
vn 0.97014250 0.00000000 0.24253563
vn 0.97014250 -0.24253563 0.00000000
vn 0.97014250 -0.24253563 0.00000000
vn 0.97014250 -0.24253563 0.00000000
vn 0.97014250 -0.24253563 0.00000000
vn 1.00000000 0.00000000 0.00000000
vn 1.00000000 0.00000000 0.00000000
vn 1.00000000 0.00000000 0.00000000
vn 1.00000000 0.00000000 0.00000000
vn 0.97014250 0.00000000 -0.24253563
vn 0.97014250 0.00000000 -0.24253563
vn 0.97014250 -0.00000000 -0.24253563
vn 0.97014250 -0.00000000 -0.24253563
vn 0.97014250 0.00000000 -0.24253563
vn 0.97014250 0.00000000 -0.24253563
vn 0.97014250 0.00000000 -0.24253563
vn 0.97014250 0.00000000 -0.24253563
vn 0.97014250 0.24253563 0.00000000
vn 0.97014250 0.24253563 0.00000000
vn 0.97014250 0.24253563 0.00000000
vn 0.97014250 0.24253563 0.00000000
vn 0.97014250 0.00000000 0.24253563
vn 0.97014250 0.00000000 0.24253563
vn 0.97014250 0.00000000 0.24253563
vn 0.97014250 0.00000000 0.24253563
vn 0.97014250 0.00000000 0.24253563
vn 1.00000000 0.00000000 0.00000000
vn 1.00000000 0.00000000 0.00000000
vn 1.00000000 0.00000000 0.00000000
vn 1.00000000 0.00000000 0.00000000
vn 0.97014250 -0.24253563 0.00000000
vn 0.97014250 -0.24253563 0.00000000
vn 0.97014250 -0.24253563 0.00000000
vn 0.97014250 -0.24253563 0.00000000
vn 0.97014250 0.24253563 -0.00000000
vn 0.97014250 0.24253563 -0.00000000
vn 0.97014250 0.00000000 0.24253563
vn 0.97014250 0.00000000 0.24253563
vn 0.97014250 -0.00000000 0.24253563
vn 0.97014250 -0.00000000 0.24253563
vn 0.97014250 -0.24253563 0.00000000
vn 0.97014250 -0.24253563 0.00000000
vn 0.97014250 -0.24253563 0.00000000
vn 1.00000000 0.00000000 0.00000000
vn 1.00000000 0.00000000 0.00000000
vn 1.00000000 0.00000000 0.00000000
vn 1.00000000 0.00000000 0.00000000
vn 0.97014250 0.00000000 -0.24253563
vn 0.97014250 0.00000000 -0.24253563
vn 0.97014250 0.00000000 -0.24253563
s 1
usemtl Stone_Brit_Gray
f 1/1/1 2/2/2 3/3/3
f 1/1/1 3/3/3 4/4/4
s 2
f 5/5/5 7/9/9 2/8/8
f 1/7/7 6/6/6 5/5/5
f 5/5/5 2/8/8 1/7/7
s 3
f 2/12/12 7/11/11 8/10/10
f 10/15/15 2/12/12 8/10/10
f 10/15/15 9/14/14 3/13/13
f 10/15/15 3/13/13 2/12/12
s 4
f 3/16/16 9/17/17 4/19/19
f 9/17/17 11/18/18 4/19/19
s 5
f 13/23/23 5/22/22 6/21/21
f 20/50/49 7/49/48 5/48/22
f 21/51/50 20/50/49 5/48/22
f 13/23/23 6/21/21 12/20/20
s 6
f 12/24/24 14/25/25 13/27/27
f 14/25/25 15/26/26 13/27/27
s 7
f 17/31/31 15/30/30 16/28/28
f 15/30/30 14/29/29 16/28/28
usemtl Stone_Brit_Gray_Light
f 30/103/98 17/102/31 10/101/97
f 27/104/99 30/103/98 10/101/97
s 8
usemtl Stone_Brit_Gray
f 15/33/33 17/32/32 18/36/36
f 18/36/36 5/35/35 13/34/34
f 18/36/36 13/34/34 15/33/33
s 9
f 4/39/39 11/38/38 16/37/37
f 14/43/43 6/41/41 16/37/37
f 14/43/43 12/42/42 6/41/41
f 6/41/41 1/40/40 16/37/37
f 1/40/40 4/39/39 16/37/37
s 10
f 20/47/47 19/46/46 7/44/44
f 19/46/46 8/45/45 7/44/44
f 24/70/69 9/69/68 10/68/67
f 25/71/70 24/70/69 10/68/67
usemtl Stone_Brit_Gray_Light
f 27/87/84 10/86/67 8/85/45
f 28/88/85 27/87/84 8/85/45
s 11
usemtl Stone_Brit_Gray
f 22/55/54 21/54/53 18/52/51
f 21/54/53 5/53/52 18/52/51
usemtl Stone_Brit_Gray_Light
f 29/95/91 18/94/51 17/93/90
f 30/96/92 29/95/91 17/93/90
s 12
usemtl Stone_Brit_Gray
f 21/56/55 22/57/56 20/59/58
f 22/57/56 19/58/57 20/59/58
s 13
f 19/63/62 22/62/61 8/60/59
f 22/62/61 18/61/60 8/60/59
s 14
f 24/67/66 23/66/65 9/64/63
f 23/66/65 11/65/64 9/64/63
s 15
f 17/72/71 16/76/75 26/75/74
f 26/75/74 25/74/73 17/72/71
f 25/74/73 10/73/72 17/72/71
s 16
f 26/77/76 23/78/77 25/80/79
f 23/78/77 24/79/78 25/80/79
s 17
f 23/84/83 26/83/82 11/81/80
f 26/83/82 16/82/81 11/81/80
s 18
usemtl Stone_Brit_Gray_Light
f 29/92/89 28/91/88 18/89/86
f 28/91/88 8/90/87 18/89/86
s 19
f 29/97/93 30/98/94 28/100/96
f 30/98/94 27/99/95 28/100/96
o object2
g object2
v 0.30000000 1.35000000 0.55000000
v 0.30000000 1.35000000 0.50000000
v 0.60000000 1.35000000 0.50000000
v 0.60000000 1.35000000 0.35000000
v 0.60000000 1.35000000 -0.35000000
v 0.60000000 1.35000000 -0.50000000
v 0.30000000 1.35000000 -0.50000000
v 0.30000000 1.35000000 -0.55000000
v 0.65000000 1.35000000 -0.55000000
v 0.65000000 1.35000000 0.55000000
v 0.30000000 1.55000000 0.55000000
v 0.65000000 1.55000000 0.55000000
v 0.30000000 1.55000000 -0.55000000
v 0.65000000 1.55000000 -0.55000000
v 0.30000000 1.50000000 -0.50000000
v 0.30000000 1.50000000 0.50000000
v 0.30000000 0.00000000 0.50000000
v 0.30000000 0.00000000 0.35000000
v 0.30000000 1.35000000 0.35000000
v 0.30000000 1.35000000 -0.35000000
v 0.30000000 0.00000000 -0.35000000
v 0.30000000 0.00000000 -0.50000000
v 0.60000000 0.00000000 0.50000000
v 0.60000000 0.00000000 0.35000000
v 0.60000000 0.00000000 -0.35000000
v 0.60000000 0.00000000 -0.50000000
vt 0.00000000 0.00000000
vt 0.04545455 0.00000000
vt 0.04545455 0.85714286
vt 0.18181818 0.85714286
vt 0.81818182 0.85714286
vt 0.95454545 0.85714286
vt 0.95454545 0.00000000
vt 1.00000000 0.00000000
vt 1.00000000 1.00000000
vt 0.00000000 1.00000000
vt 0.00000000 0.00000000
vt 1.00000000 0.00000000
vt 1.00000000 1.00000000
vt 0.00000000 1.00000000
vt 0.00000000 0.00000000
vt 1.00000000 0.00000000
vt 1.00000000 1.00000000
vt 0.00000000 1.00000000
vt 0.00000000 0.00000000
vt 1.00000000 0.00000000
vt 1.00000000 1.00000000
vt 0.00000000 1.00000000
vt 0.00000000 0.00000000
vt 1.00000000 0.00000000
vt 1.00000000 1.00000000
vt 0.00000000 1.00000000
vt 1.00000000 0.00000000
vt 1.00000000 1.00000000
vt 0.00000000 1.00000000
vt 0.00000000 0.95454545
vt 0.75000000 0.95454545
vt 0.75000000 0.04545455
vt 0.00000000 0.04545455
vt 0.00000000 0.00000000
vt 1.00000000 1.00000000
vt 0.00000000 1.00000000
vt 0.00000000 0.90000000
vt 0.00000000 0.00000000
vt 0.15000000 0.00000000
vt 0.15000000 0.90000000
vt 0.85000000 0.90000000
vt 0.85000000 0.00000000
vt 1.00000000 0.00000000
vt 1.00000000 0.90000000
vt 0.00000000 0.00000000
vt 1.00000000 0.00000000
vt 1.00000000 1.00000000
vt 0.00000000 1.00000000
vt 0.00000000 0.00000000
vt 1.00000000 0.00000000
vt 1.00000000 1.00000000
vt 0.00000000 1.00000000
vt 0.00000000 0.00000000
vt 1.00000000 0.00000000
vt 1.00000000 1.00000000
vt 0.00000000 1.00000000
vt 0.00000000 0.00000000
vt 1.00000000 0.00000000
vt 1.00000000 1.00000000
vt 0.00000000 1.00000000
vt 1.00000000 1.00000000
vt 0.00000000 1.00000000
vt 0.00000000 0.00000000
vt 1.00000000 0.00000000
vt 0.00000000 1.00000000
vt 0.00000000 0.00000000
vt 1.00000000 0.00000000
vt 1.00000000 1.00000000
vt 0.00000000 0.00000000
vt 1.00000000 0.00000000
vt 1.00000000 1.00000000
vt 0.00000000 1.00000000
vt 0.00000000 1.00000000
vt 0.00000000 0.00000000
vt 1.00000000 0.00000000
vt 1.00000000 1.00000000
vt 1.00000000 1.00000000
vt 0.00000000 1.00000000
vt 0.00000000 0.00000000
vt 1.00000000 0.00000000
vn 0.00000000 -1.00000000 0.00000000
vn 0.00000000 -1.00000000 0.00000000
vn 0.00000000 -1.00000000 0.00000000
vn 0.00000000 -1.00000000 0.00000000
vn 0.00000000 -1.00000000 0.00000000
vn 0.00000000 -1.00000000 0.00000000
vn 0.00000000 -1.00000000 0.00000000
vn 0.00000000 -1.00000000 0.00000000
vn 0.00000000 -1.00000000 0.00000000
vn 0.00000000 -1.00000000 0.00000000
vn 0.00000000 0.00000000 1.00000000
vn 0.00000000 0.00000000 1.00000000
vn 0.00000000 0.00000000 1.00000000
vn 0.00000000 0.00000000 1.00000000
vn 0.00000000 1.00000000 0.00000000
vn 0.00000000 1.00000000 0.00000000
vn 0.00000000 1.00000000 0.00000000
vn 0.00000000 1.00000000 0.00000000
vn 1.00000000 0.00000000 0.00000000
vn 1.00000000 0.00000000 0.00000000
vn 1.00000000 0.00000000 0.00000000
vn 1.00000000 0.00000000 0.00000000
vn 0.00000000 0.00000000 -1.00000000
vn 0.00000000 0.00000000 -1.00000000
vn 0.00000000 0.00000000 -1.00000000
vn 0.00000000 0.00000000 -1.00000000
vn -1.00000000 0.00000000 0.00000000
vn -1.00000000 0.00000000 0.00000000
vn -1.00000000 0.00000000 0.00000000
vn -1.00000000 0.00000000 0.00000000
vn -1.00000000 0.00000000 0.00000000
vn -1.00000000 0.00000000 0.00000000
vn -1.00000000 0.00000000 0.00000000
vn -1.00000000 0.00000000 0.00000000
vn -1.00000000 0.00000000 0.00000000
vn -1.00000000 0.00000000 0.00000000
vn -1.00000000 0.00000000 0.00000000
vn -1.00000000 0.00000000 0.00000000
vn -1.00000000 0.00000000 0.00000000
vn -1.00000000 0.00000000 0.00000000
vn 0.00000000 -1.00000000 0.00000000
vn 0.00000000 -1.00000000 0.00000000
vn 0.00000000 -1.00000000 0.00000000
vn 0.00000000 -1.00000000 0.00000000
vn -0.00000000 0.00000000 -1.00000000
vn -0.00000000 0.00000000 -1.00000000
vn -0.00000000 0.00000000 -1.00000000
vn -0.00000000 0.00000000 -1.00000000
vn 0.00000000 0.00000000 1.00000000
vn 0.00000000 0.00000000 1.00000000
vn 0.00000000 0.00000000 1.00000000
vn 0.00000000 0.00000000 1.00000000
vn 0.00000000 -1.00000000 0.00000000
vn 0.00000000 -1.00000000 0.00000000
vn 0.00000000 -1.00000000 0.00000000
vn 0.00000000 -1.00000000 0.00000000
vn -0.00000000 0.00000000 -1.00000000
vn -0.00000000 0.00000000 -1.00000000
vn -0.00000000 0.00000000 -1.00000000
vn -0.00000000 0.00000000 -1.00000000
vn 1.00000000 -0.00000000 -0.00000000
vn 1.00000000 -0.00000000 -0.00000000
vn 1.00000000 -0.00000000 -0.00000000
vn 1.00000000 -0.00000000 -0.00000000
vn 0.00000000 -1.00000000 0.00000000
vn 0.00000000 -1.00000000 0.00000000
vn 1.00000000 0.00000000 -0.00000000
vn 1.00000000 0.00000000 -0.00000000
vn 1.00000000 0.00000000 -0.00000000
vn 1.00000000 0.00000000 -0.00000000
vn 0.00000000 -0.00000000 1.00000000
vn 0.00000000 -0.00000000 1.00000000
vn 0.00000000 -0.00000000 1.00000000
vn 0.00000000 -0.00000000 1.00000000
s 1
usemtl Wood_Darker
f 31/105/100 32/106/101 33/107/102
f 40/114/109 33/107/102 34/108/103
f 50/176/165 34/174/103 49/173/164
f 50/176/165 35/175/104 34/174/103
f 35/109/104 36/110/105 39/113/108
f 36/110/105 38/112/107 39/113/108
f 36/110/105 37/111/106 38/112/107
f 34/108/103 35/109/104 39/113/108
f 34/108/103 39/113/108 40/114/109
f 40/114/109 31/105/100 33/107/102
s 2
f 40/118/113 42/117/112 31/115/110
f 42/117/112 41/116/111 31/115/110
s 3
f 42/122/117 44/121/116 41/119/114
f 44/121/116 43/120/115 41/119/114
s 4
f 39/126/121 44/125/120 40/123/118
f 44/125/120 42/124/119 40/123/118
s 5
f 38/127/122 43/128/123 39/130/125
f 43/128/123 44/129/124 39/130/125
s 6
f 38/133/128 37/134/129 45/135/130
f 41/131/126 43/132/127 45/135/130
f 46/136/131 31/138/133 41/131/126
f 50/145/137 49/144/136 46/140/131
f 49/144/136 47/142/134 32/141/132
f 49/144/136 48/143/135 47/142/134
f 52/147/139 51/146/138 50/145/137
f 49/144/136 32/141/132 46/140/131
f 46/136/131 32/137/132 31/138/133
f 45/135/130 46/136/131 41/131/126
f 37/148/129 52/147/139 50/145/137
f 50/145/137 46/140/131 37/148/129
f 46/140/131 45/139/130 37/148/129
f 43/132/127 38/133/128 45/135/130
s 7
f 48/152/143 54/151/142 53/150/141
f 48/152/143 53/150/141 47/149/140
s 8
f 49/156/147 34/155/146 48/153/144
f 34/155/146 54/154/145 48/153/144
s 9
f 51/160/151 55/159/150 50/157/148
f 55/159/150 35/158/149 50/157/148
s 10
f 52/164/155 56/163/154 55/162/153
f 52/164/155 55/162/153 51/161/152
s 11
f 36/165/156 56/166/157 37/168/159
f 56/166/157 52/167/158 37/168/159
s 12
f 35/169/160 55/170/161 36/172/163
f 55/170/161 56/171/162 36/172/163
s 13
f 33/177/166 53/178/167 34/180/169
f 53/178/167 54/179/168 34/180/169
s 14
f 32/181/170 47/182/171 33/184/173
f 47/182/171 53/183/172 33/184/173
