mtllib Materials_Modular_Village.mtl
o object1
g object1
v -0.70000000 0.67500000 0.50000000
v -0.72500000 0.70000000 0.50000000
v -1.10000000 0.70000000 0.50000000
v -1.10000000 0.87500000 0.50000000
v -1.12500000 0.90000000 0.50000000
v -1.50000000 0.90000000 0.50000000
v -1.50000000 -0.20000000 0.50000000
v 0.50000000 -0.20000000 0.50000000
v 0.50000000 0.07500000 0.50000000
v 0.47500000 0.10000000 0.50000000
v 0.10000000 0.10000000 0.50000000
v 0.10000000 0.27500000 0.50000000
v 0.07500000 0.30000000 0.50000000
v -0.30000000 0.30000000 0.50000000
v -0.30000000 0.47500000 0.50000000
v -0.32500000 0.50000000 0.50000000
v -0.70000000 0.50000000 0.50000000
v -0.70000000 0.67500000 -0.50000000
v -0.72500000 0.70000000 -0.50000000
v -1.10000000 0.70000000 -0.50000000
v -1.10000000 0.87500000 -0.50000000
v -1.12500000 0.90000000 -0.50000000
v -1.50000000 0.90000000 -0.50000000
v -1.50000000 -0.20000000 -0.50000000
v 0.50000000 -0.20000000 -0.50000000
v 0.50000000 0.07500000 -0.50000000
v 0.47500000 0.10000000 -0.50000000
v 0.10000000 0.10000000 -0.50000000
v 0.10000000 0.27500000 -0.50000000
v 0.07500000 0.30000000 -0.50000000
v -0.30000000 0.30000000 -0.50000000
v -0.30000000 0.47500000 -0.50000000
v -0.32500000 0.50000000 -0.50000000
v -0.70000000 0.50000000 -0.50000000
vt 0.40000000 0.79545455
vt 0.38750000 0.81818182
vt 0.20000000 0.81818182
vt 0.20000000 0.97727273
vt 0.18750000 1.00000000
vt 0.00000000 1.00000000
vt 0.00000000 0.00000000
vt 1.00000000 0.00000000
vt 1.00000000 0.25000000
vt 0.98750000 0.27272727
vt 0.80000000 0.27272727
vt 0.80000000 0.43181818
vt 0.78750000 0.45454545
vt 0.60000000 0.45454545
vt 0.60000000 0.61363636
vt 0.58750000 0.63636364
vt 0.40000000 0.63636364
vt 1.00000000 0.00000000
vt 1.00000000 1.00000000
vt 0.00000000 1.00000000
vt 0.00000000 0.00000000
vt 0.40000000 0.79545455
vt 0.38750000 0.81818182
vt 0.20000000 0.81818182
vt 0.20000000 0.97727273
vt 0.18750000 1.00000000
vt 0.00000000 1.00000000
vt 0.00000000 0.00000000
vt 1.00000000 0.00000000
vt 1.00000000 0.25000000
vt 0.98750000 0.27272727
vt 0.80000000 0.27272727
vt 0.80000000 0.43181818
vt 0.78750000 0.45454545
vt 0.60000000 0.45454545
vt 0.60000000 0.61363636
vt 0.58750000 0.63636364
vt 0.40000000 0.63636364
vt 0.00000000 1.00000000
vt 0.00000000 0.00000000
vt 1.00000000 0.00000000
vt 1.00000000 1.00000000
vt 1.00000000 0.00000000
vt 1.00000000 1.00000000
vt 0.00000000 1.00000000
vt 0.00000000 0.00000000
vt 1.00000000 0.00000000
vt 1.00000000 1.00000000
vt 0.00000000 1.00000000
vt 0.00000000 0.00000000
vt 0.00000000 1.00000000
vt 0.00000000 0.00000000
vt 1.00000000 0.00000000
vt 1.00000000 1.00000000
vt 1.00000000 0.00000000
vt 1.00000000 1.00000000
vt 0.00000000 1.00000000
vt 0.00000000 0.00000000
vt 1.00000000 0.00000000
vt 1.00000000 1.00000000
vt 0.00000000 1.00000000
vt 0.00000000 0.00000000
vt 0.00000000 1.00000000
vt 0.00000000 0.00000000
vt 1.00000000 0.00000000
vt 1.00000000 1.00000000
vt 1.00000000 0.00000000
vt 1.00000000 1.00000000
vt 0.00000000 1.00000000
vt 0.00000000 0.00000000
vt 1.00000000 0.00000000
vt 1.00000000 1.00000000
vt 0.00000000 1.00000000
vt 0.00000000 0.00000000
vt 0.00000000 1.00000000
vt 0.00000000 0.00000000
vt 1.00000000 0.00000000
vt 1.00000000 1.00000000
vt 0.00000000 0.00000000
vt 1.00000000 0.00000000
vt 1.00000000 1.00000000
vt 0.00000000 1.00000000
vt 0.00000000 0.00000000
vt 1.00000000 0.00000000
vt 1.00000000 1.00000000
vt 0.00000000 1.00000000
vt 1.00000000 0.00000000
vt 1.00000000 1.00000000
vt 0.00000000 1.00000000
vt 0.00000000 0.00000000
vt 1.00000000 0.00000000
vt 1.00000000 1.00000000
vt 0.00000000 1.00000000
vt 0.00000000 0.00000000
vt 0.00000000 1.00000000
vt 0.00000000 0.00000000
vt 1.00000000 0.00000000
vt 1.00000000 1.00000000
vt 1.00000000 0.00000000
vt 1.00000000 1.00000000
vt 0.00000000 1.00000000
vt 0.00000000 0.00000000
vn -0.00000000 0.00000000 1.00000000
vn -0.00000000 0.00000000 1.00000000
vn -0.00000000 0.00000000 1.00000000
vn -0.00000000 0.00000000 1.00000000
vn -0.00000000 0.00000000 1.00000000
vn -0.00000000 0.00000000 1.00000000
vn -0.00000000 0.00000000 1.00000000
vn -0.00000000 0.00000000 1.00000000
vn -0.00000000 0.00000000 1.00000000
vn -0.00000000 0.00000000 1.00000000
vn -0.00000000 0.00000000 1.00000000
vn -0.00000000 0.00000000 1.00000000
vn -0.00000000 0.00000000 1.00000000
vn -0.00000000 0.00000000 1.00000000
vn -0.00000000 0.00000000 1.00000000
vn -0.00000000 0.00000000 1.00000000
vn -0.00000000 0.00000000 1.00000000
vn 0.70710678 0.70710678 -0.00000000
vn 0.70710678 0.70710678 -0.00000000
vn 0.70710678 0.70710678 -0.00000000
vn 0.70710678 0.70710678 -0.00000000
vn 0.00000000 -0.00000000 -1.00000000
vn 0.00000000 -0.00000000 -1.00000000
vn 0.00000000 -0.00000000 -1.00000000
vn 0.00000000 -0.00000000 -1.00000000
vn 0.00000000 -0.00000000 -1.00000000
vn 0.00000000 -0.00000000 -1.00000000
vn 0.00000000 -0.00000000 -1.00000000
vn 0.00000000 -0.00000000 -1.00000000
vn 0.00000000 -0.00000000 -1.00000000
vn 0.00000000 -0.00000000 -1.00000000
vn 0.00000000 -0.00000000 -1.00000000
vn 0.00000000 -0.00000000 -1.00000000
vn 0.00000000 -0.00000000 -1.00000000
vn 0.00000000 -0.00000000 -1.00000000
vn 0.00000000 -0.00000000 -1.00000000
vn 0.00000000 -0.00000000 -1.00000000
vn 0.00000000 -0.00000000 -1.00000000
vn 1.00000000 0.00000000 0.00000000
vn 1.00000000 0.00000000 0.00000000
vn 1.00000000 0.00000000 0.00000000
vn 1.00000000 0.00000000 0.00000000
vn 0.00000000 1.00000000 -0.00000000
vn 0.00000000 1.00000000 -0.00000000
vn 0.00000000 1.00000000 -0.00000000
vn 0.00000000 1.00000000 -0.00000000
vn 0.70710678 0.70710678 -0.00000000
vn 0.70710678 0.70710678 -0.00000000
vn 0.70710678 0.70710678 -0.00000000
vn 0.70710678 0.70710678 -0.00000000
vn 1.00000000 0.00000000 0.00000000
vn 1.00000000 0.00000000 0.00000000
vn 1.00000000 0.00000000 0.00000000
vn 1.00000000 0.00000000 0.00000000
vn 0.00000000 1.00000000 -0.00000000
vn 0.00000000 1.00000000 -0.00000000
vn 0.00000000 1.00000000 -0.00000000
vn 0.00000000 1.00000000 -0.00000000
vn 0.70710678 0.70710678 -0.00000000
vn 0.70710678 0.70710678 -0.00000000
vn 0.70710678 0.70710678 -0.00000000
vn 0.70710678 0.70710678 -0.00000000
vn 1.00000000 0.00000000 0.00000000
vn 1.00000000 0.00000000 0.00000000
vn 1.00000000 0.00000000 0.00000000
vn 1.00000000 0.00000000 0.00000000
vn 0.00000000 1.00000000 -0.00000000
vn 0.00000000 1.00000000 -0.00000000
vn 0.00000000 1.00000000 -0.00000000
vn 0.00000000 1.00000000 -0.00000000
vn 0.70710678 0.70710678 -0.00000000
vn 0.70710678 0.70710678 -0.00000000
vn 0.70710678 0.70710678 -0.00000000
vn 0.70710678 0.70710678 -0.00000000
vn 1.00000000 0.00000000 0.00000000
vn 1.00000000 0.00000000 0.00000000
vn 1.00000000 0.00000000 0.00000000
vn 1.00000000 0.00000000 0.00000000
vn 0.00000000 -1.00000000 0.00000000
vn 0.00000000 -1.00000000 0.00000000
vn 0.00000000 -1.00000000 0.00000000
vn 0.00000000 -1.00000000 0.00000000
vn -1.00000000 0.00000000 0.00000000
vn -1.00000000 0.00000000 0.00000000
vn -1.00000000 0.00000000 0.00000000
vn -1.00000000 0.00000000 0.00000000
vn 0.00000000 1.00000000 -0.00000000
vn 0.00000000 1.00000000 -0.00000000
vn 0.00000000 1.00000000 -0.00000000
vn 0.00000000 1.00000000 -0.00000000
vn 0.70710678 0.70710678 -0.00000000
vn 0.70710678 0.70710678 -0.00000000
vn 0.70710678 0.70710678 -0.00000000
vn 0.70710678 0.70710678 -0.00000000
vn 1.00000000 0.00000000 0.00000000
vn 1.00000000 0.00000000 0.00000000
vn 1.00000000 0.00000000 0.00000000
vn 1.00000000 0.00000000 0.00000000
vn 0.00000000 1.00000000 -0.00000000
vn 0.00000000 1.00000000 -0.00000000
vn 0.00000000 1.00000000 -0.00000000
vn 0.00000000 1.00000000 -0.00000000
s 1
usemtl Stone_Brit_Gray
f 5/5/5 6/6/6 7/7/7
f 7/7/7 17/17/17 3/3/3
f 17/17/17 2/2/2 3/3/3
f 17/17/17 1/1/1 2/2/2
f 14/14/14 16/16/16 17/17/17
f 14/14/14 15/15/15 16/16/16
f 11/11/11 13/13/13 14/14/14
f 8/8/8 10/10/10 11/11/11
f 8/8/8 9/9/9 10/10/10
f 11/11/11 12/12/12 13/13/13
f 7/7/7 14/14/14 17/17/17
f 7/7/7 11/11/11 14/14/14
f 7/7/7 8/8/8 11/11/11
f 3/3/3 5/5/5 7/7/7
f 3/3/3 4/4/4 5/5/5
s 2
f 18/18/18 19/19/19 1/21/21
f 19/19/19 2/20/20 1/21/21
s 3
f 24/28/28 23/27/27 22/26/26
f 22/26/26 21/25/25 20/24/24
f 20/24/24 19/23/23 34/38/38
f 34/38/38 33/37/37 31/35/35
f 31/35/35 30/34/34 28/32/32
f 28/32/32 27/31/31 25/29/29
f 27/31/31 26/30/30 25/29/29
f 30/34/34 29/33/33 28/32/32
f 33/37/37 32/36/36 31/35/35
f 19/23/23 18/22/22 34/38/38
f 24/28/28 22/26/26 20/24/24
f 20/24/24 34/38/38 24/28/28
f 34/38/38 31/35/35 24/28/28
f 31/35/35 28/32/32 24/28/28
f 28/32/32 25/29/29 24/28/28
s 4
f 1/39/39 17/40/40 34/41/41
f 1/39/39 34/41/41 18/42/42
s 5
f 33/43/43 34/44/44 16/46/46
f 34/44/44 17/45/45 16/46/46
s 6
f 32/47/47 33/48/48 15/50/50
f 33/48/48 16/49/49 15/50/50
s 7
f 15/51/51 14/52/52 31/53/53
f 15/51/51 31/53/53 32/54/54
s 8
f 30/55/55 31/56/56 13/58/58
f 31/56/56 14/57/57 13/58/58
s 9
f 29/59/59 30/60/60 12/62/62
f 30/60/60 13/61/61 12/62/62
s 10
f 12/63/63 11/64/64 28/65/65
f 12/63/63 28/65/65 29/66/66
s 11
f 27/67/67 28/68/68 10/70/70
f 28/68/68 11/69/69 10/70/70
s 12
f 26/71/71 27/72/72 9/74/74
f 27/72/72 10/73/73 9/74/74
s 13
f 9/75/75 8/76/76 25/77/77
f 9/75/75 25/77/77 26/78/78
s 14
f 7/79/79 24/80/80 25/81/81
f 7/79/79 25/81/81 8/82/82
s 15
f 6/83/83 23/84/84 7/86/86
f 23/84/84 24/85/85 7/86/86
s 16
f 22/87/87 23/88/88 5/90/90
f 23/88/88 6/89/89 5/90/90
s 17
f 21/91/91 22/92/92 4/94/94
f 22/92/92 5/93/93 4/94/94
s 18
f 4/95/95 3/96/96 20/97/97
f 4/95/95 20/97/97 21/98/98
s 19
f 19/99/99 20/100/100 2/102/102
f 20/100/100 3/101/101 2/102/102
