mtllib Materials_Modular_Village.mtl
o object1
g object1
v 0.50000000 0.93159197 -0.11138986
v -0.50000000 0.93159197 -0.11138986
v -0.50000000 0.72899676 0.26228620
v 0.50000000 0.72899676 0.26228620
v 0.50000000 0.50190270 0.50000000
v -0.50000000 0.50190270 0.50000000
v -0.50000000 1.00000000 0.50000000
v 0.50000000 1.00000000 0.50000000
v -0.50000000 1.00000000 -0.50000000
v 0.50000000 1.00000000 -0.50000000
vt 0.00000000 0.00000000
vt 1.00000000 0.00000000
vt 1.00000000 1.00000000
vt 0.00000000 1.00000000
vt 0.00000000 1.00000000
vt 0.00000000 0.00000000
vt 1.00000000 0.00000000
vt 1.00000000 1.00000000
vt 0.00000000 0.00000000
vt 1.00000000 0.00000000
vt 1.00000000 1.00000000
vt 0.00000000 1.00000000
vt 0.00000000 0.00000000
vt 1.00000000 0.00000000
vt 1.00000000 1.00000000
vt 0.00000000 1.00000000
vt 0.00000000 0.00000000
vt 1.00000000 0.00000000
vt 1.00000000 1.00000000
vt 0.86266131 0.61138986
vt 0.45592310 0.23771380
vt 0.00000000 0.00000000
vt 1.00000000 0.00000000
vt 1.00000000 1.00000000
vt 0.00000000 1.00000000
vt 0.00000000 0.00000000
vt 1.00000000 0.00000000
vt 1.00000000 1.00000000
vt 0.86266131 0.61138986
vt 0.45592310 0.23771380
vn -0.00000000 -0.87910733 -0.47662386
vn -0.00000000 -0.87910733 -0.47662386
vn -0.00000000 -0.87910733 -0.47662386
vn -0.00000000 -0.87910733 -0.47662386
vn 0.00000000 -0.72307376 -0.69077083
vn 0.00000000 -0.72307376 -0.69077083
vn 0.00000000 -0.72307376 -0.69077083
vn 0.00000000 -0.72307376 -0.69077083
vn 0.00000000 0.00000000 1.00000000
vn 0.00000000 0.00000000 1.00000000
vn 0.00000000 0.00000000 1.00000000
vn 0.00000000 0.00000000 1.00000000
vn 0.00000000 1.00000000 0.00000000
vn 0.00000000 1.00000000 0.00000000
vn 0.00000000 1.00000000 0.00000000
vn 0.00000000 1.00000000 0.00000000
vn 1.00000000 0.00000000 0.00000000
vn 1.00000000 0.00000000 0.00000000
vn 1.00000000 0.00000000 0.00000000
vn 1.00000000 0.00000000 0.00000000
vn 1.00000000 0.00000000 0.00000000
vn -0.00000000 -0.98485730 -0.17336693
vn -0.00000000 -0.98485730 -0.17336693
vn -0.00000000 -0.98485730 -0.17336693
vn -0.00000000 -0.98485730 -0.17336693
vn -1.00000000 0.00000000 0.00000000
vn -1.00000000 0.00000000 0.00000000
vn -1.00000000 0.00000000 0.00000000
vn -1.00000000 0.00000000 0.00000000
vn -1.00000000 0.00000000 0.00000000
s 1
usemtl Stucco
f 4/4/4 3/3/3 1/1/1
f 3/3/3 2/2/2 1/1/1
s 2
f 6/8/8 3/7/7 5/5/5
f 3/7/7 4/6/6 5/5/5
s 3
f 5/12/12 8/11/11 6/9/9
f 8/11/11 7/10/10 6/9/9
s 4
f 8/16/16 10/15/15 7/13/13
f 10/15/15 9/14/14 7/13/13
s 5
f 8/18/18 5/17/17 4/21/21
f 1/20/20 10/19/19 8/18/18
f 8/18/18 4/21/21 1/20/20
s 6
f 1/25/25 2/24/24 9/23/23
f 1/25/25 9/23/23 10/22/22
s 7
f 3/30/30 6/26/26 7/27/27
f 7/27/27 9/28/28 2/29/29
f 2/29/29 3/30/30 7/27/27
