mtllib Materials_Modular_Village.mtl
o object1
g object1
v -0.60000000 0.00000000 0.60000000
v -0.60000000 0.00000000 0.40000000
v -0.40000000 0.00000000 0.40000000
v -0.40000000 0.00000000 0.60000000
v -0.60000000 1.00000000 0.40000000
v -0.60000000 1.00000000 0.60000000
v -0.40000000 1.00000000 0.60000000
v -0.40000000 1.00000000 0.40000000
v -0.40000000 0.39000000 0.40000000
v -0.40000000 0.24000000 0.40000000
v -0.40000000 0.33000000 0.45000000
v -0.45000000 0.33000000 0.40000000
vt 0.00000000 0.00000000
vt 1.00000000 0.00000000
vt 1.00000000 1.00000000
vt 0.00000000 1.00000000
vt 1.00000000 0.00000000
vt 1.00000000 1.00000000
vt 0.00000000 1.00000000
vt 0.00000000 0.00000000
vt 0.00000000 1.00000000
vt 0.00000000 0.00000000
vt 1.00000000 0.00000000
vt 1.00000000 1.00000000
vt 1.00000000 1.00000000
vt 0.00000000 1.00000000
vt 0.00000000 0.00000000
vt 1.00000000 0.00000000
vt 1.00000000 0.39000000
vt 1.00000000 1.00000000
vt 0.00000000 1.00000000
vt 0.00000000 0.00000000
vt 1.00000000 0.00000000
vt 1.00000000 0.24000000
vt 0.75000000 0.33000000
vt 1.00000000 0.00000000
vt 1.00000000 1.00000000
vt 0.00000000 0.20000000
vt 1.00000000 0.00000000
vt 1.00000000 1.00000000
vt 0.00000000 0.90000000
vt 0.61000000 1.00000000
vt 0.00000000 1.00000000
vt 0.00000000 0.00000000
vt 1.00000000 0.00000000
vt 1.00000000 1.00000000
vt 0.76000000 1.00000000
vt 0.67000000 0.75000000
vn 0.00000000 -1.00000000 0.00000000
vn 0.00000000 -1.00000000 0.00000000
vn 0.00000000 -1.00000000 0.00000000
vn 0.00000000 -1.00000000 0.00000000
vn -1.00000000 -0.00000000 -0.00000000
vn -1.00000000 -0.00000000 -0.00000000
vn -1.00000000 -0.00000000 -0.00000000
vn -1.00000000 -0.00000000 -0.00000000
vn 0.00000000 1.00000000 -0.00000000
vn 0.00000000 1.00000000 -0.00000000
vn 0.00000000 1.00000000 -0.00000000
vn 0.00000000 1.00000000 -0.00000000
vn 0.00000000 0.00000000 1.00000000
vn -0.00000000 0.00000000 1.00000000
vn -0.00000000 0.00000000 1.00000000
vn 0.00000000 0.00000000 1.00000000
vn 1.00000000 -0.00000000 -0.00000000
vn 1.00000000 -0.00000000 -0.00000000
vn 1.00000000 -0.00000000 -0.00000000
vn 1.00000000 -0.00000000 -0.00000000
vn 1.00000000 -0.00000000 -0.00000000
vn 1.00000000 -0.00000000 -0.00000000
vn 1.00000000 -0.00000000 -0.00000000
vn 0.60920770 -0.50767308 -0.60920770
vn 0.60920770 -0.50767308 -0.60920770
vn 0.60920770 -0.50767308 -0.60920770
vn 0.65814518 0.36563621 -0.65814518
vn 0.65814518 0.36563621 -0.65814518
vn 0.65814518 0.36563621 -0.65814518
vn 0.00000000 -0.00000000 -1.00000000
vn 0.00000000 -0.00000000 -1.00000000
vn 0.00000000 -0.00000000 -1.00000000
vn 0.00000000 -0.00000000 -1.00000000
vn 0.00000000 -0.00000000 -1.00000000
vn 0.00000000 -0.00000000 -1.00000000
vn 0.00000000 -0.00000000 -1.00000000
s 1
usemtl Wood_Darker
f 1/1/1 2/2/2 3/3/3
f 1/1/1 3/3/3 4/4/4
s 2
f 1/8/8 6/7/7 2/5/5
f 6/7/7 5/6/6 2/5/5
s 3
f 8/12/12 5/11/11 7/9/9
f 5/11/11 6/10/10 7/9/9
s 4
f 4/13/13 7/14/14 1/16/16
f 7/14/14 6/15/15 1/16/16
s 5
f 4/20/20 3/21/21 10/22/22
f 7/19/19 4/20/20 11/23/23
f 9/17/17 7/19/19 11/23/23
f 9/17/17 8/18/18 7/19/19
f 4/20/20 10/22/22 11/23/23
s 6
usemtl Wood_Medium
f 12/24/24 9/25/25 11/26/26
s 7
f 10/27/27 12/28/28 11/29/29
s 8
usemtl Wood_Darker
f 10/35/35 3/34/34 2/33/33
f 12/36/36 2/33/33 5/32/32
f 5/32/32 8/31/31 9/30/30
f 12/36/36 5/32/32 9/30/30
f 12/36/36 10/35/35 2/33/33
