mtllib Materials_Modular_Village.mtl
o object1
g object1
v 0.47500000 0.90000000 0.20000000
v 0.50000000 0.90000000 0.20000000
v 0.50000000 0.10000000 0.20000000
v 0.47500000 0.10000000 0.20000000
v 0.50000000 0.10000000 0.80000000
v 0.47500000 0.10000000 0.80000000
v 0.50000000 0.10000000 0.50000000
v 0.47500000 0.90000000 0.80000000
v 0.50000000 0.90000000 0.80000000
v 0.50000000 0.90000000 0.50000000
v 0.50000000 -0.00000000 0.50000000
v 0.50000000 -0.00000000 1.50000000
v 0.50000000 1.00000000 1.50000000
v 0.50000000 1.00000000 0.50000000
v 0.50000000 1.00000000 -0.50000000
v 0.50000000 -0.00000000 -0.50000000
v -0.50000000 0.00000000 -0.50000000
v -0.50000000 1.00000000 -0.50000000
v -0.50000000 0.00000000 1.50000000
v -0.50000000 1.00000000 1.50000000
vt 1.00000000 0.00000000
vt 1.00000000 1.00000000
vt 0.00000000 1.00000000
vt 0.00000000 0.00000000
vt 1.00000000 1.00000000
vt 0.00000000 1.00000000
vt 0.00000000 0.00000000
vt 1.00000000 0.00000000
vt 0.50000000 1.00000000
vt 1.00000000 0.00000000
vt 1.00000000 1.00000000
vt 0.00000000 1.00000000
vt 0.00000000 0.00000000
vt 0.00000000 0.00000000
vt 1.00000000 0.00000000
vt 1.00000000 1.00000000
vt 0.00000000 1.00000000
vt 1.00000000 1.00000000
vt 0.00000000 1.00000000
vt 0.00000000 0.00000000
vt 1.00000000 0.00000000
vt 0.50000000 1.00000000
vt 0.90000000 0.50000000
vt 0.90000000 0.35000000
vt 0.10000000 0.35000000
vt 0.10000000 0.50000000
vt 0.00000000 0.50000000
vt 0.00000000 0.00000000
vt 1.00000000 0.00000000
vt 1.00000000 0.50000000
vt 0.10000000 0.65000000
vt 0.90000000 0.65000000
vt 1.00000000 1.00000000
vt 0.00000000 1.00000000
vt 0.00000000 0.00000000
vt 1.00000000 0.00000000
vt 1.00000000 1.00000000
vt 0.00000000 1.00000000
vt 0.00000000 0.00000000
vt 1.00000000 0.00000000
vt 1.00000000 1.00000000
vt 0.00000000 1.00000000
vt 1.00000000 0.00000000
vt 1.00000000 1.00000000
vt 0.00000000 1.00000000
vt 0.00000000 0.00000000
vt 0.50000000 1.00000000
vt 1.00000000 0.00000000
vt 1.00000000 1.00000000
vt 0.00000000 1.00000000
vt 0.00000000 0.00000000
vt 1.00000000 0.00000000
vt 1.00000000 1.00000000
vt 0.00000000 1.00000000
vt 0.00000000 0.00000000
vt 0.50000000 1.00000000
vn 0.00000000 0.00000000 1.00000000
vn 0.00000000 0.00000000 1.00000000
vn 0.00000000 0.00000000 1.00000000
vn 0.00000000 0.00000000 1.00000000
vn 0.00000000 1.00000000 -0.00000000
vn 0.00000000 1.00000000 -0.00000000
vn 0.00000000 1.00000000 -0.00000000
vn 0.00000000 1.00000000 -0.00000000
vn 0.00000000 1.00000000 -0.00000000
vn 0.00000000 0.00000000 -1.00000000
vn 0.00000000 0.00000000 -1.00000000
vn 0.00000000 0.00000000 -1.00000000
vn 0.00000000 0.00000000 -1.00000000
vn 1.00000000 0.00000000 0.00000000
vn 1.00000000 0.00000000 0.00000000
vn 1.00000000 0.00000000 0.00000000
vn 1.00000000 0.00000000 0.00000000
vn -0.00000000 -1.00000000 0.00000000
vn -0.00000000 -1.00000000 0.00000000
vn -0.00000000 -1.00000000 0.00000000
vn -0.00000000 -1.00000000 0.00000000
vn -0.00000000 -1.00000000 0.00000000
vn 1.00000000 -0.00000000 0.00000000
vn 1.00000000 -0.00000000 0.00000000
vn 1.00000000 -0.00000000 0.00000000
vn 1.00000000 -0.00000000 0.00000000
vn 1.00000000 -0.00000000 0.00000000
vn 1.00000000 -0.00000000 0.00000000
vn 1.00000000 -0.00000000 0.00000000
vn 1.00000000 -0.00000000 0.00000000
vn 1.00000000 -0.00000000 0.00000000
vn 1.00000000 -0.00000000 0.00000000
vn 1.00000000 -0.00000000 0.00000000
vn 1.00000000 -0.00000000 0.00000000
vn -0.00000000 -0.00000000 -1.00000000
vn -0.00000000 -0.00000000 -1.00000000
vn -0.00000000 -0.00000000 -1.00000000
vn -0.00000000 -0.00000000 -1.00000000
vn -1.00000000 0.00000000 -0.00000000
vn -1.00000000 0.00000000 -0.00000000
vn -1.00000000 0.00000000 -0.00000000
vn -1.00000000 0.00000000 -0.00000000
vn -0.00000000 -1.00000000 0.00000000
vn -0.00000000 -1.00000000 0.00000000
vn -0.00000000 -1.00000000 0.00000000
vn -0.00000000 -1.00000000 0.00000000
vn -0.00000000 -1.00000000 0.00000000
vn 0.00000000 0.00000000 1.00000000
vn 0.00000000 0.00000000 1.00000000
vn 0.00000000 0.00000000 1.00000000
vn 0.00000000 0.00000000 1.00000000
vn 0.00000000 1.00000000 -0.00000000
vn 0.00000000 1.00000000 -0.00000000
vn 0.00000000 1.00000000 -0.00000000
vn 0.00000000 1.00000000 -0.00000000
vn 0.00000000 1.00000000 -0.00000000
s 1
usemtl Stucco
f 4/4/4 3/3/3 1/1/1
f 3/3/3 2/2/2 1/1/1
s 2
f 6/7/7 5/6/6 7/9/9
f 7/9/9 3/5/5 4/8/8
f 4/8/8 6/7/7 7/9/9
s 3
f 8/10/10 9/11/11 6/13/13
f 9/11/11 5/12/12 6/13/13
s 4
usemtl Window
f 4/17/17 1/16/16 6/14/14
f 1/16/16 8/15/15 6/14/14
s 5
usemtl Stucco
f 10/22/22 9/19/19 8/20/20
f 10/22/22 8/20/20 1/21/21
f 1/21/21 2/18/18 10/22/22
s 6
f 9/24/24 10/23/23 14/30/30
f 15/33/33 14/30/30 2/32/32
f 16/34/34 15/33/33 3/31/31
f 3/31/31 7/26/26 11/27/27
f 12/28/28 11/27/27 5/25/25
f 5/25/25 13/29/29 12/28/28
f 11/27/27 7/26/26 5/25/25
f 11/27/27 16/34/34 3/31/31
f 15/33/33 2/32/32 3/31/31
f 14/30/30 10/23/23 2/32/32
f 5/25/25 9/24/24 13/29/29
f 9/24/24 14/30/30 13/29/29
s 7
f 17/35/35 18/36/36 15/37/37
f 17/35/35 15/37/37 16/38/38
s 8
f 19/39/39 20/40/40 18/41/41
f 19/39/39 18/41/41 17/42/42
s 9
f 17/43/43 16/44/44 11/47/47
f 11/47/47 12/45/45 19/46/46
f 17/43/43 11/47/47 19/46/46
s 10
f 19/51/51 12/50/50 13/49/49
f 19/51/51 13/49/49 20/48/48
s 11
f 14/56/56 15/53/53 18/52/52
f 20/55/55 14/56/56 18/52/52
f 20/55/55 13/54/54 14/56/56
o object2
g object2
v 0.47500000 0.51250000 0.48750000
v 0.47500000 0.80000000 0.48750000
v 0.50000000 0.80000000 0.48750000
v 0.50000000 0.51250000 0.48750000
v 0.47500000 0.51250000 0.51250000
v 0.47500000 0.80000000 0.51250000
v 0.47500000 0.51250000 0.30000000
v 0.47500000 0.48750000 0.30000000
v 0.47500000 0.48750000 0.48750000
v 0.47500000 0.20000000 0.48750000
v 0.47500000 0.20000000 0.51250000
v 0.47500000 0.48750000 0.51250000
v 0.47500000 0.48750000 0.70000000
v 0.47500000 0.51250000 0.70000000
v 0.50000000 0.80000000 0.51250000
v 0.50000000 0.51250000 0.51250000
v 0.50000000 0.51250000 0.70000000
v 0.50000000 0.48750000 0.70000000
v 0.50000000 0.48750000 0.51250000
v 0.50000000 0.20000000 0.51250000
v 0.50000000 0.20000000 0.48750000
v 0.50000000 0.48750000 0.48750000
v 0.50000000 0.48750000 0.30000000
v 0.50000000 0.51250000 0.30000000
vt 0.00000000 0.00000000
vt 1.00000000 0.00000000
vt 1.00000000 1.00000000
vt 0.00000000 1.00000000
vt 0.52083333 0.46875000
vt 1.00000000 0.46875000
vt 1.00000000 0.53125000
vt 0.52083333 0.53125000
vt 0.52083333 1.00000000
vt 0.47916667 1.00000000
vt 0.47916667 0.53125000
vt 0.00000000 0.53125000
vt 0.00000000 0.46875000
vt 0.47916667 0.46875000
vt 0.47916667 0.00000000
vt 0.52083333 0.00000000
vt 0.00000000 0.00000000
vt 1.00000000 0.00000000
vt 1.00000000 1.00000000
vt 0.00000000 1.00000000
vt 1.00000000 1.00000000
vt 0.00000000 1.00000000
vt 0.00000000 0.00000000
vt 1.00000000 0.00000000
vt 0.00000000 0.00000000
vt 1.00000000 0.00000000
vt 1.00000000 1.00000000
vt 0.00000000 1.00000000
vt 1.00000000 1.00000000
vt 0.00000000 1.00000000
vt 0.00000000 0.00000000
vt 1.00000000 0.00000000
vt 1.00000000 1.00000000
vt 0.00000000 1.00000000
vt 0.00000000 0.00000000
vt 1.00000000 0.00000000
vt 0.00000000 0.00000000
vt 1.00000000 0.00000000
vt 1.00000000 1.00000000
vt 0.00000000 1.00000000
vt 1.00000000 1.00000000
vt 0.00000000 1.00000000
vt 0.00000000 0.00000000
vt 1.00000000 0.00000000
vt 0.00000000 0.00000000
vt 1.00000000 0.00000000
vt 1.00000000 1.00000000
vt 0.00000000 1.00000000
vt 0.00000000 0.00000000
vt 1.00000000 0.00000000
vt 1.00000000 1.00000000
vt 0.00000000 1.00000000
vt 0.00000000 0.00000000
vt 1.00000000 0.00000000
vt 1.00000000 1.00000000
vt 0.00000000 1.00000000
vt 0.47916667 0.46875000
vt 0.47916667 0.00000000
vt 0.52083333 0.00000000
vt 0.52083333 0.46875000
vt 1.00000000 0.46875000
vt 1.00000000 0.53125000
vt 0.52083333 0.53125000
vt 0.52083333 1.00000000
vt 0.47916667 1.00000000
vt 0.47916667 0.53125000
vt 0.00000000 0.53125000
vt 0.00000000 0.46875000
vt 0.00000000 0.00000000
vt 1.00000000 0.00000000
vt 1.00000000 1.00000000
vt 0.00000000 1.00000000
vn 0.00000000 0.00000000 -1.00000000
vn 0.00000000 0.00000000 -1.00000000
vn 0.00000000 0.00000000 -1.00000000
vn 0.00000000 0.00000000 -1.00000000
vn -1.00000000 -0.00000000 -0.00000000
vn -1.00000000 -0.00000000 -0.00000000
vn -1.00000000 -0.00000000 -0.00000000
vn -1.00000000 -0.00000000 -0.00000000
vn -1.00000000 -0.00000000 -0.00000000
vn -1.00000000 -0.00000000 -0.00000000
vn -1.00000000 -0.00000000 -0.00000000
vn -1.00000000 -0.00000000 -0.00000000
vn -1.00000000 -0.00000000 -0.00000000
vn -1.00000000 -0.00000000 -0.00000000
vn -1.00000000 -0.00000000 -0.00000000
vn -1.00000000 -0.00000000 -0.00000000
vn -0.00000000 0.00000000 1.00000000
vn -0.00000000 0.00000000 1.00000000
vn -0.00000000 0.00000000 1.00000000
vn -0.00000000 0.00000000 1.00000000
vn -0.00000000 1.00000000 0.00000000
vn -0.00000000 1.00000000 0.00000000
vn -0.00000000 1.00000000 0.00000000
vn -0.00000000 1.00000000 0.00000000
vn 0.00000000 0.00000000 1.00000000
vn 0.00000000 0.00000000 1.00000000
vn 0.00000000 0.00000000 1.00000000
vn 0.00000000 0.00000000 1.00000000
vn 0.00000000 -1.00000000 -0.00000000
vn 0.00000000 -1.00000000 -0.00000000
vn 0.00000000 -1.00000000 -0.00000000
vn 0.00000000 -1.00000000 -0.00000000
vn -0.00000000 0.00000000 1.00000000
vn -0.00000000 0.00000000 1.00000000
vn -0.00000000 0.00000000 1.00000000
vn -0.00000000 0.00000000 1.00000000
vn 0.00000000 -1.00000000 0.00000000
vn 0.00000000 -1.00000000 0.00000000
vn 0.00000000 -1.00000000 0.00000000
vn 0.00000000 -1.00000000 0.00000000
vn 0.00000000 0.00000000 -1.00000000
vn 0.00000000 0.00000000 -1.00000000
vn 0.00000000 0.00000000 -1.00000000
vn 0.00000000 0.00000000 -1.00000000
vn 0.00000000 -1.00000000 -0.00000000
vn 0.00000000 -1.00000000 -0.00000000
vn 0.00000000 -1.00000000 -0.00000000
vn 0.00000000 -1.00000000 -0.00000000
vn -0.00000000 -0.00000000 -1.00000000
vn -0.00000000 -0.00000000 -1.00000000
vn -0.00000000 -0.00000000 -1.00000000
vn -0.00000000 -0.00000000 -1.00000000
vn -0.00000000 1.00000000 0.00000000
vn -0.00000000 1.00000000 0.00000000
vn -0.00000000 1.00000000 0.00000000
vn -0.00000000 1.00000000 0.00000000
vn 1.00000000 0.00000000 0.00000000
vn 1.00000000 0.00000000 0.00000000
vn 1.00000000 0.00000000 0.00000000
vn 1.00000000 0.00000000 0.00000000
vn 1.00000000 0.00000000 0.00000000
vn 1.00000000 0.00000000 0.00000000
vn 1.00000000 0.00000000 0.00000000
vn 1.00000000 0.00000000 0.00000000
vn 1.00000000 0.00000000 0.00000000
vn 1.00000000 0.00000000 0.00000000
vn 1.00000000 0.00000000 0.00000000
vn 1.00000000 0.00000000 0.00000000
vn -0.00000000 1.00000000 -0.00000000
vn -0.00000000 1.00000000 -0.00000000
vn -0.00000000 1.00000000 -0.00000000
vn -0.00000000 1.00000000 -0.00000000
s 1
usemtl Wood_Darker
f 21/57/57 22/58/58 24/60/60
f 22/58/58 23/59/59 24/60/60
s 2
f 21/64/64 27/65/65 28/66/66
f 25/61/61 26/62/62 21/64/64
f 29/67/67 32/70/70 25/61/61
f 30/68/68 31/69/69 32/70/70
f 32/70/70 33/71/71 34/72/72
f 29/67/67 30/68/68 32/70/70
f 32/70/70 34/72/72 25/61/61
f 26/62/62 22/63/63 21/64/64
f 21/64/64 29/67/67 25/61/61
f 21/64/64 28/66/66 29/67/67
s 3
f 36/76/76 35/75/75 25/73/73
f 35/75/75 26/74/74 25/73/73
s 4
f 25/80/80 34/79/79 37/78/78
f 25/80/80 37/78/78 36/77/77
s 5
f 34/81/81 33/82/82 38/83/83
f 34/81/81 38/83/83 37/84/84
s 6
f 39/85/85 38/86/86 32/88/88
f 38/86/86 33/87/87 32/88/88
s 7
f 32/92/92 31/91/91 40/90/90
f 32/92/92 40/90/90 39/89/89
s 8
f 31/93/93 30/94/94 41/95/95
f 31/93/93 41/95/95 40/96/96
s 9
f 42/97/97 41/98/98 30/99/99
f 42/97/97 30/99/99 29/100/100
s 10
f 29/101/101 28/102/102 43/103/103
f 29/101/101 43/103/103 42/104/104
s 11
f 44/108/108 43/107/107 28/106/106
f 44/108/108 28/106/106 27/105/105
s 12
f 24/112/112 44/111/111 21/109/109
f 44/111/111 27/110/110 21/109/109
s 13
f 37/115/115 38/114/114 39/113/113
f 36/116/116 39/113/113 42/122/122
f 42/122/122 43/121/121 24/119/119
f 24/119/119 23/118/118 35/117/117
f 43/121/121 44/120/120 24/119/119
f 24/119/119 35/117/117 36/116/116
f 36/116/116 42/122/122 24/119/119
f 39/113/113 41/123/123 42/122/122
f 39/113/113 40/124/124 41/123/123
f 36/116/116 37/115/115 39/113/113
s 14
f 35/128/128 23/127/127 26/125/125
f 23/127/127 22/126/126 26/125/125
o object3
g object3
v 0.55000000 0.80000000 0.20000000
v 0.55000000 0.20000000 0.20000000
v 0.65000000 0.20000000 0.20000000
v 0.65000000 0.15000000 0.20000000
v 0.60000000 0.10000000 0.20000000
v 0.40000000 0.10000000 0.20000000
v 0.40000000 0.80000000 0.20000000
v 0.40000000 0.50000000 0.20000000
v 0.55000000 0.80000000 0.30000000
v 0.55000000 0.20000000 0.30000000
v 0.40000000 0.20000000 0.30000000
v 0.40000000 0.80000000 0.30000000
v 0.40000000 0.50000000 0.30000000
v 0.55000000 0.80000000 0.70000000
v 0.55000000 0.80000000 0.80000000
v 0.40000000 0.80000000 0.80000000
v 0.40000000 0.80000000 0.85000000
v 0.60000000 0.80000000 0.85000000
v 0.60000000 0.80000000 0.15000000
v 0.40000000 0.80000000 0.15000000
v 0.40000000 0.80000000 0.70000000
v 0.60000000 0.90000000 0.85000000
v 0.40000000 0.90000000 0.85000000
v 0.40000000 0.90000000 0.15000000
v 0.60000000 0.90000000 0.15000000
v 0.40000000 0.20000000 0.70000000
v 0.55000000 0.20000000 0.70000000
v 0.40000000 0.50000000 0.70000000
v 0.55000000 0.20000000 0.80000000
v 0.65000000 0.20000000 0.80000000
v 0.65000000 0.15000000 0.80000000
v 0.60000000 0.10000000 0.80000000
v 0.40000000 0.10000000 0.80000000
v 0.40000000 0.50000000 0.80000000
vt 1.00000000 0.60000000
vt 0.14285714 0.60000000
vt 0.14285714 1.00000000
vt 0.07142857 1.00000000
vt 0.00000000 0.80000000
vt 0.00000000 0.00000000
vt 1.00000000 0.00000000
vt 0.57142857 0.00000000
vt 1.00000000 0.00000000
vt 1.00000000 1.00000000
vt 0.00000000 1.00000000
vt 0.00000000 0.00000000
vt 0.00000000 0.00000000
vt 1.00000000 0.00000000
vt 1.00000000 1.00000000
vt 0.00000000 1.00000000
vt 0.00000000 0.50000000
vt 0.75000000 0.21428571
vt 0.75000000 0.07142857
vt 0.00000000 0.07142857
vt 0.00000000 0.00000000
vt 1.00000000 0.00000000
vt 1.00000000 1.00000000
vt 0.00000000 1.00000000
vt 0.00000000 0.92857143
vt 0.75000000 0.92857143
vt 0.75000000 0.78571429
vt 0.00000000 0.78571429
vt 0.00000000 0.21428571
vt 0.00000000 0.00000000
vt 1.00000000 0.00000000
vt 1.00000000 1.00000000
vt 0.00000000 1.00000000
vt 0.00000000 1.00000000
vt 0.00000000 0.00000000
vt 1.00000000 0.00000000
vt 1.00000000 1.00000000
vt 0.00000000 0.00000000
vt 1.00000000 0.00000000
vt 1.00000000 1.00000000
vt 0.00000000 1.00000000
vt 0.00000000 0.00000000
vt 1.00000000 0.00000000
vt 1.00000000 1.00000000
vt 0.00000000 1.00000000
vt 0.00000000 0.00000000
vt 1.00000000 0.00000000
vt 1.00000000 1.00000000
vt 0.00000000 1.00000000
vt 0.00000000 0.50000000
vt 1.00000000 0.00000000
vt 1.00000000 1.00000000
vt 0.00000000 1.00000000
vt 0.00000000 0.00000000
vt 1.00000000 0.60000000
vt 0.14285714 0.60000000
vt 0.14285714 1.00000000
vt 0.07142857 1.00000000
vt 0.00000000 0.80000000
vt 0.00000000 0.00000000
vt 1.00000000 0.00000000
vt 0.57142857 0.00000000
vt 0.50000000 0.21428571
vt 0.12500000 0.21428571
vt 0.12500000 0.78571429
vt 0.50000000 0.78571429
vt 0.50000000 0.92857143
vt 0.00000000 0.92857143
vt 0.00000000 0.07142857
vt 0.50000000 0.07142857
vt 0.87500000 0.78571429
vt 0.87500000 0.21428571
vt 0.87500000 0.07142857
vt 0.87500000 0.00000000
vt 1.00000000 0.00000000
vt 1.00000000 1.00000000
vt 0.87500000 1.00000000
vt 0.87500000 0.92857143
vt 1.00000000 1.00000000
vt 0.00000000 1.00000000
vt 0.00000000 0.00000000
vt 1.00000000 0.00000000
vt 0.00000000 1.00000000
vt 0.00000000 0.00000000
vt 1.00000000 0.00000000
vt 1.00000000 1.00000000
vt 0.00000000 0.00000000
vt 1.00000000 0.00000000
vt 1.00000000 1.00000000
vt 0.00000000 1.00000000
vt 0.60000000 1.00000000
vt 0.60000000 0.83333333
vt 0.00000000 0.83333333
vt 0.00000000 0.16666667
vt 0.60000000 0.16666667
vt 0.60000000 0.00000000
vt 1.00000000 0.00000000
vt 1.00000000 1.00000000
vn -0.00000000 -0.00000000 -1.00000000
vn -0.00000000 -0.00000000 -1.00000000
vn -0.00000000 -0.00000000 -1.00000000
vn -0.00000000 -0.00000000 -1.00000000
vn -0.00000000 -0.00000000 -1.00000000
vn -0.00000000 -0.00000000 -1.00000000
vn -0.00000000 -0.00000000 -1.00000000
vn -0.00000000 -0.00000000 -1.00000000
vn 1.00000000 0.00000000 0.00000000
vn 1.00000000 0.00000000 0.00000000
vn 1.00000000 0.00000000 0.00000000
vn 1.00000000 0.00000000 0.00000000
vn -0.00000000 0.00000000 1.00000000
vn -0.00000000 0.00000000 1.00000000
vn -0.00000000 0.00000000 1.00000000
vn -0.00000000 0.00000000 1.00000000
vn -0.00000000 0.00000000 1.00000000
vn 0.00000000 -1.00000000 0.00000000
vn 0.00000000 -1.00000000 0.00000000
vn 0.00000000 -1.00000000 0.00000000
vn 0.00000000 -1.00000000 0.00000000
vn 0.00000000 -1.00000000 0.00000000
vn 0.00000000 -1.00000000 0.00000000
vn 0.00000000 -1.00000000 0.00000000
vn 0.00000000 -1.00000000 0.00000000
vn 0.00000000 -1.00000000 0.00000000
vn 0.00000000 -1.00000000 0.00000000
vn 0.00000000 -1.00000000 0.00000000
vn 0.00000000 -1.00000000 0.00000000
vn -0.00000000 0.00000000 1.00000000
vn -0.00000000 0.00000000 1.00000000
vn -0.00000000 0.00000000 1.00000000
vn -0.00000000 0.00000000 1.00000000
vn -0.00000000 1.00000000 -0.00000000
vn -0.00000000 1.00000000 -0.00000000
vn -0.00000000 1.00000000 -0.00000000
vn -0.00000000 1.00000000 -0.00000000
vn 1.00000000 0.00000000 0.00000000
vn 1.00000000 0.00000000 0.00000000
vn 1.00000000 0.00000000 0.00000000
vn 1.00000000 0.00000000 0.00000000
vn 0.00000000 0.00000000 -1.00000000
vn 0.00000000 0.00000000 -1.00000000
vn 0.00000000 0.00000000 -1.00000000
vn 0.00000000 0.00000000 -1.00000000
vn 0.00000000 0.00000000 -1.00000000
vn 0.00000000 0.00000000 -1.00000000
vn 0.00000000 0.00000000 -1.00000000
vn 0.00000000 0.00000000 -1.00000000
vn 0.00000000 0.00000000 -1.00000000
vn 1.00000000 0.00000000 0.00000000
vn 1.00000000 0.00000000 0.00000000
vn 1.00000000 0.00000000 0.00000000
vn 1.00000000 0.00000000 0.00000000
vn 0.00000000 0.00000000 1.00000000
vn 0.00000000 0.00000000 1.00000000
vn 0.00000000 0.00000000 1.00000000
vn 0.00000000 0.00000000 1.00000000
vn 0.00000000 0.00000000 1.00000000
vn 0.00000000 0.00000000 1.00000000
vn 0.00000000 0.00000000 1.00000000
vn 0.00000000 0.00000000 1.00000000
vn -1.00000000 -0.00000000 -0.00000000
vn -1.00000000 -0.00000000 -0.00000000
vn -1.00000000 -0.00000000 -0.00000000
vn -1.00000000 -0.00000000 -0.00000000
vn -1.00000000 -0.00000000 -0.00000000
vn -1.00000000 -0.00000000 -0.00000000
vn -1.00000000 -0.00000000 -0.00000000
vn -1.00000000 -0.00000000 -0.00000000
vn -1.00000000 -0.00000000 -0.00000000
vn -1.00000000 -0.00000000 -0.00000000
vn -1.00000000 -0.00000000 -0.00000000
vn -1.00000000 -0.00000000 -0.00000000
vn -1.00000000 -0.00000000 -0.00000000
vn -1.00000000 -0.00000000 -0.00000000
vn -1.00000000 -0.00000000 -0.00000000
vn -1.00000000 -0.00000000 -0.00000000
vn 0.00000000 -1.00000000 0.00000000
vn 0.00000000 -1.00000000 0.00000000
vn 0.00000000 -1.00000000 0.00000000
vn 0.00000000 -1.00000000 0.00000000
vn 0.70710678 -0.70710678 0.00000000
vn 0.70710678 -0.70710678 0.00000000
vn 0.70710678 -0.70710678 0.00000000
vn 0.70710678 -0.70710678 0.00000000
vn 1.00000000 0.00000000 0.00000000
vn 1.00000000 0.00000000 0.00000000
vn 1.00000000 0.00000000 0.00000000
vn 1.00000000 0.00000000 0.00000000
vn -0.00000000 1.00000000 -0.00000000
vn -0.00000000 1.00000000 -0.00000000
vn -0.00000000 1.00000000 -0.00000000
vn -0.00000000 1.00000000 -0.00000000
vn -0.00000000 1.00000000 -0.00000000
vn -0.00000000 1.00000000 -0.00000000
vn -0.00000000 1.00000000 -0.00000000
vn -0.00000000 1.00000000 -0.00000000
s 1
usemtl Wood_Darker
f 47/131/131 48/132/132 49/133/133
f 46/130/130 49/133/133 50/134/134
f 45/129/129 46/130/130 52/136/136
f 52/136/136 51/135/135 45/129/129
f 46/130/130 50/134/134 52/136/136
f 46/130/130 47/131/131 49/133/133
s 2
f 46/137/137 45/138/138 54/140/140
f 45/138/138 53/139/139 54/140/140
s 3
f 57/145/145 55/141/141 54/142/142
f 54/142/142 53/143/143 57/145/145
f 53/143/143 56/144/144 57/145/145
s 4
f 61/149/149 60/148/148 59/147/147
f 62/150/150 59/147/147 58/146/146
f 58/146/146 53/155/155 63/151/151
f 45/154/154 64/152/152 63/151/151
f 45/154/154 51/153/153 64/152/152
f 53/155/155 45/154/154 63/151/151
f 58/146/146 56/156/156 53/155/155
f 58/146/146 65/157/157 56/156/156
f 63/151/151 62/150/150 58/146/146
f 62/150/150 61/149/149 59/147/147
s 5
f 61/158/158 62/159/159 67/161/161
f 62/159/159 66/160/160 67/161/161
s 6
f 68/162/162 67/163/163 66/164/164
f 68/162/162 66/164/164 69/165/165
s 7
f 63/169/169 69/168/168 62/166/166
f 69/168/168 66/167/167 62/166/166
s 8
f 68/173/173 69/172/172 63/171/171
f 68/173/173 63/171/171 64/170/170
s 9
f 71/175/175 70/174/174 72/178/178
f 72/178/178 65/177/177 58/176/176
f 58/176/176 71/175/175 72/178/178
s 10
f 71/179/179 58/180/180 59/181/181
f 71/179/179 59/181/181 73/182/182
s 11
f 76/187/187 75/186/186 74/185/185
f 77/188/188 76/187/187 73/184/184
f 78/190/190 73/184/184 59/183/183
f 59/183/183 60/189/189 78/190/190
f 78/190/190 77/188/188 73/184/184
f 76/187/187 74/185/185 73/184/184
s 12
f 55/193/193 57/194/194 52/195/195
f 51/206/206 57/194/194 56/199/199
f 56/199/199 67/203/203 68/204/204
f 65/200/200 60/201/201 67/203/203
f 72/191/191 78/198/198 60/201/201
f 77/197/197 78/198/198 70/192/192
f 70/192/192 50/196/196 77/197/197
f 78/198/198 72/191/191 70/192/192
f 65/200/200 72/191/191 60/201/201
f 60/201/201 61/202/202 67/203/203
f 56/199/199 65/200/200 67/203/203
f 68/204/204 51/206/206 56/199/199
f 68/204/204 64/205/205 51/206/206
f 51/206/206 52/195/195 57/194/194
f 70/192/192 55/193/193 50/196/196
f 55/193/193 52/195/195 50/196/196
s 13
f 76/210/210 77/209/209 50/208/208
f 76/210/210 50/208/208 49/207/207
s 14
f 75/214/214 76/213/213 48/211/211
f 76/213/213 49/212/212 48/211/211
s 15
f 48/218/218 47/217/217 75/215/215
f 47/217/217 74/216/216 75/215/215
s 16
f 47/226/226 46/219/219 54/220/220
f 54/220/220 55/221/221 71/223/223
f 71/223/223 73/224/224 74/225/225
f 55/221/221 70/222/222 71/223/223
f 71/223/223 74/225/225 47/226/226
f 47/226/226 54/220/220 71/223/223
