mtllib Materials_Modular_Village.mtl
o object1
g object1
v -0.50000000 2.00000000 -0.50000000
v 0.50000000 2.00000000 -0.50000000
v 0.50000000 0.00000000 -0.50000000
v -0.50000000 0.00000000 -0.50000000
v -0.50000000 2.00000000 1.50000000
v 0.50000000 2.00000000 1.50000000
v 0.50000000 0.00000000 1.50000000
v -0.50000000 0.00000000 1.50000000
v 0.50000000 0.00000000 1.00000000
v -0.50000000 0.00000000 1.00000000
v -0.50000000 1.50000000 1.00000000
v 0.50000000 1.50000000 1.00000000
v -0.50000000 1.50000000 -0.00000000
v 0.50000000 1.50000000 -0.00000000
v 0.50000000 0.00000000 -0.00000000
v -0.50000000 0.00000000 -0.00000000
vt 1.00000000 0.00000000
vt 1.00000000 1.00000000
vt 0.00000000 1.00000000
vt 0.00000000 0.00000000
vt 0.00000000 0.00000000
vt 1.00000000 0.00000000
vt 1.00000000 1.00000000
vt 0.00000000 1.00000000
vt 1.00000000 0.00000000
vt 1.00000000 1.00000000
vt 0.00000000 1.00000000
vt 0.00000000 0.00000000
vt 1.00000000 1.00000000
vt 0.00000000 1.00000000
vt 0.00000000 0.00000000
vt 1.00000000 0.00000000
vt 0.00000000 1.00000000
vt 0.00000000 0.00000000
vt 1.00000000 0.00000000
vt 1.00000000 1.00000000
vt 0.00000000 0.00000000
vt 1.00000000 0.00000000
vt 1.00000000 1.00000000
vt 0.00000000 1.00000000
vt 1.00000000 1.00000000
vt 0.00000000 1.00000000
vt 0.00000000 0.00000000
vt 1.00000000 0.00000000
vt 0.00000000 0.25000000
vt 0.00000000 0.00000000
vt 1.00000000 0.00000000
vt 1.00000000 1.00000000
vt 0.00000000 1.00000000
vt 0.00000000 0.75000000
vt 0.75000000 0.75000000
vt 0.75000000 0.25000000
vt 0.00000000 0.00000000
vt 1.00000000 0.00000000
vt 1.00000000 1.00000000
vt 0.00000000 1.00000000
vt 0.00000000 1.00000000
vt 0.00000000 0.75000000
vt 0.75000000 0.75000000
vt 0.75000000 0.25000000
vt 0.00000000 0.25000000
vt 0.00000000 0.00000000
vt 1.00000000 0.00000000
vt 1.00000000 1.00000000
vn 0.00000000 0.00000000 -1.00000000
vn 0.00000000 0.00000000 -1.00000000
vn 0.00000000 0.00000000 -1.00000000
vn 0.00000000 0.00000000 -1.00000000
vn 0.00000000 1.00000000 0.00000000
vn 0.00000000 1.00000000 0.00000000
vn 0.00000000 1.00000000 0.00000000
vn 0.00000000 1.00000000 0.00000000
vn 0.00000000 0.00000000 1.00000000
vn 0.00000000 0.00000000 1.00000000
vn 0.00000000 0.00000000 1.00000000
vn 0.00000000 0.00000000 1.00000000
vn 0.00000000 -1.00000000 0.00000000
vn 0.00000000 -1.00000000 0.00000000
vn 0.00000000 -1.00000000 0.00000000
vn 0.00000000 -1.00000000 0.00000000
vn 0.00000000 0.00000000 -1.00000000
vn 0.00000000 0.00000000 -1.00000000
vn 0.00000000 0.00000000 -1.00000000
vn 0.00000000 0.00000000 -1.00000000
vn -0.00000000 -1.00000000 0.00000000
vn -0.00000000 -1.00000000 0.00000000
vn -0.00000000 -1.00000000 0.00000000
vn -0.00000000 -1.00000000 0.00000000
vn 0.00000000 0.00000000 1.00000000
vn 0.00000000 0.00000000 1.00000000
vn 0.00000000 0.00000000 1.00000000
vn 0.00000000 0.00000000 1.00000000
vn -1.00000000 -0.00000000 0.00000000
vn -1.00000000 -0.00000000 0.00000000
vn -1.00000000 -0.00000000 0.00000000
vn -1.00000000 -0.00000000 0.00000000
vn -1.00000000 -0.00000000 0.00000000
vn -1.00000000 -0.00000000 0.00000000
vn -1.00000000 -0.00000000 0.00000000
vn -1.00000000 -0.00000000 0.00000000
vn 0.00000000 -1.00000000 0.00000000
vn 0.00000000 -1.00000000 0.00000000
vn 0.00000000 -1.00000000 0.00000000
vn 0.00000000 -1.00000000 0.00000000
vn 1.00000000 0.00000000 -0.00000000
vn 1.00000000 0.00000000 -0.00000000
vn 1.00000000 0.00000000 -0.00000000
vn 1.00000000 0.00000000 -0.00000000
vn 1.00000000 0.00000000 -0.00000000
vn 1.00000000 0.00000000 -0.00000000
vn 1.00000000 0.00000000 -0.00000000
vn 1.00000000 0.00000000 -0.00000000
s 1
usemtl Stucco
f 1/1/1 2/2/2 4/4/4
f 2/2/2 3/3/3 4/4/4
s 2
f 6/8/8 2/7/7 5/5/5
f 2/7/7 1/6/6 5/5/5
s 3
f 8/12/12 7/11/11 5/9/9
f 7/11/11 6/10/10 5/9/9
s 4
f 9/13/13 7/14/14 10/16/16
f 7/14/14 8/15/15 10/16/16
s 5
f 9/17/17 10/18/18 11/19/19
f 9/17/17 11/19/19 12/20/20
s 6
f 11/21/21 13/22/22 14/23/23
f 11/21/21 14/23/23 12/24/24
s 7
f 16/28/28 15/27/27 14/26/26
f 16/28/28 14/26/26 13/25/25
s 8
f 4/33/33 16/34/34 13/35/35
f 1/32/32 13/35/35 11/36/36
f 8/30/30 5/31/31 11/36/36
f 11/36/36 10/29/29 8/30/30
f 5/31/31 1/32/32 11/36/36
f 1/32/32 4/33/33 13/35/35
s 9
f 16/37/37 4/38/38 3/39/39
f 16/37/37 3/39/39 15/40/40
s 10
f 14/43/43 15/42/42 3/41/41
f 12/44/44 14/43/43 2/48/48
f 6/47/47 7/46/46 12/44/44
f 12/44/44 2/48/48 6/47/47
f 7/46/46 9/45/45 12/44/44
f 14/43/43 3/41/41 2/48/48
o object2
g object2
v 0.30000000 0.00000000 0.85000000
v 0.60000000 0.00000000 0.85000000
v 0.60000000 1.35000000 0.85000000
v 0.30000000 1.35000000 0.85000000
v 0.60000000 1.35000000 0.15000000
v 0.30000000 1.35000000 0.15000000
v 0.60000000 0.00000000 0.15000000
v 0.30000000 0.00000000 0.15000000
v 0.60000000 0.00000000 -0.00000000
v 0.30000000 0.00000000 -0.00000000
v 0.60000000 1.35000000 -0.00000000
v 0.30000000 1.35000000 -0.00000000
v 0.30000000 1.35000000 1.05000000
v 0.30000000 1.35000000 1.00000000
v 0.60000000 1.35000000 1.00000000
v 0.30000000 1.35000000 -0.05000000
v 0.65000000 1.35000000 -0.05000000
v 0.65000000 1.35000000 1.05000000
v 0.30000000 1.55000000 1.05000000
v 0.65000000 1.55000000 1.05000000
v 0.30000000 1.55000000 -0.05000000
v 0.65000000 1.55000000 -0.05000000
v 0.30000000 1.50000000 -0.00000000
v 0.30000000 1.50000000 1.00000000
v 0.30000000 0.00000000 1.00000000
v 0.60000000 0.00000000 1.00000000
vt 0.00000000 0.00000000
vt 1.00000000 0.00000000
vt 1.00000000 1.00000000
vt 0.00000000 1.00000000
vt 0.00000000 0.00000000
vt 1.00000000 0.00000000
vt 1.00000000 1.00000000
vt 0.00000000 1.00000000
vt 0.00000000 0.00000000
vt 1.00000000 0.00000000
vt 1.00000000 1.00000000
vt 0.00000000 1.00000000
vt 0.00000000 0.00000000
vt 1.00000000 0.00000000
vt 1.00000000 1.00000000
vt 0.00000000 1.00000000
vt 1.00000000 1.00000000
vt 0.00000000 1.00000000
vt 0.00000000 0.00000000
vt 1.00000000 0.00000000
vt 0.00000000 1.00000000
vt 0.00000000 0.00000000
vt 1.00000000 0.00000000
vt 1.00000000 1.00000000
vt 0.00000000 0.00000000
vt 0.04545455 0.00000000
vt 0.04545455 0.85714286
vt 0.18181818 0.85714286
vt 0.81818182 0.85714286
vt 0.95454545 0.85714286
vt 0.95454545 0.00000000
vt 1.00000000 0.00000000
vt 1.00000000 1.00000000
vt 0.00000000 1.00000000
vt 0.00000000 0.00000000
vt 1.00000000 0.00000000
vt 1.00000000 1.00000000
vt 0.00000000 1.00000000
vt 0.00000000 0.00000000
vt 1.00000000 0.00000000
vt 1.00000000 1.00000000
vt 0.00000000 1.00000000
vt 0.00000000 0.00000000
vt 1.00000000 0.00000000
vt 1.00000000 1.00000000
vt 0.00000000 1.00000000
vt 0.00000000 0.00000000
vt 1.00000000 0.00000000
vt 1.00000000 1.00000000
vt 0.00000000 1.00000000
vt 1.00000000 0.00000000
vt 1.00000000 1.00000000
vt 0.00000000 1.00000000
vt 0.00000000 0.95454545
vt 0.75000000 0.95454545
vt 0.75000000 0.04545455
vt 0.00000000 0.04545455
vt 0.00000000 0.00000000
vt 1.00000000 1.00000000
vt 0.00000000 1.00000000
vt 0.00000000 0.00000000
vt 1.00000000 0.00000000
vt 1.00000000 1.00000000
vt 0.00000000 1.00000000
vt 0.00000000 0.90000000
vt 0.00000000 0.00000000
vt 0.15000000 0.00000000
vt 0.15000000 0.90000000
vt 0.85000000 0.90000000
vt 0.85000000 0.00000000
vt 1.00000000 0.00000000
vt 1.00000000 0.90000000
vt 0.00000000 0.00000000
vt 1.00000000 0.00000000
vt 1.00000000 1.00000000
vt 0.00000000 1.00000000
vt 0.00000000 1.00000000
vt 0.00000000 0.00000000
vt 1.00000000 0.00000000
vt 1.00000000 1.00000000
vn 0.00000000 0.00000000 -1.00000000
vn 0.00000000 0.00000000 -1.00000000
vn 0.00000000 0.00000000 -1.00000000
vn 0.00000000 0.00000000 -1.00000000
vn 0.00000000 -1.00000000 0.00000000
vn 0.00000000 -1.00000000 0.00000000
vn 0.00000000 -1.00000000 0.00000000
vn 0.00000000 -1.00000000 0.00000000
vn 0.00000000 0.00000000 1.00000000
vn 0.00000000 0.00000000 1.00000000
vn 0.00000000 0.00000000 1.00000000
vn 0.00000000 0.00000000 1.00000000
vn 0.00000000 -1.00000000 0.00000000
vn 0.00000000 -1.00000000 0.00000000
vn 0.00000000 -1.00000000 0.00000000
vn 0.00000000 -1.00000000 0.00000000
vn -0.00000000 0.00000000 -1.00000000
vn -0.00000000 0.00000000 -1.00000000
vn -0.00000000 0.00000000 -1.00000000
vn -0.00000000 0.00000000 -1.00000000
vn 1.00000000 0.00000000 0.00000000
vn 1.00000000 0.00000000 0.00000000
vn 1.00000000 0.00000000 0.00000000
vn 1.00000000 0.00000000 0.00000000
vn 0.00000000 -1.00000000 0.00000000
vn 0.00000000 -1.00000000 0.00000000
vn 0.00000000 -1.00000000 0.00000000
vn 0.00000000 -1.00000000 0.00000000
vn 0.00000000 -1.00000000 0.00000000
vn 0.00000000 -1.00000000 0.00000000
vn 0.00000000 -1.00000000 0.00000000
vn 0.00000000 -1.00000000 0.00000000
vn 0.00000000 0.00000000 1.00000000
vn 0.00000000 0.00000000 1.00000000
vn 0.00000000 0.00000000 1.00000000
vn 0.00000000 0.00000000 1.00000000
vn 0.00000000 1.00000000 0.00000000
vn 0.00000000 1.00000000 0.00000000
vn 0.00000000 1.00000000 0.00000000
vn 0.00000000 1.00000000 0.00000000
vn 1.00000000 0.00000000 0.00000000
vn 1.00000000 0.00000000 0.00000000
vn 1.00000000 0.00000000 0.00000000
vn 1.00000000 0.00000000 0.00000000
vn 0.00000000 0.00000000 -1.00000000
vn 0.00000000 0.00000000 -1.00000000
vn 0.00000000 0.00000000 -1.00000000
vn 0.00000000 0.00000000 -1.00000000
vn -1.00000000 0.00000000 0.00000000
vn -1.00000000 0.00000000 0.00000000
vn -1.00000000 0.00000000 0.00000000
vn -1.00000000 0.00000000 0.00000000
vn -1.00000000 0.00000000 0.00000000
vn -1.00000000 0.00000000 0.00000000
vn -1.00000000 0.00000000 0.00000000
vn -1.00000000 0.00000000 0.00000000
vn 0.00000000 -0.00000000 1.00000000
vn 0.00000000 -0.00000000 1.00000000
vn 0.00000000 -0.00000000 1.00000000
vn 0.00000000 -0.00000000 1.00000000
vn -1.00000000 0.00000000 0.00000000
vn -1.00000000 0.00000000 0.00000000
vn -1.00000000 0.00000000 0.00000000
vn -1.00000000 0.00000000 0.00000000
vn -1.00000000 0.00000000 0.00000000
vn -1.00000000 0.00000000 0.00000000
vn 0.00000000 -1.00000000 0.00000000
vn 0.00000000 -1.00000000 0.00000000
vn 0.00000000 -1.00000000 0.00000000
vn 0.00000000 -1.00000000 0.00000000
vn 1.00000000 0.00000000 0.00000000
vn 1.00000000 0.00000000 0.00000000
vn 1.00000000 0.00000000 0.00000000
vn 1.00000000 0.00000000 0.00000000
s 1
usemtl Wood_Darker
f 20/52/52 19/51/51 17/49/49
f 19/51/51 18/50/50 17/49/49
s 2
f 22/56/56 21/55/55 19/54/54
f 34/82/80 31/75/75 19/76/54
f 29/73/73 30/74/74 31/75/75
f 34/82/80 29/73/73 31/75/75
f 21/77/55 33/81/79 34/82/80
f 27/78/76 32/80/78 33/81/79
f 27/78/76 28/79/77 32/80/78
f 34/82/80 19/76/54 21/77/55
f 21/77/55 27/78/76 33/81/79
f 22/56/56 19/54/54 20/53/53
s 3
f 24/60/60 23/59/59 22/57/57
f 23/59/59 21/58/58 22/57/57
s 4
f 26/64/64 25/63/63 23/62/62
f 26/64/64 23/62/62 24/61/61
s 5
f 27/65/65 25/66/66 28/68/68
f 25/66/66 26/67/67 28/68/68
s 6
f 21/69/69 23/70/70 27/72/72
f 23/70/70 25/71/71 27/72/72
s 7
f 34/86/84 36/85/83 29/83/81
f 36/85/83 35/84/82 29/83/81
s 8
f 36/90/88 38/89/87 35/87/85
f 38/89/87 37/88/86 35/87/85
s 9
f 33/94/92 38/93/91 34/91/89
f 38/93/91 36/92/90 34/91/89
s 10
f 32/95/93 37/96/94 33/98/96
f 37/96/94 38/97/95 33/98/96
s 11
f 32/101/99 28/102/100 39/103/101
f 35/99/97 37/100/98 39/103/101
f 40/104/102 29/106/104 35/99/97
f 22/117/112 20/116/111 40/112/102
f 20/116/111 41/114/109 30/113/103
f 20/116/111 17/115/110 41/114/109
f 26/119/114 24/118/113 22/117/112
f 20/116/111 30/113/103 40/112/102
f 40/104/102 30/105/103 29/106/104
f 39/103/101 40/104/102 35/99/97
f 28/120/100 26/119/114 22/117/112
f 22/117/112 40/112/102 28/120/100
f 40/112/102 39/111/101 28/120/100
f 37/100/98 32/101/99 39/103/101
s 12
f 30/107/105 41/108/106 31/110/108
f 41/108/106 42/109/107 31/110/108
s 13
f 17/124/118 18/123/117 42/122/116
f 17/124/118 42/122/116 41/121/115
s 14
f 31/125/119 42/126/120 19/128/122
f 42/126/120 18/127/121 19/128/122
