mtllib Materials_Modular_Village.mtl
o object1
g object1
v -0.40000000 -0.10000000 -0.50000000
v -0.40000000 -0.10000000 0.50000000
v -0.60000000 -0.10000000 0.50000000
v -0.60000000 -0.10000000 -0.50000000
v -0.40000000 0.10000000 -0.11000000
v -0.40000000 0.10000000 0.50000000
v -0.40000000 0.10000000 -0.50000000
v -0.40000000 0.10000000 -0.26000000
v -0.40000000 0.05000000 -0.17000000
v -0.45000000 0.10000000 -0.17000000
v -0.60000000 0.10000000 0.50000000
v -0.60000000 0.10000000 -0.50000000
vt 1.00000000 1.00000000
vt 0.00000000 1.00000000
vt 0.00000000 0.00000000
vt 1.00000000 0.00000000
vt 1.00000000 0.39000000
vt 1.00000000 1.00000000
vt 0.00000000 1.00000000
vt 0.00000000 0.00000000
vt 1.00000000 0.00000000
vt 1.00000000 0.24000000
vt 0.75000000 0.33000000
vt 1.00000000 0.00000000
vt 1.00000000 1.00000000
vt 0.00000000 0.20000000
vt 1.00000000 0.00000000
vt 1.00000000 1.00000000
vt 0.00000000 0.90000000
vt 0.61000000 1.00000000
vt 0.00000000 1.00000000
vt 0.00000000 0.00000000
vt 1.00000000 0.00000000
vt 1.00000000 1.00000000
vt 0.76000000 1.00000000
vt 0.67000000 0.75000000
vt 0.00000000 0.00000000
vt 1.00000000 0.00000000
vt 1.00000000 1.00000000
vt 0.00000000 1.00000000
vt 1.00000000 0.00000000
vt 1.00000000 1.00000000
vt 0.00000000 1.00000000
vt 0.00000000 0.00000000
vt 0.00000000 1.00000000
vt 0.00000000 0.00000000
vt 1.00000000 0.00000000
vt 1.00000000 1.00000000
vn 0.00000000 -1.00000000 0.00000000
vn 0.00000000 -1.00000000 0.00000000
vn 0.00000000 -1.00000000 0.00000000
vn 0.00000000 -1.00000000 0.00000000
vn 1.00000000 0.00000000 0.00000000
vn 1.00000000 0.00000000 0.00000000
vn 1.00000000 0.00000000 0.00000000
vn 1.00000000 0.00000000 0.00000000
vn 1.00000000 0.00000000 0.00000000
vn 1.00000000 0.00000000 0.00000000
vn 1.00000000 0.00000000 0.00000000
vn 0.60920770 0.60920770 -0.50767308
vn 0.60920770 0.60920770 -0.50767308
vn 0.60920770 0.60920770 -0.50767308
vn 0.65814518 0.65814518 0.36563621
vn 0.65814518 0.65814518 0.36563621
vn 0.65814518 0.65814518 0.36563621
vn 0.00000000 1.00000000 0.00000000
vn 0.00000000 1.00000000 0.00000000
vn 0.00000000 1.00000000 0.00000000
vn 0.00000000 1.00000000 0.00000000
vn 0.00000000 1.00000000 0.00000000
vn 0.00000000 1.00000000 0.00000000
vn 0.00000000 1.00000000 0.00000000
vn 0.00000000 0.00000000 -1.00000000
vn 0.00000000 0.00000000 -1.00000000
vn 0.00000000 0.00000000 -1.00000000
vn 0.00000000 0.00000000 -1.00000000
vn -1.00000000 0.00000000 0.00000000
vn -1.00000000 0.00000000 0.00000000
vn -1.00000000 0.00000000 0.00000000
vn -1.00000000 0.00000000 0.00000000
vn 0.00000000 0.00000000 1.00000000
vn 0.00000000 0.00000000 1.00000000
vn 0.00000000 0.00000000 1.00000000
vn 0.00000000 0.00000000 1.00000000
s 1
usemtl Wood_Darker
f 1/1/1 2/2/2 4/4/4
f 2/2/2 3/3/3 4/4/4
s 2
f 1/8/8 7/9/9 8/10/10
f 2/7/7 1/8/8 9/11/11
f 5/5/5 2/7/7 9/11/11
f 5/5/5 6/6/6 2/7/7
f 1/8/8 8/10/10 9/11/11
s 3
usemtl Wood_Medium
f 10/12/12 5/13/13 9/14/14
s 4
f 8/15/15 10/16/16 9/17/17
s 5
usemtl Wood_Darker
f 8/23/23 7/22/22 12/21/21
f 10/24/24 12/21/21 11/20/20
f 11/20/20 6/19/19 5/18/18
f 10/24/24 11/20/20 5/18/18
f 10/24/24 8/23/23 12/21/21
s 6
f 4/25/25 12/26/26 1/28/28
f 12/26/26 7/27/27 1/28/28
s 7
f 4/32/32 3/31/31 12/29/29
f 3/31/31 11/30/30 12/29/29
s 8
f 6/36/36 11/35/35 2/33/33
f 11/35/35 3/34/34 2/33/33
