mtllib Materials_Modular_Village.mtl
o object1
g object1
v 0.50000000 0.83750000 0.01250000
v 0.50000000 0.55000000 0.01250000
v 0.47500000 0.55000000 0.01250000
v 0.47500000 0.83750000 0.01250000
v 0.47500000 0.86250000 0.01250000
v 0.47500000 1.15000000 0.01250000
v 0.47500000 1.15000000 -0.01250000
v 0.47500000 0.86250000 -0.01250000
v 0.47500000 0.86250000 -0.20000000
v 0.47500000 0.83750000 -0.20000000
v 0.47500000 0.83750000 -0.01250000
v 0.47500000 0.55000000 -0.01250000
v 0.47500000 0.83750000 0.20000000
v 0.47500000 0.86250000 0.20000000
v 0.50000000 1.15000000 0.01250000
v 0.50000000 0.86250000 0.01250000
v 0.50000000 0.86250000 0.20000000
v 0.50000000 0.83750000 0.20000000
v 0.50000000 0.83750000 -0.01250000
v 0.50000000 0.55000000 -0.01250000
v 0.50000000 0.83750000 -0.20000000
v 0.50000000 0.86250000 -0.20000000
v 0.50000000 0.86250000 -0.01250000
v 0.50000000 1.15000000 -0.01250000
vt 1.00000000 1.00000000
vt 0.00000000 1.00000000
vt 0.00000000 0.00000000
vt 1.00000000 0.00000000
vt 0.52083333 0.46875000
vt 1.00000000 0.46875000
vt 1.00000000 0.53125000
vt 0.52083333 0.53125000
vt 0.52083333 1.00000000
vt 0.47916667 1.00000000
vt 0.47916667 0.53125000
vt 0.00000000 0.53125000
vt 0.00000000 0.46875000
vt 0.47916667 0.46875000
vt 0.47916667 0.00000000
vt 0.52083333 0.00000000
vt 0.00000000 0.00000000
vt 1.00000000 0.00000000
vt 1.00000000 1.00000000
vt 0.00000000 1.00000000
vt 1.00000000 1.00000000
vt 0.00000000 1.00000000
vt 0.00000000 0.00000000
vt 1.00000000 0.00000000
vt 0.00000000 0.00000000
vt 1.00000000 0.00000000
vt 1.00000000 1.00000000
vt 0.00000000 1.00000000
vt 1.00000000 1.00000000
vt 0.00000000 1.00000000
vt 0.00000000 0.00000000
vt 1.00000000 0.00000000
vt 0.00000000 0.00000000
vt 1.00000000 0.00000000
vt 1.00000000 1.00000000
vt 0.00000000 1.00000000
vt 0.00000000 0.00000000
vt 1.00000000 0.00000000
vt 1.00000000 1.00000000
vt 0.00000000 1.00000000
vt 0.00000000 0.00000000
vt 1.00000000 0.00000000
vt 1.00000000 1.00000000
vt 0.00000000 1.00000000
vt 0.00000000 0.00000000
vt 1.00000000 0.00000000
vt 1.00000000 1.00000000
vt 0.00000000 1.00000000
vt 0.00000000 0.00000000
vt 1.00000000 0.00000000
vt 1.00000000 1.00000000
vt 0.00000000 1.00000000
vt 1.00000000 1.00000000
vt 0.00000000 1.00000000
vt 0.00000000 0.00000000
vt 1.00000000 0.00000000
vt 0.47916667 0.46875000
vt 0.47916667 0.00000000
vt 0.52083333 0.00000000
vt 0.52083333 0.46875000
vt 1.00000000 0.46875000
vt 1.00000000 0.53125000
vt 0.52083333 0.53125000
vt 0.52083333 1.00000000
vt 0.47916667 1.00000000
vt 0.47916667 0.53125000
vt 0.00000000 0.53125000
vt 0.00000000 0.46875000
vt 0.00000000 0.00000000
vt 1.00000000 0.00000000
vt 1.00000000 1.00000000
vt 0.00000000 1.00000000
vn -0.00000000 0.00000000 1.00000000
vn -0.00000000 0.00000000 1.00000000
vn -0.00000000 0.00000000 1.00000000
vn -0.00000000 0.00000000 1.00000000
vn -1.00000000 -0.00000000 -0.00000000
vn -1.00000000 -0.00000000 -0.00000000
vn -1.00000000 -0.00000000 -0.00000000
vn -1.00000000 -0.00000000 -0.00000000
vn -1.00000000 -0.00000000 -0.00000000
vn -1.00000000 -0.00000000 -0.00000000
vn -1.00000000 -0.00000000 -0.00000000
vn -1.00000000 -0.00000000 -0.00000000
vn -1.00000000 -0.00000000 -0.00000000
vn -1.00000000 -0.00000000 -0.00000000
vn -1.00000000 -0.00000000 -0.00000000
vn -1.00000000 -0.00000000 -0.00000000
vn -0.00000000 0.00000000 1.00000000
vn -0.00000000 0.00000000 1.00000000
vn -0.00000000 0.00000000 1.00000000
vn -0.00000000 0.00000000 1.00000000
vn -0.00000000 1.00000000 0.00000000
vn -0.00000000 1.00000000 0.00000000
vn -0.00000000 1.00000000 0.00000000
vn -0.00000000 1.00000000 0.00000000
vn 0.00000000 0.00000000 1.00000000
vn 0.00000000 0.00000000 1.00000000
vn 0.00000000 0.00000000 1.00000000
vn 0.00000000 0.00000000 1.00000000
vn 0.00000000 0.00000000 -1.00000000
vn 0.00000000 0.00000000 -1.00000000
vn 0.00000000 0.00000000 -1.00000000
vn 0.00000000 0.00000000 -1.00000000
vn 0.00000000 -1.00000000 -0.00000000
vn 0.00000000 -1.00000000 -0.00000000
vn 0.00000000 -1.00000000 -0.00000000
vn 0.00000000 -1.00000000 -0.00000000
vn -0.00000000 -0.00000000 -1.00000000
vn -0.00000000 -0.00000000 -1.00000000
vn -0.00000000 -0.00000000 -1.00000000
vn -0.00000000 -0.00000000 -1.00000000
vn -0.00000000 1.00000000 0.00000000
vn -0.00000000 1.00000000 0.00000000
vn -0.00000000 1.00000000 0.00000000
vn -0.00000000 1.00000000 0.00000000
vn 0.00000000 0.00000000 -1.00000000
vn 0.00000000 0.00000000 -1.00000000
vn 0.00000000 0.00000000 -1.00000000
vn 0.00000000 0.00000000 -1.00000000
vn -0.00000000 1.00000000 -0.00000000
vn -0.00000000 1.00000000 -0.00000000
vn -0.00000000 1.00000000 -0.00000000
vn -0.00000000 1.00000000 -0.00000000
vn 0.00000000 -1.00000000 -0.00000000
vn 0.00000000 -1.00000000 -0.00000000
vn 0.00000000 -1.00000000 -0.00000000
vn 0.00000000 -1.00000000 -0.00000000
vn 1.00000000 0.00000000 0.00000000
vn 1.00000000 0.00000000 0.00000000
vn 1.00000000 0.00000000 0.00000000
vn 1.00000000 0.00000000 0.00000000
vn 1.00000000 0.00000000 0.00000000
vn 1.00000000 0.00000000 0.00000000
vn 1.00000000 0.00000000 0.00000000
vn 1.00000000 0.00000000 0.00000000
vn 1.00000000 0.00000000 0.00000000
vn 1.00000000 0.00000000 0.00000000
vn 1.00000000 0.00000000 0.00000000
vn 1.00000000 0.00000000 0.00000000
vn 0.00000000 -1.00000000 0.00000000
vn 0.00000000 -1.00000000 0.00000000
vn 0.00000000 -1.00000000 0.00000000
vn 0.00000000 -1.00000000 0.00000000
s 1
usemtl Wood_Darker
f 4/4/4 3/3/3 2/2/2
f 4/4/4 2/2/2 1/1/1
s 2
f 8/8/8 9/9/9 10/10/10
f 5/5/5 6/6/6 8/8/8
f 11/11/11 4/14/14 5/5/5
f 12/12/12 3/13/13 4/14/14
f 4/14/14 13/15/15 14/16/16
f 11/11/11 12/12/12 4/14/14
f 4/14/14 14/16/16 5/5/5
f 6/6/6 7/7/7 8/8/8
f 8/8/8 11/11/11 5/5/5
f 8/8/8 10/10/10 11/11/11
s 3
f 16/20/20 15/19/19 5/17/17
f 15/19/19 6/18/18 5/17/17
s 4
f 5/24/24 14/23/23 17/22/22
f 5/24/24 17/22/22 16/21/21
s 5
f 14/25/25 13/26/26 18/27/27
f 14/25/25 18/27/27 17/28/28
s 6
f 19/29/29 20/30/30 12/31/31
f 19/29/29 12/31/31 11/32/32
s 7
f 11/33/33 10/34/34 21/35/35
f 11/33/33 21/35/35 19/36/36
s 8
f 22/40/40 21/39/39 10/38/38
f 22/40/40 10/38/38 9/37/37
s 9
f 23/44/44 22/43/43 8/41/41
f 22/43/43 9/42/42 8/41/41
s 10
f 8/45/45 7/46/46 23/48/48
f 7/46/46 24/47/47 23/48/48
s 11
f 15/52/52 24/51/51 6/49/49
f 24/51/51 7/50/50 6/49/49
s 12
f 1/53/53 18/54/54 4/56/56
f 18/54/54 13/55/55 4/56/56
s 13
f 17/59/59 18/58/58 1/57/57
f 16/60/60 1/57/57 19/66/66
f 19/66/66 21/65/65 23/63/63
f 23/63/63 24/62/62 15/61/61
f 21/65/65 22/64/64 23/63/63
f 23/63/63 15/61/61 16/60/60
f 16/60/60 19/66/66 23/63/63
f 1/57/57 20/67/67 19/66/66
f 1/57/57 2/68/68 20/67/67
f 16/60/60 17/59/59 1/57/57
s 14
f 3/69/69 12/70/70 20/71/71
f 3/69/69 20/71/71 2/72/72
o object2
g object2
v 0.47500000 1.25000000 -0.30000000
v 0.50000000 1.25000000 -0.30000000
v 0.50000000 0.45000000 -0.30000000
v 0.47500000 0.45000000 -0.30000000
v 0.50000000 0.85000000 -0.30000000
v 0.50000000 0.45000000 0.30000000
v 0.47500000 0.45000000 0.30000000
v 0.47500000 1.25000000 0.30000000
v 0.50000000 1.25000000 0.30000000
v 0.50000000 0.85000000 0.30000000
v 0.50000000 0.85000000 0.50000000
v 0.50000000 2.00000000 0.50000000
v 0.50000000 2.00000000 -0.50000000
v 0.50000000 0.85000000 -0.50000000
v 0.50000000 0.00000000 -0.50000000
v 0.50000000 0.00000000 0.50000000
v -0.50000000 2.00000000 -0.50000000
v -0.50000000 0.00000000 -0.50000000
v -0.50000000 2.00000000 0.50000000
v -0.50000000 0.00000000 0.50000000
vt 1.00000000 0.00000000
vt 1.00000000 1.00000000
vt 0.00000000 1.00000000
vt 0.00000000 0.00000000
vt 0.50000000 1.00000000
vt 1.00000000 0.00000000
vt 1.00000000 1.00000000
vt 0.00000000 1.00000000
vt 0.00000000 0.00000000
vt 1.00000000 0.00000000
vt 1.00000000 1.00000000
vt 0.00000000 1.00000000
vt 0.00000000 0.00000000
vt 0.50000000 1.00000000
vt 0.00000000 0.00000000
vt 1.00000000 0.00000000
vt 1.00000000 1.00000000
vt 0.00000000 1.00000000
vt 1.00000000 0.00000000
vt 1.00000000 1.00000000
vt 0.00000000 1.00000000
vt 0.00000000 0.00000000
vt 0.80000000 0.57500000
vt 0.80000000 0.37500000
vt 0.20000000 0.37500000
vt 0.20000000 0.57500000
vt 0.00000000 0.57500000
vt 0.00000000 0.00000000
vt 1.00000000 0.00000000
vt 1.00000000 0.57500000
vt 0.20000000 0.77500000
vt 0.80000000 0.77500000
vt 1.00000000 1.00000000
vt 0.00000000 1.00000000
vt 1.00000000 0.00000000
vt 1.00000000 1.00000000
vt 0.00000000 1.00000000
vt 0.00000000 0.00000000
vt 0.42500000 0.00000000
vt 1.00000000 0.00000000
vt 1.00000000 1.00000000
vt 0.00000000 1.00000000
vt 0.00000000 0.00000000
vt 1.00000000 1.00000000
vt 0.00000000 1.00000000
vt 0.00000000 0.00000000
vt 1.00000000 0.00000000
vt 1.00000000 0.00000000
vt 1.00000000 1.00000000
vt 0.00000000 1.00000000
vt 0.00000000 0.00000000
vt 0.42500000 1.00000000
vt 1.00000000 1.00000000
vt 0.00000000 1.00000000
vt 0.00000000 0.00000000
vt 1.00000000 0.00000000
vn 0.00000000 0.00000000 1.00000000
vn 0.00000000 0.00000000 1.00000000
vn 0.00000000 0.00000000 1.00000000
vn 0.00000000 0.00000000 1.00000000
vn 0.00000000 0.00000000 1.00000000
vn 0.00000000 1.00000000 -0.00000000
vn 0.00000000 1.00000000 -0.00000000
vn 0.00000000 1.00000000 -0.00000000
vn 0.00000000 1.00000000 -0.00000000
vn 0.00000000 0.00000000 -1.00000000
vn 0.00000000 0.00000000 -1.00000000
vn 0.00000000 0.00000000 -1.00000000
vn 0.00000000 0.00000000 -1.00000000
vn 0.00000000 0.00000000 -1.00000000
vn 1.00000000 0.00000000 0.00000000
vn 1.00000000 0.00000000 0.00000000
vn 1.00000000 0.00000000 0.00000000
vn 1.00000000 0.00000000 0.00000000
vn -0.00000000 -1.00000000 -0.00000000
vn -0.00000000 -1.00000000 -0.00000000
vn -0.00000000 -1.00000000 -0.00000000
vn -0.00000000 -1.00000000 -0.00000000
vn 1.00000000 0.00000000 -0.00000000
vn 1.00000000 0.00000000 -0.00000000
vn 1.00000000 0.00000000 -0.00000000
vn 1.00000000 0.00000000 -0.00000000
vn 1.00000000 0.00000000 -0.00000000
vn 1.00000000 0.00000000 -0.00000000
vn 1.00000000 0.00000000 -0.00000000
vn 1.00000000 0.00000000 -0.00000000
vn 1.00000000 0.00000000 -0.00000000
vn 1.00000000 0.00000000 -0.00000000
vn 1.00000000 0.00000000 -0.00000000
vn 1.00000000 0.00000000 -0.00000000
vn 0.00000000 0.00000000 -1.00000000
vn 0.00000000 0.00000000 -1.00000000
vn 0.00000000 0.00000000 -1.00000000
vn 0.00000000 0.00000000 -1.00000000
vn 0.00000000 0.00000000 -1.00000000
vn -1.00000000 0.00000000 -0.00000000
vn -1.00000000 0.00000000 -0.00000000
vn -1.00000000 0.00000000 -0.00000000
vn -1.00000000 0.00000000 -0.00000000
vn 0.00000000 -1.00000000 0.00000000
vn 0.00000000 -1.00000000 0.00000000
vn 0.00000000 -1.00000000 0.00000000
vn 0.00000000 -1.00000000 0.00000000
vn 0.00000000 0.00000000 1.00000000
vn 0.00000000 0.00000000 1.00000000
vn 0.00000000 0.00000000 1.00000000
vn 0.00000000 0.00000000 1.00000000
vn 0.00000000 0.00000000 1.00000000
vn 0.00000000 1.00000000 0.00000000
vn 0.00000000 1.00000000 0.00000000
vn 0.00000000 1.00000000 0.00000000
vn 0.00000000 1.00000000 0.00000000
s 1
usemtl Stucco
f 29/77/77 26/74/74 25/73/73
f 28/76/76 29/77/77 25/73/73
f 28/76/76 27/75/75 29/77/77
s 2
f 31/81/81 30/80/80 27/79/79
f 31/81/81 27/79/79 28/78/78
s 3
f 32/82/82 33/83/83 34/86/86
f 34/86/86 30/84/84 31/85/85
f 32/82/82 34/86/86 31/85/85
s 4
usemtl Window
f 28/90/90 25/89/89 31/87/87
f 25/89/89 32/88/88 31/87/87
s 5
usemtl Stucco
f 25/91/91 26/92/92 33/93/93
f 25/91/91 33/93/93 32/94/94
s 6
f 26/96/96 29/95/95 38/102/102
f 39/105/105 38/102/102 27/104/104
f 40/106/106 39/105/105 30/103/103
f 30/103/103 34/98/98 35/99/99
f 36/100/100 35/99/99 33/97/97
f 37/101/101 36/100/100 33/97/97
f 35/99/99 34/98/98 33/97/97
f 30/103/103 35/99/99 40/106/106
f 39/105/105 27/104/104 30/103/103
f 38/102/102 29/95/95 27/104/104
f 33/97/97 26/96/96 37/101/101
f 26/96/96 38/102/102 37/101/101
s 7
f 38/111/111 39/110/110 42/109/109
f 42/109/109 41/108/108 38/111/111
f 41/108/108 37/107/107 38/111/111
s 8
f 42/115/115 44/114/114 41/112/112
f 44/114/114 43/113/113 41/112/112
s 9
f 39/119/119 40/118/118 42/116/116
f 40/118/118 44/117/117 42/116/116
s 10
f 44/123/123 40/122/122 35/124/124
f 35/124/124 36/121/121 43/120/120
f 44/123/123 35/124/124 43/120/120
s 11
f 41/125/125 43/126/126 36/127/127
f 41/125/125 36/127/127 37/128/128
o object3
g object3
v 0.55000000 0.55000000 -0.30000000
v 0.55000000 0.55000000 -0.20000000
v 0.40000000 0.55000000 -0.20000000
v 0.40000000 0.55000000 0.20000000
v 0.55000000 0.55000000 0.20000000
v 0.55000000 0.55000000 0.30000000
v 0.65000000 0.55000000 0.30000000
v 0.65000000 0.55000000 -0.30000000
v 0.55000000 1.15000000 -0.30000000
v 0.55000000 1.15000000 -0.20000000
v 0.55000000 1.15000000 0.20000000
v 0.55000000 1.15000000 0.30000000
v 0.40000000 1.15000000 0.30000000
v 0.40000000 1.15000000 0.35000000
v 0.60000000 1.15000000 0.35000000
v 0.60000000 1.15000000 -0.35000000
v 0.40000000 1.15000000 -0.35000000
v 0.40000000 1.15000000 -0.30000000
v 0.40000000 1.15000000 -0.20000000
v 0.40000000 1.15000000 0.20000000
v 0.60000000 1.25000000 0.35000000
v 0.40000000 1.25000000 0.35000000
v 0.40000000 1.25000000 -0.35000000
v 0.60000000 1.25000000 -0.35000000
v 0.65000000 0.50000000 -0.30000000
v 0.60000000 0.45000000 -0.30000000
v 0.40000000 0.45000000 -0.30000000
v 0.40000000 0.85000000 -0.30000000
v 0.40000000 0.45000000 0.30000000
v 0.60000000 0.45000000 0.30000000
v 0.65000000 0.50000000 0.30000000
v 0.40000000 0.85000000 0.30000000
v 0.40000000 0.85000000 0.20000000
v 0.40000000 0.85000000 -0.20000000
vt 0.60000000 1.00000000
vt 0.60000000 0.83333333
vt 0.00000000 0.83333333
vt 0.00000000 0.16666667
vt 0.60000000 0.16666667
vt 0.60000000 0.00000000
vt 1.00000000 0.00000000
vt 1.00000000 1.00000000
vt 1.00000000 0.00000000
vt 1.00000000 1.00000000
vt 0.00000000 1.00000000
vt 0.00000000 0.00000000
vt 0.75000000 0.21428571
vt 0.75000000 0.07142857
vt 0.00000000 0.07142857
vt 0.00000000 0.00000000
vt 1.00000000 0.00000000
vt 1.00000000 1.00000000
vt 0.00000000 1.00000000
vt 0.00000000 0.92857143
vt 0.75000000 0.92857143
vt 0.75000000 0.78571429
vt 0.00000000 0.78571429
vt 0.00000000 0.21428571
vt 0.00000000 0.00000000
vt 1.00000000 0.00000000
vt 1.00000000 1.00000000
vt 0.00000000 1.00000000
vt 0.00000000 1.00000000
vt 0.00000000 0.00000000
vt 1.00000000 0.00000000
vt 1.00000000 1.00000000
vt 0.00000000 0.00000000
vt 1.00000000 0.00000000
vt 1.00000000 1.00000000
vt 0.00000000 1.00000000
vt 0.00000000 0.00000000
vt 1.00000000 0.00000000
vt 1.00000000 1.00000000
vt 0.00000000 1.00000000
vt 1.00000000 0.60000000
vt 0.14285714 0.60000000
vt 0.14285714 1.00000000
vt 0.07142857 1.00000000
vt 0.00000000 0.80000000
vt 0.00000000 0.00000000
vt 1.00000000 0.00000000
vt 0.57142857 0.00000000
vt 1.00000000 1.00000000
vt 0.00000000 1.00000000
vt 0.00000000 0.00000000
vt 1.00000000 0.00000000
vt 0.00000000 1.00000000
vt 0.00000000 0.00000000
vt 1.00000000 0.00000000
vt 1.00000000 1.00000000
vt 0.00000000 0.00000000
vt 1.00000000 0.00000000
vt 1.00000000 1.00000000
vt 0.00000000 1.00000000
vt 1.00000000 0.60000000
vt 0.14285714 0.60000000
vt 0.14285714 1.00000000
vt 0.07142857 1.00000000
vt 0.00000000 0.80000000
vt 0.00000000 0.00000000
vt 1.00000000 0.00000000
vt 0.57142857 0.00000000
vt 1.00000000 0.00000000
vt 1.00000000 1.00000000
vt 0.00000000 1.00000000
vt 0.00000000 0.00000000
vt 0.00000000 0.00000000
vt 1.00000000 0.00000000
vt 1.00000000 1.00000000
vt 0.00000000 1.00000000
vt 0.00000000 0.50000000
vt 0.50000000 0.21428571
vt 0.12500000 0.21428571
vt 0.12500000 0.78571429
vt 0.50000000 0.78571429
vt 0.50000000 0.92857143
vt 0.00000000 0.92857143
vt 0.00000000 0.07142857
vt 0.50000000 0.07142857
vt 0.87500000 0.78571429
vt 0.87500000 0.21428571
vt 0.87500000 0.07142857
vt 0.87500000 0.00000000
vt 1.00000000 0.00000000
vt 1.00000000 1.00000000
vt 0.87500000 1.00000000
vt 0.87500000 0.92857143
vt 0.00000000 0.00000000
vt 1.00000000 0.00000000
vt 1.00000000 1.00000000
vt 0.00000000 1.00000000
vt 0.00000000 0.50000000
vn -0.00000000 1.00000000 -0.00000000
vn -0.00000000 1.00000000 -0.00000000
vn -0.00000000 1.00000000 -0.00000000
vn -0.00000000 1.00000000 -0.00000000
vn -0.00000000 1.00000000 -0.00000000
vn -0.00000000 1.00000000 -0.00000000
vn -0.00000000 1.00000000 -0.00000000
vn -0.00000000 1.00000000 -0.00000000
vn 1.00000000 0.00000000 0.00000000
vn 1.00000000 0.00000000 0.00000000
vn 1.00000000 0.00000000 0.00000000
vn 1.00000000 0.00000000 0.00000000
vn 0.00000000 -1.00000000 0.00000000
vn 0.00000000 -1.00000000 0.00000000
vn 0.00000000 -1.00000000 0.00000000
vn 0.00000000 -1.00000000 0.00000000
vn 0.00000000 -1.00000000 0.00000000
vn 0.00000000 -1.00000000 0.00000000
vn 0.00000000 -1.00000000 0.00000000
vn 0.00000000 -1.00000000 0.00000000
vn 0.00000000 -1.00000000 0.00000000
vn 0.00000000 -1.00000000 0.00000000
vn 0.00000000 -1.00000000 0.00000000
vn 0.00000000 -1.00000000 0.00000000
vn -0.00000000 0.00000000 1.00000000
vn -0.00000000 0.00000000 1.00000000
vn -0.00000000 0.00000000 1.00000000
vn -0.00000000 0.00000000 1.00000000
vn -0.00000000 1.00000000 -0.00000000
vn -0.00000000 1.00000000 -0.00000000
vn -0.00000000 1.00000000 -0.00000000
vn -0.00000000 1.00000000 -0.00000000
vn 1.00000000 0.00000000 0.00000000
vn 1.00000000 0.00000000 0.00000000
vn 1.00000000 0.00000000 0.00000000
vn 1.00000000 0.00000000 0.00000000
vn 0.00000000 0.00000000 -1.00000000
vn 0.00000000 0.00000000 -1.00000000
vn 0.00000000 0.00000000 -1.00000000
vn 0.00000000 0.00000000 -1.00000000
vn -0.00000000 -0.00000000 -1.00000000
vn -0.00000000 -0.00000000 -1.00000000
vn -0.00000000 -0.00000000 -1.00000000
vn -0.00000000 -0.00000000 -1.00000000
vn -0.00000000 -0.00000000 -1.00000000
vn -0.00000000 -0.00000000 -1.00000000
vn -0.00000000 -0.00000000 -1.00000000
vn -0.00000000 -0.00000000 -1.00000000
vn 0.00000000 -1.00000000 0.00000000
vn 0.00000000 -1.00000000 0.00000000
vn 0.00000000 -1.00000000 0.00000000
vn 0.00000000 -1.00000000 0.00000000
vn 0.70710678 -0.70710678 0.00000000
vn 0.70710678 -0.70710678 0.00000000
vn 0.70710678 -0.70710678 0.00000000
vn 0.70710678 -0.70710678 0.00000000
vn 1.00000000 0.00000000 0.00000000
vn 1.00000000 0.00000000 0.00000000
vn 1.00000000 0.00000000 0.00000000
vn 1.00000000 0.00000000 0.00000000
vn 0.00000000 0.00000000 1.00000000
vn 0.00000000 0.00000000 1.00000000
vn 0.00000000 0.00000000 1.00000000
vn 0.00000000 0.00000000 1.00000000
vn 0.00000000 0.00000000 1.00000000
vn 0.00000000 0.00000000 1.00000000
vn 0.00000000 0.00000000 1.00000000
vn 0.00000000 0.00000000 1.00000000
vn 1.00000000 0.00000000 0.00000000
vn 1.00000000 0.00000000 0.00000000
vn 1.00000000 0.00000000 0.00000000
vn 1.00000000 0.00000000 0.00000000
vn 0.00000000 0.00000000 -1.00000000
vn 0.00000000 0.00000000 -1.00000000
vn 0.00000000 0.00000000 -1.00000000
vn 0.00000000 0.00000000 -1.00000000
vn 0.00000000 0.00000000 -1.00000000
vn -1.00000000 -0.00000000 -0.00000000
vn -1.00000000 -0.00000000 -0.00000000
vn -1.00000000 -0.00000000 -0.00000000
vn -1.00000000 -0.00000000 -0.00000000
vn -1.00000000 -0.00000000 -0.00000000
vn -1.00000000 -0.00000000 -0.00000000
vn -1.00000000 -0.00000000 -0.00000000
vn -1.00000000 -0.00000000 -0.00000000
vn -1.00000000 -0.00000000 -0.00000000
vn -1.00000000 -0.00000000 -0.00000000
vn -1.00000000 -0.00000000 -0.00000000
vn -1.00000000 -0.00000000 -0.00000000
vn -1.00000000 -0.00000000 -0.00000000
vn -1.00000000 -0.00000000 -0.00000000
vn -1.00000000 -0.00000000 -0.00000000
vn -1.00000000 -0.00000000 -0.00000000
vn -0.00000000 0.00000000 1.00000000
vn -0.00000000 0.00000000 1.00000000
vn -0.00000000 0.00000000 1.00000000
vn -0.00000000 0.00000000 1.00000000
vn -0.00000000 0.00000000 1.00000000
s 1
usemtl Wood_Darker
f 52/136/136 45/129/129 46/130/130
f 46/130/130 47/131/131 49/133/133
f 49/133/133 50/134/134 51/135/135
f 47/131/131 48/132/132 49/133/133
f 49/133/133 51/135/135 52/136/136
f 52/136/136 46/130/130 49/133/133
s 2
f 45/137/137 53/138/138 46/140/140
f 53/138/138 54/139/139 46/140/140
s 3
f 58/144/144 57/143/143 56/142/142
f 59/145/145 56/142/142 55/141/141
f 55/141/141 54/150/150 60/146/146
f 53/149/149 61/147/147 60/146/146
f 53/149/149 62/148/148 61/147/147
f 54/150/150 53/149/149 60/146/146
f 55/141/141 63/151/151 54/150/150
f 55/141/141 64/152/152 63/151/151
f 60/146/146 59/145/145 55/141/141
f 59/145/145 58/144/144 56/142/142
s 4
f 58/153/153 59/154/154 66/156/156
f 59/154/154 65/155/155 66/156/156
s 5
f 67/157/157 66/158/158 65/159/159
f 67/157/157 65/159/159 68/160/160
s 6
f 60/164/164 68/163/163 59/161/161
f 68/163/163 65/162/162 59/161/161
s 7
f 67/168/168 68/167/167 60/166/166
f 67/168/168 60/166/166 61/165/165
s 8
f 52/171/171 69/172/172 70/173/173
f 45/170/170 70/173/173 71/174/174
f 53/169/169 45/170/170 72/176/176
f 72/176/176 62/175/175 53/169/169
f 45/170/170 71/174/174 72/176/176
f 45/170/170 52/171/171 70/173/173
s 9
f 74/180/180 73/179/179 71/178/178
f 74/180/180 71/178/178 70/177/177
s 10
f 75/184/184 74/183/183 69/181/181
f 74/183/183 70/182/182 69/181/181
s 11
f 69/188/188 52/187/187 75/185/185
f 52/187/187 51/186/186 75/185/185
s 12
f 74/193/193 75/192/192 51/191/191
f 73/194/194 74/193/193 50/190/190
f 76/196/196 50/190/190 56/189/189
f 56/189/189 57/195/195 76/196/196
f 76/196/196 73/194/194 50/190/190
f 74/193/193 51/191/191 50/190/190
s 13
f 49/197/197 55/198/198 56/199/199
f 49/197/197 56/199/199 50/200/200
s 14
f 49/202/202 48/201/201 77/205/205
f 77/205/205 64/204/204 55/203/203
f 55/203/203 49/202/202 77/205/205
s 15
f 47/208/208 78/209/209 72/210/210
f 62/221/221 78/209/209 63/214/214
f 63/214/214 66/218/218 67/219/219
f 64/215/215 57/216/216 66/218/218
f 77/206/206 76/213/213 57/216/216
f 73/212/212 76/213/213 48/207/207
f 48/207/207 71/211/211 73/212/212
f 76/213/213 77/206/206 48/207/207
f 64/215/215 77/206/206 57/216/216
f 57/216/216 58/217/217 66/218/218
f 63/214/214 64/215/215 66/218/218
f 67/219/219 62/221/221 63/214/214
f 67/219/219 61/220/220 62/221/221
f 62/221/221 72/210/210 78/209/209
f 48/207/207 47/208/208 71/211/211
f 47/208/208 72/210/210 71/211/211
s 16
f 78/226/226 47/222/222 46/223/223
f 46/223/223 54/224/224 78/226/226
f 54/224/224 63/225/225 78/226/226
