mtllib Materials_Modular_Village.mtl
o object1
g object1
v -0.45000000 0.54181017 0.50000000
v -0.45000000 0.43118797 0.50000000
v -0.55000000 0.43118797 0.50000000
v -0.55000000 0.54181017 0.50000000
v -0.55000000 0.06881203 -0.50000000
v -0.55000000 -0.04181017 -0.50000000
v -0.45000000 0.06881203 -0.50000000
v -0.45000000 -0.04181017 -0.50000000
vt 1.00000000 1.00000000
vt 0.00000000 1.00000000
vt 0.00000000 0.00000000
vt 1.00000000 0.00000000
vt 0.04100470 0.00000000
vt 1.00000000 0.00000000
vt 0.95899530 1.00000000
vt 0.00000000 1.00000000
vt 1.00000000 0.00000000
vt 1.00000000 1.00000000
vt 0.00000000 1.00000000
vt 0.00000000 0.00000000
vt 0.00000000 0.00000000
vt 1.00000000 0.00000000
vt 1.00000000 1.00000000
vt 0.00000000 1.00000000
vt 0.04100470 0.00000000
vt 1.00000000 0.00000000
vt 0.95899530 1.00000000
vt 0.00000000 1.00000000
vt 0.00000000 0.00000000
vt 1.00000000 0.00000000
vt 1.00000000 1.00000000
vt 0.00000000 1.00000000
vn 0.00000000 0.00000000 1.00000000
vn 0.00000000 0.00000000 1.00000000
vn 0.00000000 0.00000000 1.00000000
vn 0.00000000 0.00000000 1.00000000
vn -1.00000000 0.00000000 0.00000000
vn -1.00000000 0.00000000 0.00000000
vn -1.00000000 0.00000000 0.00000000
vn -1.00000000 0.00000000 0.00000000
vn 0.00000000 0.00000000 -1.00000000
vn 0.00000000 0.00000000 -1.00000000
vn 0.00000000 0.00000000 -1.00000000
vn 0.00000000 0.00000000 -1.00000000
vn 0.00000000 0.90397764 -0.42757974
vn 0.00000000 0.90397764 -0.42757974
vn 0.00000000 0.90397764 -0.42757974
vn 0.00000000 0.90397764 -0.42757974
vn 1.00000000 0.00000000 0.00000000
vn 1.00000000 0.00000000 0.00000000
vn 1.00000000 0.00000000 0.00000000
vn 1.00000000 0.00000000 0.00000000
vn 0.00000000 -0.90397764 0.42757974
vn 0.00000000 -0.90397764 0.42757974
vn 0.00000000 -0.90397764 0.42757974
vn 0.00000000 -0.90397764 0.42757974
s 1
usemtl Wood_Dark
f 4/4/4 3/3/3 1/1/1
f 3/3/3 2/2/2 1/1/1
s 2
f 6/8/8 3/7/7 5/5/5
f 3/7/7 4/6/6 5/5/5
s 3
f 5/9/9 7/10/10 6/12/12
f 7/10/10 8/11/11 6/12/12
s 4
f 5/16/16 4/15/15 1/14/14
f 5/16/16 1/14/14 7/13/13
s 5
f 7/17/17 1/18/18 2/19/19
f 7/17/17 2/19/19 8/20/20
s 6
f 8/21/21 2/22/22 6/24/24
f 2/22/22 3/23/23 6/24/24
