mtllib Materials_Modular_Village.mtl
o flume_ramp_supported
g flume_ramp_supported
v -0.10000000 0.00000000 -0.10000000
v -0.10000000 0.15000000 -0.10000000
v 0.10000000 0.10000000 -0.10000000
v 0.10000000 0.00000000 -0.10000000
v -0.10000000 0.00000000 0.10000000
v -0.10000000 0.15000000 0.10000000
v 0.10000000 0.10000000 0.10000000
v 0.10000000 0.00000000 0.10000000
vt 0.00000000 0.00000000
vt 1.00000000 0.00000000
vt 0.66666667 1.00000000
vt 0.00000000 1.00000000
vt 0.00000000 0.00000000
vt 1.00000000 0.00000000
vt 1.00000000 1.00000000
vt 0.00000000 1.00000000
vt 0.00000000 0.00000000
vt 1.00000000 0.00000000
vt 0.66666667 1.00000000
vt 0.00000000 1.00000000
vt 1.00000000 1.00000000
vt 0.00000000 1.00000000
vt 0.00000000 0.00000000
vt 1.00000000 0.00000000
vt 0.00000000 0.00000000
vt 1.00000000 0.00000000
vt 1.00000000 1.00000000
vt 0.00000000 1.00000000
vt 1.00000000 0.00000000
vt 1.00000000 1.00000000
vt 0.00000000 1.00000000
vt 0.00000000 0.00000000
vn 0.00000000 0.00000000 -1.00000000
vn 0.00000000 0.00000000 -1.00000000
vn 0.00000000 0.00000000 -1.00000000
vn 0.00000000 0.00000000 -1.00000000
vn -1.00000000 0.00000000 0.00000000
vn -1.00000000 0.00000000 0.00000000
vn -1.00000000 0.00000000 0.00000000
vn -1.00000000 0.00000000 0.00000000
vn 0.00000000 0.00000000 1.00000000
vn 0.00000000 0.00000000 1.00000000
vn 0.00000000 0.00000000 1.00000000
vn 0.00000000 0.00000000 1.00000000
vn 0.00000000 -1.00000000 0.00000000
vn 0.00000000 -1.00000000 0.00000000
vn 0.00000000 -1.00000000 0.00000000
vn 0.00000000 -1.00000000 0.00000000
vn 1.00000000 0.00000000 0.00000000
vn 1.00000000 0.00000000 0.00000000
vn 1.00000000 0.00000000 0.00000000
vn 1.00000000 0.00000000 0.00000000
vn 0.24253563 0.97014250 -0.00000000
vn 0.24253563 0.97014250 -0.00000000
vn 0.24253563 0.97014250 0.00000000
vn 0.24253563 0.97014250 0.00000000
s 1
usemtl Wood_Darker
f 1/1/1 2/2/2 3/3/3
f 1/1/1 3/3/3 4/4/4
s 2
f 5/5/5 6/6/6 1/8/8
f 6/6/6 2/7/7 1/8/8
s 3
f 8/12/12 7/11/11 5/9/9
f 7/11/11 6/10/10 5/9/9
s 4
f 4/13/13 8/14/14 1/16/16
f 8/14/14 5/15/15 1/16/16
s 5
f 4/20/20 3/19/19 8/17/17
f 3/19/19 7/18/18 8/17/17
s 6
usemtl Wood_Medium
f 2/21/21 6/22/22 7/23/23
f 2/21/21 7/23/23 3/24/24
v -0.50000000 0.47500000 -0.25000000
v 0.50000000 0.22500000 -0.25000000
v 0.50000000 0.25384615 -0.18076923
v -0.50000000 0.50384615 -0.18076923
v 0.50000000 0.07500000 -0.10000000
v -0.50000000 0.32500000 -0.10000000
v 0.50000000 0.07500000 0.10000000
v -0.50000000 0.32500000 0.10000000
v 0.50000000 0.25384615 0.18076923
v -0.50000000 0.50384615 0.18076923
v 0.50000000 0.22500000 0.25000000
v -0.50000000 0.47500000 0.25000000
v 0.50000000 0.00000000 0.15000000
v -0.50000000 0.25000000 0.15000000
v 0.50000000 0.00000000 -0.15000000
v -0.50000000 0.25000000 -0.15000000
vt 1.00000000 1.00000000
vt 0.00000000 1.00000000
vt 0.00000000 0.00000000
vt 1.00000000 0.00000000
vt 1.00000000 1.00000000
vt 0.00000000 1.00000000
vt 0.00000000 0.00000000
vt 1.00000000 0.00000000
vt 1.00000000 1.00000000
vt 0.00000000 1.00000000
vt 0.00000000 0.00000000
vt 1.00000000 0.00000000
vt 1.00000000 1.00000000
vt 0.00000000 1.00000000
vt 0.00000000 0.00000000
vt 1.00000000 0.00000000
vt 1.00000000 1.00000000
vt 0.00000000 1.00000000
vt 0.00000000 0.00000000
vt 1.00000000 0.00000000
vt 1.00000000 1.00000000
vt 0.00000000 1.00000000
vt 0.00000000 0.00000000
vt 1.00000000 0.00000000
vt 1.00000000 1.00000000
vt 0.00000000 1.00000000
vt 0.00000000 0.00000000
vt 1.00000000 0.00000000
vt 0.29545455 0.70000000
vt 1.00000000 0.86153846
vt 0.88636364 1.00000000
vt 0.00000000 0.80000000
vt 0.00000000 0.20000000
vt 0.88636364 0.00000000
vt 1.00000000 0.13846154
vt 0.29545455 0.30000000
vt 1.00000000 1.00000000
vt 0.00000000 1.00000000
vt 0.00000000 0.00000000
vt 1.00000000 0.00000000
vt 0.29545455 0.70000000
vt 1.00000000 0.86153846
vt 0.88636364 1.00000000
vt 0.00000000 0.80000000
vt 0.00000000 0.20000000
vt 0.88636364 0.00000000
vt 1.00000000 0.13846154
vt 0.29545455 0.30000000
vn 0.22485951 0.89943803 -0.37476584
vn 0.22485951 0.89943803 -0.37476584
vn 0.22485951 0.89943803 -0.37476584
vn 0.22485951 0.89943803 -0.37476584
vn 0.10235625 0.40942499 0.90658390
vn 0.10235625 0.40942499 0.90658390
vn 0.10235625 0.40942499 0.90658390
vn 0.10235625 0.40942499 0.90658390
vn 0.24253563 0.97014250 0.00000000
vn 0.24253563 0.97014250 0.00000000
vn 0.24253563 0.97014250 0.00000000
vn 0.24253563 0.97014250 0.00000000
vn 0.10235625 0.40942499 -0.90658390
vn 0.10235625 0.40942499 -0.90658390
vn 0.10235625 0.40942499 -0.90658390
vn 0.10235625 0.40942499 -0.90658390
vn 0.22485951 0.89943803 0.37476584
vn 0.22485951 0.89943803 0.37476584
vn 0.22485951 0.89943803 0.37476584
vn 0.22485951 0.89943803 0.37476584
vn -0.10101525 -0.40406102 0.90913729
vn -0.10101525 -0.40406102 0.90913729
vn -0.10101525 -0.40406102 0.90913729
vn -0.10101525 -0.40406102 0.90913729
vn -0.24253563 -0.97014250 0.00000000
vn -0.24253563 -0.97014250 0.00000000
vn -0.24253563 -0.97014250 0.00000000
vn -0.24253563 -0.97014250 0.00000000
vn -1.00000000 -0.00000000 0.00000000
vn -1.00000000 -0.00000000 0.00000000
vn -1.00000000 -0.00000000 0.00000000
vn -1.00000000 -0.00000000 0.00000000
vn -1.00000000 -0.00000000 0.00000000
vn -1.00000000 -0.00000000 0.00000000
vn -1.00000000 -0.00000000 0.00000000
vn -1.00000000 -0.00000000 0.00000000
vn -0.10101525 -0.40406102 -0.90913729
vn -0.10101525 -0.40406102 -0.90913729
vn -0.10101525 -0.40406102 -0.90913729
vn -0.10101525 -0.40406102 -0.90913729
vn 1.00000000 0.00000000 0.00000000
vn 1.00000000 0.00000000 0.00000000
vn 1.00000000 0.00000000 0.00000000
vn 1.00000000 0.00000000 0.00000000
vn 1.00000000 0.00000000 0.00000000
vn 1.00000000 0.00000000 0.00000000
vn 1.00000000 0.00000000 0.00000000
vn 1.00000000 0.00000000 0.00000000
s 1
usemtl Wood_Dark
f 12/28/28 11/27/27 9/25/25
f 11/27/27 10/26/26 9/25/25
s 2
f 14/32/32 13/31/31 11/30/30
f 14/32/32 11/30/30 12/29/29
s 3
usemtl Wood_Medium
f 16/36/36 15/35/35 13/34/34
f 16/36/36 13/34/34 14/33/33
s 4
usemtl Wood_Dark
f 18/40/40 17/39/39 16/37/37
f 17/39/39 15/38/38 16/37/37
s 5
f 20/44/44 19/43/43 17/42/42
f 20/44/44 17/42/42 18/41/41
s 6
f 22/48/48 21/47/47 19/46/46
f 22/48/48 19/46/46 20/45/45
s 7
usemtl Wood_Medium
f 24/52/52 23/51/51 21/50/50
f 24/52/52 21/50/50 22/49/49
s 8
usemtl Wood_Dark
f 20/58/58 18/59/59 16/60/60
f 24/56/56 22/57/57 16/60/60
f 14/53/53 9/55/55 24/56/56
f 14/53/53 12/54/54 9/55/55
f 16/60/60 14/53/53 24/56/56
f 22/57/57 20/58/58 16/60/60
s 9
f 9/64/64 10/63/63 24/61/61
f 10/63/63 23/62/62 24/61/61
s 10
f 15/72/72 17/71/71 19/70/70
f 15/72/72 21/69/69 23/68/68
f 23/68/68 10/67/67 13/65/65
f 10/67/67 11/66/66 13/65/65
f 23/68/68 13/65/65 15/72/72
f 15/72/72 19/70/70 21/69/69
v -0.08488747 0.34852920 0.18076923
v -0.07276069 0.39703633 0.18076923
v 0.07276069 0.36065598 0.18076923
v 0.06063391 0.31214886 0.18076923
v 0.07276069 0.36065598 -0.18076923
v 0.06063391 0.31214886 -0.18076923
v -0.07276069 0.39703633 -0.18076923
v -0.08488747 0.34852920 -0.18076923
vt 1.00000000 1.00000000
vt 0.00000000 1.00000000
vt 0.00000000 0.00000000
vt 1.00000000 0.00000000
vt 1.00000000 1.00000000
vt 0.00000000 1.00000000
vt 0.00000000 0.00000000
vt 1.00000000 0.00000000
vt 1.00000000 1.00000000
vt 0.00000000 1.00000000
vt 0.00000000 0.00000000
vt 1.00000000 0.00000000
vt 1.00000000 1.00000000
vt 0.00000000 1.00000000
vt 0.00000000 0.00000000
vt 1.00000000 0.00000000
vt 1.00000000 1.00000000
vt 0.00000000 1.00000000
vt 0.00000000 0.00000000
vt 1.00000000 0.00000000
vt 1.00000000 1.00000000
vt 0.00000000 1.00000000
vt 0.00000000 0.00000000
vt 1.00000000 0.00000000
vn 0.00000000 0.00000000 1.00000000
vn 0.00000000 0.00000000 1.00000000
vn 0.00000000 0.00000000 1.00000000
vn 0.00000000 0.00000000 1.00000000
vn 0.97014250 -0.24253563 0.00000000
vn 0.97014250 -0.24253563 0.00000000
vn 0.97014250 -0.24253563 0.00000000
vn 0.97014250 -0.24253563 0.00000000
vn -0.00000000 0.00000000 -1.00000000
vn -0.00000000 0.00000000 -1.00000000
vn -0.00000000 0.00000000 -1.00000000
vn -0.00000000 0.00000000 -1.00000000
vn -0.24253563 -0.97014250 0.00000000
vn -0.24253563 -0.97014250 0.00000000
vn -0.24253563 -0.97014250 0.00000000
vn -0.24253563 -0.97014250 0.00000000
vn -0.97014250 0.24253563 0.00000000
vn -0.97014250 0.24253563 0.00000000
vn -0.97014250 0.24253563 0.00000000
vn -0.97014250 0.24253563 0.00000000
vn 0.24253563 0.97014250 -0.00000000
vn 0.24253563 0.97014250 -0.00000000
vn 0.24253563 0.97014250 -0.00000000
vn 0.24253563 0.97014250 -0.00000000
s 1
usemtl Wood_Dark
f 28/76/76 27/75/75 26/74/74
f 28/76/76 26/74/74 25/73/73
s 2
f 30/80/80 29/79/79 27/78/78
f 30/80/80 27/78/78 28/77/77
s 3
f 32/84/84 31/83/83 29/82/82
f 32/84/84 29/82/82 30/81/81
s 4
f 30/85/85 28/86/86 32/88/88
f 28/86/86 25/87/87 32/88/88
s 5
f 25/92/92 26/91/91 31/90/90
f 25/92/92 31/90/90 32/89/89
s 6
f 31/96/96 26/95/95 27/94/94
f 31/96/96 27/94/94 29/93/93
