mtllib Materials_Modular_Village.mtl
o object1
g object1
v -0.88750000 0.70000000 -0.50000000
v -0.70000000 0.70000000 -0.50000000
v -0.70000000 0.65000000 -0.50000000
v -0.72500000 0.65000000 -0.50000000
v -0.70000000 0.50000000 -0.50000000
v -0.51250000 0.50000000 -0.50000000
v -0.50000000 0.45000000 -0.50000000
v -0.48750000 0.50000000 -0.50000000
v -0.30000000 0.50000000 -0.50000000
v -0.30000000 0.45000000 -0.50000000
v -0.32500000 0.45000000 -0.50000000
v -0.30000000 0.30000000 -0.50000000
v -0.11250000 0.30000000 -0.50000000
v -0.10000000 0.25000000 -0.50000000
v -0.08750000 0.30000000 -0.50000000
v 0.10000000 0.30000000 -0.50000000
v 0.10000000 0.25000000 -0.50000000
v 0.07500000 0.25000000 -0.50000000
v 0.10000000 0.10000000 -0.50000000
v 0.28750000 0.10000000 -0.50000000
v 0.30000000 0.05000000 -0.50000000
v 0.31250000 0.10000000 -0.50000000
v 0.50000000 0.10000000 -0.50000000
v 0.50000000 0.05000000 -0.50000000
v 0.47500000 0.05000000 -0.50000000
v 0.50000000 -0.10000000 -0.50000000
v -1.50000000 -0.10000000 -0.50000000
v -1.50000000 0.90000000 -0.50000000
v -1.31250000 0.90000000 -0.50000000
v -1.30000000 0.85000000 -0.50000000
v -1.28750000 0.90000000 -0.50000000
v -1.10000000 0.90000000 -0.50000000
v -1.10000000 0.85000000 -0.50000000
v -1.12500000 0.85000000 -0.50000000
v -1.10000000 0.70000000 -0.50000000
v -0.91250000 0.70000000 -0.50000000
v -0.90000000 0.65000000 -0.50000000
v -0.88750000 0.70000000 0.50000000
v -0.70000000 0.70000000 0.50000000
v -0.70000000 0.65000000 0.50000000
v -0.72500000 0.65000000 0.50000000
v -0.70000000 0.50000000 0.50000000
v -0.51250000 0.50000000 0.50000000
v -0.50000000 0.45000000 0.50000000
v -0.48750000 0.50000000 0.50000000
v -0.30000000 0.50000000 0.50000000
v -0.30000000 0.45000000 0.50000000
v -0.32500000 0.45000000 0.50000000
v -0.30000000 0.30000000 0.50000000
v -0.11250000 0.30000000 0.50000000
v -0.10000000 0.25000000 0.50000000
v -0.08750000 0.30000000 0.50000000
v 0.10000000 0.30000000 0.50000000
v 0.10000000 0.25000000 0.50000000
v 0.07500000 0.25000000 0.50000000
v 0.10000000 0.10000000 0.50000000
v 0.28750000 0.10000000 0.50000000
v 0.30000000 0.05000000 0.50000000
v 0.31250000 0.10000000 0.50000000
v 0.50000000 0.10000000 0.50000000
v 0.50000000 0.05000000 0.50000000
v 0.47500000 0.05000000 0.50000000
v 0.50000000 -0.10000000 0.50000000
v -1.50000000 -0.10000000 0.50000000
v -1.50000000 0.90000000 0.50000000
v -1.31250000 0.90000000 0.50000000
v -1.30000000 0.85000000 0.50000000
v -1.28750000 0.90000000 0.50000000
v -1.10000000 0.90000000 0.50000000
v -1.10000000 0.85000000 0.50000000
v -1.12500000 0.85000000 0.50000000
v -1.10000000 0.70000000 0.50000000
v -0.91250000 0.70000000 0.50000000
v -0.90000000 0.65000000 0.50000000
vt 0.80000000 0.30625000
vt 0.80000000 0.40000000
vt 0.75000000 0.40000000
vt 0.75000000 0.38750000
vt 0.60000000 0.40000000
vt 0.60000000 0.49375000
vt 0.55000000 0.50000000
vt 0.60000000 0.50625000
vt 0.60000000 0.60000000
vt 0.55000000 0.60000000
vt 0.55000000 0.58750000
vt 0.40000000 0.60000000
vt 0.40000000 0.69375000
vt 0.35000000 0.70000000
vt 0.40000000 0.70625000
vt 0.40000000 0.80000000
vt 0.35000000 0.80000000
vt 0.35000000 0.78750000
vt 0.20000000 0.80000000
vt 0.20000000 0.89375000
vt 0.15000000 0.90000000
vt 0.20000000 0.90625000
vt 0.20000000 1.00000000
vt 0.15000000 1.00000000
vt 0.15000000 0.98750000
vt 0.00000000 1.00000000
vt 0.00000000 0.00000000
vt 1.00000000 0.00000000
vt 1.00000000 0.09375000
vt 0.95000000 0.10000000
vt 1.00000000 0.10625000
vt 1.00000000 0.20000000
vt 0.95000000 0.20000000
vt 0.95000000 0.18750000
vt 0.80000000 0.20000000
vt 0.80000000 0.29375000
vt 0.75000000 0.30000000
vt 0.00000000 1.00000000
vt 0.00000000 0.00000000
vt 1.00000000 0.00000000
vt 1.00000000 1.00000000
vt 0.80000000 0.30625000
vt 0.80000000 0.40000000
vt 0.75000000 0.40000000
vt 0.75000000 0.38750000
vt 0.60000000 0.40000000
vt 0.60000000 0.49375000
vt 0.55000000 0.50000000
vt 0.60000000 0.50625000
vt 0.60000000 0.60000000
vt 0.55000000 0.60000000
vt 0.55000000 0.58750000
vt 0.40000000 0.60000000
vt 0.40000000 0.69375000
vt 0.35000000 0.70000000
vt 0.40000000 0.70625000
vt 0.40000000 0.80000000
vt 0.35000000 0.80000000
vt 0.35000000 0.78750000
vt 0.20000000 0.80000000
vt 0.20000000 0.89375000
vt 0.15000000 0.90000000
vt 0.20000000 0.90625000
vt 0.20000000 1.00000000
vt 0.15000000 1.00000000
vt 0.15000000 0.98750000
vt 0.00000000 1.00000000
vt 0.00000000 0.00000000
vt 1.00000000 0.00000000
vt 1.00000000 0.09375000
vt 0.95000000 0.10000000
vt 1.00000000 0.10625000
vt 1.00000000 0.20000000
vt 0.95000000 0.20000000
vt 0.95000000 0.18750000
vt 0.80000000 0.20000000
vt 0.80000000 0.29375000
vt 0.75000000 0.30000000
vt 0.00000000 0.00000000
vt 1.00000000 0.00000000
vt 1.00000000 1.00000000
vt 0.00000000 1.00000000
vt 0.00000000 0.00000000
vt 1.00000000 0.00000000
vt 1.00000000 1.00000000
vt 0.00000000 1.00000000
vt 1.00000000 0.00000000
vt 1.00000000 1.00000000
vt 0.00000000 1.00000000
vt 0.00000000 0.00000000
vt 0.00000000 0.00000000
vt 1.00000000 0.00000000
vt 1.00000000 1.00000000
vt 0.00000000 1.00000000
vt 0.00000000 0.00000000
vt 1.00000000 0.00000000
vt 1.00000000 1.00000000
vt 0.00000000 1.00000000
vt 1.00000000 1.00000000
vt 0.00000000 1.00000000
vt 0.00000000 0.00000000
vt 1.00000000 0.00000000
vt 0.00000000 1.00000000
vt 0.00000000 0.00000000
vt 1.00000000 0.00000000
vt 1.00000000 1.00000000
vt 0.00000000 0.00000000
vt 1.00000000 0.00000000
vt 1.00000000 1.00000000
vt 0.00000000 1.00000000
vt 0.00000000 0.00000000
vt 1.00000000 0.00000000
vt 1.00000000 1.00000000
vt 0.00000000 1.00000000
vt 1.00000000 0.00000000
vt 1.00000000 1.00000000
vt 0.00000000 1.00000000
vt 0.00000000 0.00000000
vt 0.00000000 0.00000000
vt 1.00000000 0.00000000
vt 1.00000000 1.00000000
vt 0.00000000 1.00000000
vt 0.00000000 0.00000000
vt 1.00000000 0.00000000
vt 1.00000000 1.00000000
vt 0.00000000 1.00000000
vt 0.00000000 0.00000000
vt 1.00000000 0.00000000
vt 1.00000000 1.00000000
vt 0.00000000 1.00000000
vt 0.00000000 0.00000000
vt 1.00000000 0.00000000
vt 1.00000000 1.00000000
vt 0.00000000 1.00000000
vt 1.00000000 1.00000000
vt 0.00000000 1.00000000
vt 0.00000000 0.00000000
vt 1.00000000 0.00000000
vt 0.00000000 1.00000000
vt 0.00000000 0.00000000
vt 1.00000000 0.00000000
vt 1.00000000 1.00000000
vt 0.00000000 0.00000000
vt 1.00000000 0.00000000
vt 1.00000000 1.00000000
vt 0.00000000 1.00000000
vt 0.00000000 0.00000000
vt 1.00000000 0.00000000
vt 1.00000000 1.00000000
vt 0.00000000 1.00000000
vt 1.00000000 0.00000000
vt 1.00000000 1.00000000
vt 0.00000000 1.00000000
vt 0.00000000 0.00000000
vt 0.00000000 0.00000000
vt 1.00000000 0.00000000
vt 1.00000000 1.00000000
vt 0.00000000 1.00000000
vt 0.00000000 0.00000000
vt 1.00000000 0.00000000
vt 1.00000000 1.00000000
vt 0.00000000 1.00000000
vt 1.00000000 1.00000000
vt 0.00000000 1.00000000
vt 0.00000000 0.00000000
vt 1.00000000 0.00000000
vt 0.00000000 1.00000000
vt 0.00000000 0.00000000
vt 1.00000000 0.00000000
vt 1.00000000 1.00000000
vt 0.00000000 0.00000000
vt 1.00000000 0.00000000
vt 1.00000000 1.00000000
vt 0.00000000 1.00000000
vt 0.00000000 0.00000000
vt 1.00000000 0.00000000
vt 1.00000000 1.00000000
vt 0.00000000 1.00000000
vt 1.00000000 0.00000000
vt 1.00000000 1.00000000
vt 0.00000000 1.00000000
vt 0.00000000 0.00000000
vt 0.00000000 0.00000000
vt 1.00000000 0.00000000
vt 1.00000000 1.00000000
vt 0.00000000 1.00000000
vt 0.00000000 0.00000000
vt 1.00000000 0.00000000
vt 1.00000000 1.00000000
vt 0.00000000 1.00000000
vt 1.00000000 1.00000000
vt 0.00000000 1.00000000
vt 0.00000000 0.00000000
vt 1.00000000 0.00000000
vt 0.00000000 1.00000000
vt 0.00000000 0.00000000
vt 1.00000000 0.00000000
vt 1.00000000 1.00000000
vt 0.00000000 0.00000000
vt 1.00000000 0.00000000
vt 1.00000000 1.00000000
vt 0.00000000 1.00000000
vt 0.00000000 0.00000000
vt 1.00000000 0.00000000
vt 1.00000000 1.00000000
vt 0.00000000 1.00000000
vt 1.00000000 0.00000000
vt 1.00000000 1.00000000
vt 0.00000000 1.00000000
vt 0.00000000 0.00000000
vt 0.00000000 0.00000000
vt 1.00000000 0.00000000
vt 1.00000000 1.00000000
vt 0.00000000 1.00000000
vt 0.00000000 0.00000000
vt 1.00000000 0.00000000
vt 1.00000000 1.00000000
vt 0.00000000 1.00000000
vt 1.00000000 1.00000000
vt 0.00000000 1.00000000
vt 0.00000000 0.00000000
vt 1.00000000 0.00000000
vn 0.00000000 0.00000000 -1.00000000
vn 0.00000000 0.00000000 -1.00000000
vn 0.00000000 0.00000000 -1.00000000
vn 0.00000000 0.00000000 -1.00000000
vn 0.00000000 0.00000000 -1.00000000
vn 0.00000000 0.00000000 -1.00000000
vn 0.00000000 0.00000000 -1.00000000
vn 0.00000000 0.00000000 -1.00000000
vn 0.00000000 0.00000000 -1.00000000
vn 0.00000000 0.00000000 -1.00000000
vn 0.00000000 0.00000000 -1.00000000
vn 0.00000000 0.00000000 -1.00000000
vn 0.00000000 0.00000000 -1.00000000
vn 0.00000000 0.00000000 -1.00000000
vn 0.00000000 0.00000000 -1.00000000
vn 0.00000000 0.00000000 -1.00000000
vn 0.00000000 0.00000000 -1.00000000
vn 0.00000000 0.00000000 -1.00000000
vn 0.00000000 0.00000000 -1.00000000
vn 0.00000000 0.00000000 -1.00000000
vn 0.00000000 0.00000000 -1.00000000
vn 0.00000000 0.00000000 -1.00000000
vn 0.00000000 0.00000000 -1.00000000
vn 0.00000000 0.00000000 -1.00000000
vn 0.00000000 0.00000000 -1.00000000
vn 0.00000000 0.00000000 -1.00000000
vn 0.00000000 0.00000000 -1.00000000
vn 0.00000000 0.00000000 -1.00000000
vn 0.00000000 0.00000000 -1.00000000
vn 0.00000000 0.00000000 -1.00000000
vn 0.00000000 0.00000000 -1.00000000
vn 0.00000000 0.00000000 -1.00000000
vn 0.00000000 0.00000000 -1.00000000
vn 0.00000000 0.00000000 -1.00000000
vn 0.00000000 0.00000000 -1.00000000
vn 0.00000000 0.00000000 -1.00000000
vn 0.00000000 0.00000000 -1.00000000
vn -0.00000000 1.00000000 -0.00000000
vn -0.00000000 1.00000000 -0.00000000
vn -0.00000000 1.00000000 -0.00000000
vn -0.00000000 1.00000000 -0.00000000
vn 0.00000000 -0.00000000 1.00000000
vn 0.00000000 -0.00000000 1.00000000
vn 0.00000000 -0.00000000 1.00000000
vn 0.00000000 -0.00000000 1.00000000
vn 0.00000000 -0.00000000 1.00000000
vn 0.00000000 -0.00000000 1.00000000
vn 0.00000000 -0.00000000 1.00000000
vn 0.00000000 -0.00000000 1.00000000
vn 0.00000000 -0.00000000 1.00000000
vn 0.00000000 -0.00000000 1.00000000
vn 0.00000000 -0.00000000 1.00000000
vn 0.00000000 -0.00000000 1.00000000
vn 0.00000000 -0.00000000 1.00000000
vn 0.00000000 -0.00000000 1.00000000
vn 0.00000000 -0.00000000 1.00000000
vn 0.00000000 -0.00000000 1.00000000
vn 0.00000000 -0.00000000 1.00000000
vn 0.00000000 -0.00000000 1.00000000
vn 0.00000000 -0.00000000 1.00000000
vn 0.00000000 -0.00000000 1.00000000
vn 0.00000000 -0.00000000 1.00000000
vn 0.00000000 -0.00000000 1.00000000
vn 0.00000000 -0.00000000 1.00000000
vn 0.00000000 -0.00000000 1.00000000
vn 0.00000000 -0.00000000 1.00000000
vn 0.00000000 -0.00000000 1.00000000
vn 0.00000000 -0.00000000 1.00000000
vn 0.00000000 -0.00000000 1.00000000
vn 0.00000000 -0.00000000 1.00000000
vn 0.00000000 -0.00000000 1.00000000
vn 0.00000000 -0.00000000 1.00000000
vn 0.00000000 -0.00000000 1.00000000
vn 0.00000000 -0.00000000 1.00000000
vn 0.00000000 -0.00000000 1.00000000
vn 0.00000000 -0.00000000 1.00000000
vn 0.00000000 -0.00000000 1.00000000
vn 0.00000000 -0.00000000 1.00000000
vn -0.97014250 0.24253563 -0.00000000
vn -0.97014250 0.24253563 -0.00000000
vn -0.97014250 0.24253563 -0.00000000
vn -0.97014250 0.24253563 -0.00000000
vn 0.97014250 0.24253563 0.00000000
vn 0.97014250 0.24253563 0.00000000
vn 0.97014250 0.24253563 0.00000000
vn 0.97014250 0.24253563 0.00000000
vn -0.00000000 1.00000000 -0.00000000
vn -0.00000000 1.00000000 -0.00000000
vn -0.00000000 1.00000000 -0.00000000
vn -0.00000000 1.00000000 -0.00000000
vn 0.98639392 0.16439899 0.00000000
vn 0.98639392 0.16439899 0.00000000
vn 0.98639392 0.16439899 0.00000000
vn 0.98639392 0.16439899 0.00000000
vn 0.00000000 -1.00000000 -0.00000000
vn 0.00000000 -1.00000000 -0.00000000
vn 0.00000000 -1.00000000 -0.00000000
vn 0.00000000 -1.00000000 -0.00000000
vn 1.00000000 0.00000000 0.00000000
vn 1.00000000 0.00000000 0.00000000
vn 1.00000000 0.00000000 0.00000000
vn 1.00000000 0.00000000 0.00000000
vn -0.00000000 1.00000000 -0.00000000
vn -0.00000000 1.00000000 -0.00000000
vn 0.00000000 1.00000000 -0.00000000
vn 0.00000000 1.00000000 -0.00000000
vn -0.97014250 0.24253563 -0.00000000
vn -0.97014250 0.24253563 -0.00000000
vn -0.97014250 0.24253563 -0.00000000
vn -0.97014250 0.24253563 -0.00000000
vn 0.97014250 0.24253563 0.00000000
vn 0.97014250 0.24253563 0.00000000
vn 0.97014250 0.24253563 0.00000000
vn 0.97014250 0.24253563 0.00000000
vn -0.00000000 1.00000000 -0.00000000
vn -0.00000000 1.00000000 -0.00000000
vn 0.00000000 1.00000000 -0.00000000
vn 0.00000000 1.00000000 -0.00000000
vn -1.00000000 -0.00000000 -0.00000000
vn -1.00000000 -0.00000000 -0.00000000
vn -1.00000000 -0.00000000 -0.00000000
vn -1.00000000 -0.00000000 -0.00000000
vn -0.00000000 -1.00000000 -0.00000000
vn -0.00000000 -1.00000000 -0.00000000
vn -0.00000000 -1.00000000 -0.00000000
vn -0.00000000 -1.00000000 -0.00000000
vn 0.98639392 0.16439899 0.00000000
vn 0.98639392 0.16439899 0.00000000
vn 0.98639392 0.16439899 0.00000000
vn 0.98639392 0.16439899 0.00000000
vn 0.00000000 -1.00000000 -0.00000000
vn 0.00000000 -1.00000000 -0.00000000
vn 0.00000000 -1.00000000 -0.00000000
vn 0.00000000 -1.00000000 -0.00000000
vn 1.00000000 0.00000000 0.00000000
vn 1.00000000 0.00000000 0.00000000
vn 1.00000000 0.00000000 0.00000000
vn 1.00000000 0.00000000 0.00000000
vn -0.00000000 1.00000000 -0.00000000
vn -0.00000000 1.00000000 -0.00000000
vn -0.00000000 1.00000000 -0.00000000
vn -0.00000000 1.00000000 -0.00000000
vn -0.97014250 0.24253563 -0.00000000
vn -0.97014250 0.24253563 -0.00000000
vn -0.97014250 0.24253563 -0.00000000
vn -0.97014250 0.24253563 -0.00000000
vn 0.97014250 0.24253563 0.00000000
vn 0.97014250 0.24253563 0.00000000
vn 0.97014250 0.24253563 0.00000000
vn 0.97014250 0.24253563 0.00000000
vn -0.00000000 1.00000000 -0.00000000
vn -0.00000000 1.00000000 -0.00000000
vn -0.00000000 1.00000000 -0.00000000
vn -0.00000000 1.00000000 -0.00000000
vn 0.98639392 0.16439899 0.00000000
vn 0.98639392 0.16439899 0.00000000
vn 0.98639392 0.16439899 0.00000000
vn 0.98639392 0.16439899 0.00000000
vn 0.00000000 -1.00000000 -0.00000000
vn 0.00000000 -1.00000000 -0.00000000
vn 0.00000000 -1.00000000 -0.00000000
vn 0.00000000 -1.00000000 -0.00000000
vn 1.00000000 0.00000000 0.00000000
vn 1.00000000 0.00000000 0.00000000
vn 1.00000000 0.00000000 0.00000000
vn 1.00000000 0.00000000 0.00000000
vn -0.00000000 1.00000000 -0.00000000
vn -0.00000000 1.00000000 -0.00000000
vn -0.00000000 1.00000000 -0.00000000
vn -0.00000000 1.00000000 -0.00000000
vn -0.97014250 0.24253563 -0.00000000
vn -0.97014250 0.24253563 -0.00000000
vn -0.97014250 0.24253563 -0.00000000
vn -0.97014250 0.24253563 -0.00000000
vn 0.97014250 0.24253563 0.00000000
vn 0.97014250 0.24253563 0.00000000
vn 0.97014250 0.24253563 0.00000000
vn 0.97014250 0.24253563 0.00000000
vn -0.00000000 1.00000000 -0.00000000
vn -0.00000000 1.00000000 -0.00000000
vn -0.00000000 1.00000000 -0.00000000
vn -0.00000000 1.00000000 -0.00000000
vn 0.98639392 0.16439899 0.00000000
vn 0.98639392 0.16439899 0.00000000
vn 0.98639392 0.16439899 0.00000000
vn 0.98639392 0.16439899 0.00000000
vn 0.00000000 -1.00000000 -0.00000000
vn 0.00000000 -1.00000000 -0.00000000
vn 0.00000000 -1.00000000 -0.00000000
vn 0.00000000 -1.00000000 -0.00000000
vn 1.00000000 0.00000000 0.00000000
vn 1.00000000 0.00000000 0.00000000
vn 1.00000000 0.00000000 0.00000000
vn 1.00000000 0.00000000 0.00000000
vn -0.00000000 1.00000000 -0.00000000
vn -0.00000000 1.00000000 -0.00000000
vn -0.00000000 1.00000000 -0.00000000
vn -0.00000000 1.00000000 -0.00000000
vn -0.97014250 0.24253563 -0.00000000
vn -0.97014250 0.24253563 -0.00000000
vn -0.97014250 0.24253563 -0.00000000
vn -0.97014250 0.24253563 -0.00000000
vn 0.97014250 0.24253563 0.00000000
vn 0.97014250 0.24253563 0.00000000
vn 0.97014250 0.24253563 0.00000000
vn 0.97014250 0.24253563 0.00000000
vn -0.00000000 1.00000000 -0.00000000
vn -0.00000000 1.00000000 -0.00000000
vn -0.00000000 1.00000000 -0.00000000
vn -0.00000000 1.00000000 -0.00000000
vn 0.98639392 0.16439899 0.00000000
vn 0.98639392 0.16439899 0.00000000
vn 0.98639392 0.16439899 0.00000000
vn 0.98639392 0.16439899 0.00000000
vn 0.00000000 -1.00000000 -0.00000000
vn 0.00000000 -1.00000000 -0.00000000
vn 0.00000000 -1.00000000 -0.00000000
vn 0.00000000 -1.00000000 -0.00000000
vn 1.00000000 0.00000000 0.00000000
vn 1.00000000 0.00000000 0.00000000
vn 1.00000000 0.00000000 0.00000000
vn 1.00000000 0.00000000 0.00000000
s 1
usemtl Stucco
f 2/2/2 3/3/3 4/4/4
f 37/37/37 4/4/4 5/5/5
f 27/27/27 5/5/5 12/12/12
f 12/12/12 14/14/14 19/19/19
f 19/19/19 21/21/21 26/26/26
f 21/21/21 25/25/25 26/26/26
f 22/22/22 23/23/23 25/25/25
f 23/23/23 24/24/24 25/25/25
f 21/21/21 22/22/22 25/25/25
f 19/19/19 20/20/20 21/21/21
f 14/14/14 18/18/18 19/19/19
f 15/15/15 16/16/16 18/18/18
f 16/16/16 17/17/17 18/18/18
f 14/14/14 15/15/15 18/18/18
f 7/7/7 11/11/11 12/12/12
f 8/8/8 9/9/9 11/11/11
f 9/9/9 10/10/10 11/11/11
f 7/7/7 8/8/8 11/11/11
f 12/12/12 13/13/13 14/14/14
f 19/19/19 26/26/26 27/27/27
f 27/27/27 12/12/12 19/19/19
f 27/27/27 28/28/28 35/35/35
f 30/30/30 34/34/34 35/35/35
f 31/31/31 32/32/32 34/34/34
f 32/32/32 33/33/33 34/34/34
f 30/30/30 31/31/31 34/34/34
f 28/28/28 30/30/30 35/35/35
f 28/28/28 29/29/29 30/30/30
f 27/27/27 35/35/35 5/5/5
f 5/5/5 7/7/7 12/12/12
f 5/5/5 6/6/6 7/7/7
f 35/35/35 37/37/37 5/5/5
f 35/35/35 36/36/36 37/37/37
f 37/37/37 1/1/1 4/4/4
f 1/1/1 2/2/2 4/4/4
s 2
usemtl Wood_Dark
f 38/38/38 39/39/39 2/40/40
f 38/38/38 2/40/40 1/41/41
s 3
usemtl Stucco
f 55/59/59 54/58/58 53/57/57
f 56/60/60 55/59/59 51/55/55
f 51/55/55 50/54/54 49/53/53
f 49/53/53 42/46/46 64/68/68
f 72/76/76 65/69/69 64/68/68
f 67/71/71 66/70/70 65/69/69
f 71/75/75 68/72/72 67/71/71
f 71/75/75 69/73/73 68/72/72
f 71/75/75 70/74/74 69/73/73
f 72/76/76 67/71/71 65/69/69
f 72/76/76 71/75/75 67/71/71
f 74/78/78 73/77/77 72/76/76
f 41/45/45 38/42/42 74/78/78
f 41/45/45 39/43/43 38/42/42
f 41/45/45 40/44/44 39/43/43
f 42/46/46 72/76/76 64/68/68
f 42/46/46 74/78/78 72/76/76
f 42/46/46 41/45/45 74/78/78
f 44/48/48 43/47/47 42/46/46
f 48/52/52 45/49/49 44/48/48
f 48/52/52 46/50/50 45/49/49
f 48/52/52 47/51/51 46/50/50
f 49/53/53 44/48/48 42/46/46
f 49/53/53 48/52/52 44/48/48
f 64/68/68 63/67/67 56/60/60
f 63/67/67 62/66/66 58/62/62
f 62/66/66 59/63/63 58/62/62
f 62/66/66 60/64/64 59/63/63
f 62/66/66 61/65/65 60/64/64
f 56/60/60 49/53/53 64/68/68
f 63/67/67 58/62/62 56/60/60
f 56/60/60 51/55/55 49/53/53
f 58/62/62 57/61/61 56/60/60
f 55/59/59 52/56/56 51/55/55
f 55/59/59 53/57/57 52/56/56
s 4
usemtl Wood_Darker
f 38/79/79 1/80/80 74/82/82
f 1/80/80 37/81/81 74/82/82
s 5
f 74/83/83 37/84/84 73/86/86
f 37/84/84 36/85/85 73/86/86
s 6
usemtl Wood_Dark
f 36/87/87 35/88/88 73/90/90
f 35/88/88 72/89/89 73/90/90
s 7
usemtl Wood_Darker
f 72/91/91 35/92/92 71/94/94
f 35/92/92 34/93/93 71/94/94
s 8
usemtl Wood_Dark
f 71/95/95 34/96/96 33/97/97
f 71/95/95 33/97/97 70/98/98
s 9
f 33/99/99 32/100/100 70/102/102
f 32/100/100 69/101/101 70/102/102
s 10
f 68/103/103 69/104/104 32/105/105
f 68/103/103 32/105/105 31/106/106
s 11
usemtl Wood_Darker
f 68/107/107 31/108/108 67/110/110
f 31/108/108 30/109/109 67/110/110
s 12
f 67/111/111 30/112/112 66/114/114
f 30/112/112 29/113/113 66/114/114
s 13
usemtl Wood_Dark
f 29/115/115 28/116/116 66/118/118
f 28/116/116 65/117/117 66/118/118
s 14
usemtl Stucco
f 65/122/122 28/121/121 27/120/120
f 65/122/122 27/120/120 64/119/119
s 15
f 64/126/126 27/125/125 26/124/124
f 64/126/126 26/124/124 63/123/123
s 16
usemtl Wood_Darker
f 63/127/127 26/128/128 62/130/130
f 26/128/128 25/129/129 62/130/130
s 17
usemtl Wood_Dark
f 62/131/131 25/132/132 24/133/133
f 62/131/131 24/133/133 61/134/134
s 18
f 24/135/135 23/136/136 61/138/138
f 23/136/136 60/137/137 61/138/138
s 19
f 59/139/139 60/140/140 23/141/141
f 59/139/139 23/141/141 22/142/142
s 20
usemtl Wood_Darker
f 59/143/143 22/144/144 58/146/146
f 22/144/144 21/145/145 58/146/146
s 21
f 58/147/147 21/148/148 57/150/150
f 21/148/148 20/149/149 57/150/150
s 22
usemtl Wood_Dark
f 20/151/151 19/152/152 57/154/154
f 19/152/152 56/153/153 57/154/154
s 23
usemtl Wood_Darker
f 56/155/155 19/156/156 55/158/158
f 19/156/156 18/157/157 55/158/158
s 24
usemtl Wood_Dark
f 55/159/159 18/160/160 17/161/161
f 55/159/159 17/161/161 54/162/162
s 25
f 17/163/163 16/164/164 54/166/166
f 16/164/164 53/165/165 54/166/166
s 26
f 52/167/167 53/168/168 16/169/169
f 52/167/167 16/169/169 15/170/170
s 27
usemtl Wood_Darker
f 52/171/171 15/172/172 51/174/174
f 15/172/172 14/173/173 51/174/174
s 28
f 51/175/175 14/176/176 50/178/178
f 14/176/176 13/177/177 50/178/178
s 29
usemtl Wood_Dark
f 13/179/179 12/180/180 50/182/182
f 12/180/180 49/181/181 50/182/182
s 30
usemtl Wood_Darker
f 49/183/183 12/184/184 48/186/186
f 12/184/184 11/185/185 48/186/186
s 31
usemtl Wood_Dark
f 48/187/187 11/188/188 10/189/189
f 48/187/187 10/189/189 47/190/190
s 32
f 10/191/191 9/192/192 47/194/194
f 9/192/192 46/193/193 47/194/194
s 33
f 45/195/195 46/196/196 9/197/197
f 45/195/195 9/197/197 8/198/198
s 34
usemtl Wood_Darker
f 45/199/199 8/200/200 44/202/202
f 8/200/200 7/201/201 44/202/202
s 35
f 44/203/203 7/204/204 43/206/206
f 7/204/204 6/205/205 43/206/206
s 36
usemtl Wood_Dark
f 6/207/207 5/208/208 43/210/210
f 5/208/208 42/209/209 43/210/210
s 37
usemtl Wood_Darker
f 42/211/211 5/212/212 41/214/214
f 5/212/212 4/213/213 41/214/214
s 38
usemtl Wood_Dark
f 41/215/215 4/216/216 3/217/217
f 41/215/215 3/217/217 40/218/218
s 39
f 3/219/219 2/220/220 40/222/222
f 2/220/220 39/221/221 40/222/222
