mtllib Materials_Modular_Village.mtl
o object1
g object1
v -0.50000000 -0.05000000 0.50000000
v -0.48750000 0.00000000 0.50000000
v -0.48750000 -0.00000000 0.31250000
v -0.50000000 -0.05000000 0.30000000
v -0.30000000 -0.05000000 0.50000000
v -0.28750000 0.00000000 0.50000000
v -0.11250000 0.00000000 0.50000000
v -0.10000000 -0.05000000 0.50000000
v -0.08750000 0.00000000 0.50000000
v 0.08750000 0.00000000 0.50000000
v 0.10000000 -0.05000000 0.50000000
v 0.11250000 0.00000000 0.50000000
v 0.28750000 0.00000000 0.50000000
v 0.30000000 -0.05000000 0.50000000
v 0.31250000 0.00000000 0.50000000
v 0.48750000 0.00000000 0.50000000
v 0.50000000 -0.05000000 0.50000000
v 0.50000000 -0.10000000 0.50000000
v -0.50000000 -0.10000000 0.50000000
v -0.31250000 0.00000000 0.50000000
v -0.10000000 -0.05000000 0.10000000
v -0.11250000 -0.00000000 0.11250000
v -0.30000000 -0.05000000 0.10000000
v -0.28750000 -0.00000000 0.11250000
v -0.11250000 0.00000000 0.08750000
v -0.50000000 -0.00000000 0.08750000
v -0.50000000 -0.05000000 0.10000000
v -0.10000000 -0.05000000 -0.10000000
v -0.11250000 -0.00000000 -0.08750000
v -0.50000000 -0.05000000 -0.10000000
v -0.50000000 -0.00000000 -0.08750000
v 0.10000000 -0.05000000 -0.10000000
v 0.08750000 0.00000000 -0.11250000
v -0.50000000 -0.00000000 -0.11250000
v 0.08750000 -0.00000000 -0.28750000
v 0.10000000 -0.05000000 -0.30000000
v -0.50000000 -0.05000000 -0.30000000
v -0.50000000 -0.00000000 -0.28750000
v 0.30000000 -0.05000000 -0.30000000
v 0.28750000 0.00000000 -0.31250000
v -0.50000000 -0.00000000 -0.31250000
v 0.30000000 -0.05000000 -0.50000000
v 0.28750000 -0.00000000 -0.48750000
v -0.50000000 -0.05000000 -0.50000000
v -0.50000000 -0.00000000 -0.48750000
v 0.50000000 -0.05000000 -0.50000000
v 0.50000000 -0.10000000 -0.50000000
v -0.50000000 -0.10000000 -0.50000000
v 0.31250000 -0.00000000 -0.48750000
v 0.48750000 -0.00000000 -0.48750000
v 0.11250000 -0.00000000 -0.28750000
v 0.28750000 -0.00000000 -0.28750000
v -0.08750000 -0.00000000 -0.08750000
v 0.08750000 -0.00000000 -0.08750000
v -0.50000000 -0.00000000 0.11250000
v -0.31250000 -0.00000000 0.11250000
v -0.31250000 0.00000000 0.28750000
v -0.30000000 -0.05000000 0.30000000
v -0.50000000 -0.00000000 0.28750000
v -0.31250000 -0.00000000 0.31250000
vt 0.00000000 1.00000000
vt 0.00000000 0.00000000
vt 0.93750000 0.00000000
vt 1.00000000 1.00000000
vt 0.80000000 0.50000000
vt 0.78750000 1.00000000
vt 0.61250000 1.00000000
vt 0.60000000 0.50000000
vt 0.58750000 1.00000000
vt 0.41250000 1.00000000
vt 0.40000000 0.50000000
vt 0.38750000 1.00000000
vt 0.21250000 1.00000000
vt 0.20000000 0.50000000
vt 0.18750000 1.00000000
vt 0.01250000 1.00000000
vt 0.00000000 0.50000000
vt 0.00000000 0.00000000
vt 1.00000000 0.00000000
vt 1.00000000 0.50000000
vt 0.98750000 1.00000000
vt 0.81250000 1.00000000
vt 0.00000000 1.00000000
vt 0.00000000 0.00000000
vt 1.00000000 0.00000000
vt 0.96875000 1.00000000
vt 0.00000000 0.00000000
vt 1.00000000 0.00000000
vt 0.93750000 1.00000000
vt 0.06250000 1.00000000
vt 0.00000000 1.00000000
vt 0.03125000 0.00000000
vt 1.00000000 0.00000000
vt 1.00000000 1.00000000
vt 0.50000000 1.00000000
vt 0.00000000 0.00000000
vt 1.00000000 0.00000000
vt 0.93750000 1.00000000
vt 0.06250000 1.00000000
vt 1.00000000 0.00000000
vt 1.00000000 1.00000000
vt 0.03125000 1.00000000
vt 0.00000000 0.00000000
vt 0.00000000 1.00000000
vt 0.02083333 0.00000000
vt 1.00000000 0.00000000
vt 1.00000000 1.00000000
vt 0.33333333 1.00000000
vt 0.93750000 1.00000000
vt 0.06250000 1.00000000
vt 0.00000000 0.00000000
vt 1.00000000 0.00000000
vt 1.00000000 0.00000000
vt 1.00000000 1.00000000
vt 0.02083333 1.00000000
vt 0.00000000 0.00000000
vt 0.00000000 1.00000000
vt 0.01562500 0.00000000
vt 1.00000000 0.00000000
vt 1.00000000 1.00000000
vt 0.25000000 1.00000000
vt 0.00000000 0.00000000
vt 1.00000000 0.00000000
vt 0.93750000 1.00000000
vt 0.06250000 1.00000000
vt 1.00000000 0.00000000
vt 1.00000000 1.00000000
vt 0.01562500 1.00000000
vt 0.00000000 0.00000000
vt 1.00000000 1.00000000
vt 0.20000000 1.00000000
vt 0.00000000 1.00000000
vt 0.00000000 0.00000000
vt 1.00000000 0.00000000
vt 0.93750000 1.00000000
vt 0.06250000 1.00000000
vt 0.00000000 0.00000000
vt 1.00000000 0.00000000
vt 0.00000000 0.00000000
vt 1.00000000 0.00000000
vt 0.93750000 1.00000000
vt 0.06250000 1.00000000
vt 1.00000000 0.00000000
vt 1.00000000 1.00000000
vt 0.00000000 1.00000000
vt 0.00000000 0.00000000
vt 0.00000000 0.00000000
vt 1.00000000 0.00000000
vt 0.93750000 1.00000000
vt 0.06250000 1.00000000
vt 1.00000000 0.00000000
vt 1.00000000 1.00000000
vt 0.00000000 1.00000000
vt 0.00000000 0.00000000
vt 1.00000000 0.00000000
vt 1.00000000 1.00000000
vt 0.06250000 1.00000000
vt 0.00000000 0.00000000
vt 0.93750000 1.00000000
vt 0.06250000 1.00000000
vt 0.00000000 0.00000000
vt 1.00000000 0.00000000
vt 1.00000000 0.00000000
vt 1.00000000 1.00000000
vt 0.00000000 1.00000000
vt 0.06250000 0.00000000
vt 1.00000000 0.00000000
vt 1.00000000 1.00000000
vt 0.00000000 1.00000000
vt 0.00000000 0.00000000
vt 1.00000000 0.00000000
vt 1.00000000 1.00000000
vt 0.00000000 1.00000000
vt 0.00000000 0.00000000
vt 1.00000000 1.00000000
vt 0.66666667 1.00000000
vt 0.00000000 1.00000000
vt 0.00000000 0.00000000
vt 0.97916667 0.00000000
vt 1.00000000 1.00000000
vt 0.00000000 1.00000000
vt 0.00000000 0.00000000
vt 1.00000000 0.00000000
vt 0.00000000 1.00000000
vt 0.00000000 0.00000000
vt 1.00000000 0.00000000
vt 0.97916667 1.00000000
vt 1.00000000 1.00000000
vt 0.75000000 1.00000000
vt 0.00000000 1.00000000
vt 0.00000000 0.00000000
vt 0.98437500 0.00000000
vt 0.00000000 1.00000000
vt 0.00000000 0.00000000
vt 1.00000000 0.00000000
vt 1.00000000 1.00000000
vt 0.98437500 1.00000000
vt 0.00000000 1.00000000
vt 0.00000000 0.00000000
vt 1.00000000 0.00000000
vt 1.00000000 1.00000000
vt 0.80000000 1.00000000
vt 0.00000000 1.00000000
vt 0.00000000 0.00000000
vt 0.98750000 0.00000000
vt 0.00000000 0.00000000
vt 1.00000000 0.00000000
vt 1.00000000 1.00000000
vt 0.00000000 1.00000000
vt 0.98750000 1.00000000
vt 0.00000000 1.00000000
vt 0.00000000 0.00000000
vt 1.00000000 0.00000000
vt 1.00000000 1.00000000
vt 0.00000000 1.00000000
vt 0.00000000 0.00000000
vt 1.00000000 0.00000000
vt 0.00000000 0.00000000
vt 1.00000000 0.00000000
vt 1.00000000 1.00000000
vt 0.00000000 1.00000000
vt 0.00000000 1.00000000
vt 0.00000000 0.00000000
vt 1.00000000 0.00000000
vt 0.93750000 1.00000000
vt 1.00000000 1.00000000
vt 0.50000000 1.00000000
vt 0.00000000 1.00000000
vt 0.00000000 0.00000000
vt 0.96875000 0.00000000
vt 1.00000000 1.00000000
vt 0.00000000 1.00000000
vt 0.00000000 0.00000000
vt 1.00000000 0.00000000
vt 0.50000000 1.00000000
vt 0.00000000 1.00000000
vt 0.00000000 0.00000000
vt 0.50000000 0.00000000
vt 1.00000000 0.01250000
vt 1.00000000 0.18750000
vt 0.50000000 0.20000000
vt 1.00000000 0.21250000
vt 1.00000000 0.38750000
vt 0.50000000 0.40000000
vt 1.00000000 0.41250000
vt 1.00000000 0.58750000
vt 0.50000000 0.60000000
vt 1.00000000 0.61250000
vt 1.00000000 0.78750000
vt 0.50000000 0.80000000
vt 0.00000000 0.00000000
vt 1.00000000 0.00000000
vt 0.93750000 1.00000000
vt 0.06250000 1.00000000
vt 1.00000000 1.00000000
vt 0.00000000 1.00000000
vt 0.00000000 0.00000000
vt 1.00000000 0.00000000
vn -0.97014250 0.24253563 -0.00000000
vn -0.97014250 0.24253563 -0.00000000
vn -0.97014250 0.24253563 -0.00000000
vn -0.97014250 0.24253563 -0.00000000
vn 0.00000000 0.00000000 1.00000000
vn 0.00000000 0.00000000 1.00000000
vn 0.00000000 0.00000000 1.00000000
vn 0.00000000 0.00000000 1.00000000
vn 0.00000000 0.00000000 1.00000000
vn 0.00000000 0.00000000 1.00000000
vn 0.00000000 0.00000000 1.00000000
vn 0.00000000 0.00000000 1.00000000
vn 0.00000000 0.00000000 1.00000000
vn 0.00000000 0.00000000 1.00000000
vn 0.00000000 0.00000000 1.00000000
vn 0.00000000 0.00000000 1.00000000
vn 0.00000000 0.00000000 1.00000000
vn 0.00000000 0.00000000 1.00000000
vn 0.00000000 0.00000000 1.00000000
vn 0.00000000 0.00000000 1.00000000
vn 0.00000000 0.00000000 1.00000000
vn 0.00000000 0.00000000 1.00000000
vn 0.97014250 0.24253563 0.00000000
vn 0.97014250 0.24253563 0.00000000
vn 0.97014250 0.24253563 0.00000000
vn 0.97014250 0.24253563 0.00000000
vn 0.00000000 0.24253563 -0.97014250
vn 0.00000000 0.24253563 -0.97014250
vn 0.00000000 0.24253563 -0.97014250
vn 0.00000000 0.24253563 -0.97014250
vn -0.00000000 0.24253563 0.97014250
vn -0.00000000 0.24253563 0.97014250
vn -0.00000000 0.24253563 0.97014250
vn -0.00000000 0.24253563 0.97014250
vn -0.00000000 0.24253563 0.97014250
vn 0.97014250 0.24253563 0.00000000
vn 0.97014250 0.24253563 0.00000000
vn 0.97014250 0.24253563 0.00000000
vn 0.00000000 0.24253563 -0.97014250
vn 0.00000000 0.24253563 -0.97014250
vn 0.00000000 0.24253563 -0.97014250
vn 0.00000000 0.24253563 -0.97014250
vn -0.00000000 0.24253563 0.97014250
vn -0.00000000 0.24253563 0.97014250
vn -0.00000000 0.24253563 0.97014250
vn -0.00000000 0.24253563 0.97014250
vn -0.00000000 0.24253563 0.97014250
vn 0.97014250 0.24253563 0.00000000
vn 0.97014250 0.24253563 0.00000000
vn 0.97014250 0.24253563 0.00000000
vn 0.97014250 0.24253563 0.00000000
vn 0.00000000 0.24253563 -0.97014250
vn 0.00000000 0.24253563 -0.97014250
vn 0.00000000 0.24253563 -0.97014250
vn 0.00000000 0.24253563 -0.97014250
vn -0.00000000 0.24253563 0.97014250
vn -0.00000000 0.24253563 0.97014250
vn -0.00000000 0.24253563 0.97014250
vn -0.00000000 0.24253563 0.97014250
vn -0.00000000 0.24253563 0.97014250
vn 0.97014250 0.24253563 0.00000000
vn 0.97014250 0.24253563 0.00000000
vn 0.97014250 0.24253563 0.00000000
vn 0.97014250 0.24253563 0.00000000
vn 0.00000000 0.24253563 -0.97014250
vn 0.00000000 0.24253563 -0.97014250
vn 0.00000000 0.24253563 -0.97014250
vn 0.00000000 0.24253563 -0.97014250
vn 0.00000000 0.00000000 -1.00000000
vn 0.00000000 0.00000000 -1.00000000
vn 0.00000000 0.00000000 -1.00000000
vn 0.00000000 0.00000000 -1.00000000
vn 0.00000000 0.00000000 -1.00000000
vn 0.00000000 0.24253563 -0.97014250
vn 0.00000000 0.24253563 -0.97014250
vn 0.00000000 0.24253563 -0.97014250
vn 0.00000000 0.24253563 -0.97014250
vn 0.00000000 0.24253563 -0.97014250
vn 0.00000000 0.24253563 -0.97014250
vn -0.00000000 1.00000000 0.00000000
vn -0.00000000 1.00000000 0.00000000
vn -0.00000000 1.00000000 0.00000000
vn -0.00000000 1.00000000 0.00000000
vn 0.00000000 0.24253563 -0.97014250
vn 0.00000000 0.24253563 -0.97014250
vn 0.00000000 0.24253563 -0.97014250
vn -0.00000000 1.00000000 0.00000000
vn -0.00000000 1.00000000 0.00000000
vn -0.00000000 1.00000000 0.00000000
vn -0.00000000 1.00000000 0.00000000
vn 0.00000000 0.24253563 -0.97014250
vn 0.00000000 0.24253563 -0.97014250
vn 0.00000000 0.24253563 -0.97014250
vn 0.97014250 0.24253563 0.00000000
vn 0.97014250 0.24253563 0.00000000
vn 0.97014250 0.24253563 0.00000000
vn 0.97014250 0.24253563 0.00000000
vn -0.00000000 0.24253563 0.97014250
vn -0.00000000 0.24253563 0.97014250
vn -0.00000000 0.24253563 0.97014250
vn -0.00000000 0.24253563 0.97014250
vn -0.00000000 1.00000000 0.00000000
vn -0.00000000 1.00000000 0.00000000
vn -0.00000000 1.00000000 0.00000000
vn -0.00000000 1.00000000 0.00000000
vn -0.00000000 1.00000000 0.00000000
vn -0.00000000 1.00000000 0.00000000
vn -0.00000000 1.00000000 0.00000000
vn -0.00000000 1.00000000 0.00000000
vn -0.97014250 0.24253563 -0.00000000
vn -0.97014250 0.24253563 -0.00000000
vn -0.97014250 0.24253563 -0.00000000
vn -0.97014250 0.24253563 -0.00000000
vn -0.97014250 0.24253563 -0.00000000
vn 0.00000000 1.00000000 -0.00000000
vn 0.00000000 1.00000000 -0.00000000
vn 0.00000000 1.00000000 -0.00000000
vn 0.00000000 1.00000000 -0.00000000
vn 0.97014250 0.24253563 0.00000000
vn 0.97014250 0.24253563 0.00000000
vn 0.97014250 0.24253563 0.00000000
vn -0.97014250 0.24253563 -0.00000000
vn -0.97014250 0.24253563 -0.00000000
vn -0.97014250 0.24253563 -0.00000000
vn -0.97014250 0.24253563 -0.00000000
vn -0.97014250 0.24253563 -0.00000000
vn 0.00000000 1.00000000 -0.00000000
vn 0.00000000 1.00000000 -0.00000000
vn 0.00000000 1.00000000 -0.00000000
vn 0.00000000 1.00000000 -0.00000000
vn 0.97014250 0.24253563 0.00000000
vn 0.97014250 0.24253563 0.00000000
vn 0.97014250 0.24253563 0.00000000
vn -0.97014250 0.24253563 -0.00000000
vn -0.97014250 0.24253563 -0.00000000
vn -0.97014250 0.24253563 -0.00000000
vn -0.97014250 0.24253563 -0.00000000
vn -0.97014250 0.24253563 -0.00000000
vn 0.00000000 1.00000000 -0.00000000
vn 0.00000000 1.00000000 -0.00000000
vn 0.00000000 1.00000000 -0.00000000
vn 0.00000000 1.00000000 -0.00000000
vn 0.97014250 0.24253563 0.00000000
vn 0.97014250 0.24253563 0.00000000
vn 0.97014250 0.24253563 0.00000000
vn 0.97014250 0.24253563 0.00000000
vn 1.00000000 0.00000000 0.00000000
vn 1.00000000 0.00000000 0.00000000
vn 1.00000000 0.00000000 0.00000000
vn 1.00000000 0.00000000 0.00000000
vn 0.00000000 -1.00000000 -0.00000000
vn 0.00000000 -1.00000000 -0.00000000
vn 0.00000000 -1.00000000 -0.00000000
vn 0.00000000 -1.00000000 -0.00000000
vn 0.97014250 0.24253563 0.00000000
vn 0.97014250 0.24253563 0.00000000
vn 0.97014250 0.24253563 0.00000000
vn -0.97014250 0.24253563 -0.00000000
vn -0.97014250 0.24253563 -0.00000000
vn -0.97014250 0.24253563 -0.00000000
vn -0.97014250 0.24253563 -0.00000000
vn -0.97014250 0.24253563 -0.00000000
vn 0.00000000 1.00000000 -0.00000000
vn 0.00000000 1.00000000 -0.00000000
vn 0.00000000 1.00000000 -0.00000000
vn 0.00000000 1.00000000 -0.00000000
vn -1.00000000 0.00000000 0.00000000
vn -1.00000000 0.00000000 0.00000000
vn -1.00000000 0.00000000 0.00000000
vn -1.00000000 0.00000000 0.00000000
vn -1.00000000 0.00000000 0.00000000
vn -1.00000000 0.00000000 0.00000000
vn -1.00000000 0.00000000 0.00000000
vn -1.00000000 0.00000000 0.00000000
vn -1.00000000 0.00000000 0.00000000
vn -1.00000000 0.00000000 0.00000000
vn -1.00000000 0.00000000 0.00000000
vn -1.00000000 0.00000000 0.00000000
vn -1.00000000 0.00000000 0.00000000
vn -1.00000000 0.00000000 0.00000000
vn -1.00000000 0.00000000 0.00000000
vn -1.00000000 0.00000000 0.00000000
vn 0.00000000 0.24253563 -0.97014250
vn 0.00000000 0.24253563 -0.97014250
vn 0.00000000 0.24253563 -0.97014250
vn 0.00000000 0.24253563 -0.97014250
vn 0.00000000 1.00000000 -0.00000000
vn 0.00000000 1.00000000 -0.00000000
vn 0.00000000 1.00000000 -0.00000000
vn 0.00000000 1.00000000 -0.00000000
s 1
usemtl Wood_Darker
f 1/1/1 2/2/2 3/3/3
f 1/1/1 3/3/3 4/4/4
s 2
f 17/17/17 16/16/16 15/15/15
f 18/18/18 17/17/17 14/14/14
f 14/14/14 12/12/12 11/11/11
f 11/11/11 9/9/9 8/8/8
f 8/8/8 5/5/5 19/19/19
f 5/5/5 1/20/20 19/19/19
f 5/5/5 2/21/21 1/20/20
f 5/5/5 20/22/22 2/21/21
f 8/8/8 6/6/6 5/5/5
f 8/8/8 7/7/7 6/6/6
f 11/11/11 10/10/10 9/9/9
f 14/14/14 13/13/13 12/12/12
f 19/19/19 18/18/18 8/8/8
f 18/18/18 11/11/11 8/8/8
f 18/18/18 14/14/14 11/11/11
f 17/17/17 15/15/15 14/14/14
s 3
f 7/23/23 8/24/24 22/26/26
f 8/24/24 21/25/25 22/26/26
f 21/36/25 28/37/36 25/39/38
f 28/37/36 29/38/37 25/39/38
s 4
f 21/27/27 23/28/28 22/30/30
f 27/95/91 56/97/93 23/98/28
f 27/95/91 55/96/92 56/97/93
f 23/28/28 24/29/29 22/30/30
s 5
f 23/35/35 21/31/31 25/32/32
f 25/32/32 26/33/33 23/35/35
f 26/33/33 27/34/34 23/35/35
s 6
f 30/40/39 31/41/40 29/42/41
f 30/40/39 29/42/41 28/43/42
f 28/88/42 53/89/85 54/90/86
f 32/87/84 28/88/42 54/90/86
s 7
f 28/48/47 32/44/43 33/45/44
f 33/45/44 34/46/45 28/48/47
f 34/46/45 30/47/46 28/48/47
s 8
f 35/49/48 33/50/49 32/51/50
f 11/125/120 32/126/50 54/127/121
f 10/124/119 11/125/120 54/127/121
f 35/49/48 32/51/50 36/52/51
s 9
f 37/53/52 38/54/53 35/55/54
f 37/53/52 35/55/54 36/56/55
f 36/80/55 51/81/78 52/82/79
f 39/79/77 36/80/55 52/82/79
s 10
f 36/61/60 39/57/56 40/58/57
f 40/58/57 41/59/58 36/61/60
f 41/59/58 37/60/59 36/61/60
s 11
f 39/62/61 42/63/62 40/65/64
f 42/63/62 43/64/63 40/65/64
f 52/137/131 14/139/133 39/140/61
f 52/137/131 13/138/132 14/139/133
s 12
f 44/66/65 45/67/66 43/68/67
f 44/66/65 43/68/67 42/69/68
f 49/75/74 46/77/76 42/78/68
f 49/75/74 50/76/75 46/77/76
s 13
f 42/71/70 46/72/71 47/73/72
f 42/71/70 47/73/72 48/74/73
f 48/74/73 44/70/69 42/71/70
s 14
usemtl Wood_Dark
f 45/83/80 41/84/81 40/85/82
f 45/83/80 40/85/82 43/86/83
s 15
f 38/91/87 34/92/88 33/93/89
f 38/91/87 33/93/89 35/94/90
s 16
usemtl Wood_Darker
f 56/99/94 57/100/95 58/101/96
f 5/163/156 58/164/96 60/165/157
f 20/162/155 5/163/156 60/165/157
f 56/99/94 58/101/96 23/102/97
s 17
f 59/103/98 4/104/99 57/106/101
f 4/104/99 58/105/100 57/106/101
s 18
usemtl Wood_Dark
f 55/107/102 59/108/103 57/109/104
f 55/107/102 57/109/104 56/110/105
s 19
f 31/111/106 26/112/107 25/113/108
f 31/111/106 25/113/108 29/114/109
s 20
usemtl Wood_Darker
f 53/119/114 28/115/110 21/116/111
f 21/116/111 8/117/112 9/118/113
f 21/116/111 9/118/113 53/119/114
s 21
usemtl Wood_Dark
f 9/120/115 10/121/116 54/122/117
f 9/120/115 54/122/117 53/123/118
s 22
usemtl Wood_Darker
f 51/132/126 36/128/122 32/129/123
f 32/129/123 11/130/124 12/131/125
f 32/129/123 12/131/125 51/132/126
s 23
usemtl Wood_Dark
f 51/136/130 12/135/129 13/134/128
f 51/136/130 13/134/128 52/133/127
s 24
usemtl Wood_Darker
f 49/145/138 42/141/134 39/142/135
f 39/142/135 14/143/136 15/144/137
f 39/142/135 15/144/137 49/145/138
s 25
usemtl Wood_Dark
f 50/149/142 49/148/141 16/146/139
f 49/148/141 15/147/140 16/146/139
s 26
usemtl Wood_Darker
f 50/150/143 16/151/144 17/152/145
f 50/150/143 17/152/145 46/153/146
s 27
f 17/154/147 18/155/148 46/157/150
f 18/155/148 47/156/149 46/157/150
s 28
f 18/161/154 19/160/153 47/158/151
f 19/160/153 48/159/152 47/158/151
s 29
f 24/170/162 23/166/158 58/167/159
f 58/167/159 5/168/160 6/169/161
f 58/167/159 6/169/161 24/170/162
s 30
usemtl Wood_Dark
f 6/171/163 7/172/164 22/173/165
f 6/171/163 22/173/165 24/174/166
s 31
usemtl Wood_Darker
f 41/180/172 45/179/171 44/178/170
f 37/181/173 44/178/170 48/177/169
f 27/187/179 48/177/169 19/176/168
f 19/176/168 1/175/167 4/190/182
f 19/176/168 4/190/182 27/187/179
f 27/187/179 26/186/178 30/184/176
f 26/186/178 31/185/177 30/184/176
f 4/190/182 59/189/181 27/187/179
f 59/189/181 55/188/180 27/187/179
f 27/187/179 30/184/176 48/177/169
f 30/184/176 37/181/173 48/177/169
f 30/184/176 34/183/175 37/181/173
f 34/183/175 38/182/174 37/181/173
f 37/181/173 41/180/172 44/178/170
s 32
f 58/191/183 4/192/184 3/193/185
f 58/191/183 3/193/185 60/194/186
s 33
usemtl Wood_Dark
f 2/195/187 20/196/188 60/197/189
f 2/195/187 60/197/189 3/198/190
