mtllib Materials_Modular_Village.mtl
o object1
g object1
v -0.57700000 0.66147451 0.57700000
v -0.42300000 0.66147451 0.57700000
v -0.38450000 0.61147451 0.61550000
v -0.61550000 0.61147451 0.61550000
v -0.61550000 -0.28438471 0.61550000
v -0.38450000 -0.28438471 0.61550000
v -0.42300000 -0.33438471 0.57700000
v -0.57700000 -0.33438471 0.57700000
v -0.42300000 -0.33438471 0.42300000
v -0.38450000 -0.28438471 0.38450000
v -0.61550000 -0.28438471 0.38450000
v -0.57700000 -0.33438471 0.42300000
v -0.38450000 0.61147451 0.38450000
v -0.61550000 0.61147451 0.38450000
v -0.42300000 0.66147451 0.42300000
v -0.57700000 0.66147451 0.42300000
vt 0.83333333 1.00000000
vt 0.16666667 1.00000000
vt 0.00000000 0.00000000
vt 1.00000000 0.00000000
vt 0.00000000 1.00000000
vt 0.00000000 0.00000000
vt 1.00000000 0.00000000
vt 1.00000000 1.00000000
vt 0.83333333 1.00000000
vt 0.16666667 1.00000000
vt 0.00000000 0.00000000
vt 1.00000000 0.00000000
vt 0.83333333 1.00000000
vt 0.16666667 1.00000000
vt 0.00000000 0.00000000
vt 1.00000000 0.00000000
vt 1.00000000 1.00000000
vt 0.00000000 1.00000000
vt 0.16666667 0.00000000
vt 0.83333333 0.00000000
vt 0.00000000 1.00000000
vt 0.00000000 0.00000000
vt 1.00000000 0.00000000
vt 1.00000000 1.00000000
vt 1.00000000 1.00000000
vt 0.00000000 1.00000000
vt 0.16666667 0.00000000
vt 0.83333333 0.00000000
vt 1.00000000 0.00000000
vt 1.00000000 1.00000000
vt 0.00000000 1.00000000
vt 0.00000000 0.00000000
vt 1.00000000 1.00000000
vt 0.00000000 1.00000000
vt 0.16666667 0.00000000
vt 0.83333333 0.00000000
vt 0.00000000 1.00000000
vt 0.00000000 0.00000000
vt 1.00000000 0.00000000
vt 1.00000000 1.00000000
vt 0.00000000 1.00000000
vt 0.00000000 0.00000000
vt 1.00000000 0.00000000
vt 1.00000000 1.00000000
vt 0.83333333 1.00000000
vt 0.16666667 1.00000000
vt 0.00000000 0.00000000
vt 1.00000000 0.00000000
vt 1.00000000 0.00000000
vt 1.00000000 1.00000000
vt 0.00000000 1.00000000
vt 0.00000000 0.00000000
vt 1.00000000 1.00000000
vt 0.00000000 1.00000000
vt 0.16666667 0.00000000
vt 0.83333333 0.00000000
vn 0.00000000 0.61009360 0.79232935
vn 0.00000000 0.61009360 0.79232935
vn -0.00000000 0.61009360 0.79232935
vn -0.00000000 0.61009360 0.79232935
vn 0.00000000 0.00000000 1.00000000
vn 0.00000000 0.00000000 1.00000000
vn 0.00000000 0.00000000 1.00000000
vn 0.00000000 0.00000000 1.00000000
vn -0.00000000 -0.61009360 0.79232935
vn -0.00000000 -0.61009360 0.79232935
vn -0.00000000 -0.61009360 0.79232935
vn -0.00000000 -0.61009360 0.79232935
vn 0.79232935 -0.61009360 -0.00000000
vn 0.79232935 -0.61009360 -0.00000000
vn 0.79232935 -0.61009360 -0.00000000
vn 0.79232935 -0.61009360 -0.00000000
vn -0.00000000 -0.61009360 -0.79232935
vn -0.00000000 -0.61009360 -0.79232935
vn -0.00000000 -0.61009360 -0.79232935
vn -0.00000000 -0.61009360 -0.79232935
vn 0.00000000 0.00000000 -1.00000000
vn 0.00000000 0.00000000 -1.00000000
vn 0.00000000 0.00000000 -1.00000000
vn 0.00000000 0.00000000 -1.00000000
vn -0.00000000 0.61009360 -0.79232935
vn -0.00000000 0.61009360 -0.79232935
vn 0.00000000 0.61009360 -0.79232935
vn 0.00000000 0.61009360 -0.79232935
vn -0.00000000 -1.00000000 -0.00000000
vn -0.00000000 -1.00000000 -0.00000000
vn -0.00000000 -1.00000000 -0.00000000
vn -0.00000000 -1.00000000 -0.00000000
vn -0.79232935 -0.61009360 -0.00000000
vn -0.79232935 -0.61009360 -0.00000000
vn -0.79232935 -0.61009360 -0.00000000
vn -0.79232935 -0.61009360 -0.00000000
vn -1.00000000 0.00000000 0.00000000
vn -1.00000000 0.00000000 0.00000000
vn -1.00000000 0.00000000 0.00000000
vn -1.00000000 0.00000000 0.00000000
vn 1.00000000 0.00000000 0.00000000
vn 1.00000000 0.00000000 0.00000000
vn 1.00000000 0.00000000 0.00000000
vn 1.00000000 0.00000000 0.00000000
vn -0.79232935 0.61009360 0.00000000
vn -0.79232935 0.61009360 0.00000000
vn -0.79232935 0.61009360 0.00000000
vn -0.79232935 0.61009360 0.00000000
vn -0.00000000 1.00000000 0.00000000
vn -0.00000000 1.00000000 -0.00000000
vn 0.00000000 1.00000000 -0.00000000
vn 0.00000000 1.00000000 0.00000000
vn 0.79232935 0.61009360 0.00000000
vn 0.79232935 0.61009360 0.00000000
vn 0.79232935 0.61009360 0.00000000
vn 0.79232935 0.61009360 0.00000000
s 1
usemtl Wood_Darker
f 4/4/4 3/3/3 2/2/2
f 4/4/4 2/2/2 1/1/1
s 2
f 5/5/5 6/6/6 3/7/7
f 5/5/5 3/7/7 4/8/8
s 3
f 6/12/12 5/11/11 7/9/9
f 5/11/11 8/10/10 7/9/9
s 4
f 10/16/16 6/15/15 9/13/13
f 6/15/15 7/14/14 9/13/13
s 5
f 9/20/20 12/19/19 10/17/17
f 12/19/19 11/18/18 10/17/17
s 6
f 14/24/24 13/23/23 11/21/21
f 13/23/23 10/22/22 11/21/21
s 7
f 16/28/28 15/27/27 13/26/26
f 16/28/28 13/26/26 14/25/25
s 8
f 12/29/29 9/30/30 7/31/31
f 12/29/29 7/31/31 8/32/32
s 9
f 12/36/36 8/35/35 11/33/33
f 8/35/35 5/34/34 11/33/33
s 10
f 11/37/37 5/38/38 14/40/40
f 5/38/38 4/39/39 14/40/40
s 11
f 13/44/44 3/43/43 6/42/42
f 13/44/44 6/42/42 10/41/41
s 12
f 14/48/48 4/47/47 1/46/46
f 14/48/48 1/46/46 16/45/45
s 13
f 15/49/49 16/50/50 2/52/52
f 16/50/50 1/51/51 2/52/52
s 14
f 15/56/56 2/55/55 3/54/54
f 15/56/56 3/54/54 13/53/53
