mtllib Materials_Modular_Village.mtl
o object1
g object1
v -0.50000000 0.53852549 0.45000000
v 0.50000000 0.53852549 0.45000000
v 0.50000000 0.44442719 0.45000000
v -0.50000000 0.44442719 0.45000000
v -0.50000000 0.53852549 0.55000000
v 0.50000000 0.53852549 0.55000000
v 0.50000000 0.44442719 0.55000000
v -0.50000000 0.44442719 0.55000000
vt 0.00000000 0.00000000
vt 1.00000000 0.00000000
vt 1.00000000 1.00000000
vt 0.00000000 1.00000000
vt 0.00000000 0.00000000
vt 1.00000000 0.00000000
vt 1.00000000 1.00000000
vt 0.00000000 1.00000000
vt 0.00000000 0.00000000
vt 1.00000000 0.00000000
vt 1.00000000 1.00000000
vt 0.00000000 1.00000000
vt 0.00000000 1.00000000
vt 0.00000000 0.00000000
vt 1.00000000 0.00000000
vt 1.00000000 1.00000000
vt 0.00000000 0.00000000
vt 1.00000000 0.00000000
vt 1.00000000 1.00000000
vt 0.00000000 1.00000000
vt 0.00000000 1.00000000
vt 0.00000000 0.00000000
vt 1.00000000 0.00000000
vt 1.00000000 1.00000000
vn 0.00000000 0.00000000 -1.00000000
vn 0.00000000 0.00000000 -1.00000000
vn 0.00000000 0.00000000 -1.00000000
vn 0.00000000 0.00000000 -1.00000000
vn 0.00000000 1.00000000 0.00000000
vn 0.00000000 1.00000000 0.00000000
vn 0.00000000 1.00000000 0.00000000
vn 0.00000000 1.00000000 0.00000000
vn -0.00000000 0.00000000 1.00000000
vn -0.00000000 0.00000000 1.00000000
vn -0.00000000 0.00000000 1.00000000
vn -0.00000000 0.00000000 1.00000000
vn -1.00000000 0.00000000 -0.00000000
vn -1.00000000 0.00000000 -0.00000000
vn -1.00000000 0.00000000 -0.00000000
vn -1.00000000 0.00000000 -0.00000000
vn -0.00000000 -1.00000000 -0.00000000
vn -0.00000000 -1.00000000 -0.00000000
vn -0.00000000 -1.00000000 -0.00000000
vn -0.00000000 -1.00000000 -0.00000000
vn 1.00000000 -0.00000000 0.00000000
vn 1.00000000 -0.00000000 0.00000000
vn 1.00000000 -0.00000000 0.00000000
vn 1.00000000 -0.00000000 0.00000000
s 1
usemtl Wood_Darker
f 1/1/1 2/2/2 4/4/4
f 2/2/2 3/3/3 4/4/4
s 2
f 5/5/5 6/6/6 2/7/7
f 5/5/5 2/7/7 1/8/8
s 3
f 8/12/12 7/11/11 6/10/10
f 8/12/12 6/10/10 5/9/9
s 4
f 8/13/13 5/14/14 1/15/15
f 8/13/13 1/15/15 4/16/16
s 5
f 4/20/20 3/19/19 7/18/18
f 4/20/20 7/18/18 8/17/17
s 6
f 3/24/24 2/23/23 6/22/22
f 3/24/24 6/22/22 7/21/21
o object2
g object2
v 0.10000000 0.47870453 0.52500000
v 0.10000000 0.08722819 0.52500000
v 0.15000000 0.08722819 0.52500000
v 0.15000000 0.47870453 0.52500000
v 0.10000000 0.47870453 0.47500000
v 0.10000000 0.08722819 0.47500000
v 0.15000000 0.08722819 0.47500000
v 0.15000000 0.47870453 0.47500000
vt 0.00000000 0.00000000
vt 1.00000000 0.00000000
vt 1.00000000 1.00000000
vt 0.00000000 1.00000000
vt 0.00000000 0.00000000
vt 1.00000000 0.00000000
vt 1.00000000 1.00000000
vt 0.00000000 1.00000000
vt 0.00000000 0.00000000
vt 1.00000000 0.00000000
vt 1.00000000 1.00000000
vt 0.00000000 1.00000000
vt 0.00000000 0.00000000
vt 1.00000000 0.00000000
vt 1.00000000 1.00000000
vt 0.00000000 1.00000000
vt 0.00000000 0.00000000
vt 1.00000000 0.00000000
vt 1.00000000 1.00000000
vt 0.00000000 1.00000000
vt 0.00000000 0.00000000
vt 1.00000000 0.00000000
vt 1.00000000 1.00000000
vt 0.00000000 1.00000000
vn 0.00000000 0.00000000 1.00000000
vn 0.00000000 0.00000000 1.00000000
vn 0.00000000 0.00000000 1.00000000
vn 0.00000000 0.00000000 1.00000000
vn -1.00000000 0.00000000 0.00000000
vn -1.00000000 0.00000000 0.00000000
vn -1.00000000 0.00000000 0.00000000
vn -1.00000000 0.00000000 0.00000000
vn 0.00000000 0.00000000 -1.00000000
vn 0.00000000 0.00000000 -1.00000000
vn 0.00000000 0.00000000 -1.00000000
vn 0.00000000 0.00000000 -1.00000000
vn 0.00000000 1.00000000 0.00000000
vn 0.00000000 1.00000000 0.00000000
vn 0.00000000 1.00000000 0.00000000
vn 0.00000000 1.00000000 0.00000000
vn 1.00000000 0.00000000 0.00000000
vn 1.00000000 0.00000000 0.00000000
vn 1.00000000 0.00000000 0.00000000
vn 1.00000000 0.00000000 0.00000000
vn 0.00000000 -1.00000000 0.00000000
vn 0.00000000 -1.00000000 0.00000000
vn 0.00000000 -1.00000000 0.00000000
vn 0.00000000 -1.00000000 0.00000000
s 1
usemtl Wood_Dark
f 9/25/25 10/26/26 12/28/28
f 10/26/26 11/27/27 12/28/28
s 2
f 9/29/29 13/30/30 10/32/32
f 13/30/30 14/31/31 10/32/32
s 3
f 16/36/36 15/35/35 13/33/33
f 15/35/35 14/34/34 13/33/33
s 4
f 12/40/40 16/39/39 9/37/37
f 16/39/39 13/38/38 9/37/37
s 5
f 11/44/44 15/43/43 12/41/41
f 15/43/43 16/42/42 12/41/41
s 6
f 10/45/45 14/46/46 15/47/47
f 10/45/45 15/47/47 11/48/48
o object3
g object3
v -0.50000000 -0.14409830 0.60000000
v -0.50000000 -0.14409830 0.40000000
v 0.50000000 -0.14409830 0.40000000
v 0.50000000 -0.14409830 0.60000000
v -0.50000000 0.14721360 0.56250000
v -0.50000000 0.14721360 0.43750000
v -0.50000000 0.10971360 0.40000000
v -0.50000000 0.10971360 0.60000000
v 0.50000000 0.14721360 0.56250000
v 0.50000000 0.14721360 0.43750000
v 0.50000000 0.10971360 0.60000000
v 0.50000000 0.10971360 0.40000000
vt 0.00000000 0.00000000
vt 1.00000000 0.00000000
vt 1.00000000 1.00000000
vt 0.00000000 1.00000000
vt 0.18750000 0.00000000
vt 0.81250000 0.00000000
vt 1.00000000 0.12872801
vt 1.00000000 1.00000000
vt 0.00000000 1.00000000
vt 0.00000000 0.12872801
vt 0.00000000 1.00000000
vt 0.00000000 0.00000000
vt 1.00000000 0.00000000
vt 1.00000000 1.00000000
vt 1.00000000 0.00000000
vt 1.00000000 1.00000000
vt 0.00000000 1.00000000
vt 0.00000000 0.00000000
vt 1.00000000 0.00000000
vt 1.00000000 1.00000000
vt 0.00000000 1.00000000
vt 0.00000000 0.00000000
vt 1.00000000 0.00000000
vt 1.00000000 1.00000000
vt 0.00000000 1.00000000
vt 0.00000000 0.00000000
vt 0.18750000 0.00000000
vt 0.81250000 0.00000000
vt 1.00000000 0.12872801
vt 1.00000000 1.00000000
vt 0.00000000 1.00000000
vt 0.00000000 0.12872801
vt 1.00000000 0.00000000
vt 1.00000000 1.00000000
vt 0.00000000 1.00000000
vt 0.00000000 0.00000000
vn 0.00000000 -1.00000000 0.00000000
vn 0.00000000 -1.00000000 0.00000000
vn 0.00000000 -1.00000000 0.00000000
vn 0.00000000 -1.00000000 0.00000000
vn -1.00000000 0.00000000 0.00000000
vn -1.00000000 0.00000000 0.00000000
vn -1.00000000 0.00000000 0.00000000
vn -1.00000000 0.00000000 0.00000000
vn -1.00000000 0.00000000 0.00000000
vn -1.00000000 0.00000000 0.00000000
vn 0.00000000 1.00000000 0.00000000
vn 0.00000000 1.00000000 0.00000000
vn 0.00000000 1.00000000 0.00000000
vn 0.00000000 1.00000000 0.00000000
vn 0.00000000 0.70710678 0.70710678
vn 0.00000000 0.70710678 0.70710678
vn 0.00000000 0.70710678 0.70710678
vn 0.00000000 0.70710678 0.70710678
vn 0.00000000 0.70710678 -0.70710678
vn 0.00000000 0.70710678 -0.70710678
vn 0.00000000 0.70710678 -0.70710678
vn 0.00000000 0.70710678 -0.70710678
vn -0.00000000 -0.00000000 1.00000000
vn -0.00000000 -0.00000000 1.00000000
vn -0.00000000 -0.00000000 1.00000000
vn -0.00000000 -0.00000000 1.00000000
vn 1.00000000 -0.00000000 -0.00000000
vn 1.00000000 -0.00000000 -0.00000000
vn 1.00000000 -0.00000000 -0.00000000
vn 1.00000000 -0.00000000 -0.00000000
vn 1.00000000 -0.00000000 -0.00000000
vn 1.00000000 -0.00000000 -0.00000000
vn 0.00000000 0.00000000 -1.00000000
vn 0.00000000 0.00000000 -1.00000000
vn 0.00000000 0.00000000 -1.00000000
vn 0.00000000 0.00000000 -1.00000000
s 1
usemtl Wood_Darker
f 17/49/49 18/50/50 19/51/51
f 17/49/49 19/51/51 20/52/52
s 2
f 24/58/58 21/53/53 22/54/54
f 23/55/55 17/57/57 24/58/58
f 23/55/55 18/56/56 17/57/57
f 24/58/58 22/54/54 23/55/55
s 3
f 22/59/59 21/60/60 25/61/61
f 22/59/59 25/61/61 26/62/62
s 4
f 27/63/63 25/64/64 24/66/66
f 25/64/64 21/65/65 24/66/66
s 5
f 26/67/67 28/68/68 22/70/70
f 28/68/68 23/69/69 22/70/70
s 6
f 24/74/74 17/73/73 20/72/72
f 24/74/74 20/72/72 27/71/71
s 7
f 26/76/76 25/75/75 27/80/80
f 28/77/77 27/80/80 20/79/79
f 20/79/79 19/78/78 28/77/77
f 28/77/77 26/76/76 27/80/80
s 8
f 28/81/81 19/82/82 23/84/84
f 19/82/82 18/83/83 23/84/84
o object4
g object4
v -0.15000000 0.47870453 0.47500000
v -0.15000000 0.08722819 0.47500000
v -0.10000000 0.08722819 0.47500000
v -0.10000000 0.47870453 0.47500000
v -0.10000000 0.47870453 0.52500000
v -0.10000000 0.08722819 0.52500000
v -0.15000000 0.47870453 0.52500000
v -0.15000000 0.08722819 0.52500000
vt 0.00000000 0.00000000
vt 1.00000000 0.00000000
vt 1.00000000 1.00000000
vt 0.00000000 1.00000000
vt 0.00000000 0.00000000
vt 1.00000000 0.00000000
vt 1.00000000 1.00000000
vt 0.00000000 1.00000000
vt 0.00000000 0.00000000
vt 1.00000000 0.00000000
vt 1.00000000 1.00000000
vt 0.00000000 1.00000000
vt 0.00000000 0.00000000
vt 1.00000000 0.00000000
vt 1.00000000 1.00000000
vt 0.00000000 1.00000000
vt 0.00000000 0.00000000
vt 1.00000000 0.00000000
vt 1.00000000 1.00000000
vt 0.00000000 1.00000000
vt 0.00000000 0.00000000
vt 1.00000000 0.00000000
vt 1.00000000 1.00000000
vt 0.00000000 1.00000000
vn 0.00000000 0.00000000 -1.00000000
vn 0.00000000 0.00000000 -1.00000000
vn 0.00000000 0.00000000 -1.00000000
vn 0.00000000 0.00000000 -1.00000000
vn 1.00000000 0.00000000 0.00000000
vn 1.00000000 0.00000000 0.00000000
vn 1.00000000 0.00000000 0.00000000
vn 1.00000000 0.00000000 0.00000000
vn 0.00000000 0.00000000 1.00000000
vn 0.00000000 0.00000000 1.00000000
vn 0.00000000 0.00000000 1.00000000
vn 0.00000000 0.00000000 1.00000000
vn 0.00000000 1.00000000 0.00000000
vn 0.00000000 1.00000000 0.00000000
vn 0.00000000 1.00000000 0.00000000
vn 0.00000000 1.00000000 0.00000000
vn -1.00000000 0.00000000 0.00000000
vn -1.00000000 0.00000000 0.00000000
vn -1.00000000 0.00000000 0.00000000
vn -1.00000000 0.00000000 0.00000000
vn 0.00000000 -1.00000000 0.00000000
vn 0.00000000 -1.00000000 0.00000000
vn 0.00000000 -1.00000000 0.00000000
vn 0.00000000 -1.00000000 0.00000000
s 1
usemtl Wood_Dark
f 32/88/88 31/87/87 29/85/85
f 31/87/87 30/86/86 29/85/85
s 2
f 34/92/92 31/91/91 33/89/89
f 31/91/91 32/90/90 33/89/89
s 3
f 35/93/93 36/94/94 33/96/96
f 36/94/94 34/95/95 33/96/96
s 4
f 33/100/100 32/99/99 35/97/97
f 32/99/99 29/98/98 35/97/97
s 5
f 35/101/101 29/102/102 36/104/104
f 29/102/102 30/103/103 36/104/104
s 6
f 36/105/105 30/106/106 31/107/107
f 36/105/105 31/107/107 34/108/108
o object5
g object5
v -0.40000000 0.47870453 0.47500000
v -0.40000000 0.08722819 0.47500000
v -0.35000000 0.08722819 0.47500000
v -0.35000000 0.47870453 0.47500000
v -0.35000000 0.47870453 0.52500000
v -0.35000000 0.08722819 0.52500000
v -0.40000000 0.47870453 0.52500000
v -0.40000000 0.08722819 0.52500000
vt 0.00000000 0.00000000
vt 1.00000000 0.00000000
vt 1.00000000 1.00000000
vt 0.00000000 1.00000000
vt 0.00000000 0.00000000
vt 1.00000000 0.00000000
vt 1.00000000 1.00000000
vt 0.00000000 1.00000000
vt 0.00000000 0.00000000
vt 1.00000000 0.00000000
vt 1.00000000 1.00000000
vt 0.00000000 1.00000000
vt 0.00000000 0.00000000
vt 1.00000000 0.00000000
vt 1.00000000 1.00000000
vt 0.00000000 1.00000000
vt 0.00000000 0.00000000
vt 1.00000000 0.00000000
vt 1.00000000 1.00000000
vt 0.00000000 1.00000000
vt 0.00000000 0.00000000
vt 1.00000000 0.00000000
vt 1.00000000 1.00000000
vt 0.00000000 1.00000000
vn 0.00000000 0.00000000 -1.00000000
vn 0.00000000 0.00000000 -1.00000000
vn 0.00000000 0.00000000 -1.00000000
vn 0.00000000 0.00000000 -1.00000000
vn 1.00000000 0.00000000 0.00000000
vn 1.00000000 0.00000000 0.00000000
vn 1.00000000 0.00000000 0.00000000
vn 1.00000000 0.00000000 0.00000000
vn 0.00000000 0.00000000 1.00000000
vn 0.00000000 0.00000000 1.00000000
vn 0.00000000 0.00000000 1.00000000
vn 0.00000000 0.00000000 1.00000000
vn 0.00000000 1.00000000 0.00000000
vn 0.00000000 1.00000000 0.00000000
vn 0.00000000 1.00000000 0.00000000
vn 0.00000000 1.00000000 0.00000000
vn -1.00000000 0.00000000 0.00000000
vn -1.00000000 0.00000000 0.00000000
vn -1.00000000 0.00000000 0.00000000
vn -1.00000000 0.00000000 0.00000000
vn 0.00000000 -1.00000000 0.00000000
vn 0.00000000 -1.00000000 0.00000000
vn 0.00000000 -1.00000000 0.00000000
vn 0.00000000 -1.00000000 0.00000000
s 1
usemtl Wood_Dark
f 40/112/112 39/111/111 37/109/109
f 39/111/111 38/110/110 37/109/109
s 2
f 42/116/116 39/115/115 41/113/113
f 39/115/115 40/114/114 41/113/113
s 3
f 43/117/117 44/118/118 41/120/120
f 44/118/118 42/119/119 41/120/120
s 4
f 41/124/124 40/123/123 43/121/121
f 40/123/123 37/122/122 43/121/121
s 5
f 43/125/125 37/126/126 44/128/128
f 37/126/126 38/127/127 44/128/128
s 6
f 44/129/129 38/130/130 39/131/131
f 44/129/129 39/131/131 42/132/132
o object6
g object6
v 0.35000000 0.47870453 0.47500000
v 0.35000000 0.08722819 0.47500000
v 0.40000000 0.08722819 0.47500000
v 0.40000000 0.47870453 0.47500000
v 0.40000000 0.47870453 0.52500000
v 0.40000000 0.08722819 0.52500000
v 0.35000000 0.47870453 0.52500000
v 0.35000000 0.08722819 0.52500000
vt 0.00000000 0.00000000
vt 1.00000000 0.00000000
vt 1.00000000 1.00000000
vt 0.00000000 1.00000000
vt 0.00000000 0.00000000
vt 1.00000000 0.00000000
vt 1.00000000 1.00000000
vt 0.00000000 1.00000000
vt 0.00000000 0.00000000
vt 1.00000000 0.00000000
vt 1.00000000 1.00000000
vt 0.00000000 1.00000000
vt 0.00000000 0.00000000
vt 1.00000000 0.00000000
vt 1.00000000 1.00000000
vt 0.00000000 1.00000000
vt 0.00000000 0.00000000
vt 1.00000000 0.00000000
vt 1.00000000 1.00000000
vt 0.00000000 1.00000000
vt 0.00000000 0.00000000
vt 1.00000000 0.00000000
vt 1.00000000 1.00000000
vt 0.00000000 1.00000000
vn 0.00000000 0.00000000 -1.00000000
vn 0.00000000 0.00000000 -1.00000000
vn 0.00000000 0.00000000 -1.00000000
vn 0.00000000 0.00000000 -1.00000000
vn 1.00000000 0.00000000 0.00000000
vn 1.00000000 0.00000000 0.00000000
vn 1.00000000 0.00000000 0.00000000
vn 1.00000000 0.00000000 0.00000000
vn 0.00000000 0.00000000 1.00000000
vn 0.00000000 0.00000000 1.00000000
vn 0.00000000 0.00000000 1.00000000
vn 0.00000000 0.00000000 1.00000000
vn 0.00000000 1.00000000 0.00000000
vn 0.00000000 1.00000000 0.00000000
vn 0.00000000 1.00000000 0.00000000
vn 0.00000000 1.00000000 0.00000000
vn -1.00000000 0.00000000 0.00000000
vn -1.00000000 0.00000000 0.00000000
vn -1.00000000 0.00000000 0.00000000
vn -1.00000000 0.00000000 0.00000000
vn 0.00000000 -1.00000000 0.00000000
vn 0.00000000 -1.00000000 0.00000000
vn 0.00000000 -1.00000000 0.00000000
vn 0.00000000 -1.00000000 0.00000000
s 1
usemtl Wood_Dark
f 48/136/136 47/135/135 45/133/133
f 47/135/135 46/134/134 45/133/133
s 2
f 50/140/140 47/139/139 49/137/137
f 47/139/139 48/138/138 49/137/137
s 3
f 51/141/141 52/142/142 49/144/144
f 52/142/142 50/143/143 49/144/144
s 4
f 49/148/148 48/147/147 51/145/145
f 48/147/147 45/146/146 51/145/145
s 5
f 51/149/149 45/150/150 52/152/152
f 45/150/150 46/151/151 52/152/152
s 6
f 52/153/153 46/154/154 47/155/155
f 52/153/153 47/155/155 50/156/156
