mtllib Materials_Modular_Village.mtl
o object1
g object1
v -0.55775000 0.55157221 0.55775000
v -0.44225000 0.55157221 0.55775000
v -0.41337500 0.51407221 0.58662500
v -0.58662500 0.51407221 0.58662500
v -0.41337500 -0.00000000 0.58662500
v -0.58662500 -0.00000000 0.58662500
v -0.41337500 0.51407221 0.41337500
v -0.41337500 -0.00000000 0.41337500
v -0.58662500 0.51407221 0.41337500
v -0.58662500 -0.00000000 0.41337500
v -0.44225000 0.55157221 0.44225000
v -0.55775000 0.55157221 0.44225000
vt 0.83333333 1.00000000
vt 0.16666667 1.00000000
vt 0.00000000 0.00000000
vt 1.00000000 0.00000000
vt 0.00000000 0.00000000
vt 1.00000000 0.00000000
vt 1.00000000 1.00000000
vt 0.00000000 1.00000000
vt 0.00000000 0.00000000
vt 1.00000000 0.00000000
vt 1.00000000 1.00000000
vt 0.00000000 1.00000000
vt 0.00000000 0.00000000
vt 1.00000000 0.00000000
vt 1.00000000 1.00000000
vt 0.00000000 1.00000000
vt 1.00000000 1.00000000
vt 0.00000000 1.00000000
vt 0.16666667 0.00000000
vt 0.83333333 0.00000000
vt 0.00000000 0.00000000
vt 1.00000000 0.00000000
vt 1.00000000 1.00000000
vt 0.00000000 1.00000000
vt 0.00000000 0.00000000
vt 1.00000000 0.00000000
vt 1.00000000 1.00000000
vt 0.00000000 1.00000000
vt 0.83333333 1.00000000
vt 0.16666667 1.00000000
vt 0.00000000 0.00000000
vt 1.00000000 0.00000000
vt 1.00000000 0.00000000
vt 1.00000000 1.00000000
vt 0.00000000 1.00000000
vt 0.00000000 0.00000000
vt 1.00000000 1.00000000
vt 0.00000000 1.00000000
vt 0.16666667 0.00000000
vt 0.83333333 0.00000000
vn -0.00000000 0.61009360 0.79232935
vn -0.00000000 0.61009360 0.79232935
vn 0.00000000 0.61009360 0.79232935
vn 0.00000000 0.61009360 0.79232935
vn 0.00000000 0.00000000 1.00000000
vn 0.00000000 0.00000000 1.00000000
vn 0.00000000 0.00000000 1.00000000
vn 0.00000000 0.00000000 1.00000000
vn 1.00000000 0.00000000 0.00000000
vn 1.00000000 0.00000000 0.00000000
vn 1.00000000 0.00000000 0.00000000
vn 1.00000000 0.00000000 0.00000000
vn 0.00000000 0.00000000 -1.00000000
vn 0.00000000 0.00000000 -1.00000000
vn 0.00000000 0.00000000 -1.00000000
vn 0.00000000 0.00000000 -1.00000000
vn 0.00000000 0.61009360 -0.79232935
vn 0.00000000 0.61009360 -0.79232935
vn -0.00000000 0.61009360 -0.79232935
vn -0.00000000 0.61009360 -0.79232935
vn 0.00000000 -1.00000000 -0.00000000
vn 0.00000000 -1.00000000 -0.00000000
vn 0.00000000 -1.00000000 -0.00000000
vn 0.00000000 -1.00000000 -0.00000000
vn -1.00000000 0.00000000 0.00000000
vn -1.00000000 0.00000000 0.00000000
vn -1.00000000 0.00000000 0.00000000
vn -1.00000000 0.00000000 0.00000000
vn -0.79232935 0.61009360 0.00000000
vn -0.79232935 0.61009360 0.00000000
vn -0.79232935 0.61009360 0.00000000
vn -0.79232935 0.61009360 0.00000000
vn 0.00000000 1.00000000 -0.00000000
vn 0.00000000 1.00000000 0.00000000
vn -0.00000000 1.00000000 -0.00000000
vn -0.00000000 1.00000000 -0.00000000
vn 0.79232935 0.61009360 0.00000000
vn 0.79232935 0.61009360 0.00000000
vn 0.79232935 0.61009360 0.00000000
vn 0.79232935 0.61009360 0.00000000
s 1
usemtl Wood_Darker
f 4/4/4 3/3/3 2/2/2
f 4/4/4 2/2/2 1/1/1
s 2
f 5/5/5 3/6/6 6/8/8
f 3/6/6 4/7/7 6/8/8
s 3
f 8/12/12 7/11/11 5/9/9
f 7/11/11 3/10/10 5/9/9
s 4
f 10/16/16 9/15/15 7/14/14
f 10/16/16 7/14/14 8/13/13
s 5
f 12/20/20 11/19/19 7/18/18
f 12/20/20 7/18/18 9/17/17
s 6
f 10/21/21 8/22/22 5/23/23
f 10/21/21 5/23/23 6/24/24
s 7
f 6/25/25 4/26/26 10/28/28
f 4/26/26 9/27/27 10/28/28
s 8
f 9/32/32 4/31/31 1/30/30
f 9/32/32 1/30/30 12/29/29
s 9
f 11/33/33 12/34/34 2/36/36
f 12/34/34 1/35/35 2/36/36
s 10
f 11/40/40 2/39/39 3/38/38
f 11/40/40 3/38/38 7/37/37
