mtllib Materials_Modular_Village.mtl
o object1
g object1
v 0.10000000 0.67221360 0.47500000
v 0.10000000 0.27221360 0.47500000
v 0.15000000 0.27221360 0.47500000
v 0.15000000 0.67221360 0.47500000
v 0.15000000 0.67221360 0.52500000
v 0.15000000 0.27221360 0.52500000
v 0.10000000 0.67221360 0.52500000
v 0.10000000 0.27221360 0.52500000
vt 0.00000000 0.00000000
vt 1.00000000 0.00000000
vt 1.00000000 1.00000000
vt 0.00000000 1.00000000
vt 0.00000000 0.00000000
vt 1.00000000 0.00000000
vt 1.00000000 1.00000000
vt 0.00000000 1.00000000
vt 0.00000000 0.00000000
vt 1.00000000 0.00000000
vt 1.00000000 1.00000000
vt 0.00000000 1.00000000
vt 0.00000000 0.00000000
vt 1.00000000 0.00000000
vt 1.00000000 1.00000000
vt 0.00000000 1.00000000
vt 0.00000000 0.00000000
vt 1.00000000 0.00000000
vt 1.00000000 1.00000000
vt 0.00000000 1.00000000
vt 0.00000000 0.00000000
vt 1.00000000 0.00000000
vt 1.00000000 1.00000000
vt 0.00000000 1.00000000
vn 0.00000000 0.00000000 -1.00000000
vn 0.00000000 0.00000000 -1.00000000
vn 0.00000000 0.00000000 -1.00000000
vn 0.00000000 0.00000000 -1.00000000
vn 1.00000000 0.00000000 0.00000000
vn 1.00000000 0.00000000 0.00000000
vn 1.00000000 0.00000000 0.00000000
vn 1.00000000 0.00000000 0.00000000
vn 0.00000000 0.00000000 1.00000000
vn 0.00000000 0.00000000 1.00000000
vn 0.00000000 0.00000000 1.00000000
vn 0.00000000 0.00000000 1.00000000
vn 0.00000000 1.00000000 0.00000000
vn 0.00000000 1.00000000 0.00000000
vn 0.00000000 1.00000000 0.00000000
vn 0.00000000 1.00000000 0.00000000
vn -1.00000000 0.00000000 0.00000000
vn -1.00000000 0.00000000 0.00000000
vn -1.00000000 0.00000000 0.00000000
vn -1.00000000 0.00000000 0.00000000
vn 0.00000000 -1.00000000 0.00000000
vn 0.00000000 -1.00000000 0.00000000
vn 0.00000000 -1.00000000 0.00000000
vn 0.00000000 -1.00000000 0.00000000
s 1
usemtl Wood_Dark
f 4/4/4 3/3/3 1/1/1
f 3/3/3 2/2/2 1/1/1
s 2
f 6/8/8 3/7/7 5/5/5
f 3/7/7 4/6/6 5/5/5
s 3
f 7/9/9 8/10/10 5/12/12
f 8/10/10 6/11/11 5/12/12
s 4
f 5/16/16 4/15/15 7/13/13
f 4/15/15 1/14/14 7/13/13
s 5
f 7/17/17 1/18/18 8/20/20
f 1/18/18 2/19/19 8/20/20
s 6
f 8/21/21 2/22/22 3/23/23
f 8/21/21 3/23/23 6/24/24
o object10
g object10
v -0.90000000 0.77221360 0.52500000
v -0.90000000 0.77221360 0.47500000
v -0.85000000 0.77221360 0.47500000
v -0.85000000 0.77221360 0.52500000
v -0.90000000 1.17221360 0.52500000
v -0.90000000 1.17221360 0.47500000
v -0.85000000 1.17221360 0.47500000
v -0.85000000 1.17221360 0.52500000
vt 0.00000000 0.00000000
vt 1.00000000 0.00000000
vt 1.00000000 1.00000000
vt 0.00000000 1.00000000
vt 0.00000000 0.00000000
vt 1.00000000 0.00000000
vt 1.00000000 1.00000000
vt 0.00000000 1.00000000
vt 0.00000000 0.00000000
vt 1.00000000 0.00000000
vt 1.00000000 1.00000000
vt 0.00000000 1.00000000
vt 0.00000000 0.00000000
vt 1.00000000 0.00000000
vt 1.00000000 1.00000000
vt 0.00000000 1.00000000
vt 0.00000000 0.00000000
vt 1.00000000 0.00000000
vt 1.00000000 1.00000000
vt 0.00000000 1.00000000
vt 0.00000000 0.00000000
vt 1.00000000 0.00000000
vt 1.00000000 1.00000000
vt 0.00000000 1.00000000
vn 0.00000000 -1.00000000 0.00000000
vn 0.00000000 -1.00000000 0.00000000
vn 0.00000000 -1.00000000 0.00000000
vn 0.00000000 -1.00000000 0.00000000
vn -1.00000000 0.00000000 0.00000000
vn -1.00000000 0.00000000 0.00000000
vn -1.00000000 0.00000000 0.00000000
vn -1.00000000 0.00000000 0.00000000
vn 0.00000000 1.00000000 0.00000000
vn 0.00000000 1.00000000 0.00000000
vn 0.00000000 1.00000000 0.00000000
vn 0.00000000 1.00000000 0.00000000
vn 0.00000000 0.00000000 1.00000000
vn 0.00000000 0.00000000 1.00000000
vn 0.00000000 0.00000000 1.00000000
vn 0.00000000 0.00000000 1.00000000
vn 1.00000000 0.00000000 0.00000000
vn 1.00000000 0.00000000 0.00000000
vn 1.00000000 0.00000000 0.00000000
vn 1.00000000 0.00000000 0.00000000
vn 0.00000000 0.00000000 -1.00000000
vn 0.00000000 0.00000000 -1.00000000
vn 0.00000000 0.00000000 -1.00000000
vn 0.00000000 0.00000000 -1.00000000
s 1
usemtl Wood_Dark
f 9/25/25 10/26/26 11/27/27
f 9/25/25 11/27/27 12/28/28
s 2
f 13/29/29 14/30/30 9/32/32
f 14/30/30 10/31/31 9/32/32
s 3
f 16/36/36 15/35/35 13/33/33
f 15/35/35 14/34/34 13/33/33
s 4
f 13/37/37 9/38/38 16/40/40
f 9/38/38 12/39/39 16/40/40
s 5
f 12/44/44 11/43/43 16/41/41
f 11/43/43 15/42/42 16/41/41
s 6
f 15/48/48 11/47/47 14/45/45
f 11/47/47 10/46/46 14/45/45
o object2
g object2
v -0.40000000 0.92221360 0.47500000
v -0.40000000 0.52221360 0.47500000
v -0.35000000 0.52221360 0.47500000
v -0.35000000 0.92221360 0.47500000
v -0.35000000 0.92221360 0.52500000
v -0.35000000 0.52221360 0.52500000
v -0.40000000 0.92221360 0.52500000
v -0.40000000 0.52221360 0.52500000
vt 0.00000000 0.00000000
vt 1.00000000 0.00000000
vt 1.00000000 1.00000000
vt 0.00000000 1.00000000
vt 0.00000000 0.00000000
vt 1.00000000 0.00000000
vt 1.00000000 1.00000000
vt 0.00000000 1.00000000
vt 0.00000000 0.00000000
vt 1.00000000 0.00000000
vt 1.00000000 1.00000000
vt 0.00000000 1.00000000
vt 0.00000000 0.00000000
vt 1.00000000 0.00000000
vt 1.00000000 1.00000000
vt 0.00000000 1.00000000
vt 0.00000000 0.00000000
vt 1.00000000 0.00000000
vt 1.00000000 1.00000000
vt 0.00000000 1.00000000
vt 0.00000000 0.00000000
vt 1.00000000 0.00000000
vt 1.00000000 1.00000000
vt 0.00000000 1.00000000
vn 0.00000000 0.00000000 -1.00000000
vn 0.00000000 0.00000000 -1.00000000
vn 0.00000000 0.00000000 -1.00000000
vn 0.00000000 0.00000000 -1.00000000
vn 1.00000000 0.00000000 0.00000000
vn 1.00000000 0.00000000 0.00000000
vn 1.00000000 0.00000000 0.00000000
vn 1.00000000 0.00000000 0.00000000
vn 0.00000000 0.00000000 1.00000000
vn 0.00000000 0.00000000 1.00000000
vn 0.00000000 0.00000000 1.00000000
vn 0.00000000 0.00000000 1.00000000
vn 0.00000000 1.00000000 0.00000000
vn 0.00000000 1.00000000 0.00000000
vn 0.00000000 1.00000000 0.00000000
vn 0.00000000 1.00000000 0.00000000
vn -1.00000000 0.00000000 0.00000000
vn -1.00000000 0.00000000 0.00000000
vn -1.00000000 0.00000000 0.00000000
vn -1.00000000 0.00000000 0.00000000
vn 0.00000000 -1.00000000 0.00000000
vn 0.00000000 -1.00000000 0.00000000
vn 0.00000000 -1.00000000 0.00000000
vn 0.00000000 -1.00000000 0.00000000
s 1
usemtl Wood_Dark
f 20/52/52 19/51/51 17/49/49
f 19/51/51 18/50/50 17/49/49
s 2
f 22/56/56 19/55/55 21/53/53
f 19/55/55 20/54/54 21/53/53
s 3
f 23/57/57 24/58/58 21/60/60
f 24/58/58 22/59/59 21/60/60
s 4
f 21/64/64 20/63/63 23/61/61
f 20/63/63 17/62/62 23/61/61
s 5
f 23/65/65 17/66/66 24/68/68
f 17/66/66 18/67/67 24/68/68
s 6
f 24/69/69 18/70/70 19/71/71
f 24/69/69 19/71/71 22/72/72
o object3
g object3
v -0.15000000 0.79721360 0.52500000
v -0.15000000 0.39721360 0.52500000
v -0.10000000 0.39721360 0.52500000
v -0.10000000 0.79721360 0.52500000
v -0.15000000 0.79721360 0.47500000
v -0.15000000 0.39721360 0.47500000
v -0.10000000 0.39721360 0.47500000
v -0.10000000 0.79721360 0.47500000
vt 0.00000000 0.00000000
vt 1.00000000 0.00000000
vt 1.00000000 1.00000000
vt 0.00000000 1.00000000
vt 0.00000000 0.00000000
vt 1.00000000 0.00000000
vt 1.00000000 1.00000000
vt 0.00000000 1.00000000
vt 0.00000000 0.00000000
vt 1.00000000 0.00000000
vt 1.00000000 1.00000000
vt 0.00000000 1.00000000
vt 0.00000000 0.00000000
vt 1.00000000 0.00000000
vt 1.00000000 1.00000000
vt 0.00000000 1.00000000
vt 0.00000000 0.00000000
vt 1.00000000 0.00000000
vt 1.00000000 1.00000000
vt 0.00000000 1.00000000
vt 0.00000000 0.00000000
vt 1.00000000 0.00000000
vt 1.00000000 1.00000000
vt 0.00000000 1.00000000
vn 0.00000000 0.00000000 1.00000000
vn 0.00000000 0.00000000 1.00000000
vn 0.00000000 0.00000000 1.00000000
vn 0.00000000 0.00000000 1.00000000
vn -1.00000000 0.00000000 0.00000000
vn -1.00000000 0.00000000 0.00000000
vn -1.00000000 0.00000000 0.00000000
vn -1.00000000 0.00000000 0.00000000
vn 0.00000000 0.00000000 -1.00000000
vn 0.00000000 0.00000000 -1.00000000
vn 0.00000000 0.00000000 -1.00000000
vn 0.00000000 0.00000000 -1.00000000
vn 0.00000000 1.00000000 0.00000000
vn 0.00000000 1.00000000 0.00000000
vn 0.00000000 1.00000000 0.00000000
vn 0.00000000 1.00000000 0.00000000
vn 1.00000000 0.00000000 0.00000000
vn 1.00000000 0.00000000 0.00000000
vn 1.00000000 0.00000000 0.00000000
vn 1.00000000 0.00000000 0.00000000
vn 0.00000000 -1.00000000 0.00000000
vn 0.00000000 -1.00000000 0.00000000
vn 0.00000000 -1.00000000 0.00000000
vn 0.00000000 -1.00000000 0.00000000
s 1
usemtl Wood_Dark
f 25/73/73 26/74/74 28/76/76
f 26/74/74 27/75/75 28/76/76
s 2
f 25/77/77 29/78/78 26/80/80
f 29/78/78 30/79/79 26/80/80
s 3
f 32/84/84 31/83/83 29/81/81
f 31/83/83 30/82/82 29/81/81
s 4
f 28/88/88 32/87/87 25/85/85
f 32/87/87 29/86/86 25/85/85
s 5
f 27/92/92 31/91/91 28/89/89
f 31/91/91 32/90/90 28/89/89
s 6
f 26/93/93 30/94/94 31/95/95
f 26/93/93 31/95/95 27/96/96
o object4
g object4
v -1.40000000 1.42221360 0.52500000
v -1.40000000 1.02221360 0.52500000
v -1.35000000 1.02221360 0.52500000
v -1.35000000 1.42221360 0.52500000
v -1.40000000 1.42221360 0.47500000
v -1.40000000 1.02221360 0.47500000
v -1.35000000 1.02221360 0.47500000
v -1.35000000 1.42221360 0.47500000
vt 0.00000000 0.00000000
vt 1.00000000 0.00000000
vt 1.00000000 1.00000000
vt 0.00000000 1.00000000
vt 0.00000000 0.00000000
vt 1.00000000 0.00000000
vt 1.00000000 1.00000000
vt 0.00000000 1.00000000
vt 0.00000000 0.00000000
vt 1.00000000 0.00000000
vt 1.00000000 1.00000000
vt 0.00000000 1.00000000
vt 0.00000000 0.00000000
vt 1.00000000 0.00000000
vt 1.00000000 1.00000000
vt 0.00000000 1.00000000
vt 0.00000000 0.00000000
vt 1.00000000 0.00000000
vt 1.00000000 1.00000000
vt 0.00000000 1.00000000
vt 0.00000000 0.00000000
vt 1.00000000 0.00000000
vt 1.00000000 1.00000000
vt 0.00000000 1.00000000
vn 0.00000000 0.00000000 1.00000000
vn 0.00000000 0.00000000 1.00000000
vn 0.00000000 0.00000000 1.00000000
vn 0.00000000 0.00000000 1.00000000
vn -1.00000000 0.00000000 0.00000000
vn -1.00000000 0.00000000 0.00000000
vn -1.00000000 0.00000000 0.00000000
vn -1.00000000 0.00000000 0.00000000
vn 0.00000000 0.00000000 -1.00000000
vn 0.00000000 0.00000000 -1.00000000
vn 0.00000000 0.00000000 -1.00000000
vn 0.00000000 0.00000000 -1.00000000
vn 0.00000000 1.00000000 0.00000000
vn 0.00000000 1.00000000 0.00000000
vn 0.00000000 1.00000000 0.00000000
vn 0.00000000 1.00000000 0.00000000
vn 1.00000000 0.00000000 0.00000000
vn 1.00000000 0.00000000 0.00000000
vn 1.00000000 0.00000000 0.00000000
vn 1.00000000 0.00000000 0.00000000
vn 0.00000000 -1.00000000 0.00000000
vn 0.00000000 -1.00000000 0.00000000
vn 0.00000000 -1.00000000 0.00000000
vn 0.00000000 -1.00000000 0.00000000
s 1
usemtl Wood_Dark
f 33/97/97 34/98/98 36/100/100
f 34/98/98 35/99/99 36/100/100
s 2
f 33/101/101 37/102/102 34/104/104
f 37/102/102 38/103/103 34/104/104
s 3
f 40/108/108 39/107/107 37/105/105
f 39/107/107 38/106/106 37/105/105
s 4
f 36/112/112 40/111/111 33/109/109
f 40/111/111 37/110/110 33/109/109
s 5
f 35/116/116 39/115/115 36/113/113
f 39/115/115 40/114/114 36/113/113
s 6
f 34/117/117 38/118/118 39/119/119
f 34/117/117 39/119/119 35/120/120
o object5
g object5
v -1.15000000 1.29721360 0.47500000
v -1.15000000 0.89721360 0.47500000
v -1.10000000 0.89721360 0.47500000
v -1.10000000 1.29721360 0.47500000
v -1.10000000 1.29721360 0.52500000
v -1.10000000 0.89721360 0.52500000
v -1.15000000 1.29721360 0.52500000
v -1.15000000 0.89721360 0.52500000
vt 0.00000000 0.00000000
vt 1.00000000 0.00000000
vt 1.00000000 1.00000000
vt 0.00000000 1.00000000
vt 0.00000000 0.00000000
vt 1.00000000 0.00000000
vt 1.00000000 1.00000000
vt 0.00000000 1.00000000
vt 0.00000000 0.00000000
vt 1.00000000 0.00000000
vt 1.00000000 1.00000000
vt 0.00000000 1.00000000
vt 0.00000000 0.00000000
vt 1.00000000 0.00000000
vt 1.00000000 1.00000000
vt 0.00000000 1.00000000
vt 0.00000000 0.00000000
vt 1.00000000 0.00000000
vt 1.00000000 1.00000000
vt 0.00000000 1.00000000
vt 0.00000000 0.00000000
vt 1.00000000 0.00000000
vt 1.00000000 1.00000000
vt 0.00000000 1.00000000
vn 0.00000000 0.00000000 -1.00000000
vn 0.00000000 0.00000000 -1.00000000
vn 0.00000000 0.00000000 -1.00000000
vn 0.00000000 0.00000000 -1.00000000
vn 1.00000000 0.00000000 0.00000000
vn 1.00000000 0.00000000 0.00000000
vn 1.00000000 0.00000000 0.00000000
vn 1.00000000 0.00000000 0.00000000
vn 0.00000000 0.00000000 1.00000000
vn 0.00000000 0.00000000 1.00000000
vn 0.00000000 0.00000000 1.00000000
vn 0.00000000 0.00000000 1.00000000
vn 0.00000000 1.00000000 0.00000000
vn 0.00000000 1.00000000 0.00000000
vn 0.00000000 1.00000000 0.00000000
vn 0.00000000 1.00000000 0.00000000
vn -1.00000000 0.00000000 0.00000000
vn -1.00000000 0.00000000 0.00000000
vn -1.00000000 0.00000000 0.00000000
vn -1.00000000 0.00000000 0.00000000
vn 0.00000000 -1.00000000 0.00000000
vn 0.00000000 -1.00000000 0.00000000
vn 0.00000000 -1.00000000 0.00000000
vn 0.00000000 -1.00000000 0.00000000
s 1
usemtl Wood_Dark
f 44/124/124 43/123/123 41/121/121
f 43/123/123 42/122/122 41/121/121
s 2
f 46/128/128 43/127/127 45/125/125
f 43/127/127 44/126/126 45/125/125
s 3
f 47/129/129 48/130/130 45/132/132
f 48/130/130 46/131/131 45/132/132
s 4
f 45/136/136 44/135/135 47/133/133
f 44/135/135 41/134/134 47/133/133
s 5
f 47/137/137 41/138/138 48/140/140
f 41/138/138 42/139/139 48/140/140
s 6
f 48/141/141 42/142/142 43/143/143
f 48/141/141 43/143/143 46/144/144
o object6
g object6
v 0.50000000 0.44442719 0.55000000
v 0.50000000 0.53852549 0.55000000
v 0.50000000 0.53852549 0.45000000
v 0.50000000 0.44442719 0.45000000
v -1.50000000 1.44442719 0.45000000
v -1.50000000 1.53852549 0.45000000
v -1.50000000 1.53852549 0.55000000
v -1.50000000 1.44442719 0.55000000
vt 0.00000000 1.00000000
vt 0.00000000 0.00000000
vt 1.00000000 0.00000000
vt 1.00000000 1.00000000
vt 0.91399466 0.00000000
vt 1.00000000 0.00000000
vt 0.08600534 1.00000000
vt 0.00000000 1.00000000
vt 1.00000000 0.00000000
vt 1.00000000 1.00000000
vt 0.00000000 1.00000000
vt 0.00000000 0.00000000
vt 0.00000000 0.00000000
vt 1.00000000 0.00000000
vt 1.00000000 1.00000000
vt 0.00000000 1.00000000
vt 0.91399466 0.00000000
vt 1.00000000 0.00000000
vt 0.08600534 1.00000000
vt 0.00000000 1.00000000
vt 0.00000000 0.00000000
vt 1.00000000 0.00000000
vt 1.00000000 1.00000000
vt 0.00000000 1.00000000
vn 1.00000000 -0.00000000 0.00000000
vn 1.00000000 -0.00000000 0.00000000
vn 1.00000000 -0.00000000 0.00000000
vn 1.00000000 -0.00000000 0.00000000
vn -0.00000000 0.00000000 -1.00000000
vn -0.00000000 0.00000000 -1.00000000
vn -0.00000000 0.00000000 -1.00000000
vn -0.00000000 0.00000000 -1.00000000
vn -1.00000000 -0.00000000 -0.00000000
vn -1.00000000 -0.00000000 -0.00000000
vn -1.00000000 -0.00000000 -0.00000000
vn -1.00000000 -0.00000000 -0.00000000
vn -0.44721360 -0.89442719 -0.00000000
vn -0.44721360 -0.89442719 -0.00000000
vn -0.44721360 -0.89442719 -0.00000000
vn -0.44721360 -0.89442719 -0.00000000
vn 0.00000000 -0.00000000 1.00000000
vn 0.00000000 -0.00000000 1.00000000
vn 0.00000000 -0.00000000 1.00000000
vn 0.00000000 -0.00000000 1.00000000
vn 0.44721360 0.89442719 0.00000000
vn 0.44721360 0.89442719 0.00000000
vn 0.44721360 0.89442719 0.00000000
vn 0.44721360 0.89442719 0.00000000
s 1
usemtl Wood_Darker
f 52/148/148 51/147/147 50/146/146
f 52/148/148 50/146/146 49/145/145
s 2
f 53/149/149 54/150/150 51/151/151
f 53/149/149 51/151/151 52/152/152
s 3
f 56/156/156 55/155/155 53/153/153
f 55/155/155 54/154/154 53/153/153
s 4
f 56/157/157 53/158/158 49/160/160
f 53/158/158 52/159/159 49/160/160
s 5
f 49/164/164 50/163/163 56/161/161
f 50/163/163 55/162/162 56/161/161
s 6
f 50/168/168 51/167/167 54/166/166
f 50/168/168 54/166/166 55/165/165
o object7
g object7
v -1.50000000 1.10971360 0.60000000
v 0.50000000 0.10971360 0.60000000
v 0.50000000 -0.14409830 0.60000000
v -1.50000000 0.85590170 0.60000000
v 0.50000000 -0.14409830 0.40000000
v -1.50000000 0.85590170 0.40000000
v 0.50000000 0.10971360 0.40000000
v -1.50000000 1.10971360 0.40000000
v 0.50000000 0.14721360 0.43750000
v -1.50000000 1.14721360 0.43750000
v 0.50000000 0.14721360 0.56250000
v -1.50000000 1.14721360 0.56250000
vt 1.00000000 1.00000000
vt 0.00000000 1.00000000
vt 0.00000000 0.00000000
vt 1.00000000 0.00000000
vt 1.00000000 1.00000000
vt 0.00000000 1.00000000
vt 0.00000000 0.00000000
vt 1.00000000 0.00000000
vt 1.00000000 1.00000000
vt 0.00000000 1.00000000
vt 0.00000000 0.00000000
vt 1.00000000 0.00000000
vt 1.00000000 1.00000000
vt 0.00000000 1.00000000
vt 0.00000000 0.00000000
vt 1.00000000 0.00000000
vt 1.00000000 1.00000000
vt 0.00000000 1.00000000
vt 0.00000000 0.00000000
vt 1.00000000 0.00000000
vt 1.00000000 0.12872801
vt 1.00000000 1.00000000
vt 0.00000000 1.00000000
vt 0.00000000 0.12872801
vt 0.18750000 0.00000000
vt 0.81250000 0.00000000
vt 1.00000000 1.00000000
vt 0.00000000 1.00000000
vt 0.00000000 0.00000000
vt 1.00000000 0.00000000
vt 1.00000000 0.12872801
vt 1.00000000 1.00000000
vt 0.00000000 1.00000000
vt 0.00000000 0.12872801
vt 0.18750000 0.00000000
vt 0.81250000 0.00000000
vn 0.00000000 0.00000000 1.00000000
vn 0.00000000 0.00000000 1.00000000
vn 0.00000000 0.00000000 1.00000000
vn 0.00000000 0.00000000 1.00000000
vn -0.44721360 -0.89442719 0.00000000
vn -0.44721360 -0.89442719 0.00000000
vn -0.44721360 -0.89442719 0.00000000
vn -0.44721360 -0.89442719 0.00000000
vn 0.00000000 0.00000000 -1.00000000
vn 0.00000000 0.00000000 -1.00000000
vn -0.00000000 0.00000000 -1.00000000
vn -0.00000000 0.00000000 -1.00000000
vn 0.33333333 0.66666667 -0.66666667
vn 0.33333333 0.66666667 -0.66666667
vn 0.33333333 0.66666667 -0.66666667
vn 0.33333333 0.66666667 -0.66666667
vn 0.44721360 0.89442719 0.00000000
vn 0.44721360 0.89442719 0.00000000
vn 0.44721360 0.89442719 0.00000000
vn 0.44721360 0.89442719 0.00000000
vn -1.00000000 0.00000000 -0.00000000
vn -1.00000000 0.00000000 0.00000000
vn -1.00000000 0.00000000 0.00000000
vn -1.00000000 0.00000000 -0.00000000
vn -1.00000000 0.00000000 -0.00000000
vn -1.00000000 0.00000000 -0.00000000
vn 0.33333333 0.66666667 0.66666667
vn 0.33333333 0.66666667 0.66666667
vn 0.33333333 0.66666667 0.66666667
vn 0.33333333 0.66666667 0.66666667
vn 1.00000000 -0.00000000 0.00000000
vn 1.00000000 -0.00000000 0.00000000
vn 1.00000000 -0.00000000 0.00000000
vn 1.00000000 -0.00000000 0.00000000
vn 1.00000000 -0.00000000 0.00000000
vn 1.00000000 -0.00000000 0.00000000
s 1
usemtl Wood_Darker
f 60/172/172 59/171/171 58/170/170
f 60/172/172 58/170/170 57/169/169
s 2
f 62/176/176 61/175/175 59/174/174
f 62/176/176 59/174/174 60/173/173
s 3
f 64/180/180 63/179/179 62/177/177
f 63/179/179 61/178/178 62/177/177
s 4
f 66/184/184 65/183/183 64/181/181
f 65/183/183 63/182/182 64/181/181
s 5
f 68/188/188 67/187/187 65/186/186
f 68/188/188 65/186/186 66/185/185
s 6
f 68/193/193 66/194/194 64/189/189
f 64/189/189 62/190/190 60/191/191
f 60/191/191 57/192/192 64/189/189
f 57/192/192 68/193/193 64/189/189
s 7
f 57/198/198 58/197/197 67/196/196
f 57/198/198 67/196/196 68/195/195
s 8
f 63/199/199 65/204/204 67/203/203
f 59/201/201 61/200/200 63/199/199
f 63/199/199 58/202/202 59/201/201
f 63/199/199 67/203/203 58/202/202
o object8
g object8
v 0.35000000 0.54721360 0.52500000
v 0.35000000 0.54721360 0.47500000
v 0.40000000 0.54721360 0.47500000
v 0.40000000 0.54721360 0.52500000
v 0.40000000 0.14721360 0.47500000
v 0.40000000 0.14721360 0.52500000
v 0.35000000 0.14721360 0.52500000
v 0.35000000 0.14721360 0.47500000
vt 0.00000000 0.00000000
vt 1.00000000 0.00000000
vt 1.00000000 1.00000000
vt 0.00000000 1.00000000
vt 0.00000000 0.00000000
vt 1.00000000 0.00000000
vt 1.00000000 1.00000000
vt 0.00000000 1.00000000
vt 0.00000000 0.00000000
vt 1.00000000 0.00000000
vt 1.00000000 1.00000000
vt 0.00000000 1.00000000
vt 0.00000000 0.00000000
vt 1.00000000 0.00000000
vt 1.00000000 1.00000000
vt 0.00000000 1.00000000
vt 0.00000000 0.00000000
vt 1.00000000 0.00000000
vt 1.00000000 1.00000000
vt 0.00000000 1.00000000
vt 0.00000000 0.00000000
vt 1.00000000 0.00000000
vt 1.00000000 1.00000000
vt 0.00000000 1.00000000
vn 0.00000000 1.00000000 0.00000000
vn 0.00000000 1.00000000 0.00000000
vn 0.00000000 1.00000000 0.00000000
vn 0.00000000 1.00000000 0.00000000
vn 1.00000000 0.00000000 0.00000000
vn 1.00000000 0.00000000 0.00000000
vn 1.00000000 0.00000000 0.00000000
vn 1.00000000 0.00000000 0.00000000
vn 0.00000000 -1.00000000 0.00000000
vn 0.00000000 -1.00000000 0.00000000
vn 0.00000000 -1.00000000 0.00000000
vn 0.00000000 -1.00000000 0.00000000
vn 0.00000000 0.00000000 1.00000000
vn 0.00000000 0.00000000 1.00000000
vn 0.00000000 0.00000000 1.00000000
vn 0.00000000 0.00000000 1.00000000
vn -1.00000000 0.00000000 0.00000000
vn -1.00000000 0.00000000 0.00000000
vn -1.00000000 0.00000000 0.00000000
vn -1.00000000 0.00000000 0.00000000
vn 0.00000000 0.00000000 -1.00000000
vn 0.00000000 0.00000000 -1.00000000
vn 0.00000000 0.00000000 -1.00000000
vn 0.00000000 0.00000000 -1.00000000
s 1
usemtl Wood_Dark
f 72/208/208 71/207/207 69/205/205
f 71/207/207 70/206/206 69/205/205
s 2
f 74/212/212 73/211/211 72/209/209
f 73/211/211 71/210/210 72/209/209
s 3
f 75/213/213 76/214/214 73/215/215
f 75/213/213 73/215/215 74/216/216
s 4
f 69/217/217 75/218/218 72/220/220
f 75/218/218 74/219/219 72/220/220
s 5
f 69/221/221 70/222/222 75/224/224
f 70/222/222 76/223/223 75/224/224
s 6
f 71/228/228 73/227/227 70/225/225
f 73/227/227 76/226/226 70/225/225
o object9
g object9
v -0.65000000 1.04721360 0.47500000
v -0.65000000 0.64721360 0.47500000
v -0.60000000 0.64721360 0.47500000
v -0.60000000 1.04721360 0.47500000
v -0.60000000 1.04721360 0.52500000
v -0.60000000 0.64721360 0.52500000
v -0.65000000 1.04721360 0.52500000
v -0.65000000 0.64721360 0.52500000
vt 0.00000000 0.00000000
vt 1.00000000 0.00000000
vt 1.00000000 1.00000000
vt 0.00000000 1.00000000
vt 0.00000000 0.00000000
vt 1.00000000 0.00000000
vt 1.00000000 1.00000000
vt 0.00000000 1.00000000
vt 0.00000000 0.00000000
vt 1.00000000 0.00000000
vt 1.00000000 1.00000000
vt 0.00000000 1.00000000
vt 0.00000000 0.00000000
vt 1.00000000 0.00000000
vt 1.00000000 1.00000000
vt 0.00000000 1.00000000
vt 0.00000000 0.00000000
vt 1.00000000 0.00000000
vt 1.00000000 1.00000000
vt 0.00000000 1.00000000
vt 0.00000000 0.00000000
vt 1.00000000 0.00000000
vt 1.00000000 1.00000000
vt 0.00000000 1.00000000
vn 0.00000000 0.00000000 -1.00000000
vn 0.00000000 0.00000000 -1.00000000
vn 0.00000000 0.00000000 -1.00000000
vn 0.00000000 0.00000000 -1.00000000
vn 1.00000000 0.00000000 0.00000000
vn 1.00000000 0.00000000 0.00000000
vn 1.00000000 0.00000000 0.00000000
vn 1.00000000 0.00000000 0.00000000
vn 0.00000000 0.00000000 1.00000000
vn 0.00000000 0.00000000 1.00000000
vn 0.00000000 0.00000000 1.00000000
vn 0.00000000 0.00000000 1.00000000
vn 0.00000000 1.00000000 0.00000000
vn 0.00000000 1.00000000 0.00000000
vn 0.00000000 1.00000000 0.00000000
vn 0.00000000 1.00000000 0.00000000
vn -1.00000000 0.00000000 0.00000000
vn -1.00000000 0.00000000 0.00000000
vn -1.00000000 0.00000000 0.00000000
vn -1.00000000 0.00000000 0.00000000
vn 0.00000000 -1.00000000 0.00000000
vn 0.00000000 -1.00000000 0.00000000
vn 0.00000000 -1.00000000 0.00000000
vn 0.00000000 -1.00000000 0.00000000
s 1
usemtl Wood_Dark
f 80/232/232 79/231/231 77/229/229
f 79/231/231 78/230/230 77/229/229
s 2
f 82/236/236 79/235/235 81/233/233
f 79/235/235 80/234/234 81/233/233
s 3
f 83/237/237 84/238/238 81/240/240
f 84/238/238 82/239/239 81/240/240
s 4
f 81/244/244 80/243/243 83/241/241
f 80/243/243 77/242/242 83/241/241
s 5
f 83/245/245 77/246/246 84/248/248
f 77/246/246 78/247/247 84/248/248
s 6
f 84/249/249 78/250/250 79/251/251
f 84/249/249 79/251/251 82/252/252
