mtllib Materials_Modular_Village.mtl
o object1
g object1
v 0.50000000 0.10971360 0.40000000
v 0.50000000 -0.14409830 0.40000000
v -0.50000000 -0.14409830 0.40000000
v -0.50000000 0.10971360 0.40000000
v 0.50000000 0.14721360 0.56250000
v 0.50000000 0.14721360 0.43750000
v 0.50000000 -0.14409830 0.60000000
v 0.50000000 0.10971360 0.60000000
v -0.50000000 -0.14409830 0.60000000
v -0.50000000 0.10971360 0.60000000
v -0.50000000 0.14721360 0.56250000
v -0.50000000 0.14721360 0.43750000
vt 1.00000000 0.00000000
vt 1.00000000 1.00000000
vt 0.00000000 1.00000000
vt 0.00000000 0.00000000
vt 0.18750000 0.00000000
vt 0.81250000 0.00000000
vt 1.00000000 0.12872801
vt 1.00000000 1.00000000
vt 0.00000000 1.00000000
vt 0.00000000 0.12872801
vt 1.00000000 0.00000000
vt 1.00000000 1.00000000
vt 0.00000000 1.00000000
vt 0.00000000 0.00000000
vt 1.00000000 0.00000000
vt 1.00000000 1.00000000
vt 0.00000000 1.00000000
vt 0.00000000 0.00000000
vt 0.00000000 1.00000000
vt 0.00000000 0.00000000
vt 1.00000000 0.00000000
vt 1.00000000 1.00000000
vt 1.00000000 0.00000000
vt 1.00000000 1.00000000
vt 0.00000000 1.00000000
vt 0.00000000 0.00000000
vt 0.18750000 0.00000000
vt 0.81250000 0.00000000
vt 1.00000000 0.12872801
vt 1.00000000 1.00000000
vt 0.00000000 1.00000000
vt 0.00000000 0.12872801
vt 0.00000000 0.00000000
vt 1.00000000 0.00000000
vt 1.00000000 1.00000000
vt 0.00000000 1.00000000
vn 0.00000000 0.00000000 -1.00000000
vn 0.00000000 0.00000000 -1.00000000
vn 0.00000000 0.00000000 -1.00000000
vn 0.00000000 0.00000000 -1.00000000
vn 1.00000000 -0.00000000 -0.00000000
vn 1.00000000 -0.00000000 -0.00000000
vn 1.00000000 -0.00000000 -0.00000000
vn 1.00000000 -0.00000000 -0.00000000
vn 1.00000000 -0.00000000 -0.00000000
vn 1.00000000 -0.00000000 -0.00000000
vn -0.00000000 -0.00000000 1.00000000
vn -0.00000000 -0.00000000 1.00000000
vn -0.00000000 -0.00000000 1.00000000
vn -0.00000000 -0.00000000 1.00000000
vn 0.00000000 0.70710678 0.70710678
vn 0.00000000 0.70710678 0.70710678
vn 0.00000000 0.70710678 0.70710678
vn 0.00000000 0.70710678 0.70710678
vn 0.00000000 1.00000000 0.00000000
vn 0.00000000 1.00000000 0.00000000
vn 0.00000000 1.00000000 0.00000000
vn 0.00000000 1.00000000 0.00000000
vn 0.00000000 0.70710678 -0.70710678
vn 0.00000000 0.70710678 -0.70710678
vn 0.00000000 0.70710678 -0.70710678
vn 0.00000000 0.70710678 -0.70710678
vn -1.00000000 0.00000000 0.00000000
vn -1.00000000 0.00000000 0.00000000
vn -1.00000000 0.00000000 0.00000000
vn -1.00000000 0.00000000 0.00000000
vn -1.00000000 0.00000000 0.00000000
vn -1.00000000 0.00000000 0.00000000
vn 0.00000000 -1.00000000 0.00000000
vn 0.00000000 -1.00000000 0.00000000
vn 0.00000000 -1.00000000 0.00000000
vn 0.00000000 -1.00000000 0.00000000
s 1
usemtl Wood_Darker
f 1/1/1 2/2/2 4/4/4
f 2/2/2 3/3/3 4/4/4
s 2
f 6/6/6 5/5/5 8/10/10
f 1/7/7 8/10/10 7/9/9
f 7/9/9 2/8/8 1/7/7
f 1/7/7 6/6/6 8/10/10
s 3
f 10/14/14 9/13/13 7/12/12
f 10/14/14 7/12/12 8/11/11
s 4
f 8/15/15 5/16/16 10/18/18
f 5/16/16 11/17/17 10/18/18
s 5
f 12/19/19 11/20/20 5/21/21
f 12/19/19 5/21/21 6/22/22
s 6
f 6/23/23 1/24/24 12/26/26
f 1/24/24 4/25/25 12/26/26
s 7
f 10/32/32 11/27/27 12/28/28
f 4/29/29 9/31/31 10/32/32
f 4/29/29 3/30/30 9/31/31
f 10/32/32 12/28/28 4/29/29
s 8
f 9/33/33 3/34/34 2/35/35
f 9/33/33 2/35/35 7/36/36
o object2
g object2
v 0.25234857 0.33695699 0.46500000
v 0.00000000 0.28874134 0.46500000
v 0.00000000 0.32016297 0.48250000
v 0.24674497 0.36730796 0.48250000
v 0.25795217 0.30660603 0.48250000
v 0.00000000 0.25731970 0.48250000
v 0.25795217 0.30660603 0.51750000
v 0.00000000 0.25731970 0.51750000
v 0.25234857 0.33695699 0.53500000
v 0.00000000 0.28874134 0.53500000
v 0.24674497 0.36730796 0.51750000
v 0.00000000 0.32016297 0.51750000
v 0.48750000 0.47831814 0.53500000
v 0.47667468 0.50553007 0.51750000
v 0.47667468 0.50553007 0.48250000
v 0.48750000 0.47831814 0.46500000
v 0.49832532 0.45110621 0.51750000
v 0.49832532 0.45110621 0.48250000
v -0.24674497 0.36730796 0.51750000
v -0.25234857 0.33695699 0.53500000
v -0.24674497 0.36730796 0.48250000
v -0.47667468 0.50553007 0.48250000
v -0.47667468 0.50553007 0.51750000
v -0.25234857 0.33695699 0.46500000
v -0.48750000 0.47831814 0.46500000
v -0.25795217 0.30660603 0.48250000
v -0.49832532 0.45110621 0.48250000
v -0.25795217 0.30660603 0.51750000
v -0.49832532 0.45110621 0.51750000
v -0.48750000 0.47831814 0.53500000
vt 0.00000000 0.00000000
vt 1.00000000 0.00000000
vt 1.00000000 1.00000000
vt 0.00000000 1.00000000
vt 0.00000000 0.00000000
vt 1.00000000 0.00000000
vt 1.00000000 1.00000000
vt 0.00000000 1.00000000
vt 0.00000000 0.00000000
vt 1.00000000 0.00000000
vt 1.00000000 1.00000000
vt 0.00000000 1.00000000
vt 0.00000000 0.00000000
vt 1.00000000 0.00000000
vt 1.00000000 1.00000000
vt 0.00000000 1.00000000
vt 0.00000000 0.00000000
vt 1.00000000 0.00000000
vt 1.00000000 1.00000000
vt 0.00000000 1.00000000
vt 1.00000000 1.00000000
vt 0.00000000 1.00000000
vt 0.00000000 0.00000000
vt 1.00000000 0.00000000
vt 1.00000000 1.00000000
vt 0.00000000 1.00000000
vt 0.00000000 0.00000000
vt 1.00000000 0.00000000
vt 0.50000000 0.00000000
vt 1.00000000 0.25000000
vt 1.00000000 0.75000000
vt 0.50000000 1.00000000
vt 0.00000000 0.75000000
vt 0.00000000 0.25000000
vt 0.00000000 0.00000000
vt 1.00000000 0.00000000
vt 1.00000000 1.00000000
vt 0.00000000 1.00000000
vt 0.00000000 0.00000000
vt 1.00000000 0.00000000
vt 1.00000000 1.00000000
vt 0.00000000 1.00000000
vt 0.00000000 0.00000000
vt 1.00000000 0.00000000
vt 1.00000000 1.00000000
vt 0.00000000 1.00000000
vt 0.00000000 0.00000000
vt 1.00000000 0.00000000
vt 1.00000000 1.00000000
vt 0.00000000 1.00000000
vt 0.00000000 0.00000000
vt 1.00000000 0.00000000
vt 1.00000000 1.00000000
vt 0.00000000 1.00000000
vt 0.00000000 0.00000000
vt 1.00000000 0.00000000
vt 1.00000000 1.00000000
vt 0.00000000 1.00000000
vt 0.00000000 0.00000000
vt 1.00000000 0.00000000
vt 1.00000000 1.00000000
vt 0.00000000 1.00000000
vt 0.50000000 0.00000000
vt 1.00000000 0.25000000
vt 1.00000000 0.75000000
vt 0.50000000 1.00000000
vt 0.00000000 0.75000000
vt 0.00000000 0.25000000
vt 0.00000000 0.00000000
vt 1.00000000 0.00000000
vt 1.00000000 1.00000000
vt 0.00000000 1.00000000
vt 1.00000000 1.00000000
vt 0.00000000 1.00000000
vt 0.00000000 0.00000000
vt 1.00000000 0.00000000
vt 0.00000000 0.00000000
vt 1.00000000 0.00000000
vt 1.00000000 1.00000000
vt 0.00000000 1.00000000
vt 1.00000000 1.00000000
vt 0.00000000 1.00000000
vt 0.00000000 0.00000000
vt 1.00000000 0.00000000
vt 0.00000000 0.00000000
vt 1.00000000 0.00000000
vt 1.00000000 1.00000000
vt 0.00000000 1.00000000
vt 1.00000000 1.00000000
vt 0.00000000 1.00000000
vt 0.00000000 0.00000000
vt 1.00000000 0.00000000
vt 0.00000000 0.00000000
vt 1.00000000 0.00000000
vt 1.00000000 1.00000000
vt 0.00000000 1.00000000
vt 1.00000000 1.00000000
vt 0.00000000 1.00000000
vt 0.00000000 0.00000000
vt 1.00000000 0.00000000
vt 0.00000000 0.00000000
vt 1.00000000 0.00000000
vt 1.00000000 1.00000000
vt 0.00000000 1.00000000
vt 0.00000000 0.00000000
vt 1.00000000 0.00000000
vt 1.00000000 1.00000000
vt 0.00000000 1.00000000
vn -0.09256818 0.48447851 -0.86989178
vn -0.09256818 0.48447851 -0.86989178
vn -0.09256818 0.48447851 -0.86989178
vn -0.09256818 0.48447851 -0.86989178
vn 0.09256818 -0.48447851 -0.86989178
vn 0.09256818 -0.48447851 -0.86989178
vn 0.09256818 -0.48447851 -0.86989178
vn 0.09256818 -0.48447851 -0.86989178
vn 0.18767271 -0.98223162 0.00000000
vn 0.18767271 -0.98223162 0.00000000
vn 0.18767271 -0.98223162 0.00000000
vn 0.18767271 -0.98223162 0.00000000
vn 0.09256818 -0.48447851 0.86989178
vn 0.09256818 -0.48447851 0.86989178
vn 0.09256818 -0.48447851 0.86989178
vn 0.09256818 -0.48447851 0.86989178
vn -0.09256818 0.48447851 0.86989178
vn -0.09256818 0.48447851 0.86989178
vn -0.09256818 0.48447851 0.86989178
vn -0.09256818 0.48447851 0.86989178
vn -0.26687290 0.44393772 0.85539357
vn -0.26687290 0.44393772 0.85539357
vn -0.26687290 0.44393772 0.85539357
vn -0.26687290 0.44393772 0.85539357
vn -0.51521993 0.85705801 0.00000000
vn -0.51521993 0.85705801 0.00000000
vn -0.51521993 0.85705801 0.00000000
vn -0.51521993 0.85705801 0.00000000
vn 0.92917510 0.36963987 -0.00000000
vn 0.92917510 0.36963987 -0.00000000
vn 0.92917510 0.36963987 -0.00000000
vn 0.92917510 0.36963987 -0.00000000
vn 0.92917510 0.36963987 -0.00000000
vn 0.92917510 0.36963987 -0.00000000
vn 0.09256818 0.48447851 0.86989178
vn 0.09256818 0.48447851 0.86989178
vn 0.09256818 0.48447851 0.86989178
vn 0.09256818 0.48447851 0.86989178
vn 0.18767271 0.98223162 0.00000000
vn 0.18767271 0.98223162 0.00000000
vn 0.18767271 0.98223162 0.00000000
vn 0.18767271 0.98223162 0.00000000
vn 0.51521993 0.85705801 0.00000000
vn 0.51521993 0.85705801 0.00000000
vn 0.51521993 0.85705801 0.00000000
vn 0.51521993 0.85705801 0.00000000
vn 0.26687290 0.44393772 -0.85539357
vn 0.26687290 0.44393772 -0.85539357
vn 0.26687290 0.44393772 -0.85539357
vn 0.26687290 0.44393772 -0.85539357
vn -0.26687290 -0.44393772 -0.85539357
vn -0.26687290 -0.44393772 -0.85539357
vn -0.26687290 -0.44393772 -0.85539357
vn -0.26687290 -0.44393772 -0.85539357
vn -0.51521993 -0.85705801 0.00000000
vn -0.51521993 -0.85705801 0.00000000
vn -0.51521993 -0.85705801 0.00000000
vn -0.51521993 -0.85705801 0.00000000
vn -0.26687290 -0.44393772 0.85539357
vn -0.26687290 -0.44393772 0.85539357
vn -0.26687290 -0.44393772 0.85539357
vn -0.26687290 -0.44393772 0.85539357
vn -0.92917510 0.36963987 0.00000000
vn -0.92917510 0.36963987 0.00000000
vn -0.92917510 0.36963987 0.00000000
vn -0.92917510 0.36963987 0.00000000
vn -0.92917510 0.36963987 0.00000000
vn -0.92917510 0.36963987 0.00000000
vn 0.26687290 0.44393772 0.85539357
vn 0.26687290 0.44393772 0.85539357
vn 0.26687290 0.44393772 0.85539357
vn 0.26687290 0.44393772 0.85539357
vn 0.26687290 -0.44393772 0.85539357
vn 0.26687290 -0.44393772 0.85539357
vn 0.26687290 -0.44393772 0.85539357
vn 0.26687290 -0.44393772 0.85539357
vn -0.09256818 -0.48447851 0.86989178
vn -0.09256818 -0.48447851 0.86989178
vn -0.09256818 -0.48447851 0.86989178
vn -0.09256818 -0.48447851 0.86989178
vn 0.51521993 -0.85705801 0.00000000
vn 0.51521993 -0.85705801 0.00000000
vn 0.51521993 -0.85705801 0.00000000
vn 0.51521993 -0.85705801 0.00000000
vn -0.18767271 -0.98223162 0.00000000
vn -0.18767271 -0.98223162 0.00000000
vn -0.18767271 -0.98223162 0.00000000
vn -0.18767271 -0.98223162 0.00000000
vn 0.26687290 -0.44393772 -0.85539357
vn 0.26687290 -0.44393772 -0.85539357
vn 0.26687290 -0.44393772 -0.85539357
vn 0.26687290 -0.44393772 -0.85539357
vn -0.09256818 -0.48447851 -0.86989178
vn -0.09256818 -0.48447851 -0.86989178
vn -0.09256818 -0.48447851 -0.86989178
vn -0.09256818 -0.48447851 -0.86989178
vn -0.26687290 0.44393772 -0.85539357
vn -0.26687290 0.44393772 -0.85539357
vn -0.26687290 0.44393772 -0.85539357
vn -0.26687290 0.44393772 -0.85539357
vn -0.18767271 0.98223162 0.00000000
vn -0.18767271 0.98223162 0.00000000
vn -0.18767271 0.98223162 0.00000000
vn -0.18767271 0.98223162 0.00000000
vn 0.09256818 0.48447851 -0.86989178
vn 0.09256818 0.48447851 -0.86989178
vn 0.09256818 0.48447851 -0.86989178
vn 0.09256818 0.48447851 -0.86989178
s 1
usemtl Burlap
f 13/37/37 14/38/38 15/39/39
f 13/37/37 15/39/39 16/40/40
s 2
f 17/41/41 18/42/42 14/43/43
f 17/41/41 14/43/43 13/44/44
s 3
f 19/45/45 20/46/46 17/48/48
f 20/46/46 18/47/47 17/48/48
s 4
f 21/49/49 22/50/50 19/52/52
f 22/50/50 20/51/51 19/52/52
s 5
f 23/53/53 24/54/54 21/56/56
f 24/54/54 22/55/55 21/56/56
s 6
f 21/57/57 25/58/58 23/60/60
f 25/58/58 26/59/59 23/60/60
s 7
f 23/61/61 26/62/62 27/63/63
f 23/61/61 27/63/63 16/64/64
s 8
f 30/70/70 28/65/65 27/66/66
f 27/66/66 26/67/67 30/70/70
f 26/67/67 25/68/68 29/69/69
f 26/67/67 29/69/69 30/70/70
s 9
f 24/71/71 31/72/72 32/73/73
f 24/71/71 32/73/73 22/74/74
s 10
f 15/75/75 33/76/76 24/78/78
f 33/76/76 31/77/77 24/78/78
s 11
f 33/79/79 34/80/80 31/82/82
f 34/80/80 35/81/81 31/82/82
s 12
f 36/83/83 37/84/84 33/86/86
f 37/84/84 34/85/85 33/86/86
s 13
f 38/87/87 39/88/88 36/90/90
f 39/88/88 37/89/89 36/90/90
s 14
f 40/91/91 41/92/92 38/94/94
f 41/92/92 39/93/93 38/94/94
s 15
f 32/95/95 42/96/96 41/97/97
f 32/95/95 41/97/97 40/98/98
s 16
f 34/100/100 37/99/99 39/104/104
f 39/104/104 41/103/103 35/101/101
f 41/103/103 42/102/102 35/101/101
f 39/104/104 35/101/101 34/100/100
s 17
f 31/105/105 35/106/106 42/107/107
f 31/105/105 42/107/107 32/108/108
s 18
f 19/109/109 29/110/110 21/112/112
f 29/110/110 25/111/111 21/112/112
s 19
f 22/113/113 32/114/114 40/115/115
f 22/113/113 40/115/115 20/116/116
s 20
f 17/117/117 30/118/118 29/119/119
f 17/117/117 29/119/119 19/120/120
s 21
f 20/121/121 40/122/122 18/124/124
f 40/122/122 38/123/123 18/124/124
s 22
f 13/125/125 28/126/126 30/127/127
f 13/125/125 30/127/127 17/128/128
s 23
f 18/129/129 38/130/130 14/132/132
f 38/130/130 36/131/131 14/132/132
s 24
f 16/133/133 27/134/134 28/135/135
f 16/133/133 28/135/135 13/136/136
s 25
f 16/137/137 15/138/138 23/140/140
f 15/138/138 24/139/139 23/140/140
s 26
f 14/141/141 36/142/142 15/144/144
f 36/142/142 33/143/143 15/144/144
