# Blender v2.78 (sub 0) OBJ File: 'rocks.blend'
# www.blender.org
mtllib rock04.mtl
o Cube.012_Cube.004
v 0.231538 1.283624 0.246741
v -0.566392 1.283624 0.246742
v -0.566394 1.283624 -0.551188
v 0.231537 1.283624 -0.551189
v -0.187985 -0.147597 -0.124308
v -1.300817 0.812644 -0.307402
v -1.004326 0.009001 -0.225470
v -1.477127 0.009001 -0.225469
v -1.477128 0.009001 -0.698270
v -1.004327 0.009001 -0.698271
v -1.256928 -0.141798 -0.463379
v 0.261511 2.178554 0.510055
v 0.677903 0.691956 0.723345
v 0.233588 0.691956 0.723346
v 0.233587 0.691956 0.279030
v 0.677903 0.691956 0.279030
v 0.493209 -0.141798 0.567687
v -0.476453 2.599724 0.760394
v -0.055753 0.893574 1.078570
v -0.666777 0.893574 1.078570
v -0.666778 0.893574 0.467547
v -0.055754 0.893574 0.467546
v -0.395366 -0.159731 0.886090
v -1.109208 1.756626 0.511444
v -0.765662 0.480751 0.723490
v -1.351380 0.480751 0.723491
v -1.351380 0.480751 0.137774
v -0.765663 0.480751 0.137773
v -1.117912 -0.142279 0.475312
v -1.374891 1.155256 1.271779
v -1.116205 0.180307 1.504417
v -1.581861 0.180307 1.504418
v -1.581862 0.180307 1.038762
v -1.116206 0.180307 1.038761
v -1.387294 -0.141798 1.318330
v -0.603331 2.178554 -0.336471
v -0.327203 0.691956 -0.260474
v -0.771518 0.691956 -0.260474
v -0.771519 0.691956 -0.704789
v -0.327204 0.691956 -0.704790
v -0.590564 -0.141798 -0.493133
v 0.997166 -0.014709 0.171655
v 0.523376 -0.014709 0.171656
v 0.523375 -0.014709 -0.302134
v 0.997165 -0.014709 -0.302135
v 0.770668 -0.165508 -0.061480
v 0.749874 0.136089 -0.069000
v -0.348374 3.367691 0.018009
v 0.073389 3.367691 0.018009
v 0.073388 3.367691 -0.403755
v -0.348375 3.367691 -0.403754
v -1.007963 0.812644 -0.307403
v -1.007963 0.812644 -0.600257
v -1.300817 0.812644 -0.600257
v 0.516385 2.178554 0.510055
v 0.516384 2.178554 0.255181
v 0.261511 2.178554 0.255182
v -0.135605 2.599724 0.760393
v -0.135605 2.599724 0.419544
v -0.476454 2.599724 0.419545
v -0.764588 1.756626 0.511443
v -0.764588 1.756626 0.166824
v -1.109208 1.756626 0.166824
v -1.091564 1.155256 1.271779
v -1.091564 1.155256 0.988451
v -1.374892 1.155256 0.988452
v -0.348458 2.178554 -0.336471
v -0.348458 2.178554 -0.591345
v -0.603332 2.178554 -0.591344
v 0.148303 0.210208 0.199861
v 0.431020 1.283624 -0.152225
v 0.171102 2.520252 0.144423
v -0.167427 1.283624 0.446224
v -0.513994 0.210208 0.199862
v -0.470432 2.520252 0.144424
v -0.765876 1.283624 -0.152223
v -0.513995 0.210208 -0.462435
v -0.470433 2.520252 -0.497110
v -0.167429 1.283624 -0.750671
v 0.148302 0.210208 -0.462436
v 0.171101 2.520252 -0.497111
v -1.073808 -0.104098 -0.283933
v -0.886127 0.009001 -0.461871
v -0.999624 0.285311 -0.247688
v -1.240726 0.009001 -0.107270
v -1.431946 -0.104098 -0.283932
v -1.422460 0.285311 -0.247687
v -1.595328 0.009001 -0.461870
v -1.431947 -0.104098 -0.642071
v -1.422461 0.285311 -0.670524
v -1.240728 0.009001 -0.816471
v -1.073809 -0.104098 -0.642071
v -0.999625 0.285311 -0.670524
v 0.660242 0.066641 0.727461
v 0.788982 0.691956 0.501187
v 0.608885 1.480482 0.626866
v 0.455746 0.691956 0.834424
v 0.307444 0.066641 0.727461
v 0.231744 1.480482 0.626866
v 0.122509 0.691956 0.501188
v 0.307444 0.066641 0.374664
v 0.231744 1.480482 0.249726
v 0.455745 0.691956 0.167951
v 0.660241 0.066641 0.374663
v 0.608884 1.480482 0.249725
v -0.140386 0.103595 1.104285
v 0.097002 0.893574 0.773057
v -0.075895 1.846764 0.925280
v -0.361265 0.893574 1.231326
v -0.633294 0.103595 1.104286
v -0.584916 1.846764 0.925281
v -0.819533 0.893574 0.773059
v -0.633295 0.103595 0.611378
v -0.584917 1.846764 0.416260
v -0.361266 0.893574 0.314790
v -0.140387 0.103595 0.611378
v -0.075896 1.846764 0.416259
v -0.873973 0.013478 0.693233
v -0.619233 0.480751 0.430631
v -0.745546 1.111235 0.638291
v -1.058521 0.480751 0.869920
v -1.332155 0.013478 0.693233
v -1.251294 1.111235 0.638292
v -1.497809 0.480751 0.430633
v -1.332156 0.013478 0.235051
v -1.251295 1.111235 0.132544
v -1.058522 0.480751 -0.008656
v -0.873973 0.013478 0.235050
v -0.745546 1.111235 0.132543
v -1.199329 -0.061272 1.485044
v -0.999792 0.180307 1.271589
v -1.095264 0.585096 1.418537
v -1.349033 0.180307 1.620831
v -1.556128 -0.061272 1.485044
v -1.506639 0.585096 1.418538
v -1.698275 0.180307 1.271590
v -1.556129 -0.061272 1.128246
v -1.506640 0.585096 1.007164
v -1.349034 0.180307 0.922348
v -1.199330 -0.061272 1.128245
v -1.095265 0.585096 1.007163
v -0.403864 0.066641 -0.314109
v -0.216125 0.691956 -0.482632
v -0.321822 1.480482 -0.284130
v -0.549360 0.691956 -0.149395
v -0.756662 0.066641 -0.314109
v -0.698963 1.480482 -0.284129
v -0.882597 0.691956 -0.482631
v -0.756662 0.066641 -0.666906
v -0.698963 1.480482 -0.661270
v -0.549361 0.691956 -0.815868
v -0.403865 0.066641 -0.666906
v -0.321822 1.480482 -0.661271
v 0.947509 -0.127808 0.117020
v 1.115613 -0.014709 -0.065240
v 0.928375 0.098390 0.107842
v 0.760271 -0.014709 0.290102
v 0.588628 -0.127808 0.117021
v 0.576571 0.098390 0.107843
v 0.404928 -0.014709 -0.065239
v 0.588628 -0.127808 -0.241860
v 0.576570 0.098390 -0.243961
v 0.760270 -0.014709 -0.420582
v 0.947508 -0.127808 -0.241860
v 0.928375 0.098390 -0.243962
v -0.393357 3.530901 -0.196056
v -0.135148 3.530901 0.062153
v 0.123060 3.530901 -0.196056
v -0.135149 3.530901 -0.454265
v -1.317053 0.975855 -0.452197
v -1.136856 0.975855 -0.271999
v -0.956658 0.975855 -0.452197
v -1.136856 0.975855 -0.632394
v 0.225154 2.341765 0.369601
v 0.381614 2.341765 0.526060
v 0.538074 2.341765 0.369600
v 0.381614 2.341765 0.213141
v -0.509800 2.762935 0.572455
v -0.300745 2.762935 0.781509
v -0.091691 2.762935 0.572454
v -0.300746 2.762935 0.363400
v -1.133061 1.919837 0.327430
v -0.921339 1.919837 0.539150
v -0.709619 1.919837 0.327429
v -0.921340 1.919837 0.115708
v -1.388084 1.318467 1.106432
v -1.213841 1.318467 1.280675
v -1.039598 1.318467 1.106431
v -1.213841 1.318467 0.932188
v -0.624288 2.341765 -0.461852
v -0.467829 2.341765 -0.305393
v -0.311369 2.341765 -0.461852
v -0.467829 2.341765 -0.618312
v 0.299480 0.488501 -0.136716
v 0.315333 2.561054 -0.177140
v -0.178848 0.488501 0.341613
v -0.149079 2.561054 0.287273
v -0.178849 0.488501 -0.615043
v -0.149080 2.561054 -0.641552
v -0.657177 0.488501 -0.136714
v -0.613492 2.561054 -0.177139
v -0.985119 -0.074776 -0.462709
v -0.900276 0.326113 -0.458698
v -1.249727 -0.074776 -0.198100
v -1.206658 0.326113 -0.152315
v -1.249728 -0.074776 -0.727317
v -1.206660 0.326113 -0.765080
v -1.514336 -0.074776 -0.462708
v -1.513042 0.326113 -0.458697
v 0.734133 0.228759 0.538131
v 0.691630 1.521285 0.435041
v 0.476559 0.228759 0.795707
v 0.418481 1.521285 0.708191
v 0.476558 0.228759 0.280557
v 0.418480 1.521285 0.161892
v 0.218983 0.228759 0.538132
v 0.145331 1.521285 0.435042
v -0.021746 0.308405 0.835853
v 0.039521 1.887567 0.666391
v -0.380209 0.308405 1.194318
v -0.329085 1.887567 1.034998
v -0.380211 0.308405 0.477389
v -0.329086 1.887567 0.297785
v -0.738674 0.308405 0.835854
v -0.697692 1.887567 0.666392
v -0.755750 0.134623 0.455453
v -0.628180 1.152037 0.382491
v -1.091516 0.134623 0.791220
v -0.994530 1.152037 0.748842
v -1.091517 0.134623 0.119688
v -0.994531 1.152037 0.016141
v -1.427282 0.134623 0.455454
v -1.360881 1.152037 0.382492
v -1.107445 0.001360 1.297556
v -0.998058 0.625899 1.206929
v -1.370289 0.001360 1.560400
v -1.296105 0.625899 1.504977
v -1.370290 0.001360 1.034712
v -1.296106 0.625899 0.908883
v -1.633133 0.001360 1.297557
v -1.594152 0.625899 1.206930
v -0.314677 0.228759 -0.488466
v -0.235227 1.521285 -0.472187
v -0.572251 0.228759 -0.230891
v -0.508376 1.521285 -0.199036
v -0.572252 0.228759 -0.746040
v -0.508377 1.521285 -0.745336
v -0.829826 0.228759 -0.488465
v -0.781526 1.521285 -0.472186
v 1.031204 -0.098486 -0.063151
v 1.015770 0.069068 -0.067329
v 0.766047 -0.098486 0.202007
v 0.754495 0.069068 0.193947
v 0.766046 -0.098486 -0.328309
v 0.754494 0.069068 -0.328604
v 0.500889 -0.098486 -0.063150
v 0.493219 0.069068 -0.067328
v -0.130460 3.857324 -0.202423
v -1.101788 1.302277 -0.448931
v 0.366947 2.668187 0.343565
v -0.290177 3.089357 0.537426
v -0.890223 2.246259 0.304020
v -1.175068 1.644889 1.059065
v -0.451697 2.668187 -0.457741
vn 0.7073 -0.0056 0.7069
vn 0.6012 -0.5202 0.6065
vn 0.9629 -0.2698 0.0018
vn 0.9997 -0.0224 0.0003
vn 0.9907 0.1362 -0.0007
vn 0.7001 0.1421 0.6998
vn 0.0006 0.1684 0.9857
vn -0.0001 0.0101 0.9999
vn -0.0013 -0.2419 0.9703
vn -0.7071 0.0141 0.7070
vn -0.6084 -0.5085 0.6092
vn -0.6978 0.1615 0.6978
vn -0.9865 0.1635 -0.0008
vn -1.0000 0.0051 0.0002
vn -0.9692 -0.2461 0.0018
vn -0.7069 -0.0126 -0.7072
vn -0.6047 -0.5244 -0.5994
vn -0.7005 0.1352 -0.7007
vn 0.0005 0.1312 -0.9913
vn -0.0002 -0.0273 -0.9996
vn -0.0013 -0.2740 -0.9617
vn 0.7067 -0.0323 -0.7067
vn 0.5974 -0.5359 -0.5965
vn 0.7023 0.1156 -0.7024
vn -0.0083 -0.9999 0.0113
vn -0.6743 0.2836 0.6818
vn -0.8700 0.4930 0.0016
vn -0.9644 0.2646 0.0005
vn -0.6888 0.2187 0.6912
vn 0.0037 0.1553 0.9879
vn 0.0146 0.4096 0.9121
vn 0.0850 0.9963 0.0079
vn 0.6663 -0.3223 0.6724
vn 0.3539 -0.8613 0.3646
vn 0.5622 -0.8270 -0.0009
vn 0.9454 -0.3258 -0.0012
vn 0.9981 0.0606 0.0002
vn 0.7054 0.0728 0.7050
vn -0.0106 -0.2586 0.9659
vn -0.0113 -0.8077 0.5894
vn -0.6927 -0.2162 0.6880
vn -0.3969 -0.8345 0.3822
vn -0.9841 -0.1776 -0.0007
vn -0.6230 -0.7822 -0.0011
vn -0.6937 -0.2062 -0.6901
vn -0.3986 -0.8318 -0.3863
vn -0.6868 0.2317 -0.6889
vn 0.0041 0.1743 -0.9846
vn -0.0102 -0.2448 -0.9695
vn -0.0114 -0.8036 -0.5951
vn 0.6681 -0.3125 -0.6752
vn 0.3555 -0.8589 -0.3685
vn 0.7047 0.0868 -0.7041
vn -0.0050 -1.0000 -0.0005
vn -0.6970 0.1949 0.6901
vn -0.9409 0.3385 -0.0092
vn -0.9982 0.0601 -0.0015
vn -0.7027 0.1168 0.7018
vn -0.0019 0.1808 0.9835
vn -0.0067 0.4348 0.9005
vn -0.0371 0.9971 -0.0658
vn 0.7064 0.0554 0.7056
vn 0.6255 -0.4595 0.6305
vn 0.9771 -0.2123 0.0066
vn 0.9999 0.0130 0.0007
vn 0.9890 0.1475 -0.0028
vn 0.6961 0.1778 0.6956
vn 0.0001 0.0465 0.9989
vn 0.0036 -0.1824 0.9832
vn -0.7078 -0.0064 0.7064
vn -0.6034 -0.4983 0.6225
vn -0.9973 -0.0732 0.0022
vn -0.9576 -0.2879 0.0072
vn -0.7025 -0.1152 -0.7023
vn -0.5868 -0.5639 -0.5811
vn -0.7072 0.0058 -0.7070
vn -0.0006 0.0258 -0.9997
vn 0.0015 -0.1064 -0.9943
vn 0.0041 -0.3164 -0.9486
vn 0.7058 -0.0541 -0.7063
vn 0.6105 -0.5275 -0.5907
vn 0.7054 0.0686 -0.7055
vn 0.0278 -0.9984 0.0494
vn -0.6738 0.3158 0.6680
vn -0.8833 0.4685 -0.0157
vn -0.9870 0.1607 -0.0042
vn -0.6917 0.2120 0.6903
vn 0.0016 0.2308 0.9730
vn 0.0051 0.5180 0.8553
vn 0.0241 0.9965 -0.0799
vn 0.7080 0.0268 0.7057
vn 0.6020 -0.4994 0.6230
vn 0.9546 -0.2977 0.0102
vn 0.9985 -0.0548 0.0025
vn 0.9951 0.0985 -0.0030
vn 0.6978 0.1691 0.6960
vn 0.0002 0.0785 0.9969
vn -0.0027 -0.1824 0.9832
vn -0.7062 0.0711 0.7044
vn -0.6177 -0.4725 0.6286
vn -1.0000 0.0070 0.0010
vn -0.9695 -0.2449 0.0097
vn -0.7051 -0.0754 -0.7051
vn -0.5972 -0.5593 -0.5748
vn -0.7055 0.0667 -0.7055
vn 0.0004 0.0254 -0.9997
vn -0.0013 -0.1260 -0.9920
vn -0.0032 -0.3569 -0.9341
vn 0.7023 -0.1191 -0.7018
vn 0.5800 -0.5841 -0.5678
vn 0.7072 0.0216 -0.7067
vn -0.0184 -0.9980 0.0611
vn -0.6627 0.3451 0.6645
vn -0.8560 0.5168 -0.0113
vn -0.9716 0.2363 -0.0037
vn -0.6853 0.2451 0.6858
vn 0.0045 0.2145 0.9767
vn 0.0147 0.5015 0.8650
vn 0.0707 0.9961 -0.0532
vn 0.7046 -0.0806 0.7050
vn 0.5356 -0.6303 0.5620
vn 0.8730 -0.4877 0.0087
vn 0.9885 -0.1509 0.0034
vn 0.9985 0.0551 -0.0013
vn 0.7028 0.1185 0.7014
vn -0.0010 0.0023 1.0000
vn -0.0114 -0.3804 0.9247
vn -0.7061 0.0461 0.7066
vn -0.5834 -0.5688 0.5797
vn -0.9997 0.0241 0.0004
vn -0.9311 -0.3645 0.0085
vn -0.7060 -0.0494 -0.7065
vn -0.5704 -0.6153 -0.5440
vn -0.6980 0.1505 -0.7000
vn 0.0021 0.0781 -0.9969
vn -0.0041 -0.1295 -0.9915
vn -0.0116 -0.4731 -0.8809
vn 0.6961 -0.1741 -0.6965
vn 0.5204 -0.6742 -0.5241
vn 0.7069 0.0192 -0.7070
vn -0.0323 -0.9992 0.0243
vn -0.6583 0.3682 0.6565
vn -0.8723 0.4884 -0.0232
vn -0.9680 0.2507 -0.0075
vn -0.6748 0.3003 0.6741
vn 0.0066 0.2745 0.9615
vn 0.0195 0.5063 0.8621
vn 0.0946 0.9888 -0.1155
vn 0.7016 -0.1096 0.7041
vn 0.4870 -0.6958 0.5278
vn 0.7767 -0.6295 0.0183
vn 0.9747 -0.2232 0.0102
vn 0.9997 0.0244 -0.0015
vn 0.7011 0.1461 0.6979
vn -0.0013 0.0038 1.0000
vn -0.0161 -0.5018 0.8648
vn -0.7068 0.0408 0.7062
vn -0.5449 -0.6335 0.5492
vn -0.9998 -0.0193 0.0026
vn -0.8567 -0.5154 0.0196
vn -0.7020 -0.1423 -0.6978
vn -0.5183 -0.7091 -0.4780
vn -0.7017 0.1102 -0.7038
vn 0.0006 -0.0015 -1.0000
vn -0.0090 -0.2453 -0.9694
vn -0.0149 -0.6411 -0.7673
vn 0.6782 -0.2854 -0.6771
vn 0.4570 -0.7653 -0.4533
vn 0.7062 -0.0554 -0.7058
vn -0.0218 -0.9994 0.0267
vn -0.6916 0.1966 0.6950
vn -0.9109 0.4126 0.0018
vn -0.9883 0.1520 0.0005
vn -0.7019 0.1182 0.7024
vn 0.0013 0.0920 0.9958
vn 0.0062 0.3647 0.9311
vn 0.0408 0.9991 0.0104
vn 0.7053 -0.0727 0.7052
vn 0.5926 -0.5391 0.5985
vn 0.9563 -0.2922 -0.0011
vn 0.9970 -0.0776 -0.0003
vn 0.9984 0.0558 0.0002
vn 0.7062 0.0497 0.7063
vn -0.0010 -0.0423 0.9991
vn -0.0043 -0.2616 0.9651
vn -0.7067 -0.0049 0.7074
vn -0.6179 -0.4979 0.6084
vn -0.9998 0.0173 -0.0001
vn -0.9779 -0.2091 -0.0010
vn -0.7068 0.0124 -0.7073
vn -0.6203 -0.4872 -0.6147
vn -0.7004 0.1355 -0.7007
vn 0.0015 0.1165 -0.9932
vn -0.0008 -0.0181 -0.9998
vn -0.0042 -0.2405 -0.9706
vn 0.7061 -0.0555 -0.7059
vn 0.5952 -0.5288 -0.6051
vn 0.7055 0.0673 -0.7055
vn -0.0306 -0.9995 -0.0078
vn 0.7061 0.0434 0.7068
vn 0.3911 -0.8357 0.3856
vn 0.6108 -0.7917 0.0028
vn 0.9990 0.0449 -0.0004
vn 0.5618 0.8273 -0.0024
vn 0.3519 0.8654 0.3566
vn -0.0069 0.8190 0.5737
vn -0.0005 0.0233 0.9997
vn 0.0074 -0.8012 0.5983
vn -0.7070 -0.0042 0.7072
vn -0.3634 -0.8531 0.3742
vn -0.3786 0.8494 0.3676
vn -0.5997 0.8002 -0.0027
vn -0.9997 -0.0227 0.0002
vn -0.5719 -0.8203 0.0025
vn -0.7067 -0.0214 -0.7071
vn -0.3594 -0.8591 -0.3643
vn -0.3827 0.8433 -0.3774
vn -0.0071 0.8092 -0.5875
vn 0.0000 -0.0011 -1.0000
vn 0.0071 -0.8116 -0.5842
vn 0.7064 0.0261 -0.7073
vn 0.3869 -0.8421 -0.3756
vn 0.3558 0.8598 -0.3662
vn 0.0032 -1.0000 0.0011
vn -0.0033 1.0000 -0.0012
vn -0.6747 0.3003 0.6742
vn -0.8610 0.5085 -0.0029
vn 0.0021 0.5116 0.8592
vn 0.0096 0.9998 -0.0130
vn 0.6796 0.2834 0.6767
vn 0.8714 0.4905 -0.0028
vn 0.6825 0.2602 -0.6829
vn 0.0020 0.4872 -0.8733
vn -0.6779 0.2773 -0.6808
vn 0.7021 0.1459 0.6969
vn 0.9422 0.3349 0.0011
vn 0.7013 0.1591 -0.6949
vn 0.0150 0.4243 -0.9054
vn -0.6723 0.2959 -0.6785
vn 0.6851 0.2530 0.6830
vn 0.9126 0.4087 -0.0112
vn 0.6961 0.1488 -0.7024
vn -0.0047 0.3101 -0.9507
vn -0.7035 0.0884 -0.7051
vn 0.6846 0.2768 0.6743
vn 0.9058 0.4235 -0.0143
vn 0.6976 0.1411 -0.7024
vn 0.0037 0.3689 -0.9294
vn -0.6905 0.1829 -0.6998
vn 0.6939 0.2299 0.6823
vn 0.9225 0.3857 -0.0087
vn 0.7010 0.1382 -0.6996
vn 0.0121 0.4029 -0.9151
vn -0.6770 0.2592 -0.6888
vn 0.6969 0.2233 0.6815
vn 0.9500 0.3117 -0.0148
vn 0.7062 0.0310 -0.7073
vn 0.0111 0.2903 -0.9569
vn -0.6869 0.1893 -0.7016
vn 0.7019 0.1310 0.7001
vn 0.9421 0.3352 0.0014
vn 0.7009 0.1479 -0.6977
vn 0.0065 0.3844 -0.9231
vn -0.6898 0.2130 -0.6919
usemtl Material
s 1
f 1//1 70//2 194//3 71//4
f 1//1 71//4 195//5 72//6
f 1//1 72//6 197//7 73//8
f 1//1 73//8 196//9 70//2
f 2//10 74//11 196//9 73//8
f 2//10 73//8 197//7 75//12
f 2//10 75//12 201//13 76//14
f 2//10 76//14 200//15 74//11
f 3//16 77//17 200//15 76//14
f 3//16 76//14 201//13 78//18
f 3//16 78//18 199//19 79//20
f 3//16 79//20 198//21 77//17
f 4//22 80//23 198//21 79//20
f 4//22 79//20 199//19 81//24
f 4//22 81//24 195//5 71//4
f 4//22 71//4 194//3 80//23
f 5//25 70//2 196//9 74//11
f 5//25 74//11 200//15 77//17
f 5//25 77//17 198//21 80//23
f 5//25 80//23 194//3 70//2
f 6//26 170//27 209//28 87//29
f 6//26 87//29 205//30 171//31
f 6//26 171//31 259//32 170//27
f 7//33 82//34 202//35 83//36
f 7//33 83//36 203//37 84//38
f 7//33 84//38 205//30 85//39
f 7//33 85//39 204//40 82//34
f 8//41 86//42 204//40 85//39
f 8//41 85//39 205//30 87//29
f 8//41 87//29 209//28 88//43
f 8//41 88//43 208//44 86//42
f 9//45 89//46 208//44 88//43
f 9//45 88//43 209//28 90//47
f 9//45 90//47 207//48 91//49
f 9//45 91//49 206//50 89//46
f 10//51 92//52 206//50 91//49
f 10//51 91//49 207//48 93//53
f 10//51 93//53 203//37 83//36
f 10//51 83//36 202//35 92//52
f 11//54 82//34 204//40 86//42
f 11//54 86//42 208//44 89//46
f 11//54 89//46 206//50 92//52
f 11//54 92//52 202//35 82//34
f 12//55 174//56 217//57 99//58
f 12//55 99//58 213//59 175//60
f 12//55 175//60 260//61 174//56
f 13//62 94//63 210//64 95//65
f 13//62 95//65 211//66 96//67
f 13//62 96//67 213//59 97//68
f 13//62 97//68 212//69 94//63
f 14//70 98//71 212//69 97//68
f 14//70 97//68 213//59 99//58
f 14//70 99//58 217//57 100//72
f 14//70 100//72 216//73 98//71
f 15//74 101//75 216//73 100//72
f 15//74 100//72 217//57 102//76
f 15//74 102//76 215//77 103//78
f 15//74 103//78 214//79 101//75
f 16//80 104//81 214//79 103//78
f 16//80 103//78 215//77 105//82
f 16//80 105//82 211//66 95//65
f 16//80 95//65 210//64 104//81
f 17//83 94//63 212//69 98//71
f 17//83 98//71 216//73 101//75
f 17//83 101//75 214//79 104//81
f 17//83 104//81 210//64 94//63
f 18//84 178//85 225//86 111//87
f 18//84 111//87 221//88 179//89
f 18//84 179//89 261//90 178//85
f 19//91 106//92 218//93 107//94
f 19//91 107//94 219//95 108//96
f 19//91 108//96 221//88 109//97
f 19//91 109//97 220//98 106//92
f 20//99 110//100 220//98 109//97
f 20//99 109//97 221//88 111//87
f 20//99 111//87 225//86 112//101
f 20//99 112//101 224//102 110//100
f 21//103 113//104 224//102 112//101
f 21//103 112//101 225//86 114//105
f 21//103 114//105 223//106 115//107
f 21//103 115//107 222//108 113//104
f 22//109 116//110 222//108 115//107
f 22//109 115//107 223//106 117//111
f 22//109 117//111 219//95 107//94
f 22//109 107//94 218//93 116//110
f 23//112 106//92 220//98 110//100
f 23//112 110//100 224//102 113//104
f 23//112 113//104 222//108 116//110
f 23//112 116//110 218//93 106//92
f 24//113 182//114 233//115 123//116
f 24//113 123//116 229//117 183//118
f 24//113 183//118 262//119 182//114
f 25//120 118//121 226//122 119//123
f 25//120 119//123 227//124 120//125
f 25//120 120//125 229//117 121//126
f 25//120 121//126 228//127 118//121
f 26//128 122//129 228//127 121//126
f 26//128 121//126 229//117 123//116
f 26//128 123//116 233//115 124//130
f 26//128 124//130 232//131 122//129
f 27//132 125//133 232//131 124//130
f 27//132 124//130 233//115 126//134
f 27//132 126//134 231//135 127//136
f 27//132 127//136 230//137 125//133
f 28//138 128//139 230//137 127//136
f 28//138 127//136 231//135 129//140
f 28//138 129//140 227//124 119//123
f 28//138 119//123 226//122 128//139
f 29//141 118//121 228//127 122//129
f 29//141 122//129 232//131 125//133
f 29//141 125//133 230//137 128//139
f 29//141 128//139 226//122 118//121
f 30//142 186//143 241//144 135//145
f 30//142 135//145 237//146 187//147
f 30//142 187//147 263//148 186//143
f 31//149 130//150 234//151 131//152
f 31//149 131//152 235//153 132//154
f 31//149 132//154 237//146 133//155
f 31//149 133//155 236//156 130//150
f 32//157 134//158 236//156 133//155
f 32//157 133//155 237//146 135//145
f 32//157 135//145 241//144 136//159
f 32//157 136//159 240//160 134//158
f 33//161 137//162 240//160 136//159
f 33//161 136//159 241//144 138//163
f 33//161 138//163 239//164 139//165
f 33//161 139//165 238//166 137//162
f 34//167 140//168 238//166 139//165
f 34//167 139//165 239//164 141//169
f 34//167 141//169 235//153 131//152
f 34//167 131//152 234//151 140//168
f 35//170 130//150 236//156 134//158
f 35//170 134//158 240//160 137//162
f 35//170 137//162 238//166 140//168
f 35//170 140//168 234//151 130//150
f 36//171 190//172 249//173 147//174
f 36//171 147//174 245//175 191//176
f 36//171 191//176 264//177 190//172
f 37//178 142//179 242//180 143//181
f 37//178 143//181 243//182 144//183
f 37//178 144//183 245//175 145//184
f 37//178 145//184 244//185 142//179
f 38//186 146//187 244//185 145//184
f 38//186 145//184 245//175 147//174
f 38//186 147//174 249//173 148//188
f 38//186 148//188 248//189 146//187
f 39//190 149//191 248//189 148//188
f 39//190 148//188 249//173 150//192
f 39//190 150//192 247//193 151//194
f 39//190 151//194 246//195 149//191
f 40//196 152//197 246//195 151//194
f 40//196 151//194 247//193 153//198
f 40//196 153//198 243//182 143//181
f 40//196 143//181 242//180 152//197
f 41//199 142//179 244//185 146//187
f 41//199 146//187 248//189 149//191
f 41//199 149//191 246//195 152//197
f 41//199 152//197 242//180 142//179
f 42//200 154//201 250//202 155//203
f 42//200 155//203 251//204 156//205
f 42//200 156//205 253//206 157//207
f 42//200 157//207 252//208 154//201
f 43//209 158//210 252//208 157//207
f 43//209 157//207 253//206 159//211
f 43//209 159//211 257//212 160//213
f 43//209 160//213 256//214 158//210
f 44//215 161//216 256//214 160//213
f 44//215 160//213 257//212 162//217
f 44//215 162//217 255//218 163//219
f 44//215 163//219 254//220 161//216
f 45//221 164//222 254//220 163//219
f 45//221 163//219 255//218 165//223
f 45//221 165//223 251//204 155//203
f 45//221 155//203 250//202 164//222
f 46//224 154//201 252//208 158//210
f 46//224 158//210 256//214 161//216
f 46//224 161//216 254//220 164//222
f 46//224 164//222 250//202 154//201
f 47//225 162//217 257//212 159//211
f 47//225 159//211 253//206 156//205
f 47//225 156//205 251//204 165//223
f 47//225 165//223 255//218 162//217
f 48//226 166//227 201//13 75//12
f 48//226 75//12 197//7 167//228
f 48//226 167//228 258//229 166//227
f 49//230 167//228 197//7 72//6
f 49//230 72//6 195//5 168//231
f 49//230 168//231 258//229 167//228
f 50//232 168//231 195//5 81//24
f 50//232 81//24 199//19 169//233
f 50//232 169//233 258//229 168//231
f 51//234 169//233 199//19 78//18
f 51//234 78//18 201//13 166//227
f 51//234 166//227 258//229 169//233
f 52//235 171//31 205//30 84//38
f 52//235 84//38 203//37 172//236
f 52//235 172//236 259//32 171//31
f 53//237 172//236 203//37 93//53
f 53//237 93//53 207//48 173//238
f 53//237 173//238 259//32 172//236
f 54//239 173//238 207//48 90//47
f 54//239 90//47 209//28 170//27
f 54//239 170//27 259//32 173//238
f 55//240 175//60 213//59 96//67
f 55//240 96//67 211//66 176//241
f 55//240 176//241 260//61 175//60
f 56//242 176//241 211//66 105//82
f 56//242 105//82 215//77 177//243
f 56//242 177//243 260//61 176//241
f 57//244 177//243 215//77 102//76
f 57//244 102//76 217//57 174//56
f 57//244 174//56 260//61 177//243
f 58//245 179//89 221//88 108//96
f 58//245 108//96 219//95 180//246
f 58//245 180//246 261//90 179//89
f 59//247 180//246 219//95 117//111
f 59//247 117//111 223//106 181//248
f 59//247 181//248 261//90 180//246
f 60//249 181//248 223//106 114//105
f 60//249 114//105 225//86 178//85
f 60//249 178//85 261//90 181//248
f 61//250 183//118 229//117 120//125
f 61//250 120//125 227//124 184//251
f 61//250 184//251 262//119 183//118
f 62//252 184//251 227//124 129//140
f 62//252 129//140 231//135 185//253
f 62//252 185//253 262//119 184//251
f 63//254 185//253 231//135 126//134
f 63//254 126//134 233//115 182//114
f 63//254 182//114 262//119 185//253
f 64//255 187//147 237//146 132//154
f 64//255 132//154 235//153 188//256
f 64//255 188//256 263//148 187//147
f 65//257 188//256 235//153 141//169
f 65//257 141//169 239//164 189//258
f 65//257 189//258 263//148 188//256
f 66//259 189//258 239//164 138//163
f 66//259 138//163 241//144 186//143
f 66//259 186//143 263//148 189//258
f 67//260 191//176 245//175 144//183
f 67//260 144//183 243//182 192//261
f 67//260 192//261 264//177 191//176
f 68//262 192//261 243//182 153//198
f 68//262 153//198 247//193 193//263
f 68//262 193//263 264//177 192//261
f 69//264 193//263 247//193 150//192
f 69//264 150//192 249//173 190//172
f 69//264 190//172 264//177 193//263
